G04 EAGLE Gerber RS-274X export*
G75*
%MOMM*%
%FSLAX34Y34*%
%LPD*%
%INTop Copper*%
%IPPOS*%
%AMOC8*
5,1,8,0,0,1.08239X$1,22.5*%
G01*
%ADD10R,1.500000X1.500000*%
%ADD11R,1.803000X1.600000*%
%ADD12R,1.524000X0.762000*%
%ADD13C,1.524000*%
%ADD14C,1.422400*%
%ADD15R,3.000000X1.400000*%
%ADD16R,1.000000X1.200000*%
%ADD17R,3.400000X1.900000*%
%ADD18R,2.667000X2.540000*%
%ADD19R,0.762000X1.270000*%
%ADD20R,2.000000X1.100000*%
%ADD21R,0.800000X0.800000*%
%ADD22R,1.320800X1.320800*%
%ADD23C,1.320800*%
%ADD24R,1.525000X0.650000*%
%ADD25R,1.920000X1.920000*%
%ADD26C,1.920000*%
%ADD27R,1.950000X1.950000*%
%ADD28C,1.950000*%
%ADD29R,1.600000X1.803000*%
%ADD30R,1.803400X1.473200*%
%ADD31C,1.725000*%
%ADD32R,1.415000X0.450000*%
%ADD33R,0.508000X0.876300*%
%ADD34R,0.863600X0.482600*%
%ADD35R,1.500000X1.300000*%
%ADD36R,1.300000X1.500000*%
%ADD37R,1.600000X1.800000*%
%ADD38R,1.380000X0.450000*%
%ADD39R,2.100000X1.475000*%
%ADD40R,1.900000X1.175000*%
%ADD41R,1.900000X2.375000*%
%ADD42C,1.016000*%
%ADD43R,2.150000X2.200000*%
%ADD44R,2.200000X2.150000*%
%ADD45R,1.300000X1.600000*%
%ADD46C,2.520000*%
%ADD47R,1.000000X0.700000*%
%ADD48R,2.025000X1.275000*%
%ADD49C,5.300000*%
%ADD50C,5.000000*%
%ADD51R,1.000000X1.100000*%
%ADD52C,0.800000*%
%ADD53C,1.000000*%
%ADD54R,2.020000X2.950000*%
%ADD55R,0.450000X1.475000*%
%ADD56C,1.303000*%
%ADD57R,1.508000X1.508000*%
%ADD58C,0.508000*%
%ADD59C,1.016000*%
%ADD60C,0.254000*%
%ADD61C,0.914400*%
%ADD62C,1.219200*%
%ADD63C,0.406400*%
%ADD64C,0.812800*%

G36*
X378538Y75106D02*
X378538Y75106D01*
X378657Y75113D01*
X378695Y75126D01*
X378736Y75131D01*
X378846Y75174D01*
X378959Y75211D01*
X378994Y75233D01*
X379031Y75248D01*
X379127Y75318D01*
X379228Y75381D01*
X379256Y75411D01*
X379289Y75434D01*
X379365Y75526D01*
X379446Y75613D01*
X379466Y75648D01*
X379491Y75679D01*
X379542Y75787D01*
X379600Y75891D01*
X379610Y75931D01*
X379627Y75967D01*
X379649Y76084D01*
X379679Y76199D01*
X379683Y76260D01*
X379687Y76280D01*
X379685Y76300D01*
X379689Y76360D01*
X379689Y132240D01*
X379674Y132358D01*
X379667Y132477D01*
X379654Y132515D01*
X379649Y132556D01*
X379606Y132666D01*
X379569Y132779D01*
X379547Y132814D01*
X379532Y132851D01*
X379463Y132947D01*
X379399Y133048D01*
X379369Y133076D01*
X379346Y133109D01*
X379254Y133185D01*
X379167Y133266D01*
X379132Y133286D01*
X379101Y133311D01*
X378993Y133362D01*
X378889Y133420D01*
X378849Y133430D01*
X378813Y133447D01*
X378696Y133469D01*
X378581Y133499D01*
X378521Y133503D01*
X378501Y133507D01*
X378480Y133505D01*
X378420Y133509D01*
X312380Y133509D01*
X312262Y133494D01*
X312143Y133487D01*
X312105Y133474D01*
X312064Y133469D01*
X311954Y133426D01*
X311841Y133389D01*
X311806Y133367D01*
X311769Y133352D01*
X311673Y133283D01*
X311572Y133219D01*
X311544Y133189D01*
X311511Y133166D01*
X311436Y133074D01*
X311354Y132987D01*
X311334Y132952D01*
X311309Y132921D01*
X311258Y132813D01*
X311200Y132709D01*
X311190Y132669D01*
X311173Y132633D01*
X311151Y132516D01*
X311121Y132401D01*
X311117Y132341D01*
X311113Y132321D01*
X311115Y132300D01*
X311114Y132291D01*
X311113Y132288D01*
X311114Y132284D01*
X311111Y132240D01*
X311111Y76360D01*
X311126Y76242D01*
X311133Y76123D01*
X311146Y76085D01*
X311151Y76044D01*
X311194Y75934D01*
X311231Y75821D01*
X311253Y75786D01*
X311268Y75749D01*
X311338Y75653D01*
X311401Y75552D01*
X311431Y75524D01*
X311454Y75491D01*
X311546Y75416D01*
X311633Y75334D01*
X311668Y75314D01*
X311699Y75289D01*
X311807Y75238D01*
X311911Y75180D01*
X311951Y75170D01*
X311987Y75153D01*
X312104Y75131D01*
X312219Y75101D01*
X312280Y75097D01*
X312300Y75093D01*
X312320Y75095D01*
X312380Y75091D01*
X378420Y75091D01*
X378538Y75106D01*
G37*
%LPC*%
G36*
X336249Y109059D02*
X336249Y109059D01*
X336249Y113021D01*
X344596Y113021D01*
X344596Y111706D01*
X344505Y111369D01*
X344493Y111277D01*
X344471Y111187D01*
X344471Y111120D01*
X344462Y111053D01*
X344473Y110962D01*
X344474Y110869D01*
X344497Y110754D01*
X344499Y110738D01*
X344502Y110730D01*
X344505Y110711D01*
X344596Y110374D01*
X344596Y109059D01*
X336249Y109059D01*
G37*
%LPD*%
%LPC*%
G36*
X336249Y102559D02*
X336249Y102559D01*
X336249Y106521D01*
X344596Y106521D01*
X344596Y105206D01*
X344505Y104869D01*
X344493Y104777D01*
X344471Y104687D01*
X344471Y104620D01*
X344462Y104553D01*
X344473Y104462D01*
X344474Y104369D01*
X344497Y104254D01*
X344499Y104238D01*
X344502Y104230D01*
X344505Y104211D01*
X344596Y103874D01*
X344596Y102559D01*
X336249Y102559D01*
G37*
%LPD*%
%LPC*%
G36*
X336249Y96059D02*
X336249Y96059D01*
X336249Y100021D01*
X344596Y100021D01*
X344596Y98706D01*
X344505Y98369D01*
X344493Y98277D01*
X344471Y98187D01*
X344471Y98120D01*
X344462Y98053D01*
X344473Y97962D01*
X344474Y97869D01*
X344497Y97754D01*
X344499Y97738D01*
X344502Y97730D01*
X344505Y97711D01*
X344596Y97374D01*
X344596Y96059D01*
X336249Y96059D01*
G37*
%LPD*%
%LPC*%
G36*
X325364Y109059D02*
X325364Y109059D01*
X325364Y110374D01*
X325455Y110711D01*
X325467Y110803D01*
X325489Y110893D01*
X325489Y110960D01*
X325498Y111027D01*
X325487Y111118D01*
X325486Y111211D01*
X325463Y111326D01*
X325461Y111342D01*
X325458Y111350D01*
X325455Y111369D01*
X325364Y111706D01*
X325364Y113021D01*
X333711Y113021D01*
X333711Y109059D01*
X325364Y109059D01*
G37*
%LPD*%
%LPC*%
G36*
X325364Y102559D02*
X325364Y102559D01*
X325364Y103874D01*
X325455Y104211D01*
X325467Y104303D01*
X325489Y104393D01*
X325489Y104460D01*
X325498Y104527D01*
X325487Y104618D01*
X325486Y104711D01*
X325463Y104826D01*
X325461Y104842D01*
X325458Y104850D01*
X325455Y104869D01*
X325364Y105206D01*
X325364Y106521D01*
X333711Y106521D01*
X333711Y102559D01*
X325364Y102559D01*
G37*
%LPD*%
%LPC*%
G36*
X325364Y96059D02*
X325364Y96059D01*
X325364Y97374D01*
X325455Y97711D01*
X325467Y97803D01*
X325489Y97893D01*
X325489Y97960D01*
X325498Y98027D01*
X325487Y98118D01*
X325486Y98211D01*
X325463Y98326D01*
X325461Y98342D01*
X325458Y98350D01*
X325455Y98369D01*
X325364Y98706D01*
X325364Y100021D01*
X333711Y100021D01*
X333711Y96059D01*
X325364Y96059D01*
G37*
%LPD*%
%LPC*%
G36*
X336249Y115559D02*
X336249Y115559D01*
X336249Y119081D01*
X342389Y119081D01*
X343036Y118908D01*
X343615Y118573D01*
X344088Y118100D01*
X344423Y117521D01*
X344596Y116874D01*
X344596Y115559D01*
X336249Y115559D01*
G37*
%LPD*%
%LPC*%
G36*
X325364Y115559D02*
X325364Y115559D01*
X325364Y116874D01*
X325537Y117521D01*
X325872Y118100D01*
X326345Y118573D01*
X326924Y118908D01*
X327571Y119081D01*
X333711Y119081D01*
X333711Y115559D01*
X325364Y115559D01*
G37*
%LPD*%
%LPC*%
G36*
X336249Y89999D02*
X336249Y89999D01*
X336249Y93521D01*
X344596Y93521D01*
X344596Y92206D01*
X344423Y91559D01*
X344088Y90980D01*
X343615Y90507D01*
X343036Y90172D01*
X342389Y89999D01*
X336249Y89999D01*
G37*
%LPD*%
%LPC*%
G36*
X327571Y89999D02*
X327571Y89999D01*
X326924Y90172D01*
X326345Y90507D01*
X325872Y90980D01*
X325537Y91559D01*
X325364Y92206D01*
X325364Y93521D01*
X333711Y93521D01*
X333711Y89999D01*
X327571Y89999D01*
G37*
%LPD*%
D10*
X198230Y281910D03*
X198230Y316910D03*
X222200Y282390D03*
X222200Y317390D03*
D11*
X172230Y287140D03*
X172230Y315580D03*
X247160Y285870D03*
X247160Y314310D03*
D12*
X87800Y469140D03*
X37000Y469140D03*
X87800Y507240D03*
X37000Y507240D03*
D13*
X86320Y387510D02*
X101560Y387510D01*
X101560Y412910D02*
X86320Y412910D01*
X86320Y438310D02*
X101560Y438310D01*
X101560Y362110D02*
X86320Y362110D01*
X86320Y336710D02*
X101560Y336710D01*
D14*
X634960Y501048D02*
X634960Y515272D01*
X609560Y515272D02*
X609560Y501048D01*
X584160Y501048D02*
X584160Y515272D01*
X558760Y515272D02*
X558760Y501048D01*
X533360Y501048D02*
X533360Y515272D01*
X507960Y515272D02*
X507960Y501048D01*
X482560Y501048D02*
X482560Y515272D01*
X457160Y515272D02*
X457160Y501048D01*
X416520Y501048D02*
X416520Y515272D01*
X391120Y515272D02*
X391120Y501048D01*
X365720Y501048D02*
X365720Y515272D01*
X340320Y515272D02*
X340320Y501048D01*
X314920Y501048D02*
X314920Y515272D01*
X289520Y515272D02*
X289520Y501048D01*
X264120Y501048D02*
X264120Y515272D01*
X238720Y515272D02*
X238720Y501048D01*
X213320Y501048D02*
X213320Y515272D01*
X187920Y515272D02*
X187920Y501048D01*
D15*
X137504Y148242D03*
X185504Y148242D03*
D14*
X279360Y32672D02*
X279360Y18448D01*
X304760Y18448D02*
X304760Y32672D01*
X330160Y32672D02*
X330160Y18448D01*
X355560Y18448D02*
X355560Y32672D01*
X380960Y32672D02*
X380960Y18448D01*
X406360Y18448D02*
X406360Y32672D01*
X431760Y32672D02*
X431760Y18448D01*
X457160Y18448D02*
X457160Y32672D01*
X507960Y32672D02*
X507960Y18448D01*
X533360Y18448D02*
X533360Y32672D01*
X558760Y32672D02*
X558760Y18448D01*
X584160Y18448D02*
X584160Y32672D01*
X609560Y32672D02*
X609560Y18448D01*
X634960Y18448D02*
X634960Y32672D01*
X660360Y32672D02*
X660360Y18448D01*
X685760Y18448D02*
X685760Y32672D01*
X685760Y501048D02*
X685760Y515272D01*
X711160Y515272D02*
X711160Y501048D01*
X736560Y501048D02*
X736560Y515272D01*
X761960Y515272D02*
X761960Y501048D01*
X787360Y501048D02*
X787360Y515272D01*
X812760Y515272D02*
X812760Y501048D01*
X838160Y501048D02*
X838160Y515272D01*
X863560Y515272D02*
X863560Y501048D01*
X736560Y32672D02*
X736560Y18448D01*
X761960Y18448D02*
X761960Y32672D01*
X787360Y32672D02*
X787360Y18448D01*
X812760Y18448D02*
X812760Y32672D01*
X838160Y32672D02*
X838160Y18448D01*
X863560Y18448D02*
X863560Y32672D01*
X888960Y32672D02*
X888960Y18448D01*
X914360Y18448D02*
X914360Y32672D01*
D16*
X146264Y67900D03*
X146264Y89900D03*
D17*
X42632Y318364D03*
X42632Y279364D03*
D18*
X186792Y82456D03*
D19*
X163292Y82456D03*
D20*
X185776Y59088D03*
D21*
X166776Y59088D03*
D22*
X134580Y463710D03*
D23*
X160742Y463710D03*
X186904Y463710D03*
X213066Y463710D03*
X239228Y463710D03*
D22*
X302220Y462440D03*
D23*
X328382Y462440D03*
X354544Y462440D03*
X380706Y462440D03*
X406868Y462440D03*
D24*
X344950Y275750D03*
X344950Y263050D03*
X344950Y250350D03*
X344950Y237650D03*
X399190Y237650D03*
X399190Y250350D03*
X399190Y263050D03*
X399190Y275750D03*
D25*
X796250Y278290D03*
D26*
X819150Y278290D03*
X842050Y278290D03*
D27*
X654010Y273210D03*
D28*
X676910Y273210D03*
X699810Y273210D03*
D29*
X821400Y306230D03*
X849840Y306230D03*
X430740Y350680D03*
X402300Y350680D03*
X321020Y349410D03*
X349460Y349410D03*
X707600Y307500D03*
X679160Y307500D03*
D30*
X390993Y311310D03*
X431887Y311310D03*
X312253Y311310D03*
X353147Y311310D03*
D24*
X311930Y212250D03*
X311930Y199550D03*
X311930Y186850D03*
X311930Y174150D03*
X366170Y174150D03*
X366170Y186850D03*
X366170Y199550D03*
X366170Y212250D03*
D11*
X421600Y202340D03*
X421600Y173900D03*
D24*
X501360Y273800D03*
X501360Y261100D03*
X501360Y248400D03*
X501360Y235700D03*
X555600Y235700D03*
X555600Y248400D03*
X555600Y261100D03*
X555600Y273800D03*
D25*
X796450Y344920D03*
D26*
X819350Y344920D03*
X842250Y344920D03*
D27*
X652940Y339840D03*
D28*
X675840Y339840D03*
X698740Y339840D03*
D29*
X822470Y372950D03*
X850910Y372950D03*
X589290Y348820D03*
X560850Y348820D03*
X479570Y347550D03*
X508010Y347550D03*
X706530Y379210D03*
X678090Y379210D03*
D30*
X548673Y310630D03*
X589567Y310630D03*
X468663Y310630D03*
X509557Y310630D03*
D24*
X467070Y206490D03*
X467070Y193790D03*
X467070Y181090D03*
X467070Y168390D03*
X521310Y168390D03*
X521310Y181090D03*
X521310Y193790D03*
X521310Y206490D03*
D11*
X574680Y198730D03*
X574680Y170290D03*
D31*
X659290Y180090D03*
X684690Y180090D03*
X760890Y180090D03*
X786290Y180090D03*
X811690Y180090D03*
X837090Y180090D03*
X659290Y82300D03*
X684690Y82300D03*
X760890Y82300D03*
X786290Y82300D03*
X811690Y82300D03*
X837090Y82300D03*
D32*
X291140Y114290D03*
X291140Y107790D03*
X291140Y101290D03*
X291140Y94790D03*
X334980Y94790D03*
X334980Y101290D03*
X334980Y107790D03*
X334980Y114290D03*
D33*
X76460Y135896D03*
X85960Y135896D03*
X95460Y135896D03*
X95460Y162185D03*
X85960Y162185D03*
X76460Y162185D03*
D34*
X51412Y149700D03*
X51412Y168700D03*
X32108Y159200D03*
D11*
X217380Y116760D03*
X217380Y145200D03*
D35*
X217920Y60580D03*
X217920Y79580D03*
D36*
X294060Y62780D03*
X313060Y62780D03*
D11*
X266060Y92260D03*
X266060Y63820D03*
D37*
X118880Y210080D03*
X90880Y210080D03*
D38*
X39100Y235000D03*
X39100Y228500D03*
X39100Y222000D03*
X39100Y215500D03*
X39100Y209000D03*
D39*
X35500Y197475D03*
X35500Y246525D03*
D40*
X12500Y230375D03*
X12500Y213625D03*
D41*
X12500Y251125D03*
X12500Y192875D03*
D11*
X195540Y379640D03*
X195540Y408080D03*
X165060Y379640D03*
X165060Y408080D03*
D42*
X62190Y487840D03*
X26630Y24290D03*
X720558Y87282D03*
D43*
X157440Y201680D03*
X157440Y245680D03*
D44*
X196400Y23020D03*
X240400Y23020D03*
D36*
X799400Y307500D03*
X780400Y307500D03*
X657160Y307500D03*
X638160Y307500D03*
X799400Y373540D03*
X780400Y373540D03*
X654620Y378620D03*
X635620Y378620D03*
D45*
X431600Y383700D03*
X411600Y383700D03*
X589080Y378620D03*
X569080Y378620D03*
D46*
X32980Y349400D03*
X32980Y396400D03*
X32980Y443400D03*
D29*
X971760Y503080D03*
X943320Y503080D03*
D47*
X821080Y466860D03*
X821080Y447860D03*
X845080Y457360D03*
D48*
X949900Y382720D03*
X899140Y465960D03*
X899140Y382720D03*
X949900Y465960D03*
D49*
X110196Y85758D03*
D50*
X50196Y85758D03*
D49*
X80196Y38758D03*
D10*
X301940Y414180D03*
X266940Y414180D03*
X282180Y393860D03*
X317180Y393860D03*
D51*
X249760Y404020D03*
X232760Y404020D03*
X324200Y414180D03*
X341200Y414180D03*
D52*
X314920Y271940D03*
X457160Y269400D03*
D53*
X419060Y274480D03*
X274280Y223680D03*
X540980Y216060D03*
X441920Y236380D03*
X396200Y175420D03*
X548600Y167800D03*
X759420Y279560D03*
X627340Y266860D03*
X193000Y195740D03*
X226020Y221140D03*
X614640Y89060D03*
X208240Y221140D03*
X614640Y111920D03*
D54*
X924254Y77714D03*
X974254Y77714D03*
X924000Y243840D03*
X974000Y243840D03*
D55*
X528868Y465498D03*
X522368Y465498D03*
X515868Y465498D03*
X509368Y465498D03*
X502868Y465498D03*
X496368Y465498D03*
X489868Y465498D03*
X483368Y465498D03*
X476868Y465498D03*
X470368Y465498D03*
X470368Y406738D03*
X476868Y406738D03*
X483368Y406738D03*
X489868Y406738D03*
X496368Y406738D03*
X502868Y406738D03*
X509368Y406738D03*
X515868Y406738D03*
X522368Y406738D03*
X528868Y406738D03*
D52*
X320548Y259334D03*
X479298Y257302D03*
D56*
X500380Y89916D03*
X525780Y89916D03*
X551180Y89916D03*
X576580Y89916D03*
D10*
X749580Y464820D03*
X784580Y464820D03*
X739420Y441960D03*
X774420Y441960D03*
D57*
X919980Y147320D03*
X957480Y130320D03*
X957480Y164320D03*
X919980Y322580D03*
X957480Y305580D03*
X957480Y339580D03*
D58*
X89800Y209000D02*
X39100Y209000D01*
X313060Y62780D02*
X314920Y64640D01*
X314920Y83980D01*
X91400Y135896D02*
X85960Y135896D01*
X95460Y135896D02*
X96480Y135896D01*
D59*
X91400Y119032D02*
X91400Y117762D01*
X91400Y119032D02*
X91400Y135896D01*
D60*
X949920Y382740D02*
X949920Y404020D01*
D58*
X949920Y382740D02*
X949900Y382720D01*
D60*
X87800Y469140D02*
X65080Y469140D01*
X55840Y459900D02*
X55840Y449740D01*
D61*
X55840Y449740D03*
D60*
X55840Y459900D02*
X65080Y469140D01*
D59*
X684690Y82300D02*
X684690Y70210D01*
X670520Y56040D02*
X518120Y56040D01*
X670520Y56040D02*
X684690Y70210D01*
X684690Y82300D02*
X684690Y180090D01*
D60*
X360170Y101290D02*
X334980Y101290D01*
X360170Y101290D02*
X360640Y101760D01*
D61*
X360640Y101760D03*
D60*
X104100Y228760D02*
X90880Y215540D01*
D61*
X104100Y228760D03*
D58*
X91400Y119032D02*
X141692Y119032D01*
X152614Y108110D02*
X196810Y108110D01*
X152614Y108110D02*
X141692Y119032D01*
X185504Y148242D02*
X160866Y172880D01*
X159980Y172880D01*
D61*
X159980Y172880D03*
X469860Y284640D03*
X218400Y203360D03*
D60*
X949920Y404020D02*
X955000Y409100D01*
X955000Y437040D01*
D61*
X955000Y437040D03*
X264120Y142400D03*
D58*
X90880Y210080D02*
X89800Y209000D01*
X217920Y87000D02*
X217920Y79580D01*
X217920Y87000D02*
X196810Y108110D01*
X95460Y135896D02*
X91400Y135896D01*
D59*
X91400Y117762D02*
X63206Y117762D01*
X49998Y104554D01*
X49998Y85956D01*
D58*
X50196Y85758D01*
D60*
X282180Y393860D02*
X301940Y413620D01*
X301940Y414180D01*
X301940Y427160D01*
X237744Y437040D02*
X234422Y433718D01*
D61*
X234422Y433718D03*
D60*
X292060Y437040D02*
X301940Y427160D01*
X292060Y437040D02*
X237744Y437040D01*
X218400Y213520D02*
X218400Y203360D01*
X218400Y213520D02*
X226020Y221140D01*
X739420Y441960D02*
X739420Y447320D01*
X749580Y457480D02*
X749580Y464820D01*
X746760Y454660D02*
X739420Y447320D01*
X746760Y454660D02*
X749580Y457480D01*
X749580Y464820D02*
X749580Y477800D01*
X845080Y483340D02*
X845080Y469900D01*
X845080Y457360D01*
X762000Y490220D02*
X749580Y477800D01*
X762000Y490220D02*
X838200Y490220D01*
X845080Y483340D01*
X850574Y475394D02*
X845080Y469900D01*
X850574Y475394D02*
X855980Y475394D01*
D61*
X855980Y475394D03*
D59*
X500380Y89916D02*
X500380Y73780D01*
X518120Y56040D01*
D60*
X756920Y444500D02*
X746760Y454660D01*
X756920Y444500D02*
X756920Y434340D01*
D61*
X741680Y345440D03*
D60*
X772160Y394854D02*
X772160Y419100D01*
X772160Y394854D02*
X759460Y382154D01*
X759460Y322580D01*
X744220Y307340D01*
X772160Y419100D02*
X756920Y434340D01*
X721360Y312420D02*
X726440Y307340D01*
X744220Y307340D01*
X721360Y312420D02*
X721360Y325120D01*
X741680Y345440D01*
X90880Y215540D02*
X90880Y210080D01*
D61*
X365760Y236220D03*
X739588Y419748D03*
X499040Y207170D03*
X314920Y147480D03*
X454620Y327820D03*
D60*
X195540Y408080D02*
X165060Y408080D01*
X126960Y383700D02*
X119340Y391320D01*
X126960Y383700D02*
X137120Y383700D01*
X144740Y391320D02*
X144740Y401480D01*
X151340Y408080D01*
X165060Y408080D01*
X119340Y391320D02*
X119340Y448470D01*
X144740Y391320D02*
X137120Y383700D01*
D61*
X193000Y221140D03*
X886420Y61120D03*
X736694Y368006D03*
X899120Y365920D03*
D60*
X899120Y382700D01*
D58*
X899140Y382720D01*
D60*
X208240Y221140D02*
X193000Y221140D01*
X119340Y448470D02*
X134580Y463710D01*
D58*
X736694Y369378D02*
X736694Y368006D01*
X736694Y369378D02*
X734508Y372544D01*
X734508Y414668D02*
X739588Y419748D01*
X734508Y414668D02*
X734508Y372544D01*
D61*
X792480Y441960D03*
X401320Y143604D03*
D60*
X198230Y263200D02*
X198080Y263050D01*
X198230Y263200D02*
X198230Y281910D01*
D61*
X198080Y263050D03*
D60*
X196680Y315360D02*
X198230Y316910D01*
X196680Y315360D02*
X172230Y315580D01*
X222200Y317390D02*
X243860Y317390D01*
X247160Y314310D01*
D61*
X196810Y250350D03*
D60*
X212050Y250350D01*
X222210Y260510D01*
X222210Y282380D01*
X222200Y282390D01*
X93940Y438310D02*
X72350Y438310D01*
X63460Y429420D01*
X63460Y332900D01*
X76160Y320200D01*
X116800Y320200D01*
X250404Y356776D02*
X250404Y367168D01*
X223712Y393860D01*
X277836Y329344D02*
X277836Y318030D01*
X126960Y330360D02*
X116800Y320200D01*
X126960Y330360D02*
X126960Y371000D01*
X132040Y376080D01*
X137120Y376080D01*
X154900Y393860D01*
X223712Y393860D01*
X250404Y356776D02*
X277836Y329344D01*
X277836Y318030D02*
X306792Y289074D01*
X306792Y284640D02*
X320000Y284640D01*
X306792Y284640D02*
X306792Y289074D01*
X320000Y284640D02*
X332700Y297340D01*
D61*
X449540Y304960D03*
D60*
X449540Y302420D01*
X444460Y297340D01*
X332700Y297340D01*
D61*
X314920Y294800D03*
D60*
X335240Y365920D02*
X360640Y391320D01*
X396200Y391320D01*
X322540Y294800D02*
X314920Y294800D01*
X322540Y294800D02*
X327620Y299880D01*
X327620Y330360D01*
X335240Y337980D02*
X335240Y365920D01*
X335240Y337980D02*
X327620Y330360D01*
X396200Y391320D02*
X406360Y401480D01*
D61*
X406360Y401480D03*
X596860Y188120D03*
D60*
X596860Y203360D01*
X647660Y254160D01*
X708620Y254160D01*
X764500Y299880D02*
X764500Y378620D01*
X787360Y401480D01*
X873720Y401480D01*
X899140Y426900D02*
X899140Y465960D01*
X899140Y426900D02*
X873720Y401480D01*
X721320Y266860D02*
X708620Y254160D01*
X721320Y286980D02*
X726440Y292100D01*
X756720Y292100D02*
X764500Y299880D01*
X721320Y286980D02*
X721320Y266860D01*
X726440Y292100D02*
X756720Y292100D01*
D59*
X216428Y59088D02*
X185776Y59088D01*
X216428Y59088D02*
X217920Y60580D01*
X217920Y43820D01*
X218400Y43340D01*
D62*
X218400Y43340D03*
D60*
X291140Y107790D02*
X291140Y111920D01*
X291140Y114290D01*
D58*
X225480Y60580D02*
X217920Y60580D01*
X225480Y60580D02*
X233640Y68740D01*
X233640Y99220D01*
X246340Y111920D01*
X291140Y111920D01*
D59*
X186792Y82456D02*
X186792Y60104D01*
X185776Y59088D01*
D61*
X302220Y233840D03*
D60*
X297140Y238920D01*
X268692Y310548D02*
X268692Y324634D01*
X258394Y334932D01*
X249388Y334932D01*
X297140Y282100D02*
X297140Y238920D01*
X297140Y282100D02*
X268692Y310548D01*
X241260Y343060D02*
X241260Y363380D01*
X236180Y368460D01*
X203160Y350680D02*
X203160Y335440D01*
X198080Y330360D01*
X139660Y330360D01*
X134580Y335440D01*
X153380Y379640D02*
X165060Y379640D01*
X241260Y343060D02*
X249388Y334932D01*
X236180Y368460D02*
X220940Y368460D01*
X203160Y350680D01*
X134580Y360840D02*
X134580Y335440D01*
X134580Y360840D02*
X153380Y379640D01*
X165060Y379640D02*
X165060Y343060D01*
D61*
X165060Y343060D03*
X320000Y233840D03*
D60*
X302220Y251620D01*
X302220Y287180D02*
X273264Y316136D01*
X302220Y287180D02*
X302220Y251620D01*
X273264Y316136D02*
X273264Y326528D01*
X260288Y339504D01*
X254976Y339504D01*
X245832Y348648D02*
X245832Y365274D01*
X231466Y379640D01*
X195540Y379640D01*
X245832Y348648D02*
X254976Y339504D01*
X195540Y345600D02*
X195540Y379640D01*
X195540Y345600D02*
X190460Y340520D01*
D61*
X190460Y340520D03*
X269200Y365920D03*
D60*
X261580Y365920D01*
X232760Y394740D02*
X232760Y404020D01*
X232760Y394740D02*
X261580Y365920D01*
D59*
X114338Y89900D02*
X110196Y85758D01*
X114338Y89900D02*
X146264Y89900D01*
D60*
X105020Y507240D02*
X87800Y507240D01*
X105020Y507240D02*
X106640Y505620D01*
D61*
X106640Y505620D03*
D63*
X66508Y277020D02*
X66508Y248572D01*
X53808Y277020D02*
X53808Y279364D01*
X42632Y279364D01*
D61*
X66508Y277020D03*
D63*
X53808Y277020D01*
X52936Y235000D02*
X39100Y235000D01*
X52936Y235000D02*
X66508Y248572D01*
D61*
X105624Y261272D03*
D60*
X93432Y261272D01*
X60660Y228500D02*
X39100Y228500D01*
X60660Y228500D02*
X93432Y261272D01*
X100544Y252128D02*
X119848Y252128D01*
D61*
X125944Y262288D03*
D60*
X125944Y258224D01*
X119848Y252128D01*
X70416Y222000D02*
X39100Y222000D01*
X70416Y222000D02*
X100544Y252128D01*
D64*
X146264Y67900D02*
X159996Y67900D01*
X163292Y63616D01*
X166776Y59088D01*
X163292Y63616D02*
X163292Y82456D01*
D58*
X247160Y247360D02*
X247160Y285870D01*
D61*
X275550Y265590D03*
D60*
X275550Y278290D01*
X267679Y286161D02*
X247160Y285870D01*
X267679Y286161D02*
X275550Y278290D01*
D58*
X172230Y287140D02*
X84863Y287367D01*
X193000Y236380D02*
X236180Y236380D01*
X247160Y247360D01*
X193000Y236380D02*
X172230Y257150D01*
X172230Y287140D01*
X172230Y257150D02*
X159080Y244000D01*
X118880Y230840D02*
X118880Y210080D01*
X132040Y244000D02*
X159080Y244000D01*
X132040Y244000D02*
X118880Y230840D01*
X53866Y318364D02*
X42632Y318364D01*
X53866Y318364D02*
X84863Y287367D01*
D61*
X190460Y299626D03*
D60*
X172230Y294350D02*
X172230Y287140D01*
X172230Y294350D02*
X177506Y299626D01*
X190460Y299626D01*
X172230Y260470D02*
X157440Y245680D01*
X172230Y260470D02*
X172230Y287140D01*
X380706Y442254D02*
X380706Y462440D01*
X380706Y442254D02*
X426720Y396240D01*
X470368Y404198D02*
X470368Y406738D01*
X470368Y404198D02*
X462410Y396240D01*
X426720Y396240D01*
X406868Y462440D02*
X414328Y469900D01*
X465966Y469900D02*
X470368Y465498D01*
X465966Y469900D02*
X414328Y469900D01*
D61*
X132040Y419260D03*
D60*
X147280Y470060D02*
X154900Y477680D01*
X147280Y470060D02*
X147280Y452280D01*
X132040Y437040D02*
X132040Y419260D01*
X132040Y437040D02*
X147280Y452280D01*
X154900Y477680D02*
X320000Y477680D01*
X328382Y469298D01*
X328382Y462440D01*
X528868Y418552D02*
X528868Y406738D01*
X522732Y424688D02*
X503566Y424688D01*
X498994Y429260D01*
D61*
X454660Y436880D03*
D60*
X522732Y424688D02*
X528868Y418552D01*
X462280Y429260D02*
X454660Y436880D01*
X462280Y429260D02*
X498994Y429260D01*
D61*
X132040Y398940D03*
D60*
X144740Y426880D02*
X162520Y444660D01*
X144740Y426880D02*
X144740Y416720D01*
X132040Y404020D01*
X132040Y398940D01*
X162520Y444660D02*
X343041Y444660D01*
X354544Y456163D01*
X354544Y462440D01*
X354544Y479004D01*
X528868Y476972D02*
X528868Y465498D01*
X365760Y490220D02*
X354544Y479004D01*
X365760Y490220D02*
X515620Y490220D01*
X528868Y476972D01*
D62*
X980400Y363380D03*
D58*
X635620Y378620D02*
X633080Y376080D01*
X633080Y348800D01*
X627340Y343060D01*
X627340Y327820D01*
X638160Y317000D02*
X638160Y307500D01*
X638160Y317000D02*
X627340Y327820D01*
D61*
X144740Y343060D03*
D58*
X772120Y315780D02*
X780400Y307500D01*
X772120Y365260D02*
X780400Y373540D01*
X772120Y365260D02*
X772120Y315780D01*
X780400Y373540D02*
X780400Y381820D01*
X792440Y393860D01*
D61*
X533360Y269400D03*
D58*
X937220Y363380D02*
X980400Y363380D01*
X937220Y363380D02*
X927060Y373540D01*
X927060Y388780D01*
X921980Y393860D01*
X792440Y393860D01*
D60*
X614640Y89060D02*
X614640Y81440D01*
X607020Y73820D01*
X558660Y73820D01*
D61*
X429260Y457200D03*
D60*
X483368Y465498D02*
X489868Y465498D01*
X515868Y465498D02*
X515868Y450300D01*
X521184Y444984D01*
X540536Y444984D01*
X550060Y454508D01*
X550060Y457200D01*
X550060Y477520D01*
X555140Y482600D01*
X561340Y482600D01*
D61*
X561340Y482600D03*
X604520Y444500D03*
D60*
X599440Y457200D02*
X550060Y457200D01*
X604520Y452120D02*
X604520Y444500D01*
X604520Y452120D02*
X599440Y457200D01*
D58*
X627340Y327820D02*
X627340Y292140D01*
X627380Y292100D01*
X617220Y281940D01*
D61*
X624840Y248920D03*
D58*
X617220Y256540D02*
X617220Y281940D01*
X617220Y256540D02*
X624840Y248920D01*
D60*
X483368Y406738D02*
X483368Y415792D01*
X480060Y419100D01*
X468435Y419100D02*
X462280Y412945D01*
X462280Y411480D02*
X457200Y406400D01*
X447040Y406400D01*
X439420Y414020D01*
X468435Y419100D02*
X480060Y419100D01*
X462280Y412945D02*
X462280Y411480D01*
X489868Y465498D02*
X489868Y477168D01*
X492760Y480060D01*
X510540Y480060D01*
X515868Y474732D02*
X515868Y465498D01*
X515868Y474732D02*
X510540Y480060D01*
X483368Y406738D02*
X483368Y398162D01*
X515868Y393948D02*
X515868Y406738D01*
X508000Y391160D02*
X492252Y375412D01*
X513080Y391160D02*
X515868Y393948D01*
X513080Y391160D02*
X508000Y391160D01*
X439420Y414020D02*
X439420Y449580D01*
X431800Y457200D02*
X429260Y457200D01*
X431800Y457200D02*
X439420Y449580D01*
X551180Y89916D02*
X551180Y81300D01*
X558660Y73820D01*
X475673Y390467D02*
X483368Y398162D01*
X475673Y390467D02*
X475673Y382847D01*
X483108Y375412D02*
X492252Y375412D01*
X483108Y375412D02*
X475673Y382847D01*
D61*
X873720Y381160D03*
X528164Y340636D03*
X366512Y368206D03*
D60*
X584260Y111920D02*
X614640Y111920D01*
D61*
X759460Y416560D03*
D60*
X509368Y417732D02*
X509368Y406738D01*
X493268Y419608D02*
X490220Y416560D01*
X490220Y406738D01*
X507492Y419608D02*
X509368Y417732D01*
X507492Y419608D02*
X496097Y419608D01*
X493268Y419608D01*
D61*
X617220Y353060D03*
D60*
X493268Y419608D02*
X489204Y423672D01*
X459232Y423672D02*
X452120Y416560D01*
D61*
X452120Y416560D03*
D60*
X459232Y423672D02*
X489204Y423672D01*
D61*
X784860Y416560D03*
D60*
X584260Y111920D02*
X576580Y104240D01*
X576580Y89916D01*
D61*
X462280Y381000D03*
D60*
X496097Y407009D02*
X496368Y406738D01*
X496097Y407009D02*
X496097Y419608D01*
X490220Y406738D02*
X489868Y406738D01*
D59*
X676910Y305250D02*
X676910Y273210D01*
D58*
X676910Y305250D02*
X679160Y307500D01*
D59*
X676910Y305250D02*
X676910Y338770D01*
X675840Y339840D01*
X675840Y376960D01*
X678090Y379210D01*
X677500Y378620D01*
X654620Y378620D01*
X657160Y307500D02*
X679160Y307500D01*
D60*
X642580Y292260D02*
X627340Y277020D01*
X627340Y266860D01*
X655280Y292260D02*
X657820Y294800D01*
X657820Y306840D01*
X657160Y307500D01*
X655280Y292260D02*
X642580Y292260D01*
D59*
X819150Y303980D02*
X819150Y278290D01*
D58*
X819150Y303980D02*
X821400Y306230D01*
X820130Y307500D01*
D59*
X799400Y307500D01*
X819350Y308280D02*
X821400Y306230D01*
X819350Y308280D02*
X819350Y344920D01*
X819350Y369830D01*
X822470Y372950D01*
X799990Y372950D01*
X799400Y373540D01*
D60*
X759420Y287180D02*
X759420Y279560D01*
X797520Y294800D02*
X800060Y297340D01*
X800060Y306840D01*
X799400Y307500D01*
X767040Y294800D02*
X759420Y287180D01*
X767040Y294800D02*
X797520Y294800D01*
D58*
X842050Y278290D02*
X849840Y286080D01*
X849840Y306230D01*
D60*
X431760Y368460D02*
X431600Y368460D01*
X431600Y383700D01*
X431760Y368460D02*
X431760Y351700D01*
D58*
X430740Y350680D01*
D60*
X472440Y365760D02*
X520700Y365760D01*
X550318Y373380D02*
X552858Y375920D01*
X552858Y391884D01*
X567374Y406400D01*
X528320Y373380D02*
X520700Y365760D01*
X528320Y373380D02*
X550318Y373380D01*
X718820Y406400D02*
X726440Y398780D01*
X726440Y363220D01*
X731520Y358140D01*
X741680Y358140D01*
X746760Y363220D01*
D61*
X746760Y391160D03*
D60*
X718820Y406400D02*
X567374Y406400D01*
X746760Y391160D02*
X746760Y363220D01*
X472440Y365760D02*
X465974Y365760D01*
X459740Y359526D02*
X459740Y353060D01*
X457360Y350680D01*
X430740Y350680D01*
X459740Y359526D02*
X465974Y365760D01*
X707600Y307500D02*
X707600Y281000D01*
X699810Y273210D01*
X349460Y349410D02*
X349460Y369980D01*
X363180Y383700D01*
X411600Y383700D01*
X707600Y322740D02*
X707600Y307500D01*
X707600Y322740D02*
X721320Y336460D01*
X721320Y396400D02*
X716240Y401480D01*
X568920Y401480D01*
X721320Y396400D02*
X721320Y336460D01*
X568920Y401480D02*
X557430Y389990D01*
X416560Y378740D02*
X411600Y383700D01*
X416560Y378740D02*
X416560Y337820D01*
X421640Y332740D01*
X441960Y332740D01*
X454660Y345440D01*
X459740Y345440D01*
X464820Y350520D01*
X464820Y358140D01*
X467266Y360586D01*
X523146Y360586D01*
X530860Y368300D01*
X557430Y372010D02*
X557430Y389990D01*
X553720Y368300D02*
X530860Y368300D01*
X553720Y368300D02*
X557430Y372010D01*
D58*
X402300Y350680D02*
X402300Y329340D01*
X421600Y310040D01*
X430617Y310040D01*
X431887Y311310D01*
X312253Y311310D02*
X312253Y340643D01*
X321020Y349410D01*
X353147Y311310D02*
X370800Y311310D01*
X390993Y311310D01*
X399190Y250350D02*
X410170Y250350D01*
X421600Y238920D01*
X421600Y202340D01*
X421600Y238920D02*
X434300Y251620D01*
X434300Y271940D01*
D61*
X434300Y271940D03*
X370800Y332900D03*
D58*
X370800Y311310D01*
D60*
X374610Y275750D02*
X344950Y275750D01*
X374610Y275750D02*
X380960Y269400D01*
X380960Y241460D01*
X384770Y237650D02*
X399190Y237650D01*
X384770Y237650D02*
X380960Y241460D01*
X366170Y186850D02*
X346670Y186850D01*
X333970Y199550D02*
X311930Y199550D01*
X333970Y199550D02*
X346670Y186850D01*
X366170Y186850D02*
X387310Y186850D01*
X406360Y230480D02*
X399190Y237650D01*
X406360Y205900D02*
X387310Y186850D01*
X406360Y205900D02*
X406360Y230480D01*
X396200Y183040D02*
X396200Y175420D01*
X392390Y186850D02*
X387310Y186850D01*
X392390Y186850D02*
X396200Y183040D01*
D58*
X399190Y263050D02*
X415250Y263050D01*
X421600Y256700D01*
D61*
X421600Y256700D03*
D58*
X377150Y199550D02*
X366170Y199550D01*
X377150Y199550D02*
X388580Y210980D01*
D61*
X388580Y210980D03*
D60*
X419060Y266860D02*
X419060Y274480D01*
X419060Y266860D02*
X415250Y263050D01*
D58*
X290790Y222410D02*
X276820Y208440D01*
X276820Y188120D01*
X290790Y174150D02*
X311930Y174150D01*
X344950Y232570D02*
X344950Y237650D01*
X344950Y232570D02*
X334790Y222410D01*
X290790Y222410D01*
X276820Y188120D02*
X290790Y174150D01*
D61*
X276820Y188120D03*
D60*
X276820Y221140D02*
X274280Y223680D01*
X276820Y221140D02*
X276820Y208440D01*
D61*
X462280Y134620D03*
D58*
X622300Y170180D02*
X627380Y170180D01*
D61*
X627380Y170180D03*
D58*
X622300Y170180D02*
X584200Y132080D01*
X464820Y132080D02*
X462280Y134620D01*
X464820Y132080D02*
X584200Y132080D01*
D60*
X333970Y186850D02*
X311930Y186850D01*
X340320Y180500D02*
X340320Y165260D01*
X350480Y155100D01*
X411440Y155100D02*
X421600Y165260D01*
X421600Y173900D01*
X340320Y180500D02*
X333970Y186850D01*
X350480Y155100D02*
X411440Y155100D01*
D58*
X421600Y157640D02*
X421600Y173900D01*
X485140Y142400D02*
X581620Y142400D01*
X619720Y180500D01*
X619720Y193200D02*
X629880Y203360D01*
X744180Y216060D02*
X825460Y216060D01*
X744180Y216060D02*
X731480Y203360D01*
X629880Y203360D01*
D61*
X825460Y216060D03*
D58*
X619720Y193200D02*
X619720Y180500D01*
X825460Y216060D02*
X853400Y216060D01*
X866100Y203360D01*
X866100Y89060D01*
X877446Y77714D02*
X924254Y77714D01*
X877446Y77714D02*
X866100Y89060D01*
X485140Y142400D02*
X475140Y152400D01*
X426840Y152400D01*
X421600Y157640D01*
D62*
X878800Y452280D03*
D58*
X891500Y139660D02*
X891500Y114460D01*
X901660Y104300D01*
X967740Y104300D01*
X974254Y97786D02*
X974254Y77714D01*
X974254Y97786D02*
X967740Y104300D01*
X919980Y147320D02*
X899160Y147320D01*
X891500Y139660D01*
X589290Y348820D02*
X589080Y349030D01*
D60*
X589080Y378620D01*
X842250Y344920D02*
X850910Y353580D01*
X850910Y372950D01*
D61*
X607020Y386240D03*
D60*
X596700Y386240D01*
X589080Y378620D01*
X569080Y378620D02*
X569080Y365920D01*
X566540Y363380D01*
X533360Y363380D01*
X517530Y347550D02*
X508010Y347550D01*
X517530Y347550D02*
X533360Y363380D01*
X698740Y339840D02*
X706530Y347630D01*
X706530Y379210D01*
X706530Y390870D01*
X701000Y396400D01*
X579080Y396400D01*
X569080Y386400D02*
X569080Y378620D01*
X569080Y386400D02*
X579080Y396400D01*
D58*
X560850Y348820D02*
X589567Y320103D01*
X589567Y310630D01*
X479570Y347550D02*
X468663Y336643D01*
X468663Y310630D01*
X555600Y248400D02*
X569600Y248400D01*
X579760Y238240D02*
X579760Y203810D01*
X574680Y198730D01*
X579760Y238240D02*
X569600Y248400D01*
X548673Y297413D02*
X548673Y310630D01*
X548673Y297413D02*
X548600Y297340D01*
X561300Y284640D01*
X579080Y284640D01*
X591780Y271940D01*
X591780Y250260D02*
X579760Y238240D01*
X591780Y250260D02*
X591780Y271940D01*
X543593Y315710D02*
X514637Y315710D01*
X509557Y310630D01*
X543593Y315710D02*
X548673Y310630D01*
D60*
X489590Y193790D02*
X467070Y193790D01*
X502290Y181090D02*
X521310Y181090D01*
X502290Y181090D02*
X489590Y193790D01*
X521310Y181090D02*
X548600Y181090D01*
X551730Y181090D01*
X561300Y190660D01*
X561300Y230000D01*
X555600Y235700D01*
X548600Y181090D02*
X548600Y167800D01*
X516140Y273800D02*
X501360Y273800D01*
X516140Y273800D02*
X520700Y269240D01*
X520700Y256540D01*
X541540Y235700D01*
X555600Y235700D01*
D58*
X544110Y193790D02*
X521310Y193790D01*
X544110Y193790D02*
X551140Y200820D01*
D61*
X551140Y200820D03*
X579080Y266860D03*
D58*
X573320Y261100D01*
X555600Y261100D01*
D60*
X540980Y216060D02*
X551140Y205900D01*
X551140Y200820D01*
D58*
X467070Y168390D02*
X451490Y168390D01*
X441920Y177960D01*
X441920Y221140D01*
X449540Y228760D01*
X457160Y236380D01*
X500680Y236380D01*
X501360Y235700D01*
X516260Y235700D01*
X520660Y231300D01*
D61*
X520660Y231300D03*
D60*
X449540Y228760D02*
X441920Y236380D01*
X467070Y181090D02*
X487050Y181090D01*
X492720Y175420D01*
X492720Y157640D01*
X500340Y150020D01*
X574000Y150020D01*
X581620Y157640D01*
X581620Y168430D01*
D58*
X574680Y170290D02*
X596810Y170290D01*
X609560Y183040D01*
X609560Y205900D01*
D60*
X579760Y170290D02*
X574680Y170290D01*
X579760Y170290D02*
X581620Y168430D01*
D58*
X647914Y244254D02*
X901700Y244254D01*
X647914Y244254D02*
X609560Y205900D01*
X901700Y244254D02*
X923586Y244254D01*
X924000Y243840D01*
D61*
X901700Y231140D03*
D58*
X901700Y244254D01*
X891500Y287180D02*
X891500Y312580D01*
X891500Y287180D02*
X904200Y274480D01*
X965200Y274480D01*
X974000Y265680D02*
X974000Y243840D01*
X974000Y265680D02*
X965200Y274480D01*
X919980Y322580D02*
X901500Y322580D01*
X891500Y312580D01*
D60*
X83460Y149700D02*
X51412Y149700D01*
X83460Y149700D02*
X86320Y152560D01*
X86320Y161825D01*
X85960Y162185D01*
D58*
X32108Y159200D02*
X32108Y143272D01*
X53300Y135896D02*
X76460Y135896D01*
X53300Y135896D02*
X39485Y135896D01*
X32108Y143272D01*
X253800Y63820D02*
X266060Y63820D01*
X253800Y63820D02*
X246340Y71280D01*
X246340Y89060D01*
D61*
X246340Y89060D03*
X53300Y135896D03*
D58*
X266060Y63820D02*
X293020Y63820D01*
X294060Y62780D01*
X293020Y63820D02*
X291140Y65700D01*
D60*
X291140Y94790D01*
X291140Y65700D02*
X294060Y62780D01*
D59*
X56986Y174274D02*
X51412Y168700D01*
X56986Y174274D02*
X65752Y183040D01*
X138800Y183040D02*
X157440Y201680D01*
X76160Y183040D02*
X65752Y183040D01*
X76160Y183040D02*
X138800Y183040D01*
X137504Y181744D02*
X137504Y148242D01*
X137504Y181744D02*
X138800Y183040D01*
D58*
X76460Y182740D02*
X76460Y162185D01*
X76460Y182740D02*
X76160Y183040D01*
D59*
X157440Y201680D02*
X177760Y181360D01*
X193000Y181360D02*
X220080Y181360D01*
D62*
X220080Y181360D03*
D59*
X193000Y181360D02*
X177760Y181360D01*
D58*
X183868Y23020D02*
X196400Y23020D01*
X56986Y174274D02*
X26754Y174274D01*
X217380Y145200D02*
X220080Y147900D01*
X220080Y181360D01*
X15200Y162720D02*
X15200Y119540D01*
D61*
X15200Y119540D03*
X177760Y40800D03*
D58*
X177760Y29128D01*
X183868Y23020D01*
X26754Y174274D02*
X15200Y162720D01*
D60*
X193000Y181360D02*
X193000Y195740D01*
X95460Y162185D02*
X95460Y154596D01*
X200860Y116760D02*
X217380Y116760D01*
X117562Y132494D02*
X95460Y154596D01*
X117562Y132494D02*
X185126Y132494D01*
X200860Y116760D01*
X217380Y116760D02*
X233400Y116760D01*
X238720Y122080D02*
X238720Y221140D01*
X271740Y254160D01*
X281900Y254160D01*
X238720Y122080D02*
X233400Y116760D01*
D61*
X231100Y356776D03*
D60*
X286980Y259240D02*
X281900Y254160D01*
X286980Y259240D02*
X286980Y277020D01*
X264120Y299880D01*
X215860Y299880D01*
X210780Y304960D01*
X219416Y356776D02*
X231100Y356776D01*
X219416Y356776D02*
X210780Y348140D01*
X210780Y304960D01*
D61*
X744220Y256540D03*
D60*
X741680Y256540D01*
X731520Y266700D01*
X731520Y281940D01*
D61*
X731520Y281940D03*
D60*
X291140Y101290D02*
X270010Y101290D01*
X266060Y97340D01*
X266060Y92260D01*
D61*
X231100Y337980D03*
D60*
X291552Y257346D02*
X283794Y249588D01*
X273634Y249588D01*
X243800Y219754D02*
X243800Y134780D01*
X243800Y219754D02*
X273634Y249588D01*
X238720Y330360D02*
X231100Y337980D01*
X256500Y330360D02*
X264120Y322740D01*
X256500Y330360D02*
X238720Y330360D01*
X264120Y322740D02*
X264120Y307500D01*
X291552Y280068D01*
X291552Y257346D01*
X291140Y101290D02*
X299210Y101290D01*
X304760Y106840D01*
X304760Y122080D01*
X299680Y127160D01*
X251420Y127160D02*
X243800Y134780D01*
X251420Y127160D02*
X299680Y127160D01*
D61*
X426680Y437040D03*
X408900Y437040D03*
D58*
X240400Y37400D02*
X240400Y23020D01*
X373340Y45880D02*
X380960Y38260D01*
X380960Y25560D01*
X248880Y45880D02*
X240400Y37400D01*
X248880Y45880D02*
X373340Y45880D01*
D61*
X263104Y386240D03*
D60*
X270804Y378540D02*
X325000Y378540D01*
X270804Y378540D02*
X263104Y386240D01*
X325000Y378540D02*
X331040Y384580D01*
X341200Y406560D02*
X341200Y414180D01*
X341200Y406560D02*
X331040Y396400D01*
X331040Y384580D01*
D61*
X975320Y203360D03*
X718780Y221140D03*
D60*
X718780Y226220D02*
X723860Y231300D01*
X718780Y226220D02*
X718780Y221140D01*
X970240Y213520D02*
X975320Y208440D01*
X975320Y203360D01*
X970240Y213520D02*
X871822Y213520D01*
X854042Y231300D01*
X723860Y231300D01*
D61*
X975320Y282100D03*
X675600Y218600D03*
D60*
X693380Y218600D01*
X986750Y218600D02*
X994370Y226220D01*
X994370Y260510D02*
X975320Y279560D01*
X975320Y282100D01*
X994370Y260510D02*
X994370Y226220D01*
X711160Y236380D02*
X693380Y218600D01*
X711160Y236380D02*
X855940Y236380D01*
X873720Y218600D01*
X986750Y218600D01*
D61*
X810260Y416560D03*
D60*
X805180Y421640D01*
X817380Y466860D02*
X821080Y466860D01*
X805180Y454660D02*
X805180Y421640D01*
X805180Y454660D02*
X817380Y466860D01*
X949900Y465960D02*
X971760Y487820D01*
X971760Y503080D01*
X831900Y437040D02*
X821080Y447860D01*
X866100Y449740D02*
X866100Y470060D01*
X873720Y477680D01*
X943320Y488860D02*
X943320Y503080D01*
X853400Y437040D02*
X831900Y437040D01*
X853400Y437040D02*
X866100Y449740D01*
X873720Y477680D02*
X932140Y477680D01*
X943320Y488860D01*
X324200Y414180D02*
X317180Y407160D01*
X317180Y393860D01*
X259920Y414180D02*
X249760Y404020D01*
X259920Y414180D02*
X266940Y414180D01*
D61*
X655320Y429260D03*
X706120Y429260D03*
D60*
X655320Y429260D02*
X655320Y421640D01*
X657860Y419100D01*
X695960Y419100D02*
X706120Y429260D01*
X695960Y419100D02*
X657860Y419100D01*
D61*
X660400Y459740D03*
X723900Y477520D03*
D60*
X690880Y459740D02*
X660400Y459740D01*
X708660Y477520D02*
X723900Y477520D01*
X708660Y477520D02*
X690880Y459740D01*
D61*
X731520Y320040D03*
D60*
X744220Y320040D01*
X752308Y328128D02*
X752308Y381468D01*
X752308Y328128D02*
X744220Y320040D01*
X752308Y381468D02*
X756920Y386080D01*
X756920Y398780D01*
D61*
X731520Y459740D03*
D60*
X749300Y406400D02*
X756920Y398780D01*
X749300Y406400D02*
X749300Y426720D01*
X746760Y429260D01*
X728980Y429260D02*
X723900Y434340D01*
X723900Y454660D01*
X728980Y459740D02*
X731520Y459740D01*
X728980Y459740D02*
X723900Y454660D01*
X728980Y429260D02*
X746760Y429260D01*
X584200Y441960D02*
X574040Y452120D01*
D61*
X584200Y441960D03*
D60*
X509368Y443132D02*
X509368Y465498D01*
X509368Y443132D02*
X513080Y439420D01*
X543560Y439420D01*
X556260Y452120D01*
X574040Y452120D01*
X502868Y439472D02*
X502868Y465498D01*
X556260Y434340D02*
X561340Y439420D01*
X556260Y434340D02*
X508000Y434340D01*
D61*
X561340Y439420D03*
D60*
X508000Y434340D02*
X502868Y439472D01*
X496368Y438352D02*
X496368Y465498D01*
X496368Y438352D02*
X505460Y429260D01*
D61*
X711200Y462280D03*
D60*
X558800Y424180D02*
X553720Y429260D01*
X558800Y424180D02*
X566420Y424180D01*
X693420Y444500D02*
X711200Y462280D01*
X553720Y429260D02*
X505460Y429260D01*
X566420Y424180D02*
X574040Y431800D01*
X627380Y431800D01*
X640080Y444500D01*
X693420Y444500D01*
D61*
X622300Y444500D03*
D60*
X632460Y444500D02*
X640080Y452120D01*
X632460Y444500D02*
X622300Y444500D01*
X660400Y492760D02*
X660400Y510540D01*
D61*
X660400Y510540D03*
D60*
X640080Y472440D02*
X640080Y452120D01*
X640080Y472440D02*
X660400Y492760D01*
X502868Y406738D02*
X502868Y393648D01*
X495300Y386080D01*
X487680Y386080D01*
D61*
X487680Y386080D03*
D60*
X485100Y302420D02*
X482560Y299880D01*
X459700Y299880D02*
X452080Y292260D01*
X459700Y299880D02*
X482560Y299880D01*
X485100Y302420D02*
X485100Y320200D01*
X495260Y330360D01*
X571500Y304800D02*
X579120Y297180D01*
X604520Y297180D02*
X609600Y302260D01*
X609600Y335280D01*
D61*
X609600Y335280D03*
D60*
X566260Y330360D02*
X495260Y330360D01*
X566260Y330360D02*
X571500Y325120D01*
X571500Y304800D01*
X579120Y297180D02*
X604520Y297180D01*
X344950Y250350D02*
X310990Y250350D01*
X306792Y254548D01*
X335440Y292260D02*
X452080Y292260D01*
X335440Y292260D02*
X323248Y280068D01*
X310548Y280068D01*
X306792Y276312D01*
X306792Y271780D01*
X306792Y254548D01*
X314760Y271780D02*
X314920Y271940D01*
X314760Y271780D02*
X306792Y271780D01*
X331310Y263050D02*
X344950Y263050D01*
X331310Y263050D02*
X327660Y266700D01*
X327660Y269240D01*
X327660Y275674D01*
X339674Y287688D01*
X486994Y295308D02*
X490220Y298534D01*
X490220Y315628D02*
X497840Y323248D01*
X560672Y323248D01*
X455328Y287688D02*
X339674Y287688D01*
X455328Y287688D02*
X462948Y295308D01*
X486994Y295308D01*
X490220Y298534D02*
X490220Y315628D01*
X560672Y323248D02*
X563880Y320040D01*
X563880Y299720D01*
X604520Y274320D02*
X604520Y254000D01*
D61*
X604520Y254000D03*
D60*
X571500Y292100D02*
X563880Y299720D01*
X571500Y292100D02*
X586740Y292100D01*
X604520Y274320D01*
X327660Y266446D02*
X320548Y259334D01*
X327660Y266446D02*
X327660Y266700D01*
D61*
X505420Y292260D03*
D60*
X470060Y269400D02*
X457160Y269400D01*
X492920Y292260D02*
X505420Y292260D01*
X492920Y292260D02*
X470060Y269400D01*
X470420Y248400D02*
X501360Y248400D01*
X470420Y248400D02*
X464820Y254000D01*
X464820Y264160D01*
X470060Y269400D01*
X488200Y261100D02*
X501360Y261100D01*
X488200Y261100D02*
X485140Y264160D01*
X485140Y276860D01*
X525780Y281940D02*
X530860Y287020D01*
X530860Y297180D01*
X528320Y299720D01*
D61*
X528320Y299720D03*
D60*
X490220Y281940D02*
X485140Y276860D01*
X490220Y281940D02*
X525780Y281940D01*
X485140Y263144D02*
X479298Y257302D01*
X485140Y263144D02*
X485140Y264160D01*
D61*
X541020Y386080D03*
D60*
X476868Y398128D02*
X476868Y406738D01*
X444500Y391668D02*
X441960Y389128D01*
X470408Y391668D02*
X476868Y398128D01*
X470408Y391668D02*
X444500Y391668D01*
X464588Y370840D02*
X455168Y361420D01*
X519314Y370840D02*
X526426Y377952D01*
X537972Y377952D02*
X541020Y381000D01*
X537972Y377952D02*
X526426Y377952D01*
X541020Y381000D02*
X541020Y386080D01*
X519314Y370840D02*
X464588Y370840D01*
X455168Y361420D02*
X446300Y361420D01*
X441960Y365760D01*
X441960Y389128D01*
D61*
X485140Y439420D03*
D60*
X476868Y450232D02*
X476868Y465498D01*
X485140Y441960D02*
X485140Y439420D01*
X485140Y441960D02*
X476868Y450232D01*
X522368Y406738D02*
X522368Y390288D01*
D61*
X513080Y381000D03*
D60*
X522368Y390288D01*
X522368Y465498D02*
X521420Y466446D01*
X521420Y477954D01*
X514742Y484632D02*
X403352Y484632D01*
X514742Y484632D02*
X521420Y477954D01*
X403352Y484632D02*
X393700Y474980D01*
X423026Y406400D02*
X431800Y406400D01*
X393700Y435726D02*
X393700Y474980D01*
X393700Y435726D02*
X423026Y406400D01*
D61*
X431800Y406400D03*
X807720Y474980D03*
D60*
X802640Y474980D01*
X797922Y458492D02*
X791550Y452120D01*
X782320Y452120D01*
X774420Y444220D01*
X774420Y441960D01*
X797922Y470262D02*
X802640Y474980D01*
X797922Y470262D02*
X797922Y458492D01*
D61*
X787400Y480060D03*
D60*
X782040Y474700D01*
X782040Y467360D01*
X784580Y464820D01*
M02*
