M48
;GenerationSoftware,Autodesk,EAGLE,9.6.2*%
;CreationDate,2023-03-30T06:16:26Z*%
FMAT,2
ICI,OFF
METRIC,TZ,000.000
T13C0.508
T12C0.760
T11C0.813
T10C0.850
T9C1.000
T8C1.016
T7C1.150
T6C1.280
T5C1.300
T4C1.680
T3C3.162
T2C3.200
T1C3.640
%
G90
M71
T1
X8020Y3876
X11020Y8576
T2
X13966Y2556
X90166Y50816
X15236Y50816
X96516Y2556
T3
X5020Y8576
T4
X3298Y44340
X3298Y39640
X3298Y34940
T5
X99748Y33858
X69874Y33984
X65401Y27321
X67691Y27321
X69981Y27321
X99748Y30658
X99748Y16332
X65294Y33984
X67584Y33984
X99748Y13132
T6
X79625Y27829
X79645Y34492
X84205Y27829
X81915Y27829
X84225Y34492
X81935Y34492
T7
X78629Y8230
X68469Y8230
X65929Y8230
X83709Y18009
X81169Y18009
X78629Y18009
X76089Y18009
X68469Y18009
X65929Y18009
X76089Y8230
X83709Y8230
X81169Y8230
T8
X9394Y33671
X9394Y36211
X9394Y41291
X9394Y38751
X9394Y43831
T9
X95748Y33958
X95748Y13032
X95748Y16432
X91998Y32258
X95748Y30558
X91998Y14732
T10
X76196Y50816
X78736Y50816
X81276Y50816
X83816Y50816
X86356Y50816
X73656Y2556
X78736Y2556
X81276Y2556
X83816Y2556
X86356Y2556
X88896Y2556
X91436Y2556
X76196Y2556
X23872Y50816
X63496Y50816
X60956Y50816
X58416Y50816
X55876Y50816
X53336Y50816
X50796Y50816
X48256Y50816
X45716Y50816
X41652Y50816
X39112Y50816
X36572Y50816
X34032Y50816
X31492Y50816
X28952Y50816
X26412Y50816
X21332Y50816
X18792Y50816
X27936Y2556
X30476Y2556
X33016Y2556
X35556Y2556
X38096Y2556
X40636Y2556
X43176Y2556
X45716Y2556
X50796Y2556
X53336Y2556
X55876Y2556
X58416Y2556
X60956Y2556
X63496Y2556
X66036Y2556
X68576Y2556
X68576Y50816
X71116Y50816
X73656Y50816
T11
X21840Y4334
X18690Y46371
X98040Y36338
X13458Y46371
X16074Y46371
X21307Y46371
X23923Y46371
X30222Y46244
X32838Y46244
X35454Y46244
X38071Y46244
X40687Y46244
X22008Y18136
X87880Y45228
T12
X50038Y8992
X52578Y8992
X55118Y8992
X57658Y8992
T13
X19300Y22114
X88642Y6112
X73669Y36801
X89912Y36592
X79248Y44196
X40132Y14360
X19808Y26305
X19681Y25035
X44954Y30496
X31492Y29480
X40636Y40148
X59686Y18812
X30222Y23384
X16506Y34306
X32000Y23384
X19046Y34052
X26920Y36592
X10664Y50562
X6651Y27702
X10562Y26127
X12594Y26229
X27555Y26559
X19046Y29963
X13204Y41926
X45466Y43688
X13204Y39894
X14474Y34306
X53336Y26940
X42926Y45720
X56134Y48260
X60452Y44450
X87372Y38116
X52816Y34064
X36651Y36821
X75946Y41656
X61722Y35306
X45212Y41656
X78486Y41656
X46228Y38100
X74676Y39116
X43430Y27194
X37080Y33290
X42160Y25670
X38858Y21098
X27682Y18812
X62484Y24892
X78740Y48006
X80772Y47498
X43180Y40640
X26310Y38624
X51308Y38100
X62230Y44450
X48514Y43942
X54102Y38608
X52832Y29972
X50542Y29226
X60452Y25400
X60960Y33528
X36064Y10176
X10410Y22876
X66040Y51054
X15998Y17288
X46986Y28464
X21840Y20336
X95500Y43704
X26412Y14240
X23442Y43372
X85598Y47539
X71120Y46228
X56134Y43942
X58420Y44196
X73152Y45974
X73152Y32004
X72390Y47752
X66040Y45974
X70612Y42926
X65532Y42926
X81026Y41656
X67560Y21860
X5584Y44974
X97532Y28210
X71878Y22114
X97532Y20336
X40890Y43704
X42668Y43704
X23110Y33798
X73152Y28194
X74422Y25654
X23110Y35678
X17776Y4080
X1520Y11954
X74168Y34544
X5330Y13590
X24634Y8906
X90170Y23114
X52066Y23130
X57908Y26686
X55114Y20082
X36576Y23622
X73959Y41975
X49904Y20717
X31492Y14748
X60702Y38624
X45462Y32782
X82546Y21606
X62738Y17018
X46228Y13462
X48768Y38608
M30