G04 EAGLE Gerber RS-274X export*
G75*
%MOMM*%
%FSLAX34Y34*%
%LPD*%
%INSolderpaste Top*%
%IPPOS*%
%AMOC8*
5,1,8,0,0,1.08239X$1,22.5*%
G01*
%ADD10R,1.500000X1.500000*%
%ADD11R,1.803000X1.600000*%
%ADD12R,1.524000X0.762000*%
%ADD13R,3.000000X1.400000*%
%ADD14R,1.000000X1.200000*%
%ADD15R,3.400000X1.900000*%
%ADD16R,2.667000X2.540000*%
%ADD17R,0.762000X1.270000*%
%ADD18R,2.000000X1.100000*%
%ADD19R,0.800000X0.800000*%
%ADD20R,1.525000X0.650000*%
%ADD21R,1.600000X1.803000*%
%ADD22R,1.803400X1.473200*%
%ADD23R,1.415000X0.450000*%
%ADD24R,0.508000X0.876300*%
%ADD25R,0.863600X0.482600*%
%ADD26R,1.500000X1.300000*%
%ADD27R,1.300000X1.500000*%
%ADD28R,1.600000X1.800000*%
%ADD29R,1.380000X0.450000*%
%ADD30R,2.100000X1.475000*%
%ADD31R,1.900000X1.175000*%
%ADD32R,1.900000X2.375000*%
%ADD33C,1.016000*%
%ADD34R,2.150000X2.200000*%
%ADD35R,2.200000X2.150000*%
%ADD36R,1.300000X1.600000*%
%ADD37R,1.000000X0.700000*%
%ADD38R,2.025000X1.275000*%
%ADD39R,1.000000X1.100000*%
%ADD40R,2.020000X2.950000*%
%ADD41R,0.450000X1.475000*%


D10*
X198230Y281910D03*
X198230Y316910D03*
X222200Y282390D03*
X222200Y317390D03*
D11*
X172230Y287140D03*
X172230Y315580D03*
X247160Y285870D03*
X247160Y314310D03*
D12*
X87800Y469140D03*
X37000Y469140D03*
X87800Y507240D03*
X37000Y507240D03*
D13*
X137504Y148242D03*
X185504Y148242D03*
D14*
X146264Y67900D03*
X146264Y89900D03*
D15*
X42632Y318364D03*
X42632Y279364D03*
D16*
X186792Y82456D03*
D17*
X163292Y82456D03*
D18*
X185776Y59088D03*
D19*
X166776Y59088D03*
D20*
X344950Y275750D03*
X344950Y263050D03*
X344950Y250350D03*
X344950Y237650D03*
X399190Y237650D03*
X399190Y250350D03*
X399190Y263050D03*
X399190Y275750D03*
D21*
X821400Y306230D03*
X849840Y306230D03*
X430740Y350680D03*
X402300Y350680D03*
X321020Y349410D03*
X349460Y349410D03*
X707600Y307500D03*
X679160Y307500D03*
D22*
X390993Y311310D03*
X431887Y311310D03*
X312253Y311310D03*
X353147Y311310D03*
D20*
X311930Y212250D03*
X311930Y199550D03*
X311930Y186850D03*
X311930Y174150D03*
X366170Y174150D03*
X366170Y186850D03*
X366170Y199550D03*
X366170Y212250D03*
D11*
X421600Y202340D03*
X421600Y173900D03*
D20*
X501360Y273800D03*
X501360Y261100D03*
X501360Y248400D03*
X501360Y235700D03*
X555600Y235700D03*
X555600Y248400D03*
X555600Y261100D03*
X555600Y273800D03*
D21*
X822470Y372950D03*
X850910Y372950D03*
X589290Y348820D03*
X560850Y348820D03*
X479570Y347550D03*
X508010Y347550D03*
X706530Y379210D03*
X678090Y379210D03*
D22*
X548673Y310630D03*
X589567Y310630D03*
X468663Y310630D03*
X509557Y310630D03*
D20*
X467070Y206490D03*
X467070Y193790D03*
X467070Y181090D03*
X467070Y168390D03*
X521310Y168390D03*
X521310Y181090D03*
X521310Y193790D03*
X521310Y206490D03*
D11*
X574680Y198730D03*
X574680Y170290D03*
D23*
X291140Y114290D03*
X291140Y107790D03*
X291140Y101290D03*
X291140Y94790D03*
X334980Y94790D03*
X334980Y101290D03*
X334980Y107790D03*
X334980Y114290D03*
D24*
X76460Y135896D03*
X85960Y135896D03*
X95460Y135896D03*
X95460Y162185D03*
X85960Y162185D03*
X76460Y162185D03*
D25*
X51412Y149700D03*
X51412Y168700D03*
X32108Y159200D03*
D11*
X217380Y116760D03*
X217380Y145200D03*
D26*
X217920Y60580D03*
X217920Y79580D03*
D27*
X294060Y62780D03*
X313060Y62780D03*
D11*
X266060Y92260D03*
X266060Y63820D03*
D28*
X118880Y210080D03*
X90880Y210080D03*
D29*
X39100Y235000D03*
X39100Y228500D03*
X39100Y222000D03*
X39100Y215500D03*
X39100Y209000D03*
D30*
X35500Y197475D03*
X35500Y246525D03*
D31*
X12500Y230375D03*
X12500Y213625D03*
D32*
X12500Y251125D03*
X12500Y192875D03*
D11*
X195540Y379640D03*
X195540Y408080D03*
X165060Y379640D03*
X165060Y408080D03*
D33*
X62190Y487840D03*
X26630Y24290D03*
X720558Y87282D03*
D34*
X157440Y201680D03*
X157440Y245680D03*
D35*
X196400Y23020D03*
X240400Y23020D03*
D27*
X799400Y307500D03*
X780400Y307500D03*
X657160Y307500D03*
X638160Y307500D03*
X799400Y373540D03*
X780400Y373540D03*
X654620Y378620D03*
X635620Y378620D03*
D36*
X431600Y383700D03*
X411600Y383700D03*
X589080Y378620D03*
X569080Y378620D03*
D21*
X971760Y503080D03*
X943320Y503080D03*
D37*
X821080Y466860D03*
X821080Y447860D03*
X845080Y457360D03*
D38*
X949900Y382720D03*
X899140Y465960D03*
X899140Y382720D03*
X949900Y465960D03*
D10*
X301940Y414180D03*
X266940Y414180D03*
X282180Y393860D03*
X317180Y393860D03*
D39*
X249760Y404020D03*
X232760Y404020D03*
X324200Y414180D03*
X341200Y414180D03*
D40*
X924254Y77714D03*
X974254Y77714D03*
X924000Y243840D03*
X974000Y243840D03*
D41*
X528868Y465498D03*
X522368Y465498D03*
X515868Y465498D03*
X509368Y465498D03*
X502868Y465498D03*
X496368Y465498D03*
X489868Y465498D03*
X483368Y465498D03*
X476868Y465498D03*
X470368Y465498D03*
X470368Y406738D03*
X476868Y406738D03*
X483368Y406738D03*
X489868Y406738D03*
X496368Y406738D03*
X502868Y406738D03*
X509368Y406738D03*
X515868Y406738D03*
X522368Y406738D03*
X528868Y406738D03*
D10*
X749580Y464820D03*
X784580Y464820D03*
X739420Y441960D03*
X774420Y441960D03*
M02*
