G04 EAGLE Gerber RS-274X export*
G75*
%MOMM*%
%FSLAX34Y34*%
%LPD*%
%INSoldermask Bottom*%
%IPPOS*%
%AMOC8*
5,1,8,0,0,1.08239X$1,22.5*%
G01*
%ADD10C,3.403200*%
%ADD11R,1.703200X0.603200*%
%ADD12R,2.006200X1.803200*%
%ADD13R,2.003200X1.803200*%
%ADD14R,1.803200X2.003200*%
%ADD15C,1.727200*%
%ADD16C,1.625600*%
%ADD17C,1.203200*%
%ADD18R,1.723200X0.903200*%
%ADD19R,1.524000X1.524000*%
%ADD20C,1.524000*%
%ADD21R,2.123200X2.123200*%
%ADD22C,2.123200*%
%ADD23R,2.153200X2.153200*%
%ADD24C,2.153200*%
%ADD25R,1.678200X0.653200*%
%ADD26R,1.803200X2.006200*%
%ADD27C,1.928200*%
%ADD28R,2.653200X2.553200*%
%ADD29R,2.553200X2.653200*%
%ADD30R,1.503200X1.703200*%
%ADD31R,1.403200X0.803200*%
%ADD32C,2.723200*%
%ADD33R,1.498600X0.762000*%
%ADD34R,1.453200X1.953200*%
%ADD35C,5.503200*%
%ADD36C,5.203200*%
%ADD37C,1.003200*%
%ADD38R,1.203200X1.303200*%
%ADD39R,1.153197X1.208800*%
%ADD40R,0.903200X1.716200*%
%ADD41R,0.628200X1.103200*%
%ADD42C,1.506200*%
%ADD43R,1.103200X0.628200*%
%ADD44R,1.303200X1.203200*%
%ADD45C,2.203200*%
%ADD46R,1.553200X0.853200*%
%ADD47C,1.503200*%
%ADD48R,1.711200X1.711200*%
%ADD49R,1.678200X0.503200*%
%ADD50R,0.503200X1.678200*%
%ADD51C,1.117600*%
%ADD52C,1.422400*%


D10*
X965160Y25560D03*
X152360Y508160D03*
X901660Y508160D03*
X139660Y25560D03*
D11*
X243520Y291970D03*
X243520Y285470D03*
X243520Y278970D03*
X243520Y272470D03*
X243520Y265970D03*
X243520Y259470D03*
X243520Y252970D03*
X243520Y246470D03*
X243520Y239970D03*
X243520Y233470D03*
X243520Y226970D03*
X243520Y220470D03*
X243520Y213970D03*
X243520Y207470D03*
X171020Y207470D03*
X171020Y213970D03*
X171020Y220470D03*
X171020Y226970D03*
X171020Y233470D03*
X171020Y239970D03*
X171020Y246470D03*
X171020Y252970D03*
X171020Y259470D03*
X171020Y265970D03*
X171020Y272470D03*
X171020Y278970D03*
X171020Y285470D03*
X171020Y291970D03*
D12*
X276000Y242770D03*
X276000Y214330D03*
X107470Y456140D03*
X107470Y484580D03*
D13*
X32610Y503520D03*
X32610Y475520D03*
X242390Y149270D03*
X242390Y121270D03*
D14*
X178980Y108300D03*
X206980Y108300D03*
D12*
X68340Y475080D03*
X68340Y503520D03*
D14*
X499040Y207170D03*
X527040Y207170D03*
D13*
X398880Y120650D03*
X398880Y92650D03*
X401280Y331600D03*
X401280Y359600D03*
D15*
X101560Y387510D02*
X86320Y387510D01*
X86320Y412910D02*
X101560Y412910D01*
X101560Y438310D02*
X86320Y438310D01*
X86320Y362110D02*
X101560Y362110D01*
X101560Y336710D02*
X86320Y336710D01*
D16*
X634960Y501048D02*
X634960Y515272D01*
X609560Y515272D02*
X609560Y501048D01*
X584160Y501048D02*
X584160Y515272D01*
X558760Y515272D02*
X558760Y501048D01*
X533360Y501048D02*
X533360Y515272D01*
X507960Y515272D02*
X507960Y501048D01*
X482560Y501048D02*
X482560Y515272D01*
X457160Y515272D02*
X457160Y501048D01*
X416520Y501048D02*
X416520Y515272D01*
X391120Y515272D02*
X391120Y501048D01*
X365720Y501048D02*
X365720Y515272D01*
X340320Y515272D02*
X340320Y501048D01*
X314920Y501048D02*
X314920Y515272D01*
X289520Y515272D02*
X289520Y501048D01*
X264120Y501048D02*
X264120Y515272D01*
X238720Y515272D02*
X238720Y501048D01*
X213320Y501048D02*
X213320Y515272D01*
X187920Y515272D02*
X187920Y501048D01*
X279360Y32672D02*
X279360Y18448D01*
X304760Y18448D02*
X304760Y32672D01*
X330160Y32672D02*
X330160Y18448D01*
X355560Y18448D02*
X355560Y32672D01*
X380960Y32672D02*
X380960Y18448D01*
X406360Y18448D02*
X406360Y32672D01*
X431760Y32672D02*
X431760Y18448D01*
X457160Y18448D02*
X457160Y32672D01*
X507960Y32672D02*
X507960Y18448D01*
X533360Y18448D02*
X533360Y32672D01*
X558760Y32672D02*
X558760Y18448D01*
X584160Y18448D02*
X584160Y32672D01*
X609560Y32672D02*
X609560Y18448D01*
X634960Y18448D02*
X634960Y32672D01*
X660360Y32672D02*
X660360Y18448D01*
X685760Y18448D02*
X685760Y32672D01*
X685760Y501048D02*
X685760Y515272D01*
X711160Y515272D02*
X711160Y501048D01*
X736560Y501048D02*
X736560Y515272D01*
X761960Y515272D02*
X761960Y501048D01*
X787360Y501048D02*
X787360Y515272D01*
X812760Y515272D02*
X812760Y501048D01*
X838160Y501048D02*
X838160Y515272D01*
X863560Y515272D02*
X863560Y501048D01*
X736560Y32672D02*
X736560Y18448D01*
X761960Y18448D02*
X761960Y32672D01*
X787360Y32672D02*
X787360Y18448D01*
X812760Y18448D02*
X812760Y32672D01*
X838160Y32672D02*
X838160Y18448D01*
X863560Y18448D02*
X863560Y32672D01*
X888960Y32672D02*
X888960Y18448D01*
X914360Y18448D02*
X914360Y32672D01*
D17*
X85250Y207424D03*
X64960Y207424D03*
X64960Y232824D03*
X85250Y232824D03*
D18*
X386520Y425610D03*
X386520Y412910D03*
X386520Y400210D03*
X386520Y387510D03*
X332220Y387510D03*
X332220Y400210D03*
X332220Y412910D03*
X332220Y425610D03*
X217610Y424340D03*
X217610Y411640D03*
X217610Y398940D03*
X217610Y386240D03*
X163310Y386240D03*
X163310Y398940D03*
X163310Y411640D03*
X163310Y424340D03*
D19*
X134580Y463710D03*
D20*
X160742Y463710D03*
X186904Y463710D03*
X213066Y463710D03*
X239228Y463710D03*
D19*
X302220Y462440D03*
D20*
X328382Y462440D03*
X354544Y462440D03*
X380706Y462440D03*
X406868Y462440D03*
D14*
X191760Y363380D03*
X163760Y363380D03*
X361940Y364650D03*
X333940Y364650D03*
X643700Y386040D03*
X671700Y386040D03*
X521960Y321470D03*
X493960Y321470D03*
D21*
X796250Y278290D03*
D22*
X819150Y278290D03*
X842050Y278290D03*
D23*
X654010Y273210D03*
D24*
X676910Y273210D03*
X699810Y273210D03*
D12*
X873040Y112740D03*
X873040Y141180D03*
X870590Y342240D03*
X870590Y313800D03*
D25*
X943030Y420710D03*
X943030Y414210D03*
X943030Y407710D03*
X943030Y401210D03*
X898790Y401210D03*
X898790Y407710D03*
X898790Y414210D03*
X898790Y420710D03*
D26*
X906690Y451600D03*
X935130Y451600D03*
D21*
X796450Y344920D03*
D22*
X819350Y344920D03*
X842250Y344920D03*
D23*
X652940Y339840D03*
D24*
X675840Y339840D03*
X698740Y339840D03*
D27*
X659290Y180090D03*
X684690Y180090D03*
X760890Y180090D03*
X786290Y180090D03*
X811690Y180090D03*
X837090Y180090D03*
X659290Y82300D03*
X684690Y82300D03*
X760890Y82300D03*
X786290Y82300D03*
X811690Y82300D03*
X837090Y82300D03*
D28*
X436260Y129080D03*
X436260Y67080D03*
D29*
X589160Y124560D03*
X527160Y124560D03*
D30*
X761420Y153180D03*
X780420Y153180D03*
X816880Y110380D03*
X835880Y110380D03*
D31*
X205500Y154440D03*
X205500Y144940D03*
X205500Y135440D03*
X180500Y135440D03*
X180500Y154440D03*
D32*
X32980Y349400D03*
X32980Y396400D03*
X32980Y443400D03*
D12*
X962620Y72300D03*
X962620Y100740D03*
X990560Y72300D03*
X990560Y100740D03*
X292060Y115480D03*
X292060Y143920D03*
D26*
X684740Y139860D03*
X656300Y139860D03*
X684740Y114460D03*
X656300Y114460D03*
D33*
X832953Y430080D03*
X832953Y449080D03*
X853527Y439580D03*
D14*
X862320Y404020D03*
X834320Y404020D03*
D34*
X431760Y376880D03*
X431760Y349880D03*
D35*
X110196Y85758D03*
D36*
X50196Y85758D03*
D35*
X80196Y38758D03*
D37*
X309840Y307500D03*
X375880Y348140D03*
D17*
X259040Y439580D03*
X335240Y322740D03*
X883880Y437040D03*
X589240Y383700D03*
X733258Y400464D03*
X567650Y384970D03*
D37*
X776438Y432722D03*
X299680Y89060D03*
D38*
X743068Y140462D03*
X726068Y140462D03*
D39*
X711454Y143168D03*
X711454Y128612D03*
D40*
X634746Y408674D03*
X622046Y408674D03*
X609346Y408674D03*
X596646Y408674D03*
X583946Y408674D03*
X571246Y408674D03*
X558546Y408674D03*
X545846Y408674D03*
X545846Y463054D03*
X558546Y463054D03*
X571246Y463054D03*
X583946Y463054D03*
X596646Y463054D03*
X609346Y463054D03*
X622046Y463054D03*
X634746Y463054D03*
D41*
X673800Y460366D03*
X673800Y443366D03*
X681800Y460366D03*
X681800Y443366D03*
X689800Y460366D03*
X689800Y443366D03*
X697800Y460366D03*
X697800Y443366D03*
D13*
X518668Y433802D03*
X518668Y461802D03*
D25*
X620438Y322014D03*
X620438Y315514D03*
X620438Y309014D03*
X620438Y302514D03*
X620438Y296014D03*
X620438Y289514D03*
X620438Y283014D03*
X561678Y283014D03*
X561678Y289514D03*
X561678Y296014D03*
X561678Y302514D03*
X561678Y309014D03*
X561678Y315514D03*
X561678Y322014D03*
D42*
X500380Y89916D03*
X525780Y89916D03*
X551180Y89916D03*
X576580Y89916D03*
D14*
X450820Y472440D03*
X478820Y472440D03*
D43*
X758580Y445200D03*
X758580Y453200D03*
X758580Y461200D03*
X758580Y469200D03*
X775580Y469200D03*
X775580Y461200D03*
X775580Y453200D03*
X775580Y445200D03*
D38*
X707000Y203200D03*
X690000Y203200D03*
D44*
X721360Y186300D03*
X721360Y169300D03*
D37*
X325120Y88900D03*
X340360Y129540D03*
X353060Y129540D03*
X365760Y129540D03*
X378460Y129540D03*
X375920Y88900D03*
X350520Y88900D03*
X370840Y314960D03*
X386080Y309880D03*
X414020Y312420D03*
X421640Y322580D03*
X431800Y312420D03*
X439420Y322580D03*
D45*
X251435Y180322D03*
X242150Y312462D03*
D46*
X940110Y269240D03*
X940110Y243840D03*
X940110Y218440D03*
X940110Y193040D03*
X883610Y193040D03*
X883610Y218440D03*
X883610Y243840D03*
X883610Y269240D03*
D47*
X997480Y131320D03*
X997480Y163320D03*
D48*
X919980Y147320D03*
X957480Y130320D03*
X957480Y164320D03*
D47*
X997480Y306580D03*
X997480Y338580D03*
D48*
X919980Y322580D03*
X957480Y305580D03*
X957480Y339580D03*
D49*
X458700Y273720D03*
X458700Y268720D03*
X458700Y263720D03*
X458700Y258720D03*
X458700Y253720D03*
X458700Y248720D03*
X458700Y243720D03*
X458700Y238720D03*
X458700Y233720D03*
X458700Y228720D03*
X458700Y223720D03*
X458700Y218720D03*
X458700Y213720D03*
X458700Y208720D03*
X458700Y203720D03*
X458700Y198720D03*
D50*
X438820Y178840D03*
X433820Y178840D03*
X428820Y178840D03*
X423820Y178840D03*
X418820Y178840D03*
X413820Y178840D03*
X408820Y178840D03*
X403820Y178840D03*
X398820Y178840D03*
X393820Y178840D03*
X388820Y178840D03*
X383820Y178840D03*
X378820Y178840D03*
X373820Y178840D03*
X368820Y178840D03*
X363820Y178840D03*
D49*
X343940Y198720D03*
X343940Y203720D03*
X343940Y208720D03*
X343940Y213720D03*
X343940Y218720D03*
X343940Y223720D03*
X343940Y228720D03*
X343940Y233720D03*
X343940Y238720D03*
X343940Y243720D03*
X343940Y248720D03*
X343940Y253720D03*
X343940Y258720D03*
X343940Y263720D03*
X343940Y268720D03*
X343940Y273720D03*
D50*
X363820Y293600D03*
X368820Y293600D03*
X373820Y293600D03*
X378820Y293600D03*
X383820Y293600D03*
X388820Y293600D03*
X393820Y293600D03*
X398820Y293600D03*
X403820Y293600D03*
X408820Y293600D03*
X413820Y293600D03*
X418820Y293600D03*
X423820Y293600D03*
X428820Y293600D03*
X433820Y293600D03*
X438820Y293600D03*
D51*
X55840Y449740D03*
X360640Y101760D03*
X104100Y228760D03*
X159980Y172880D03*
X469860Y284640D03*
X218400Y203360D03*
X955000Y437040D03*
X264120Y142400D03*
X234422Y433718D03*
X855980Y475394D03*
X741680Y345440D03*
X365760Y236220D03*
X739588Y419748D03*
X499040Y207170D03*
X314920Y147480D03*
X454620Y327820D03*
X193000Y221140D03*
X886420Y61120D03*
X736694Y368006D03*
X899120Y365920D03*
X792480Y441960D03*
X401320Y143604D03*
X198080Y263050D03*
X196810Y250350D03*
X449540Y304960D03*
X314920Y294800D03*
X406360Y401480D03*
X596860Y188120D03*
D52*
X218400Y43340D03*
D51*
X302220Y233840D03*
X165060Y343060D03*
X320000Y233840D03*
X190460Y340520D03*
X269200Y365920D03*
X106640Y505620D03*
X66508Y277020D03*
X105624Y261272D03*
X125944Y262288D03*
X275550Y265590D03*
X190460Y299626D03*
X132040Y419260D03*
X454660Y436880D03*
X132040Y398940D03*
D52*
X980400Y363380D03*
D51*
X144740Y343060D03*
X533360Y269400D03*
X429260Y457200D03*
X561340Y482600D03*
X604520Y444500D03*
X624840Y248920D03*
X873720Y381160D03*
X528164Y340636D03*
X366512Y368206D03*
X759460Y416560D03*
X617220Y353060D03*
X452120Y416560D03*
X784860Y416560D03*
X462280Y381000D03*
X746760Y391160D03*
X434300Y271940D03*
X370800Y332900D03*
X421600Y256700D03*
X388580Y210980D03*
X276820Y188120D03*
X462280Y134620D03*
X627380Y170180D03*
X825460Y216060D03*
D52*
X878800Y452280D03*
D51*
X607020Y386240D03*
X551140Y200820D03*
X579080Y266860D03*
X520660Y231300D03*
X901700Y231140D03*
X246340Y89060D03*
X53300Y135896D03*
D52*
X220080Y181360D03*
D51*
X15200Y119540D03*
X177760Y40800D03*
X231100Y356776D03*
X744220Y256540D03*
X731520Y281940D03*
X231100Y337980D03*
X426680Y437040D03*
X408900Y437040D03*
X263104Y386240D03*
X975320Y203360D03*
X718780Y221140D03*
X975320Y282100D03*
X675600Y218600D03*
X810260Y416560D03*
X655320Y429260D03*
X706120Y429260D03*
X660400Y459740D03*
X723900Y477520D03*
X731520Y320040D03*
X731520Y459740D03*
X584200Y441960D03*
X561340Y439420D03*
X711200Y462280D03*
X622300Y444500D03*
X660400Y510540D03*
X487680Y386080D03*
X609600Y335280D03*
X604520Y254000D03*
X505420Y292260D03*
X528320Y299720D03*
X541020Y386080D03*
X485140Y439420D03*
X513080Y381000D03*
X431800Y406400D03*
X807720Y474980D03*
X787400Y480060D03*
M02*
