G04 EAGLE Gerber RS-274X export*
G75*
%MOMM*%
%FSLAX34Y34*%
%LPD*%
%INBottom Copper*%
%IPPOS*%
%AMOC8*
5,1,8,0,0,1.08239X$1,22.5*%
G01*
%ADD10R,1.500000X0.400000*%
%ADD11R,1.803000X1.600000*%
%ADD12R,1.800000X1.600000*%
%ADD13R,1.600000X1.800000*%
%ADD14C,1.524000*%
%ADD15C,1.422400*%
%ADD16C,1.000000*%
%ADD17R,1.520000X0.700000*%
%ADD18R,1.320800X1.320800*%
%ADD19C,1.320800*%
%ADD20R,1.333500X0.228600*%
%ADD21R,1.473200X0.355600*%
%ADD22R,1.920000X1.920000*%
%ADD23C,1.920000*%
%ADD24R,1.950000X1.950000*%
%ADD25C,1.950000*%
%ADD26R,1.981200X0.558800*%
%ADD27R,1.600000X0.700000*%
%ADD28C,1.308000*%
%ADD29R,1.475000X0.450000*%
%ADD30R,1.600000X1.803000*%
%ADD31C,1.725000*%
%ADD32R,2.450000X2.350000*%
%ADD33R,1.508000X1.508000*%
%ADD34C,1.508000*%
%ADD35R,2.350000X2.450000*%
%ADD36R,1.300000X1.500000*%
%ADD37R,1.475000X0.300000*%
%ADD38R,0.300000X1.475000*%
%ADD39R,1.200000X0.600000*%
%ADD40C,1.168000*%
%ADD41C,2.520000*%
%ADD42R,1.295400X0.558800*%
%ADD43R,1.250000X1.750000*%
%ADD44R,1.750000X1.250000*%
%ADD45C,5.300000*%
%ADD46C,5.000000*%
%ADD47C,0.800000*%
%ADD48R,1.000000X1.100000*%
%ADD49R,0.949997X1.005600*%
%ADD50C,0.508000*%
%ADD51C,0.254000*%
%ADD52C,0.914400*%
%ADD53C,1.016000*%
%ADD54C,1.219200*%
%ADD55C,0.304800*%


D10*
X243520Y291970D03*
X243520Y285470D03*
X243520Y278970D03*
X243520Y272470D03*
X243520Y265970D03*
X243520Y259470D03*
X243520Y252970D03*
X243520Y246470D03*
X243520Y239970D03*
X243520Y233470D03*
X243520Y226970D03*
X243520Y220470D03*
X243520Y213970D03*
X243520Y207470D03*
X171020Y207470D03*
X171020Y213970D03*
X171020Y220470D03*
X171020Y226970D03*
X171020Y233470D03*
X171020Y239970D03*
X171020Y246470D03*
X171020Y252970D03*
X171020Y259470D03*
X171020Y265970D03*
X171020Y272470D03*
X171020Y278970D03*
X171020Y285470D03*
X171020Y291970D03*
D11*
X276000Y242770D03*
X276000Y214330D03*
X107470Y456140D03*
X107470Y484580D03*
D12*
X32610Y503520D03*
X32610Y475520D03*
X242390Y149270D03*
X242390Y121270D03*
D13*
X178980Y108300D03*
X206980Y108300D03*
D11*
X68340Y475080D03*
X68340Y503520D03*
D13*
X499040Y207170D03*
X527040Y207170D03*
D12*
X337920Y143510D03*
X337920Y115510D03*
X401280Y331600D03*
X401280Y359600D03*
D14*
X101560Y387510D02*
X86320Y387510D01*
X86320Y412910D02*
X101560Y412910D01*
X101560Y438310D02*
X86320Y438310D01*
X86320Y362110D02*
X101560Y362110D01*
X101560Y336710D02*
X86320Y336710D01*
D15*
X634960Y501048D02*
X634960Y515272D01*
X609560Y515272D02*
X609560Y501048D01*
X584160Y501048D02*
X584160Y515272D01*
X558760Y515272D02*
X558760Y501048D01*
X533360Y501048D02*
X533360Y515272D01*
X507960Y515272D02*
X507960Y501048D01*
X482560Y501048D02*
X482560Y515272D01*
X457160Y515272D02*
X457160Y501048D01*
X416520Y501048D02*
X416520Y515272D01*
X391120Y515272D02*
X391120Y501048D01*
X365720Y501048D02*
X365720Y515272D01*
X340320Y515272D02*
X340320Y501048D01*
X314920Y501048D02*
X314920Y515272D01*
X289520Y515272D02*
X289520Y501048D01*
X264120Y501048D02*
X264120Y515272D01*
X238720Y515272D02*
X238720Y501048D01*
X213320Y501048D02*
X213320Y515272D01*
X187920Y515272D02*
X187920Y501048D01*
X279360Y32672D02*
X279360Y18448D01*
X304760Y18448D02*
X304760Y32672D01*
X330160Y32672D02*
X330160Y18448D01*
X355560Y18448D02*
X355560Y32672D01*
X380960Y32672D02*
X380960Y18448D01*
X406360Y18448D02*
X406360Y32672D01*
X431760Y32672D02*
X431760Y18448D01*
X457160Y18448D02*
X457160Y32672D01*
X507960Y32672D02*
X507960Y18448D01*
X533360Y18448D02*
X533360Y32672D01*
X558760Y32672D02*
X558760Y18448D01*
X584160Y18448D02*
X584160Y32672D01*
X609560Y32672D02*
X609560Y18448D01*
X634960Y18448D02*
X634960Y32672D01*
X660360Y32672D02*
X660360Y18448D01*
X685760Y18448D02*
X685760Y32672D01*
X685760Y501048D02*
X685760Y515272D01*
X711160Y515272D02*
X711160Y501048D01*
X736560Y501048D02*
X736560Y515272D01*
X761960Y515272D02*
X761960Y501048D01*
X787360Y501048D02*
X787360Y515272D01*
X812760Y515272D02*
X812760Y501048D01*
X838160Y501048D02*
X838160Y515272D01*
X863560Y515272D02*
X863560Y501048D01*
X736560Y32672D02*
X736560Y18448D01*
X761960Y18448D02*
X761960Y32672D01*
X787360Y32672D02*
X787360Y18448D01*
X812760Y18448D02*
X812760Y32672D01*
X838160Y32672D02*
X838160Y18448D01*
X863560Y18448D02*
X863560Y32672D01*
X888960Y32672D02*
X888960Y18448D01*
X914360Y18448D02*
X914360Y32672D01*
D16*
X85250Y207424D03*
X64960Y207424D03*
X64960Y232824D03*
X85250Y232824D03*
D17*
X386520Y425610D03*
X386520Y412910D03*
X386520Y400210D03*
X386520Y387510D03*
X332220Y387510D03*
X332220Y400210D03*
X332220Y412910D03*
X332220Y425610D03*
X217610Y424340D03*
X217610Y411640D03*
X217610Y398940D03*
X217610Y386240D03*
X163310Y386240D03*
X163310Y398940D03*
X163310Y411640D03*
X163310Y424340D03*
D18*
X134580Y463710D03*
D19*
X160742Y463710D03*
X186904Y463710D03*
X213066Y463710D03*
X239228Y463710D03*
D18*
X302220Y462440D03*
D19*
X328382Y462440D03*
X354544Y462440D03*
X380706Y462440D03*
X406868Y462440D03*
D13*
X191760Y363380D03*
X163760Y363380D03*
X361940Y364650D03*
X333940Y364650D03*
D20*
X537742Y454668D03*
X537742Y449664D03*
X537742Y444660D03*
X537742Y439656D03*
X537742Y434652D03*
X493419Y434652D03*
X493419Y439656D03*
X493419Y444660D03*
X493419Y449664D03*
X493419Y454668D03*
X552982Y400058D03*
X552982Y395054D03*
X552982Y390050D03*
X552982Y385046D03*
X552982Y380042D03*
X508659Y380042D03*
X508659Y385046D03*
X508659Y390050D03*
X508659Y395054D03*
X508659Y400058D03*
D21*
X730464Y408280D03*
X730464Y401780D03*
X730464Y395280D03*
X730464Y388780D03*
X730464Y382280D03*
X730464Y375780D03*
X730464Y369280D03*
X674076Y369280D03*
X674076Y375780D03*
X674076Y382280D03*
X674076Y388780D03*
X674076Y395280D03*
X674076Y401780D03*
X674076Y408280D03*
X730464Y479400D03*
X730464Y472900D03*
X730464Y466400D03*
X730464Y459900D03*
X730464Y453400D03*
X730464Y446900D03*
X730464Y440400D03*
X674076Y440400D03*
X674076Y446900D03*
X674076Y453400D03*
X674076Y459900D03*
X674076Y466400D03*
X674076Y472900D03*
X674076Y479400D03*
D13*
X521960Y321470D03*
X493960Y321470D03*
X676900Y312580D03*
X648900Y312580D03*
D22*
X796250Y278290D03*
D23*
X819150Y278290D03*
X842050Y278290D03*
D24*
X654010Y273210D03*
D25*
X676910Y273210D03*
X699810Y273210D03*
D26*
X608798Y331630D03*
X608798Y318930D03*
X608798Y306230D03*
X608798Y293530D03*
X559522Y293530D03*
X559522Y306230D03*
X559522Y318930D03*
X559522Y331630D03*
D27*
X957040Y276340D03*
X957040Y250940D03*
X957040Y225540D03*
X957040Y200140D03*
X869540Y200140D03*
X869540Y225540D03*
X869540Y250940D03*
X869540Y276340D03*
D11*
X873040Y112740D03*
X873040Y141180D03*
X870590Y342240D03*
X870590Y313800D03*
D28*
X898550Y163980D02*
X898550Y150900D01*
X914010Y184940D02*
X927090Y184940D01*
X919090Y129940D02*
X906010Y129940D01*
D29*
X943030Y420710D03*
X943030Y414210D03*
X943030Y407710D03*
X943030Y401210D03*
X898790Y401210D03*
X898790Y407710D03*
X898790Y414210D03*
X898790Y420710D03*
D30*
X906690Y451600D03*
X935130Y451600D03*
D22*
X796450Y344920D03*
D23*
X819350Y344920D03*
X842250Y344920D03*
D24*
X652940Y339840D03*
D25*
X675840Y339840D03*
X698740Y339840D03*
D28*
X899820Y326540D02*
X899820Y313460D01*
X915280Y347500D02*
X928360Y347500D01*
X920360Y292500D02*
X907280Y292500D01*
D31*
X659290Y180090D03*
X684690Y180090D03*
X760890Y180090D03*
X786290Y180090D03*
X811690Y180090D03*
X837090Y180090D03*
X659290Y82300D03*
X684690Y82300D03*
X760890Y82300D03*
X786290Y82300D03*
X811690Y82300D03*
X837090Y82300D03*
D32*
X375300Y126540D03*
X375300Y64540D03*
D33*
X422160Y114920D03*
D34*
X447560Y114920D03*
X498360Y114920D03*
X523760Y114920D03*
X549160Y114920D03*
D35*
X477400Y74960D03*
X415400Y74960D03*
X573920Y76300D03*
X511920Y76300D03*
D36*
X761420Y153180D03*
X780420Y153180D03*
X816880Y110380D03*
X835880Y110380D03*
D37*
X458660Y273880D03*
X458660Y268880D03*
X458660Y263880D03*
X458660Y258880D03*
X458660Y253880D03*
X458660Y248880D03*
X458660Y243880D03*
X458660Y238880D03*
X458660Y233880D03*
X458660Y228880D03*
X458660Y223880D03*
X458660Y218880D03*
X458660Y213880D03*
X458660Y208880D03*
X458660Y203880D03*
X458660Y198880D03*
D38*
X438780Y179000D03*
X433780Y179000D03*
X428780Y179000D03*
X423780Y179000D03*
X418780Y179000D03*
X413780Y179000D03*
X408780Y179000D03*
X403780Y179000D03*
X398780Y179000D03*
X393780Y179000D03*
X388780Y179000D03*
X383780Y179000D03*
X378780Y179000D03*
X373780Y179000D03*
X368780Y179000D03*
X363780Y179000D03*
D37*
X343900Y198880D03*
X343900Y203880D03*
X343900Y208880D03*
X343900Y213880D03*
X343900Y218880D03*
X343900Y223880D03*
X343900Y228880D03*
X343900Y233880D03*
X343900Y238880D03*
X343900Y243880D03*
X343900Y248880D03*
X343900Y253880D03*
X343900Y258880D03*
X343900Y263880D03*
X343900Y268880D03*
X343900Y273880D03*
D38*
X363780Y293760D03*
X368780Y293760D03*
X373780Y293760D03*
X378780Y293760D03*
X383780Y293760D03*
X388780Y293760D03*
X393780Y293760D03*
X398780Y293760D03*
X403780Y293760D03*
X408780Y293760D03*
X413780Y293760D03*
X418780Y293760D03*
X423780Y293760D03*
X428780Y293760D03*
X433780Y293760D03*
X438780Y293760D03*
D39*
X205500Y154440D03*
X205500Y144940D03*
X205500Y135440D03*
X180500Y135440D03*
X180500Y154440D03*
D40*
X604480Y475140D03*
X617180Y475140D03*
X629880Y475140D03*
X604480Y437040D03*
X617180Y437040D03*
X629880Y437040D03*
D41*
X32980Y349400D03*
X32980Y396400D03*
X32980Y443400D03*
D11*
X962620Y72300D03*
X962620Y100740D03*
X990560Y72300D03*
X990560Y100740D03*
X292060Y115480D03*
X292060Y143920D03*
D30*
X684740Y142400D03*
X656300Y142400D03*
X684740Y114460D03*
X656300Y114460D03*
D42*
X832953Y430080D03*
X832953Y449080D03*
X853527Y439580D03*
D13*
X862320Y404020D03*
X834320Y404020D03*
D43*
X558760Y463240D03*
X558760Y436240D03*
D44*
X463040Y457360D03*
X436040Y457360D03*
D43*
X431760Y376880D03*
X431760Y349880D03*
D45*
X110196Y85758D03*
D46*
X50196Y85758D03*
D45*
X80196Y38758D03*
D47*
X309840Y307500D03*
X375880Y348140D03*
D16*
X259040Y439580D03*
X335240Y322740D03*
X459700Y421800D03*
X561300Y411640D03*
X883880Y437040D03*
X739100Y304960D03*
X761960Y431960D03*
X784820Y482760D03*
D47*
X787360Y434500D03*
X800060Y378620D03*
D48*
X743068Y145542D03*
X726068Y145542D03*
D49*
X711454Y145708D03*
X711454Y131152D03*
D50*
X375300Y83400D02*
X375300Y64540D01*
X375300Y83400D02*
X388580Y96680D01*
X447560Y107400D02*
X447560Y114920D01*
X436840Y96680D02*
X388580Y96680D01*
X436840Y96680D02*
X447560Y107400D01*
X218400Y144940D02*
X205500Y144940D01*
X218400Y144940D02*
X223480Y139860D01*
X223480Y124620D02*
X228560Y119540D01*
X240660Y119540D01*
X242390Y121270D01*
X223480Y124620D02*
X223480Y139860D01*
X223480Y124620D02*
X223480Y114460D01*
X215860Y106840D01*
X208440Y106840D01*
X206980Y108300D01*
D51*
X398780Y179000D02*
X398780Y188160D01*
X403820Y193200D01*
X419060Y193200D01*
X423780Y188480D02*
X423780Y179000D01*
X423780Y188480D02*
X419060Y193200D01*
X458660Y233880D02*
X500300Y233880D01*
D50*
X527010Y207170D02*
X527040Y207170D01*
X527010Y207170D02*
X500300Y233880D01*
X355560Y133150D02*
X337920Y115510D01*
X355560Y142400D02*
X363180Y150020D01*
X355560Y142400D02*
X355560Y133150D01*
D51*
X363180Y150020D02*
X388580Y150020D01*
X398780Y160220D01*
X398780Y179000D01*
X434260Y233880D02*
X458660Y233880D01*
X182910Y246470D02*
X171020Y246470D01*
X227370Y252970D02*
X243520Y252970D01*
X193000Y236380D02*
X182910Y246470D01*
X193000Y236380D02*
X210780Y236380D01*
X218400Y244000D01*
X227370Y252970D01*
D52*
X55840Y449740D03*
D51*
X50760Y454820D01*
X45300Y475520D02*
X32610Y475520D01*
X50760Y470060D02*
X50760Y454820D01*
X50760Y470060D02*
X45300Y475520D01*
D53*
X640040Y114460D02*
X656300Y114460D01*
X640040Y114460D02*
X632420Y106840D01*
X632420Y71280D01*
X645120Y58580D01*
X675600Y58580D01*
X684690Y67670D02*
X684690Y82300D01*
X684690Y67670D02*
X675600Y58580D01*
D52*
X657820Y505620D03*
X360640Y101760D03*
D51*
X183590Y226970D02*
X171020Y226970D01*
X183590Y226970D02*
X193000Y236380D01*
X171020Y272470D02*
X171020Y278970D01*
X171020Y272470D02*
X207710Y272470D01*
X218400Y261780D02*
X218400Y244000D01*
X218400Y261780D02*
X207710Y272470D01*
D52*
X104100Y228760D03*
D51*
X104100Y198280D01*
X99020Y193200D01*
X71080Y193200D01*
X64960Y199320D02*
X64960Y207424D01*
X64960Y199320D02*
X71080Y193200D01*
D52*
X159980Y172880D03*
X469860Y284640D03*
D50*
X469860Y348140D01*
D51*
X210780Y236380D02*
X210780Y210980D01*
X218400Y203360D01*
D52*
X218400Y203360D03*
D50*
X401280Y359600D02*
X412680Y359600D01*
X422400Y349880D02*
X431760Y349880D01*
X422400Y349880D02*
X412680Y359600D01*
X431760Y349880D02*
X438580Y349880D01*
X447000Y358300D01*
X459700Y358300D01*
X469860Y348140D01*
D52*
X955000Y437040D03*
X368260Y236380D03*
D51*
X365760Y238880D01*
X343900Y238880D01*
X368260Y236380D02*
X431760Y236380D01*
X434260Y233880D01*
X728940Y274480D02*
X728940Y290352D01*
D52*
X728940Y274480D03*
D51*
X728940Y290352D02*
X714332Y304960D01*
X714332Y345246D01*
D52*
X652740Y424340D03*
D50*
X255690Y121270D02*
X242390Y121270D01*
X264120Y129700D02*
X264120Y142400D01*
D52*
X264120Y142400D03*
D50*
X264120Y129700D02*
X255690Y121270D01*
X337920Y115510D02*
X353748Y115510D01*
X360894Y108364D01*
X360894Y102014D01*
X360640Y101760D01*
D51*
X715940Y375780D02*
X730464Y375780D01*
X715940Y375780D02*
X711160Y371000D01*
X711160Y364026D01*
X726400Y348786D02*
X726400Y327820D01*
X731480Y322740D01*
X731480Y320200D01*
D52*
X731480Y320200D03*
D51*
X726400Y348786D02*
X711160Y364026D01*
X730464Y446900D02*
X744480Y446900D01*
X749260Y442120D01*
D52*
X749260Y442120D03*
X234422Y433718D03*
D51*
X666762Y446900D02*
X674076Y446900D01*
X663408Y443546D02*
X663408Y437254D01*
X663448Y437214D01*
X663448Y435048D02*
X652740Y424340D01*
X663408Y443546D02*
X666762Y446900D01*
X663448Y437214D02*
X663448Y435048D01*
X674076Y375780D02*
X683798Y375780D01*
X714332Y345246D01*
X730464Y408280D02*
X739588Y417404D01*
X739588Y419748D01*
D52*
X739588Y419748D03*
X751800Y480220D03*
D51*
X750980Y479400D01*
X730464Y479400D01*
X115040Y463710D02*
X107470Y456140D01*
X458660Y228880D02*
X492600Y228880D01*
X499040Y222440D02*
X499040Y207170D01*
X499040Y222440D02*
X492600Y228880D01*
D53*
X193000Y166940D02*
X180500Y154440D01*
X193000Y166940D02*
X193000Y221140D01*
D52*
X499040Y207170D03*
D51*
X393780Y190780D02*
X393780Y179000D01*
X393780Y190780D02*
X401280Y198280D01*
X428780Y191100D02*
X428780Y179000D01*
X428780Y191100D02*
X421600Y198280D01*
X401280Y198280D01*
D50*
X352050Y157640D02*
X337920Y143510D01*
X352050Y157640D02*
X355560Y157640D01*
D51*
X393780Y162840D02*
X393780Y179000D01*
X393780Y162840D02*
X388580Y157640D01*
X355560Y157640D01*
D52*
X314920Y147480D03*
D50*
X318890Y143510D01*
X337920Y143510D01*
D52*
X454620Y345600D03*
D50*
X440620Y331600D01*
X401280Y331600D01*
D51*
X403780Y329100D02*
X403780Y293760D01*
X403780Y329100D02*
X401280Y331600D01*
X419260Y223880D02*
X343900Y223880D01*
X424260Y228880D02*
X458660Y228880D01*
X424260Y228880D02*
X419260Y223880D01*
D50*
X962620Y72300D02*
X990560Y72300D01*
D52*
X193000Y221140D03*
D50*
X897600Y72300D02*
X962620Y72300D01*
X897600Y72300D02*
X886420Y61120D01*
D52*
X886420Y61120D03*
X736306Y337726D03*
D51*
X308320Y115480D02*
X292060Y115480D01*
X308320Y115480D02*
X314920Y122080D01*
X314920Y147480D01*
X730464Y430436D02*
X730464Y440400D01*
X739588Y421312D02*
X739588Y419748D01*
X739588Y421312D02*
X730464Y430436D01*
X733766Y350426D02*
X733766Y340266D01*
X736306Y337726D01*
X733766Y350426D02*
X726400Y357792D01*
X726400Y365216D02*
X730464Y369280D01*
X726400Y365216D02*
X726400Y357792D01*
D52*
X899120Y365920D03*
D51*
X134580Y463710D02*
X115040Y463710D01*
X153030Y220470D02*
X171020Y220470D01*
X153030Y220470D02*
X149820Y223680D01*
X149820Y299880D01*
X162520Y312580D01*
X205700Y312580D01*
X220940Y297340D02*
X220940Y279560D01*
X220940Y297340D02*
X205700Y312580D01*
X220940Y279560D02*
X228030Y272470D01*
X243520Y272470D01*
X194500Y259470D02*
X171020Y259470D01*
X194500Y259470D02*
X198080Y263050D01*
D52*
X198080Y263050D03*
D51*
X194190Y252970D02*
X171020Y252970D01*
X194190Y252970D02*
X196810Y250350D01*
D52*
X196810Y250350D03*
D51*
X243520Y207470D02*
X269101Y207470D01*
X274788Y213118D02*
X276000Y214330D01*
X274788Y213118D02*
X274749Y213118D01*
X269101Y207470D01*
X243900Y265590D02*
X243520Y265970D01*
X299080Y198880D02*
X343900Y198880D01*
X299080Y198880D02*
X292060Y205900D01*
X292060Y219955D02*
X283255Y228760D01*
X264120Y228760D02*
X259040Y233840D01*
X252690Y265590D02*
X243900Y265590D01*
X292060Y219955D02*
X292060Y205900D01*
X283255Y228760D02*
X264120Y228760D01*
X259040Y233840D02*
X259040Y259240D01*
X252690Y265590D01*
X304240Y203880D02*
X343900Y203880D01*
X296632Y211488D02*
X296632Y221849D01*
X289520Y228961D01*
X289520Y269400D02*
X279360Y279560D01*
X269200Y279560D01*
X296632Y211488D02*
X304240Y203880D01*
X289520Y228961D02*
X289520Y269400D01*
X269200Y279560D02*
X256790Y291970D01*
X243520Y291970D01*
X335840Y273880D02*
X343900Y273880D01*
X335840Y273880D02*
X330160Y279560D01*
X330160Y310040D01*
X294600Y345600D01*
X210780Y343060D02*
X195540Y327820D01*
X102830Y327820D01*
X93940Y336710D01*
X210780Y363380D02*
X220940Y373540D01*
X210780Y363380D02*
X210780Y343060D01*
X220940Y373540D02*
X228560Y373540D01*
X231100Y376080D01*
X231100Y391320D01*
X259040Y419260D01*
X289520Y419260D01*
X294600Y414180D01*
X294600Y345600D01*
X333220Y268880D02*
X343900Y268880D01*
X333220Y268880D02*
X325080Y277020D01*
X325080Y307500D01*
X289520Y343060D01*
X215352Y341166D02*
X215352Y360332D01*
X215352Y341166D02*
X196926Y322740D01*
X76160Y322740D02*
X68540Y330360D01*
X68540Y355760D01*
X76160Y363380D01*
X92670Y363380D01*
X93940Y362110D01*
X76160Y322740D02*
X196926Y322740D01*
X223988Y368968D02*
X230454Y368968D01*
X235672Y374186D01*
X235672Y388780D01*
X261072Y414180D01*
X284440Y414180D02*
X289520Y409100D01*
X223988Y368968D02*
X215352Y360332D01*
X261072Y414180D02*
X284440Y414180D01*
X289520Y409100D02*
X289520Y343060D01*
X68340Y452480D02*
X68340Y475080D01*
X68340Y452480D02*
X83780Y437040D01*
X92670Y437040D01*
X93940Y438310D01*
X449660Y243880D02*
X458660Y243880D01*
X449660Y243880D02*
X444460Y249080D01*
X444460Y279560D01*
X449540Y284640D01*
X449540Y304960D01*
D52*
X449540Y304960D03*
D51*
X433780Y179000D02*
X433780Y165780D01*
X439380Y160180D01*
X771612Y229118D02*
X771612Y362872D01*
X807680Y398940D02*
X807680Y452280D01*
X802600Y457360D01*
X800060Y457360D01*
D52*
X800060Y457360D03*
X764500Y467520D03*
D51*
X763380Y466400D01*
X730464Y466400D01*
X787360Y378620D02*
X771612Y362872D01*
X787360Y378620D02*
X807680Y398940D01*
X771612Y229118D02*
X739100Y196606D01*
X731480Y160180D02*
X439380Y160180D01*
X731480Y160180D02*
X739100Y167800D01*
X739100Y196606D01*
X787360Y378620D02*
X800060Y378620D01*
X368780Y293760D02*
X368780Y282620D01*
X365720Y279560D01*
X360640Y279560D01*
X353020Y287180D01*
X353020Y335440D01*
X315566Y343568D02*
X307808Y351326D01*
X307808Y421292D01*
X344892Y343568D02*
X353020Y335440D01*
X344892Y343568D02*
X315566Y343568D01*
X299680Y429420D02*
X261580Y429420D01*
X248880Y429420D01*
X299680Y429420D02*
X307808Y421292D01*
X231100Y411640D02*
X217610Y411640D01*
X231100Y411640D02*
X248880Y429420D01*
X259040Y431960D02*
X259040Y439580D01*
X259040Y431960D02*
X261580Y429420D01*
X322980Y263880D02*
X343900Y263880D01*
D52*
X314920Y294800D03*
X429220Y439580D03*
D51*
X402550Y412910D01*
X386520Y412910D01*
X317460Y269400D02*
X322980Y263880D01*
X317460Y292260D02*
X314920Y294800D01*
X317460Y292260D02*
X317460Y269400D01*
X314920Y294800D02*
X309840Y299880D01*
X309840Y307500D01*
X363780Y293760D02*
X363780Y336040D01*
X378420Y373540D02*
X368260Y383700D01*
X368260Y393860D01*
X374610Y400210D02*
X386520Y400210D01*
X375880Y348140D02*
X363780Y336040D01*
X375880Y348140D02*
X378420Y350680D01*
X378420Y373540D01*
X368260Y393860D02*
X374610Y400210D01*
X367614Y274988D02*
X358746Y274988D01*
X348448Y285286D01*
X348448Y317660D01*
X348448Y327312D01*
X373780Y293760D02*
X373582Y293562D01*
X373582Y280956D01*
X367614Y274988D01*
X339304Y336456D02*
X313672Y336456D01*
X300696Y349432D01*
X300696Y418244D02*
X294600Y424340D01*
X339304Y336456D02*
X348448Y327312D01*
X300696Y349432D02*
X300696Y418244D01*
X228560Y398940D02*
X217610Y398940D01*
X228560Y398940D02*
X253960Y424340D01*
X294600Y424340D01*
X335240Y322740D02*
X343368Y322740D01*
X348448Y317660D01*
X343900Y208880D02*
X357660Y208880D01*
X360640Y205900D01*
X360640Y195740D01*
X299680Y183040D02*
X292060Y175420D01*
X292060Y143920D01*
X347940Y183040D02*
X360640Y195740D01*
X347940Y183040D02*
X299680Y183040D01*
X360640Y195740D02*
X389734Y195740D01*
X399386Y205392D01*
X423494Y205392D01*
X433146Y195740D01*
X441920Y195740D02*
X452080Y185580D01*
X452080Y170340D01*
X457160Y165260D01*
X596860Y177960D02*
X596860Y188120D01*
D52*
X596860Y188120D03*
D51*
X441920Y195740D02*
X433146Y195740D01*
X457160Y165260D02*
X584160Y165260D01*
X596860Y177960D01*
D54*
X218400Y43340D03*
D51*
X322180Y213880D02*
X343900Y213880D01*
X322180Y213880D02*
X302220Y233840D01*
D52*
X302220Y233840D03*
X165060Y343060D03*
D51*
X334960Y218880D02*
X343900Y218880D01*
X334960Y218880D02*
X320000Y233840D01*
D52*
X320000Y233840D03*
X190460Y340520D03*
D51*
X302220Y256700D02*
X310040Y248880D01*
X343900Y248880D01*
X302220Y256700D02*
X302220Y274480D01*
X269200Y307500D01*
X269200Y365920D01*
D52*
X269200Y365920D03*
X106640Y505620D03*
D51*
X70660Y505620D01*
X68340Y503520D01*
X32830Y503300D01*
X32610Y503520D01*
X106640Y485410D02*
X107470Y484580D01*
X106640Y485410D02*
X106640Y505620D01*
X330160Y61120D02*
X330160Y25560D01*
X175220Y76360D02*
X162520Y89060D01*
X162520Y139860D01*
X147280Y155100D01*
X314920Y76360D02*
X330160Y61120D01*
X314920Y76360D02*
X175220Y76360D01*
X147280Y155100D02*
X38060Y155100D01*
X12660Y180500D01*
X12660Y495460D01*
X20720Y503520D02*
X32610Y503520D01*
X20720Y503520D02*
X12660Y495460D01*
D52*
X66508Y277020D03*
D55*
X85250Y210526D02*
X85250Y207424D01*
X85250Y210526D02*
X77176Y218600D01*
X58634Y218600D01*
X53300Y223934D01*
X53300Y238158D01*
X66508Y251366D01*
D51*
X66508Y277020D01*
D52*
X105624Y261272D03*
D55*
X64984Y232824D02*
X64960Y232824D01*
X64984Y232824D02*
X76160Y244000D01*
D51*
X148608Y213970D02*
X171020Y213970D01*
X141184Y221394D02*
X141184Y266606D01*
X141184Y221394D02*
X148608Y213970D01*
X105624Y261272D02*
X105624Y268384D01*
X111720Y274480D01*
X133310Y274480D01*
X141184Y266606D01*
X93432Y261272D02*
X76160Y244000D01*
X93432Y261272D02*
X105624Y261272D01*
D52*
X125944Y262288D03*
D51*
X144440Y207470D02*
X171020Y207470D01*
X144440Y207470D02*
X133818Y218092D01*
X85250Y232824D02*
X85250Y237850D01*
X99020Y251620D01*
X116800Y251620D01*
X125944Y260764D01*
X125944Y262288D01*
X133818Y254414D01*
X133818Y218092D01*
X276000Y242770D02*
X276000Y265140D01*
X275550Y265590D01*
D52*
X275550Y265590D03*
D51*
X154900Y244000D02*
X154900Y297340D01*
X159980Y302420D01*
X187666Y302420D01*
D52*
X190460Y299626D03*
D51*
X187666Y302420D01*
X171020Y239970D02*
X158930Y239970D01*
X154900Y244000D01*
X332220Y412910D02*
X347940Y412910D01*
X347940Y431960D01*
X378420Y462440D01*
X527582Y457208D02*
X527582Y470759D01*
X530122Y454668D02*
X537742Y454668D01*
X530122Y454668D02*
X527582Y457208D01*
X527582Y470759D02*
X523200Y475140D01*
X386040Y475140D01*
X380706Y469806D01*
X380706Y462440D02*
X378420Y462440D01*
X380706Y462440D02*
X380706Y469806D01*
X346670Y400210D02*
X332220Y400210D01*
X346670Y400210D02*
X355560Y409100D01*
X355560Y429420D01*
X373340Y447200D01*
X391628Y447200D01*
X488339Y454668D02*
X493419Y454668D01*
X488339Y454668D02*
X473099Y469908D01*
X414336Y469908D01*
X406868Y462440D02*
X391628Y447200D01*
X406868Y462440D02*
X414336Y469908D01*
X163310Y411640D02*
X139660Y411640D01*
X132040Y419260D01*
D52*
X132040Y419260D03*
D51*
X552982Y400058D02*
X567498Y400058D01*
X591780Y424340D01*
X591780Y454820D01*
X584160Y462440D01*
X584160Y475140D01*
X574000Y485300D01*
X337780Y485300D01*
X328382Y475902D01*
X328382Y462440D01*
D52*
X132040Y398940D03*
D51*
X163310Y398940D01*
X581620Y421800D02*
X586700Y426880D01*
X586700Y452280D01*
X579080Y459900D01*
X579080Y470060D01*
X510500Y421800D02*
X503579Y414879D01*
X510500Y421800D02*
X581620Y421800D01*
X579080Y470060D02*
X568920Y480220D01*
X363180Y480220D01*
X354544Y471584D01*
X499222Y400058D02*
X508659Y400058D01*
X499222Y400058D02*
X495260Y404020D01*
X495260Y411640D01*
X498499Y414879D01*
X503579Y414879D01*
X354544Y462440D02*
X354544Y471584D01*
X163760Y385790D02*
X163310Y386240D01*
X163760Y385790D02*
X163760Y363380D01*
X332220Y366370D02*
X332220Y387510D01*
X332220Y366370D02*
X333940Y364650D01*
D53*
X773120Y110380D02*
X816880Y110380D01*
X760890Y98150D02*
X760890Y82300D01*
X760890Y98150D02*
X773120Y110380D01*
X780420Y153180D02*
X826080Y153180D01*
X837090Y164190D02*
X837090Y180090D01*
X837090Y164190D02*
X826080Y153180D01*
X935130Y451600D02*
X960760Y451600D01*
X972780Y439580D01*
X972780Y419260D01*
X972780Y368460D01*
X980400Y360840D01*
D54*
X980400Y360840D03*
D51*
X934680Y451150D02*
X935130Y451600D01*
X943030Y420710D02*
X943030Y414210D01*
X960080Y414210D01*
X960080Y401210D01*
X943030Y401210D01*
X853527Y439580D02*
X820380Y439580D01*
X815300Y434500D01*
X815300Y409100D01*
X820380Y404020D01*
X834320Y404020D01*
X674076Y388780D02*
X657820Y388780D01*
X627340Y358300D01*
X627340Y350680D01*
D52*
X627340Y350680D03*
D53*
X684740Y114460D02*
X711200Y114460D01*
X744580Y114460D01*
X760890Y98150D01*
D51*
X163760Y363380D02*
X152360Y363380D01*
X144740Y355760D02*
X144740Y343060D01*
D52*
X144740Y343060D03*
D51*
X144740Y355760D02*
X152360Y363380D01*
X332220Y387510D02*
X346670Y387510D01*
X365720Y426880D02*
X375880Y437040D01*
X365720Y406560D02*
X346670Y387510D01*
X365720Y406560D02*
X365720Y426880D01*
X375880Y437040D02*
X393660Y437040D01*
X406360Y449740D01*
X420800Y457360D02*
X436040Y457360D01*
X420800Y457360D02*
X413180Y449740D01*
X406360Y449740D01*
X554734Y467266D02*
X558760Y463240D01*
X554734Y467266D02*
X538440Y467266D01*
D52*
X538440Y467266D03*
X467320Y439580D03*
D51*
X458900Y439580D01*
X441120Y457360D01*
X436040Y457360D01*
X815300Y454820D02*
X815300Y434500D01*
X929600Y467520D02*
X934680Y462440D01*
X934680Y451150D01*
X828000Y467520D02*
X815300Y454820D01*
X828000Y467520D02*
X929600Y467520D01*
X676900Y312580D02*
X676900Y298640D01*
X670520Y292260D01*
X637500Y292260D01*
X624916Y279676D01*
X624916Y266744D01*
D52*
X624916Y266744D03*
D50*
X493960Y321470D02*
X492705Y322725D01*
D52*
X525740Y269400D03*
D50*
X502880Y269400D01*
X492705Y279575D02*
X492705Y322725D01*
X492705Y279575D02*
X502880Y269400D01*
D52*
X368260Y256700D03*
D51*
X960080Y414210D02*
X965190Y414210D01*
X970240Y419260D02*
X972780Y419260D01*
X970240Y419260D02*
X965190Y414210D01*
X624800Y459900D02*
X617180Y467520D01*
X617180Y475140D01*
X624800Y459900D02*
X674076Y459900D01*
D53*
X510580Y74960D02*
X477400Y74960D01*
X510580Y74960D02*
X511920Y76300D01*
X523760Y102320D02*
X523760Y114920D01*
X523760Y102320D02*
X510500Y89060D01*
X510500Y75040D01*
X510580Y74960D01*
D51*
X711454Y114714D02*
X711454Y131152D01*
X711454Y114714D02*
X711200Y114460D01*
X217610Y424340D02*
X202370Y424340D01*
X186904Y439806D01*
X186904Y463710D01*
X198080Y419260D02*
X198080Y395610D01*
X207450Y386240D02*
X217610Y386240D01*
X207450Y386240D02*
X198080Y395610D01*
X170140Y439580D02*
X160742Y448978D01*
X170140Y439580D02*
X177760Y439580D01*
X198080Y419260D01*
X160742Y448978D02*
X160742Y463710D01*
X317460Y425610D02*
X332220Y425610D01*
X313650Y425610D02*
X302220Y437040D01*
X182840Y424340D02*
X163310Y424340D01*
X182840Y424340D02*
X190460Y416720D01*
X190460Y364680D02*
X191760Y363380D01*
X190460Y364680D02*
X190460Y416720D01*
D53*
X549160Y114920D02*
X558300Y114920D01*
X574000Y99220D01*
X574000Y76380D01*
X573920Y76300D01*
D51*
X317460Y348140D02*
X317460Y425610D01*
X317460Y348140D02*
X355560Y348140D01*
X366512Y359092D02*
X366512Y368206D01*
X366512Y359092D02*
X355560Y348140D01*
X317460Y425610D02*
X313650Y425610D01*
X862320Y404020D02*
X866010Y407710D01*
X898790Y407710D01*
X834960Y430080D02*
X832953Y430080D01*
X834960Y430080D02*
X843240Y421800D01*
X858480Y421800D02*
X863560Y416720D01*
X863560Y405260D01*
X862320Y404020D01*
X858480Y421800D02*
X843240Y421800D01*
X559522Y331630D02*
X542250Y331630D01*
X532090Y321470D02*
X521960Y321470D01*
X532090Y321470D02*
X542250Y331630D01*
X493419Y439656D02*
X482484Y439656D01*
X464780Y457360D01*
X463040Y457360D01*
D52*
X474940Y396400D03*
D51*
X485100Y396400D01*
X496454Y385046D02*
X508659Y385046D01*
X496454Y385046D02*
X485100Y396400D01*
D52*
X868640Y386240D03*
D50*
X862320Y392560D01*
X862320Y404020D01*
D52*
X650200Y475140D03*
X543404Y340636D03*
D51*
X542250Y339482D01*
X542250Y331630D01*
D52*
X366512Y368206D03*
D51*
X163310Y424340D02*
X152360Y424340D01*
X147280Y429420D01*
X147280Y470060D01*
X154900Y477680D01*
X297140Y477680D01*
X302220Y472600D01*
X493419Y439656D02*
X505344Y439656D01*
X507960Y437040D01*
X507960Y426880D01*
X502880Y421800D01*
X482560Y421800D02*
X474940Y414180D01*
X474940Y396400D01*
X482560Y421800D02*
X502880Y421800D01*
X654460Y479400D02*
X674076Y479400D01*
X654460Y479400D02*
X650200Y475140D01*
X674076Y423324D02*
X674076Y408280D01*
X674076Y423324D02*
X673060Y424340D01*
D52*
X673060Y424340D03*
D50*
X365496Y368206D02*
X361940Y364650D01*
X365496Y368206D02*
X366512Y368206D01*
D51*
X302220Y462440D02*
X302220Y472600D01*
X302220Y462440D02*
X302220Y437040D01*
D52*
X495260Y464980D03*
D51*
X500340Y464980D02*
X507960Y457360D01*
X500340Y464980D02*
X495260Y464980D01*
X523048Y434652D02*
X537742Y434652D01*
X523048Y434652D02*
X507960Y449740D01*
X507960Y457360D01*
X520736Y449664D02*
X537742Y449664D01*
X520736Y449664D02*
X515580Y454820D01*
X515580Y464980D01*
D52*
X515580Y464980D03*
D51*
X608798Y293530D02*
X623530Y293530D01*
X642580Y312580D02*
X648900Y312580D01*
X637500Y307500D02*
X623530Y293530D01*
X637500Y307500D02*
X642580Y312580D01*
D52*
X535900Y393860D03*
D51*
X542174Y385046D01*
X552982Y385046D01*
X661480Y453400D02*
X674076Y453400D01*
X661480Y453400D02*
X652740Y444660D01*
D52*
X652740Y444660D03*
D51*
X661480Y382280D02*
X674076Y382280D01*
X637500Y358300D02*
X637500Y307500D01*
X637500Y358300D02*
X661480Y382280D01*
D52*
X575270Y438310D03*
D51*
X674076Y382280D02*
X686880Y382280D01*
X690840Y386240D01*
X690840Y448216D01*
X685656Y453400D02*
X674076Y453400D01*
X685656Y453400D02*
X690840Y448216D01*
X575270Y438310D02*
X560830Y438310D01*
X558760Y436240D01*
X555344Y439656D02*
X537742Y439656D01*
X555344Y439656D02*
X558760Y436240D01*
D53*
X435440Y74960D02*
X415400Y74960D01*
X475400Y114920D02*
X498360Y114920D01*
X475400Y114920D02*
X435440Y74960D01*
D51*
X552982Y380042D02*
X567802Y380042D01*
X612100Y424340D02*
X622260Y424340D01*
X629880Y431960D01*
X629880Y437040D01*
X612100Y424340D02*
X567802Y380042D01*
X572654Y395054D02*
X552982Y395054D01*
X604480Y426880D02*
X604480Y437040D01*
X604480Y426880D02*
X572654Y395054D01*
X650500Y401780D02*
X674076Y401780D01*
X607020Y358300D02*
X480020Y358300D01*
X607020Y358300D02*
X650500Y401780D01*
X447000Y391320D02*
X441920Y391320D01*
X434300Y398940D01*
X428164Y398940D01*
X447000Y391320D02*
X480020Y358300D01*
X428164Y398940D02*
X424100Y403004D01*
X424100Y410624D01*
D52*
X424100Y410624D03*
D51*
X599400Y487840D02*
X688300Y487840D01*
X591780Y480220D02*
X591780Y464980D01*
X604480Y452280D01*
X632420Y452280D01*
X642580Y442120D01*
X642580Y426880D01*
X591780Y480220D02*
X599400Y487840D01*
X674076Y472900D02*
X688600Y472900D01*
X690840Y475140D01*
X690840Y485300D01*
X688300Y487840D01*
X642580Y426880D02*
X634960Y419260D01*
D52*
X634960Y419260D03*
D51*
X651620Y395280D02*
X674076Y395280D01*
X609560Y353220D02*
X609560Y345600D01*
X608798Y306230D02*
X621498Y306230D01*
X627340Y312072D01*
X609560Y353220D02*
X651620Y395280D01*
X609560Y345600D02*
X614640Y340520D01*
X619720Y340520D01*
X627340Y332900D01*
X627340Y312072D01*
X577810Y293530D02*
X559522Y293530D01*
X577810Y293530D02*
X591780Y279560D01*
X591780Y259240D01*
X596860Y254160D01*
X674076Y466400D02*
X684340Y466400D01*
X698460Y452280D02*
X698460Y368460D01*
X698460Y452280D02*
X684340Y466400D01*
X721320Y345600D02*
X721320Y307500D01*
X741640Y287180D01*
X741640Y266860D01*
X721320Y345600D02*
X698460Y368460D01*
X728940Y254160D02*
X596860Y254160D01*
X728940Y254160D02*
X741640Y266860D01*
D53*
X837090Y109170D02*
X837090Y82300D01*
X837090Y109170D02*
X835880Y110380D01*
X760890Y153710D02*
X760890Y180090D01*
X760890Y153710D02*
X761420Y153180D01*
D52*
X497800Y368460D03*
X434300Y271940D03*
X375880Y330360D03*
D51*
X608798Y331630D02*
X608798Y318930D01*
X608798Y331630D02*
X590510Y331630D01*
X568920Y353220D02*
X530820Y353220D01*
X568920Y353220D02*
X590510Y331630D01*
D52*
X525740Y348140D03*
D51*
X530820Y353220D01*
X559522Y318930D02*
X559522Y306230D01*
D52*
X528280Y294800D03*
D51*
X539710Y306230D01*
X559522Y306230D01*
D52*
X421600Y256700D03*
X388580Y210980D03*
X276820Y188120D03*
X825460Y216060D03*
D50*
X825460Y244000D01*
X854980Y261780D02*
X869540Y276340D01*
X843240Y261780D02*
X825460Y244000D01*
X843240Y261780D02*
X854980Y261780D01*
X873040Y171020D02*
X873040Y141180D01*
X869540Y250940D02*
X850180Y250940D01*
X840700Y203360D02*
X873040Y171020D01*
X840700Y203360D02*
X840700Y241460D01*
X850180Y250940D01*
X869540Y200140D02*
X908600Y200140D01*
X921980Y213520D01*
X870590Y303010D02*
X870590Y313800D01*
X909280Y274480D02*
X921980Y261780D01*
X909280Y274480D02*
X899120Y274480D01*
X870590Y303010D01*
X921980Y261780D02*
X921980Y213520D01*
X921820Y347500D02*
X875850Y347500D01*
X870590Y342240D01*
X873040Y112740D02*
X930420Y112740D01*
X945480Y127800D02*
X945480Y174780D01*
X934680Y185580D01*
X921190Y185580D01*
X920550Y184940D01*
X945480Y127800D02*
X930420Y112740D01*
D54*
X878800Y452280D03*
D53*
X906010Y452280D01*
X906690Y451600D01*
D51*
X908190Y420710D02*
X898790Y420710D01*
X908190Y420710D02*
X914360Y426880D01*
X914360Y443930D01*
X906010Y452280D01*
D52*
X612100Y381160D03*
X551140Y200820D03*
X579080Y266860D03*
X520660Y231300D03*
D50*
X879136Y225540D02*
X888198Y234602D01*
X879136Y225540D02*
X869540Y225540D01*
X888198Y234602D02*
X888198Y244254D01*
D52*
X888198Y244254D03*
X246340Y89060D03*
X53300Y135896D03*
D54*
X220080Y181360D03*
D50*
X410540Y126540D02*
X422160Y114920D01*
X237220Y154440D02*
X205500Y154440D01*
X237220Y154440D02*
X242390Y149270D01*
D51*
X205500Y135440D02*
X197420Y135440D01*
X193000Y139860D01*
X193000Y150020D01*
X198080Y155100D01*
X204840Y155100D01*
X205500Y154440D01*
D50*
X218200Y162060D02*
X218200Y179480D01*
X218200Y162060D02*
X210580Y154440D01*
X205500Y154440D01*
X218200Y179480D02*
X220080Y181360D01*
D52*
X15200Y119540D03*
D50*
X53300Y119540D01*
X149820Y114460D02*
X149820Y83980D01*
X177760Y56040D02*
X177760Y40800D01*
D52*
X177760Y40800D03*
D50*
X68540Y134780D02*
X53300Y119540D01*
X68540Y134780D02*
X129500Y134780D01*
X149820Y114460D01*
X149820Y83980D02*
X177760Y56040D01*
X375300Y126540D02*
X410540Y126540D01*
D52*
X231100Y356776D03*
D51*
X311364Y278268D02*
X311364Y265336D01*
X311364Y278268D02*
X299680Y289952D01*
X317820Y258880D02*
X343900Y258880D01*
X317820Y258880D02*
X311364Y265336D01*
X299680Y324731D02*
X284440Y340520D01*
X299680Y324731D02*
X299680Y289952D01*
X231100Y356776D02*
X231100Y363148D01*
X279360Y409100D02*
X284440Y404020D01*
X279360Y409100D02*
X264120Y409100D01*
X240244Y385224D02*
X240244Y372292D01*
X284440Y404020D02*
X284440Y340520D01*
X240244Y385224D02*
X264120Y409100D01*
X240244Y372292D02*
X231100Y363148D01*
X711160Y419260D02*
X711160Y462440D01*
X721620Y472900D02*
X730464Y472900D01*
X721620Y472900D02*
X711160Y462440D01*
X565642Y258880D02*
X575991Y248531D01*
X565642Y258880D02*
X458660Y258880D01*
X575991Y248531D02*
X741091Y248531D01*
X746720Y254160D01*
X746720Y299880D02*
X746720Y350680D01*
X746720Y299880D02*
X746720Y254160D01*
X746720Y350680D02*
X739100Y358300D01*
D52*
X739100Y358300D03*
X721320Y419260D03*
D51*
X711160Y419260D01*
X711160Y406560D01*
X715940Y401780D01*
X730464Y401780D01*
X739100Y304960D02*
X741640Y304960D01*
X746720Y299880D01*
X753220Y453400D02*
X730464Y453400D01*
X753220Y453400D02*
X772120Y434500D01*
X772120Y426880D02*
X772120Y396400D01*
X772120Y426880D02*
X772120Y434500D01*
X563571Y253880D02*
X458660Y253880D01*
X573920Y243531D02*
X745702Y243531D01*
X573920Y243531D02*
X563571Y253880D01*
X745702Y243531D02*
X751800Y249629D01*
X751800Y382280D01*
X730464Y382280D01*
X758000Y382280D02*
X772120Y396400D01*
X758000Y382280D02*
X751800Y382280D01*
X761960Y431960D02*
X767040Y431960D01*
X772120Y426880D01*
X730464Y388780D02*
X716240Y388780D01*
X706080Y398940D01*
X706080Y475140D01*
X721320Y490380D01*
X764500Y490380D01*
X777200Y477680D01*
X754340Y459900D02*
X730464Y459900D01*
X777200Y475140D02*
X777200Y477680D01*
X777200Y475140D02*
X777200Y437040D01*
X561500Y248880D02*
X458660Y248880D01*
X571849Y238531D02*
X750313Y238531D01*
X571849Y238531D02*
X561500Y248880D01*
X756880Y373540D02*
X777200Y393860D01*
X777200Y437040D01*
X754340Y459900D01*
X756880Y245098D02*
X750313Y238531D01*
X756880Y245098D02*
X756880Y373540D01*
X777200Y475140D02*
X784820Y482760D01*
X479980Y238880D02*
X458660Y238880D01*
X479980Y238880D02*
X485100Y244000D01*
X559914Y244000D01*
X569955Y233959D02*
X754747Y233959D01*
X761960Y241172D02*
X761960Y371000D01*
X569955Y233959D02*
X559914Y244000D01*
X754747Y233959D02*
X761960Y241172D01*
X750680Y395280D02*
X730464Y395280D01*
X750680Y395280D02*
X761960Y406560D01*
X761960Y416720D01*
D52*
X761960Y416720D03*
X787360Y419260D03*
D51*
X787360Y396400D01*
X761960Y371000D01*
X787360Y419260D02*
X787360Y434500D01*
X343900Y253880D02*
X312660Y253880D01*
D52*
X231100Y337980D03*
D51*
X306792Y276374D02*
X306792Y259748D01*
X306792Y276374D02*
X294600Y288566D01*
X294600Y322740D02*
X279360Y337980D01*
X306792Y259748D02*
X312660Y253880D01*
X294600Y288566D02*
X294600Y322740D01*
X231100Y337980D02*
X231100Y340520D01*
X244816Y383330D02*
X264813Y403327D01*
X274973Y403327D01*
X279360Y398940D01*
X244816Y354236D02*
X231100Y340520D01*
X244816Y354236D02*
X244816Y383330D01*
X279360Y398940D02*
X279360Y337980D01*
X398780Y307460D02*
X398780Y293760D01*
X398780Y307460D02*
X386040Y320200D01*
X386040Y368460D01*
X394460Y376880D02*
X431760Y376880D01*
X394460Y376880D02*
X386040Y368460D01*
D50*
X178980Y133920D02*
X178980Y108300D01*
X178980Y133920D02*
X180500Y135440D01*
D51*
X400010Y387510D02*
X403820Y391320D01*
X400010Y387510D02*
X386520Y387510D01*
X403820Y391320D02*
X403820Y406560D01*
X439380Y434500D02*
X447000Y434500D01*
X439380Y434500D02*
X431760Y426880D01*
X424140Y426880D01*
X403820Y406560D01*
D52*
X447000Y434500D03*
X408900Y439580D03*
D51*
X394930Y425610D01*
X386520Y425610D01*
X343900Y243880D02*
X305429Y243880D01*
D52*
X263104Y386240D03*
D51*
X258024Y310040D02*
X296632Y271432D01*
X258024Y310040D02*
X258024Y381160D01*
X263104Y386240D01*
X296632Y271432D02*
X296632Y252677D01*
X305429Y243880D01*
X957040Y276340D02*
X992510Y276340D01*
X1004530Y264320D01*
X1004530Y151290D01*
X990560Y137320D02*
X990560Y100740D01*
X990560Y137320D02*
X1004530Y151290D01*
X962620Y127160D02*
X962620Y100740D01*
X962620Y127160D02*
X957540Y132240D01*
X957540Y170340D01*
X990560Y180500D02*
X998180Y188120D01*
X998180Y218600D01*
X990560Y226220D01*
X957720Y226220D01*
X957040Y225540D01*
X967700Y180500D02*
X957540Y170340D01*
X967700Y180500D02*
X990560Y180500D01*
X977180Y200140D02*
X957040Y200140D01*
X977180Y200140D02*
X982940Y205900D01*
D52*
X982940Y205900D03*
D51*
X558760Y180500D02*
X495260Y180500D01*
X558760Y180500D02*
X576540Y198280D01*
X576540Y214962D01*
X590965Y229387D01*
X475942Y208880D02*
X458660Y208880D01*
X485100Y190660D02*
X495260Y180500D01*
X485100Y190660D02*
X485100Y199722D01*
X475942Y208880D01*
X707993Y229387D02*
X716240Y221140D01*
D52*
X716240Y221140D03*
D51*
X707993Y229387D02*
X590965Y229387D01*
X942980Y250940D02*
X957040Y250940D01*
X942980Y250940D02*
X934680Y259240D01*
X934680Y289720D01*
X942300Y297340D02*
X975320Y297340D01*
D52*
X975320Y297340D03*
D51*
X942300Y297340D02*
X934680Y289720D01*
X560831Y175500D02*
X493189Y175500D01*
X560831Y175500D02*
X581540Y196209D01*
X581540Y212891D01*
X593464Y224815D01*
X479940Y197811D02*
X473871Y203880D01*
X458660Y203880D01*
X479940Y197811D02*
X479940Y188749D01*
X493189Y175500D01*
X669385Y224815D02*
X675600Y218600D01*
D52*
X675600Y218600D03*
D51*
X669385Y224815D02*
X593464Y224815D01*
X562902Y170500D02*
X491118Y170500D01*
X562902Y170500D02*
X595963Y203561D01*
X474940Y195740D02*
X471800Y198880D01*
X458660Y198880D01*
X474940Y195740D02*
X474940Y186678D01*
X491118Y170500D01*
X595963Y203561D02*
X737269Y203561D01*
X767040Y233332D01*
X767040Y368460D01*
X800060Y401480D01*
X800060Y437040D01*
X787360Y449740D01*
X787360Y467520D01*
X797520Y477680D01*
X800060Y477680D01*
D52*
X800060Y477680D03*
D51*
X886150Y401210D02*
X898790Y401210D01*
X881340Y396400D02*
X881340Y373540D01*
X873720Y365920D01*
X776184Y360978D02*
X776184Y224684D01*
X881340Y396400D02*
X886150Y401210D01*
X873720Y365920D02*
X781126Y365920D01*
X776184Y360978D01*
X776184Y224684D02*
X744180Y192680D01*
X744180Y146654D02*
X743068Y145542D01*
X744180Y146654D02*
X744180Y192680D01*
X413780Y179000D02*
X413780Y150769D01*
X599400Y142400D02*
X609560Y132240D01*
X609560Y68740D01*
X589240Y48420D01*
X422149Y142400D02*
X413780Y150769D01*
X422149Y142400D02*
X656300Y142400D01*
X599400Y142400D01*
X513040Y48420D02*
X507960Y43340D01*
X513040Y48420D02*
X589240Y48420D01*
X507960Y43340D02*
X507960Y25560D01*
X925910Y407710D02*
X943030Y407710D01*
X919410Y414210D02*
X898790Y414210D01*
X919410Y414210D02*
X925910Y407710D01*
X861680Y449080D02*
X832953Y449080D01*
X873720Y419260D02*
X878800Y414180D01*
X898760Y414180D01*
X898790Y414210D01*
X873720Y437040D02*
X861680Y449080D01*
X873720Y437040D02*
X873720Y419260D01*
X873720Y437040D02*
X883880Y437040D01*
X493419Y434652D02*
X485252Y434652D01*
X459954Y409354D02*
X449540Y409354D01*
D52*
X449540Y409354D03*
D51*
X466050Y415450D02*
X485252Y434652D01*
X466050Y415450D02*
X459954Y409354D01*
X466050Y415450D02*
X459700Y421800D01*
X508659Y380042D02*
X517002Y380042D01*
X523200Y386240D01*
X533360Y411640D02*
X543520Y411640D01*
D52*
X543520Y411640D03*
D51*
X523200Y401480D02*
X523200Y386240D01*
X523200Y401480D02*
X533360Y411640D01*
X543520Y411640D02*
X561300Y411640D01*
X711620Y145542D02*
X726068Y145542D01*
X711620Y145542D02*
X711454Y145708D01*
X688048Y145708D01*
X684740Y142400D01*
M02*
