G04 EAGLE Gerber RS-274X export*
G75*
%MOMM*%
%FSLAX34Y34*%
%LPD*%
%INCopper Layer 15*%
%IPPOS*%
%AMOC8*
5,1,8,0,0,1.08239X$1,22.5*%
G01*
%ADD10C,1.524000*%
%ADD11C,1.358000*%
%ADD12C,1.320800*%
%ADD13C,1.920000*%
%ADD14C,1.950000*%
%ADD15C,1.308000*%
%ADD16C,1.725000*%
%ADD17C,1.508000*%
%ADD18C,1.168000*%
%ADD19C,2.520000*%
%ADD20C,4.656100*%
%ADD21C,4.178300*%
%ADD22C,0.914400*%
%ADD23C,0.508000*%
%ADD24C,1.016000*%
%ADD25C,0.254000*%
%ADD26C,1.219200*%


D10*
X93940Y387510D03*
X93940Y412910D03*
X93940Y438310D03*
X93940Y362110D03*
X93940Y336710D03*
D11*
X634960Y508160D03*
X609560Y508160D03*
X584160Y508160D03*
X558760Y508160D03*
X533360Y508160D03*
X507960Y508160D03*
X482560Y508160D03*
X457160Y508160D03*
X416520Y508160D03*
X391120Y508160D03*
X365720Y508160D03*
X340320Y508160D03*
X314920Y508160D03*
X289520Y508160D03*
X264120Y508160D03*
X238720Y508160D03*
X213320Y508160D03*
X187920Y508160D03*
X279360Y25560D03*
X304760Y25560D03*
X330160Y25560D03*
X355560Y25560D03*
X380960Y25560D03*
X406360Y25560D03*
X431760Y25560D03*
X457160Y25560D03*
X507960Y25560D03*
X533360Y25560D03*
X558760Y25560D03*
X584160Y25560D03*
X609560Y25560D03*
X634960Y25560D03*
X660360Y25560D03*
X685760Y25560D03*
X685760Y508160D03*
X711160Y508160D03*
X736560Y508160D03*
X761960Y508160D03*
X787360Y508160D03*
X812760Y508160D03*
X838160Y508160D03*
X863560Y508160D03*
X736560Y25560D03*
X761960Y25560D03*
X787360Y25560D03*
X812760Y25560D03*
X838160Y25560D03*
X863560Y25560D03*
X888960Y25560D03*
X914360Y25560D03*
D12*
X134580Y463710D03*
X160742Y463710D03*
X186904Y463710D03*
X213066Y463710D03*
X239228Y463710D03*
X302220Y462440D03*
X328382Y462440D03*
X354544Y462440D03*
X380706Y462440D03*
X406868Y462440D03*
D13*
X796250Y278290D03*
X819150Y278290D03*
X842050Y278290D03*
D14*
X654010Y273210D03*
X676910Y273210D03*
X699810Y273210D03*
D15*
X898550Y157440D03*
X920550Y184940D03*
X912550Y129940D03*
D13*
X796450Y344920D03*
X819350Y344920D03*
X842250Y344920D03*
D14*
X652940Y339840D03*
X675840Y339840D03*
X698740Y339840D03*
D15*
X899820Y320000D03*
X921820Y347500D03*
X913820Y292500D03*
D16*
X659290Y180090D03*
X684690Y180090D03*
X760890Y180090D03*
X786290Y180090D03*
X811690Y180090D03*
X837090Y180090D03*
X659290Y82300D03*
X684690Y82300D03*
X760890Y82300D03*
X786290Y82300D03*
X811690Y82300D03*
X837090Y82300D03*
D17*
X422160Y114920D03*
X447560Y114920D03*
X498360Y114920D03*
X523760Y114920D03*
X549160Y114920D03*
D18*
X604480Y475140D03*
X617180Y475140D03*
X629880Y475140D03*
X604480Y437040D03*
X617180Y437040D03*
X629880Y437040D03*
D19*
X32980Y349400D03*
X32980Y396400D03*
X32980Y443400D03*
D20*
X110196Y85758D03*
D21*
X50196Y85758D03*
D20*
X80196Y38758D03*
D22*
X55840Y449740D03*
X657820Y505620D03*
X360640Y101760D03*
X104100Y228760D03*
X159980Y172880D03*
X469860Y284640D03*
X218400Y203360D03*
X955000Y437040D03*
X368260Y236380D03*
X728940Y274480D03*
X652740Y424340D03*
X264120Y142400D03*
X731480Y320200D03*
X749260Y442120D03*
X234422Y433718D03*
X739588Y419748D03*
X751800Y480220D03*
X499040Y207170D03*
D23*
X499040Y315120D01*
X499040Y329120D01*
X482560Y345600D01*
X454620Y345600D01*
D22*
X314920Y147480D03*
X454620Y345600D03*
X193000Y221140D03*
D23*
X165060Y221140D01*
X159980Y226220D01*
X110450Y412910D02*
X93940Y412910D01*
X159980Y277020D02*
X159980Y226220D01*
X159980Y277020D02*
X119340Y317660D01*
X119340Y404020D01*
X110450Y412910D01*
X119340Y404020D02*
X119340Y448470D01*
D24*
X193000Y221140D02*
X231100Y221140D01*
D23*
X236180Y221140D01*
X264120Y193200D01*
X264120Y160180D02*
X276820Y147480D01*
X314920Y147480D01*
X264120Y160180D02*
X264120Y193200D01*
X871180Y76360D02*
X871180Y355760D01*
X888960Y373540D01*
X888960Y376080D01*
X888960Y404020D01*
X848320Y444660D01*
X780228Y444660D01*
D22*
X886420Y61120D03*
D24*
X256500Y246540D02*
X231100Y221140D01*
X256500Y246540D02*
X256500Y282100D01*
X294600Y320200D01*
X294600Y398940D01*
X317460Y421800D01*
D23*
X473162Y421800D01*
X482814Y431452D01*
X482814Y473362D01*
X497292Y487840D01*
X744180Y487840D01*
X871180Y76360D02*
X886420Y61120D01*
D22*
X736306Y337726D03*
D23*
X614640Y368460D02*
X604480Y358300D01*
X736052Y337726D02*
X736306Y337726D01*
X736052Y337726D02*
X705318Y368460D01*
X614640Y368460D01*
X604480Y358300D02*
X604480Y335440D01*
X584160Y315120D01*
X499040Y315120D01*
X744180Y487840D02*
X751800Y480220D01*
X744180Y487840D02*
X769580Y487840D01*
X780228Y477192D02*
X780228Y444660D01*
X780228Y477192D02*
X769580Y487840D01*
X780228Y444660D02*
X780228Y437528D01*
X772120Y429420D01*
X749260Y429420D02*
X739588Y419748D01*
X749260Y429420D02*
X772120Y429420D01*
D25*
X888960Y376080D02*
X899120Y365920D01*
D22*
X899120Y365920D03*
D23*
X134580Y463710D02*
X119340Y448470D01*
D22*
X198080Y263050D03*
X196810Y250350D03*
X449540Y304960D03*
X800060Y457360D03*
X764500Y467520D03*
X314920Y294800D03*
X429220Y439580D03*
X596860Y188120D03*
D26*
X218400Y43340D03*
D24*
X233640Y58580D01*
X449540Y58580D02*
X457160Y50960D01*
X457160Y25560D01*
X449540Y58580D02*
X233640Y58580D01*
D22*
X302220Y233840D03*
X165060Y343060D03*
D25*
X165060Y421800D01*
X175220Y431960D01*
X187920Y431960D01*
X200620Y444660D01*
X200620Y472600D02*
X213320Y485300D01*
X213320Y508160D01*
X200620Y472600D02*
X200620Y444660D01*
D22*
X320000Y233840D03*
X190460Y340520D03*
D25*
X194270Y336710D01*
X182840Y325280D01*
X139660Y325280D01*
X132040Y332900D01*
X132040Y371000D01*
X144740Y383700D01*
X144740Y426880D01*
X157440Y439580D01*
X165060Y439580D01*
X172680Y447200D01*
X172680Y475140D01*
X187920Y490380D01*
X187920Y508160D01*
D22*
X269200Y365920D03*
X106640Y505620D03*
X66508Y277020D03*
X105624Y261272D03*
X125944Y262288D03*
X275550Y265590D03*
X190460Y299626D03*
X132040Y419260D03*
X132040Y398940D03*
D26*
X980400Y360840D03*
D22*
X627340Y350680D03*
X144740Y343060D03*
X538440Y467266D03*
X467320Y439580D03*
X624916Y266744D03*
X525740Y269400D03*
X368260Y256700D03*
X474940Y396400D03*
D23*
X549160Y162160D02*
X549160Y114920D01*
X549160Y162160D02*
X535900Y175420D01*
X391120Y175420D02*
X350480Y216060D01*
X391120Y175420D02*
X535900Y175420D01*
X350480Y345600D02*
X365720Y360840D01*
X350480Y345600D02*
X350480Y216060D01*
X365720Y360840D02*
X467320Y360840D01*
X474940Y368460D02*
X474940Y396400D01*
X474940Y368460D02*
X467320Y360840D01*
X474940Y396400D02*
X502880Y396400D01*
X510500Y388780D01*
X510500Y373540D02*
X518120Y365920D01*
X543520Y365920D01*
X553680Y365920D01*
X510500Y373540D02*
X510500Y388780D01*
X553680Y365920D02*
X591780Y404020D01*
X850860Y404020D02*
X868640Y386240D01*
D22*
X868640Y386240D03*
D23*
X850860Y404020D02*
X660360Y404020D01*
D22*
X650200Y475140D03*
D23*
X660360Y404020D02*
X591780Y404020D01*
D25*
X543520Y365920D02*
X543520Y340752D01*
X543404Y340636D01*
D22*
X543404Y340636D03*
X366512Y368206D03*
D25*
X660360Y404020D02*
X673060Y416720D01*
X650200Y467520D02*
X650200Y475140D01*
X650200Y467520D02*
X673060Y444660D01*
X673060Y424340D01*
X673060Y416720D01*
D22*
X673060Y424340D03*
D23*
X366512Y368206D02*
X366243Y367937D01*
X366243Y361363D02*
X365720Y360840D01*
X366243Y361363D02*
X366243Y367937D01*
D22*
X495260Y464980D03*
X515580Y464980D03*
X535900Y393860D03*
D23*
X487640Y162720D02*
X498360Y152000D01*
X385859Y162720D02*
X337780Y210799D01*
X385859Y162720D02*
X487640Y162720D01*
X337780Y210799D02*
X337780Y368460D01*
X520660Y409100D02*
X535900Y393860D01*
X350480Y381160D02*
X337780Y368460D01*
X350480Y381160D02*
X457160Y381160D01*
X462240Y386240D01*
X462240Y401480D01*
X469860Y409100D01*
X520660Y409100D01*
X535900Y393860D02*
X553680Y393860D01*
X575270Y438310D02*
X589240Y452280D01*
X575270Y438310D02*
X575270Y415450D01*
X553680Y393860D01*
D22*
X652740Y444660D03*
D23*
X645120Y452280D01*
X589240Y452280D01*
D22*
X575270Y438310D03*
D23*
X498360Y152000D02*
X498360Y114920D01*
D22*
X424100Y410624D03*
X634960Y419260D03*
D24*
X837090Y115530D02*
X837090Y82300D01*
X837090Y115530D02*
X825460Y127160D01*
X751800Y127160D01*
X676910Y255390D02*
X676910Y273210D01*
X676910Y255390D02*
X685760Y246540D01*
X726400Y246540D01*
X736560Y236380D01*
X736560Y142400D02*
X751800Y127160D01*
X736560Y142400D02*
X736560Y236380D01*
X760890Y209910D02*
X760890Y180090D01*
X807680Y223680D02*
X820380Y236380D01*
X820380Y277060D01*
D23*
X819150Y278290D01*
D24*
X774660Y223680D02*
X760890Y209910D01*
X774660Y223680D02*
X807680Y223680D01*
D23*
X842050Y278290D02*
X856422Y292662D01*
X604480Y393860D02*
X581620Y371000D01*
X581620Y340520D01*
X568920Y327820D01*
X515580Y327820D01*
X856422Y292662D02*
X856422Y367978D01*
X830540Y393860D01*
X604480Y393860D01*
X515580Y327820D02*
X497800Y345600D01*
X497800Y368460D01*
D22*
X497800Y368460D03*
X434300Y271940D03*
D23*
X434300Y292260D01*
X429220Y297340D01*
X375880Y310040D02*
X375880Y330360D01*
D22*
X375880Y330360D03*
D23*
X388580Y297340D02*
X429220Y297340D01*
X388580Y297340D02*
X375880Y310040D01*
D22*
X525740Y348140D03*
X528280Y294800D03*
X421600Y256700D03*
X388580Y210980D03*
D23*
X408900Y231300D01*
X408900Y244000D02*
X421600Y256700D01*
X408900Y244000D02*
X408900Y231300D01*
X388580Y210980D02*
X388580Y203360D01*
X403820Y188120D01*
X556220Y188120D01*
X566380Y198280D01*
X566380Y238920D01*
X779740Y294800D02*
X796250Y278290D01*
X581620Y254160D02*
X566380Y238920D01*
X581620Y254160D02*
X594320Y254160D01*
X634960Y294800D01*
X779740Y294800D01*
X614640Y200820D02*
X614640Y106840D01*
X469860Y152560D02*
X332700Y152560D01*
X469860Y152560D02*
X480020Y142400D01*
X480020Y104300D01*
X487640Y96680D01*
X604480Y96680D01*
X614640Y106840D01*
X654010Y240190D02*
X654010Y273210D01*
X654010Y240190D02*
X614640Y200820D01*
X332700Y152560D02*
X317460Y167800D01*
X284440Y167800D01*
X276820Y175420D01*
X276820Y188120D01*
D22*
X276820Y188120D03*
X825460Y216060D03*
D24*
X920550Y242570D02*
X920550Y184940D01*
X952460Y274480D02*
X952460Y330360D01*
X935320Y347500D01*
X921820Y347500D01*
X952460Y274480D02*
X920550Y242570D01*
X921820Y347500D02*
X921820Y439740D01*
X909280Y452280D02*
X878800Y452280D01*
D26*
X878800Y452280D03*
D24*
X909280Y452280D02*
X921820Y439740D01*
D23*
X842250Y364370D02*
X842250Y344920D01*
X825460Y381160D02*
X612100Y381160D01*
D22*
X612100Y381160D03*
D23*
X825460Y381160D02*
X842250Y364370D01*
D22*
X551140Y200820D03*
D23*
X551140Y254160D01*
X563840Y266860D01*
X579080Y266860D01*
D22*
X579080Y266860D03*
D23*
X594320Y266860D01*
X794300Y342770D02*
X796450Y344920D01*
X794300Y342770D02*
X794300Y324600D01*
X634960Y307500D02*
X594320Y266860D01*
X634960Y307500D02*
X777200Y307500D01*
X794300Y324600D01*
X652940Y339840D02*
X646980Y339840D01*
X586700Y279560D02*
X561300Y279560D01*
X586700Y279560D02*
X646980Y339840D01*
D22*
X520660Y231300D03*
D23*
X533360Y244000D01*
X533360Y251620D01*
X561300Y279560D01*
D22*
X888198Y244254D03*
X246340Y89060D03*
D23*
X54416Y134780D02*
X53300Y135896D01*
D22*
X53300Y135896D03*
D23*
X172680Y89060D02*
X246340Y89060D01*
X172680Y89060D02*
X126960Y134780D01*
X54416Y134780D01*
D26*
X220080Y181360D03*
D24*
X220080Y150880D02*
X243800Y127160D01*
X409920Y127160D02*
X422160Y114920D01*
X409920Y127160D02*
X243800Y127160D01*
X220080Y150880D02*
X220080Y181360D01*
X184520Y181360D01*
X144740Y221140D02*
X144740Y269400D01*
X96480Y317660D01*
X144740Y221140D02*
X184520Y181360D01*
X96480Y317660D02*
X73620Y317660D01*
X60920Y330360D01*
X60920Y415460D02*
X32980Y443400D01*
X60920Y415460D02*
X60920Y330360D01*
D22*
X15200Y119540D03*
X177760Y40800D03*
X231100Y356776D03*
X739100Y358300D03*
X721320Y419260D03*
X761960Y416720D03*
X787360Y419260D03*
X231100Y337980D03*
D25*
X426680Y485300D02*
X447000Y464980D01*
D22*
X447000Y434500D03*
D25*
X447000Y464980D01*
X213066Y463710D02*
X213066Y469606D01*
X228760Y485300D02*
X426680Y485300D01*
X228760Y485300D02*
X213066Y469606D01*
X270470Y463710D02*
X284440Y477680D01*
X419060Y477680D01*
X424140Y472600D01*
X424140Y454820D01*
X408900Y439580D01*
D22*
X408900Y439580D03*
D25*
X270470Y463710D02*
X239228Y463710D01*
D22*
X263104Y386240D03*
D24*
X659290Y180090D02*
X659290Y82300D01*
X32980Y349400D02*
X32980Y396400D01*
X32980Y349400D02*
X32980Y180500D01*
X60920Y152560D01*
X132040Y152560D01*
X175220Y109380D01*
X248880Y109380D01*
X275960Y82300D01*
X451220Y82300D01*
X474940Y58580D01*
X637500Y58580D01*
X660360Y81440D01*
X659290Y82300D01*
D22*
X982940Y205900D03*
X716240Y221140D03*
X975320Y297340D03*
X675600Y218600D03*
X800060Y477680D03*
X449540Y409354D03*
X543520Y411640D03*
M02*
