G04 EAGLE Gerber RS-274X export*
G75*
%MOMM*%
%FSLAX34Y34*%
%LPD*%
%INCopper Layer 2*%
%IPPOS*%
%AMOC8*
5,1,8,0,0,1.08239X$1,22.5*%
G01*
%ADD10C,1.524000*%
%ADD11C,1.358000*%
%ADD12C,1.320800*%
%ADD13C,1.920000*%
%ADD14C,1.950000*%
%ADD15C,1.308000*%
%ADD16C,1.725000*%
%ADD17C,1.508000*%
%ADD18C,1.168000*%
%ADD19C,2.520000*%
%ADD20C,4.656100*%
%ADD21C,4.178300*%
%ADD22C,0.914400*%
%ADD23C,0.254000*%
%ADD24C,0.508000*%
%ADD25C,1.219200*%

G36*
X980580Y2703D02*
X980580Y2703D01*
X980684Y2707D01*
X981892Y2826D01*
X981996Y2849D01*
X982101Y2864D01*
X982181Y2892D01*
X982202Y2896D01*
X982216Y2904D01*
X982253Y2916D01*
X984485Y3841D01*
X984493Y3845D01*
X984502Y3848D01*
X984632Y3924D01*
X984761Y3998D01*
X984768Y4005D01*
X984776Y4009D01*
X984896Y4116D01*
X986604Y5824D01*
X986610Y5831D01*
X986617Y5837D01*
X986707Y5956D01*
X986799Y6075D01*
X986803Y6083D01*
X986809Y6091D01*
X986879Y6235D01*
X987804Y8467D01*
X987832Y8569D01*
X987868Y8669D01*
X987882Y8752D01*
X987888Y8773D01*
X987888Y8789D01*
X987894Y8828D01*
X988013Y10036D01*
X988013Y10055D01*
X988019Y10160D01*
X988019Y26612D01*
X1013048Y51641D01*
X1013108Y51719D01*
X1013176Y51791D01*
X1013205Y51844D01*
X1013242Y51892D01*
X1013282Y51983D01*
X1013330Y52070D01*
X1013345Y52128D01*
X1013369Y52184D01*
X1013384Y52282D01*
X1013409Y52377D01*
X1013415Y52478D01*
X1013419Y52498D01*
X1013417Y52510D01*
X1013419Y52538D01*
X1013419Y377042D01*
X1013407Y377140D01*
X1013404Y377239D01*
X1013387Y377297D01*
X1013379Y377357D01*
X1013343Y377449D01*
X1013315Y377545D01*
X1013285Y377597D01*
X1013262Y377653D01*
X1013204Y377733D01*
X1013154Y377819D01*
X1013088Y377894D01*
X1013076Y377910D01*
X1013066Y377918D01*
X1013048Y377939D01*
X1011469Y379518D01*
X1011391Y379578D01*
X1011319Y379646D01*
X1011266Y379675D01*
X1011218Y379712D01*
X1011127Y379752D01*
X1011040Y379800D01*
X1010982Y379815D01*
X1010926Y379839D01*
X1010828Y379854D01*
X1010733Y379879D01*
X1010633Y379885D01*
X1010612Y379889D01*
X1010600Y379887D01*
X1010572Y379889D01*
X870819Y379889D01*
X870810Y379888D01*
X870801Y379889D01*
X870652Y379868D01*
X870504Y379849D01*
X870495Y379846D01*
X870486Y379845D01*
X870334Y379793D01*
X869954Y379635D01*
X867326Y379635D01*
X866946Y379793D01*
X866937Y379795D01*
X866929Y379800D01*
X866785Y379837D01*
X866640Y379877D01*
X866630Y379877D01*
X866621Y379879D01*
X866461Y379889D01*
X788629Y379889D01*
X788629Y411386D01*
X788614Y411504D01*
X788607Y411623D01*
X788594Y411661D01*
X788589Y411702D01*
X788546Y411812D01*
X788509Y411925D01*
X788487Y411960D01*
X788472Y411997D01*
X788403Y412093D01*
X788339Y412194D01*
X788309Y412222D01*
X788286Y412255D01*
X788194Y412331D01*
X788107Y412412D01*
X788072Y412432D01*
X788041Y412457D01*
X787933Y412508D01*
X787829Y412566D01*
X787789Y412576D01*
X787753Y412593D01*
X787636Y412615D01*
X787521Y412645D01*
X787461Y412649D01*
X787441Y412653D01*
X787420Y412651D01*
X787360Y412655D01*
X786046Y412655D01*
X783619Y413661D01*
X781761Y415519D01*
X780755Y417946D01*
X780755Y420574D01*
X781761Y423001D01*
X783619Y424859D01*
X786046Y425865D01*
X787360Y425865D01*
X787478Y425880D01*
X787597Y425887D01*
X787635Y425900D01*
X787676Y425905D01*
X787786Y425948D01*
X787899Y425985D01*
X787934Y426007D01*
X787971Y426022D01*
X788067Y426091D01*
X788168Y426155D01*
X788196Y426185D01*
X788229Y426208D01*
X788305Y426300D01*
X788386Y426387D01*
X788406Y426422D01*
X788431Y426453D01*
X788482Y426561D01*
X788540Y426665D01*
X788550Y426705D01*
X788567Y426741D01*
X788589Y426858D01*
X788619Y426973D01*
X788623Y427033D01*
X788627Y427053D01*
X788625Y427074D01*
X788629Y427134D01*
X788629Y464980D01*
X788617Y465078D01*
X788614Y465177D01*
X788597Y465235D01*
X788589Y465296D01*
X788553Y465388D01*
X788525Y465483D01*
X788495Y465535D01*
X788472Y465591D01*
X788414Y465671D01*
X788364Y465757D01*
X788298Y465832D01*
X788286Y465849D01*
X788276Y465856D01*
X788258Y465878D01*
X775558Y478578D01*
X775479Y478638D01*
X775407Y478706D01*
X775354Y478735D01*
X775306Y478772D01*
X775215Y478812D01*
X775129Y478860D01*
X775070Y478875D01*
X775014Y478899D01*
X774916Y478914D01*
X774821Y478939D01*
X774721Y478945D01*
X774700Y478949D01*
X774688Y478947D01*
X774660Y478949D01*
X759271Y478949D01*
X759241Y478946D01*
X759212Y478948D01*
X759084Y478926D01*
X758955Y478909D01*
X758928Y478899D01*
X758899Y478894D01*
X758780Y478840D01*
X758659Y478792D01*
X758636Y478775D01*
X758609Y478763D01*
X758507Y478682D01*
X758402Y478606D01*
X758383Y478583D01*
X758360Y478564D01*
X758282Y478461D01*
X758199Y478361D01*
X758187Y478334D01*
X758169Y478310D01*
X758098Y478166D01*
X757399Y476479D01*
X755541Y474621D01*
X753114Y473615D01*
X750486Y473615D01*
X748059Y474621D01*
X746201Y476479D01*
X745502Y478166D01*
X745487Y478191D01*
X745478Y478219D01*
X745409Y478329D01*
X745344Y478442D01*
X745324Y478463D01*
X745308Y478488D01*
X745213Y478577D01*
X745123Y478670D01*
X745098Y478686D01*
X745077Y478706D01*
X744963Y478769D01*
X744852Y478837D01*
X744824Y478845D01*
X744798Y478860D01*
X744672Y478892D01*
X744548Y478930D01*
X744519Y478932D01*
X744490Y478939D01*
X744329Y478949D01*
X657671Y478949D01*
X657621Y478943D01*
X657572Y478945D01*
X657464Y478923D01*
X657355Y478909D01*
X657309Y478891D01*
X657260Y478881D01*
X657161Y478833D01*
X657059Y478792D01*
X657019Y478763D01*
X656975Y478741D01*
X656891Y478670D01*
X656802Y478606D01*
X656770Y478567D01*
X656733Y478535D01*
X656669Y478445D01*
X656599Y478361D01*
X656578Y478316D01*
X656549Y478275D01*
X656510Y478172D01*
X656464Y478073D01*
X656454Y478024D01*
X656437Y477978D01*
X656425Y477868D01*
X656404Y477761D01*
X656407Y477711D01*
X656401Y477662D01*
X656417Y477553D01*
X656424Y477443D01*
X656439Y477396D01*
X656446Y477347D01*
X656498Y477194D01*
X656805Y476454D01*
X656805Y473826D01*
X655799Y471399D01*
X653941Y469541D01*
X651514Y468535D01*
X648886Y468535D01*
X646459Y469541D01*
X644601Y471399D01*
X643595Y473826D01*
X643595Y476454D01*
X643902Y477194D01*
X643915Y477242D01*
X643936Y477287D01*
X643957Y477395D01*
X643986Y477501D01*
X643987Y477551D01*
X643996Y477600D01*
X643989Y477709D01*
X643991Y477819D01*
X643979Y477867D01*
X643976Y477917D01*
X643943Y478021D01*
X643917Y478128D01*
X643894Y478172D01*
X643878Y478219D01*
X643820Y478312D01*
X643768Y478409D01*
X643735Y478446D01*
X643708Y478488D01*
X643628Y478563D01*
X643554Y478645D01*
X643513Y478672D01*
X643477Y478706D01*
X643380Y478759D01*
X643289Y478819D01*
X643241Y478836D01*
X643198Y478860D01*
X643092Y478887D01*
X642988Y478923D01*
X642938Y478927D01*
X642890Y478939D01*
X642729Y478949D01*
X638723Y478949D01*
X638674Y478943D01*
X638624Y478945D01*
X638517Y478923D01*
X638408Y478909D01*
X638361Y478891D01*
X638313Y478881D01*
X638214Y478833D01*
X638112Y478792D01*
X638072Y478763D01*
X638027Y478741D01*
X637943Y478670D01*
X637855Y478606D01*
X637823Y478567D01*
X637785Y478535D01*
X637722Y478445D01*
X637652Y478361D01*
X637631Y478316D01*
X637602Y478275D01*
X637563Y478172D01*
X637516Y478073D01*
X637507Y478024D01*
X637489Y477978D01*
X637477Y477868D01*
X637456Y477761D01*
X637459Y477711D01*
X637454Y477662D01*
X637469Y477553D01*
X637476Y477443D01*
X637491Y477396D01*
X637498Y477347D01*
X637550Y477194D01*
X637753Y476706D01*
X637753Y473574D01*
X636554Y470680D01*
X634340Y468466D01*
X631446Y467267D01*
X628314Y467267D01*
X625420Y468466D01*
X624787Y469100D01*
X624693Y469173D01*
X624603Y469251D01*
X624567Y469270D01*
X624535Y469295D01*
X624426Y469342D01*
X624320Y469396D01*
X624281Y469405D01*
X624244Y469421D01*
X624126Y469440D01*
X624010Y469466D01*
X623970Y469464D01*
X623929Y469471D01*
X623811Y469460D01*
X623692Y469456D01*
X623653Y469445D01*
X623613Y469441D01*
X623501Y469401D01*
X623386Y469368D01*
X623352Y469347D01*
X623314Y469333D01*
X623215Y469266D01*
X623113Y469206D01*
X623067Y469166D01*
X623050Y469155D01*
X623037Y469139D01*
X622992Y469100D01*
X622522Y468630D01*
X621150Y467713D01*
X619625Y467081D01*
X618829Y466923D01*
X618829Y474760D01*
X618814Y474878D01*
X618807Y474997D01*
X618794Y475035D01*
X618789Y475075D01*
X618746Y475186D01*
X618709Y475299D01*
X618687Y475333D01*
X618672Y475371D01*
X618603Y475467D01*
X618539Y475568D01*
X618509Y475596D01*
X618486Y475628D01*
X618394Y475704D01*
X618307Y475786D01*
X618272Y475805D01*
X618241Y475831D01*
X618133Y475882D01*
X618029Y475939D01*
X617989Y475949D01*
X617953Y475967D01*
X617836Y475989D01*
X617721Y476019D01*
X617661Y476023D01*
X617641Y476026D01*
X617620Y476025D01*
X617560Y476029D01*
X616800Y476029D01*
X616682Y476014D01*
X616563Y476007D01*
X616525Y475994D01*
X616484Y475989D01*
X616374Y475945D01*
X616261Y475909D01*
X616226Y475887D01*
X616189Y475872D01*
X616092Y475802D01*
X615992Y475739D01*
X615964Y475709D01*
X615931Y475685D01*
X615855Y475594D01*
X615774Y475507D01*
X615754Y475472D01*
X615729Y475440D01*
X615678Y475333D01*
X615620Y475228D01*
X615610Y475189D01*
X615593Y475153D01*
X615571Y475036D01*
X615541Y474920D01*
X615537Y474860D01*
X615533Y474840D01*
X615535Y474820D01*
X615531Y474760D01*
X615531Y466923D01*
X614735Y467081D01*
X613210Y467713D01*
X611838Y468630D01*
X611368Y469100D01*
X611274Y469173D01*
X611185Y469251D01*
X611149Y469270D01*
X611117Y469295D01*
X611008Y469342D01*
X610902Y469396D01*
X610862Y469405D01*
X610825Y469421D01*
X610707Y469440D01*
X610591Y469466D01*
X610551Y469464D01*
X610511Y469471D01*
X610392Y469460D01*
X610274Y469456D01*
X610235Y469445D01*
X610194Y469441D01*
X610082Y469401D01*
X609968Y469368D01*
X609933Y469347D01*
X609895Y469333D01*
X609797Y469266D01*
X609694Y469206D01*
X609649Y469166D01*
X609632Y469155D01*
X609618Y469139D01*
X609573Y469100D01*
X608940Y468466D01*
X606046Y467267D01*
X602914Y467267D01*
X600020Y468466D01*
X597806Y470680D01*
X596607Y473574D01*
X596607Y476706D01*
X596810Y477194D01*
X596823Y477242D01*
X596844Y477287D01*
X596864Y477395D01*
X596893Y477501D01*
X596894Y477551D01*
X596904Y477600D01*
X596897Y477709D01*
X596899Y477819D01*
X596887Y477867D01*
X596884Y477917D01*
X596850Y478021D01*
X596824Y478128D01*
X596801Y478172D01*
X596786Y478219D01*
X596727Y478312D01*
X596676Y478409D01*
X596642Y478446D01*
X596616Y478488D01*
X596536Y478563D01*
X596462Y478645D01*
X596420Y478672D01*
X596384Y478706D01*
X596288Y478759D01*
X596196Y478819D01*
X596149Y478836D01*
X596106Y478860D01*
X595999Y478887D01*
X595895Y478923D01*
X595846Y478927D01*
X595798Y478939D01*
X595637Y478949D01*
X293076Y478949D01*
X292978Y478937D01*
X292879Y478934D01*
X292821Y478917D01*
X292760Y478909D01*
X292668Y478873D01*
X292573Y478845D01*
X292521Y478815D01*
X292465Y478792D01*
X292385Y478734D01*
X292299Y478684D01*
X292224Y478618D01*
X292207Y478606D01*
X292200Y478596D01*
X292179Y478578D01*
X274653Y461052D01*
X274592Y460973D01*
X274524Y460901D01*
X274495Y460848D01*
X274458Y460800D01*
X274418Y460709D01*
X274370Y460623D01*
X274355Y460564D01*
X274331Y460508D01*
X274316Y460410D01*
X274291Y460315D01*
X274285Y460215D01*
X274281Y460194D01*
X274283Y460182D01*
X274281Y460154D01*
X274281Y422834D01*
X236924Y385477D01*
X151598Y385477D01*
X151500Y385465D01*
X151401Y385462D01*
X151343Y385445D01*
X151282Y385437D01*
X151190Y385401D01*
X151095Y385373D01*
X151043Y385343D01*
X150987Y385320D01*
X150907Y385262D01*
X150821Y385212D01*
X150746Y385146D01*
X150729Y385134D01*
X150722Y385124D01*
X150701Y385106D01*
X120983Y355388D01*
X120922Y355309D01*
X120854Y355237D01*
X120825Y355184D01*
X120788Y355136D01*
X120748Y355045D01*
X120700Y354959D01*
X120685Y354900D01*
X120661Y354844D01*
X120646Y354746D01*
X120621Y354651D01*
X120615Y354551D01*
X120611Y354530D01*
X120613Y354518D01*
X120611Y354490D01*
X120611Y327820D01*
X120626Y327702D01*
X120633Y327583D01*
X120646Y327545D01*
X120651Y327504D01*
X120694Y327394D01*
X120731Y327281D01*
X120753Y327246D01*
X120768Y327209D01*
X120838Y327113D01*
X120901Y327012D01*
X120931Y326984D01*
X120954Y326951D01*
X121046Y326876D01*
X121133Y326794D01*
X121168Y326774D01*
X121199Y326749D01*
X121307Y326698D01*
X121411Y326640D01*
X121451Y326630D01*
X121487Y326613D01*
X121604Y326591D01*
X121719Y326561D01*
X121780Y326557D01*
X121800Y326553D01*
X121820Y326555D01*
X121880Y326551D01*
X368409Y326551D01*
X368459Y326557D01*
X368508Y326555D01*
X368616Y326577D01*
X368725Y326591D01*
X368771Y326609D01*
X368820Y326619D01*
X368919Y326667D01*
X369021Y326708D01*
X369061Y326737D01*
X369105Y326759D01*
X369189Y326830D01*
X369278Y326894D01*
X369310Y326933D01*
X369347Y326965D01*
X369411Y327055D01*
X369481Y327139D01*
X369502Y327184D01*
X369531Y327225D01*
X369570Y327328D01*
X369616Y327427D01*
X369626Y327476D01*
X369643Y327522D01*
X369655Y327632D01*
X369676Y327740D01*
X369673Y327789D01*
X369679Y327839D01*
X369663Y327947D01*
X369656Y328057D01*
X369641Y328104D01*
X369634Y328153D01*
X369582Y328306D01*
X369275Y329046D01*
X369275Y331674D01*
X370281Y334101D01*
X372139Y335959D01*
X374566Y336965D01*
X377194Y336965D01*
X379621Y335959D01*
X381479Y334101D01*
X382485Y331674D01*
X382485Y329046D01*
X382178Y328306D01*
X382165Y328258D01*
X382144Y328213D01*
X382123Y328105D01*
X382094Y327999D01*
X382093Y327949D01*
X382084Y327901D01*
X382091Y327791D01*
X382089Y327681D01*
X382101Y327633D01*
X382104Y327583D01*
X382137Y327479D01*
X382163Y327372D01*
X382186Y327328D01*
X382202Y327281D01*
X382260Y327188D01*
X382312Y327091D01*
X382345Y327054D01*
X382372Y327012D01*
X382452Y326937D01*
X382526Y326855D01*
X382567Y326828D01*
X382603Y326794D01*
X382700Y326741D01*
X382791Y326681D01*
X382838Y326664D01*
X382882Y326640D01*
X382988Y326613D01*
X383092Y326577D01*
X383142Y326573D01*
X383190Y326561D01*
X383351Y326551D01*
X478751Y326551D01*
X478751Y3970D01*
X478766Y3852D01*
X478773Y3733D01*
X478786Y3695D01*
X478791Y3654D01*
X478834Y3544D01*
X478871Y3431D01*
X478893Y3396D01*
X478908Y3359D01*
X478978Y3263D01*
X479041Y3162D01*
X479071Y3134D01*
X479094Y3101D01*
X479186Y3025D01*
X479273Y2944D01*
X479308Y2924D01*
X479339Y2899D01*
X479447Y2848D01*
X479551Y2790D01*
X479591Y2780D01*
X479627Y2763D01*
X479744Y2741D01*
X479859Y2711D01*
X479920Y2707D01*
X479940Y2703D01*
X479960Y2705D01*
X480020Y2701D01*
X980560Y2701D01*
X980580Y2703D01*
G37*
G36*
X475058Y2716D02*
X475058Y2716D01*
X475177Y2723D01*
X475215Y2736D01*
X475256Y2741D01*
X475366Y2784D01*
X475479Y2821D01*
X475514Y2843D01*
X475551Y2858D01*
X475647Y2927D01*
X475748Y2991D01*
X475776Y3021D01*
X475809Y3044D01*
X475885Y3136D01*
X475966Y3223D01*
X475986Y3258D01*
X476011Y3289D01*
X476062Y3397D01*
X476120Y3501D01*
X476130Y3541D01*
X476147Y3577D01*
X476169Y3694D01*
X476199Y3809D01*
X476203Y3869D01*
X476207Y3889D01*
X476205Y3910D01*
X476209Y3970D01*
X476209Y322740D01*
X476194Y322858D01*
X476187Y322977D01*
X476174Y323015D01*
X476169Y323056D01*
X476126Y323166D01*
X476089Y323279D01*
X476067Y323314D01*
X476052Y323351D01*
X475983Y323447D01*
X475919Y323548D01*
X475889Y323576D01*
X475866Y323609D01*
X475774Y323685D01*
X475687Y323766D01*
X475652Y323786D01*
X475621Y323811D01*
X475513Y323862D01*
X475409Y323920D01*
X475369Y323930D01*
X475333Y323947D01*
X475216Y323969D01*
X475101Y323999D01*
X475041Y324003D01*
X475021Y324007D01*
X475000Y324005D01*
X474940Y324009D01*
X378059Y324009D01*
X378050Y324008D01*
X378041Y324009D01*
X377892Y323988D01*
X377744Y323969D01*
X377735Y323966D01*
X377726Y323965D01*
X377574Y323913D01*
X377194Y323755D01*
X374566Y323755D01*
X374186Y323913D01*
X374177Y323915D01*
X374169Y323920D01*
X374025Y323957D01*
X373880Y323997D01*
X373870Y323997D01*
X373861Y323999D01*
X373701Y324009D01*
X341082Y324009D01*
X340964Y323994D01*
X340845Y323987D01*
X340807Y323974D01*
X340766Y323969D01*
X340656Y323926D01*
X340543Y323889D01*
X340508Y323867D01*
X340471Y323852D01*
X340375Y323783D01*
X340274Y323719D01*
X340246Y323689D01*
X340213Y323666D01*
X340137Y323574D01*
X340056Y323487D01*
X340036Y323452D01*
X340011Y323421D01*
X339960Y323313D01*
X339902Y323209D01*
X339892Y323169D01*
X339875Y323133D01*
X339853Y323016D01*
X339823Y322901D01*
X339819Y322841D01*
X339815Y322821D01*
X339817Y322800D01*
X339813Y322740D01*
X339813Y312460D01*
X339825Y312362D01*
X339828Y312263D01*
X339845Y312204D01*
X339853Y312144D01*
X339889Y312052D01*
X339917Y311957D01*
X339947Y311905D01*
X339970Y311849D01*
X340028Y311769D01*
X340078Y311683D01*
X340144Y311608D01*
X340156Y311591D01*
X340166Y311583D01*
X340184Y311562D01*
X372833Y278914D01*
X372833Y261994D01*
X372845Y261895D01*
X372848Y261796D01*
X372865Y261738D01*
X372873Y261678D01*
X372909Y261586D01*
X372937Y261491D01*
X372967Y261439D01*
X372990Y261382D01*
X373048Y261302D01*
X373098Y261217D01*
X373164Y261141D01*
X373176Y261125D01*
X373186Y261117D01*
X373204Y261096D01*
X373859Y260441D01*
X374865Y258014D01*
X374865Y255386D01*
X373859Y252959D01*
X372001Y251101D01*
X369574Y250095D01*
X366946Y250095D01*
X364519Y251101D01*
X362661Y252959D01*
X361655Y255386D01*
X361655Y258014D01*
X362661Y260441D01*
X363316Y261096D01*
X363376Y261174D01*
X363444Y261246D01*
X363473Y261299D01*
X363510Y261347D01*
X363550Y261438D01*
X363598Y261525D01*
X363613Y261583D01*
X363637Y261639D01*
X363652Y261737D01*
X363677Y261833D01*
X363683Y261933D01*
X363687Y261953D01*
X363685Y261966D01*
X363687Y261994D01*
X363687Y274600D01*
X363675Y274698D01*
X363672Y274797D01*
X363655Y274856D01*
X363647Y274916D01*
X363611Y275008D01*
X363583Y275103D01*
X363553Y275155D01*
X363530Y275211D01*
X363472Y275291D01*
X363422Y275377D01*
X363356Y275452D01*
X363344Y275469D01*
X363334Y275477D01*
X363316Y275498D01*
X330667Y308146D01*
X330667Y322740D01*
X330652Y322858D01*
X330645Y322977D01*
X330632Y323015D01*
X330627Y323056D01*
X330584Y323166D01*
X330547Y323279D01*
X330525Y323314D01*
X330510Y323351D01*
X330441Y323447D01*
X330377Y323548D01*
X330347Y323576D01*
X330324Y323609D01*
X330232Y323685D01*
X330145Y323766D01*
X330110Y323786D01*
X330079Y323811D01*
X329971Y323862D01*
X329867Y323920D01*
X329827Y323930D01*
X329791Y323947D01*
X329674Y323969D01*
X329559Y323999D01*
X329499Y324003D01*
X329479Y324007D01*
X329458Y324005D01*
X329398Y324009D01*
X118069Y324009D01*
X118069Y356504D01*
X149838Y388273D01*
X232878Y388273D01*
X232976Y388285D01*
X233075Y388288D01*
X233133Y388305D01*
X233194Y388313D01*
X233286Y388349D01*
X233381Y388377D01*
X233433Y388407D01*
X233489Y388430D01*
X233569Y388488D01*
X233655Y388538D01*
X233730Y388604D01*
X233747Y388616D01*
X233754Y388626D01*
X233776Y388645D01*
X269844Y424713D01*
X269904Y424791D01*
X269972Y424863D01*
X270001Y424916D01*
X270038Y424964D01*
X270078Y425055D01*
X270126Y425141D01*
X270141Y425200D01*
X270165Y425256D01*
X270180Y425354D01*
X270205Y425449D01*
X270211Y425549D01*
X270215Y425570D01*
X270213Y425582D01*
X270215Y425610D01*
X270215Y463438D01*
X288268Y481491D01*
X599171Y481491D01*
X599269Y481503D01*
X599369Y481506D01*
X599427Y481523D01*
X599487Y481531D01*
X599579Y481567D01*
X599674Y481595D01*
X599726Y481625D01*
X599783Y481648D01*
X599863Y481706D01*
X599948Y481756D01*
X600008Y481809D01*
X602914Y483013D01*
X606046Y483013D01*
X608969Y481802D01*
X609042Y481734D01*
X609095Y481705D01*
X609142Y481668D01*
X609233Y481628D01*
X609320Y481580D01*
X609379Y481565D01*
X609434Y481541D01*
X609532Y481526D01*
X609628Y481501D01*
X609728Y481495D01*
X609748Y481491D01*
X609761Y481493D01*
X609789Y481491D01*
X611871Y481491D01*
X611969Y481503D01*
X612069Y481506D01*
X612127Y481523D01*
X612187Y481531D01*
X612279Y481567D01*
X612374Y481595D01*
X612426Y481625D01*
X612483Y481648D01*
X612563Y481706D01*
X612648Y481756D01*
X612708Y481809D01*
X615614Y483013D01*
X618746Y483013D01*
X621669Y481802D01*
X621742Y481734D01*
X621795Y481705D01*
X621842Y481668D01*
X621933Y481628D01*
X622020Y481580D01*
X622079Y481565D01*
X622134Y481541D01*
X622232Y481526D01*
X622328Y481501D01*
X622428Y481495D01*
X622448Y481491D01*
X622461Y481493D01*
X622489Y481491D01*
X624571Y481491D01*
X624669Y481503D01*
X624769Y481506D01*
X624827Y481523D01*
X624887Y481531D01*
X624979Y481567D01*
X625074Y481595D01*
X625126Y481625D01*
X625183Y481648D01*
X625263Y481706D01*
X625348Y481756D01*
X625408Y481809D01*
X628314Y483013D01*
X631446Y483013D01*
X634369Y481802D01*
X634442Y481734D01*
X634495Y481705D01*
X634542Y481668D01*
X634633Y481628D01*
X634720Y481580D01*
X634779Y481565D01*
X634834Y481541D01*
X634932Y481526D01*
X635028Y481501D01*
X635128Y481495D01*
X635148Y481491D01*
X635161Y481493D01*
X635189Y481491D01*
X648021Y481491D01*
X648030Y481492D01*
X648039Y481491D01*
X648188Y481512D01*
X648336Y481531D01*
X648345Y481534D01*
X648354Y481535D01*
X648506Y481587D01*
X648886Y481745D01*
X651514Y481745D01*
X651894Y481587D01*
X651903Y481585D01*
X651911Y481580D01*
X652056Y481543D01*
X652200Y481503D01*
X652210Y481503D01*
X652219Y481501D01*
X652379Y481491D01*
X744329Y481491D01*
X744359Y481494D01*
X744388Y481492D01*
X744516Y481514D01*
X744645Y481531D01*
X744672Y481541D01*
X744701Y481547D01*
X744820Y481600D01*
X744941Y481648D01*
X744964Y481665D01*
X744991Y481677D01*
X745093Y481758D01*
X745198Y481834D01*
X745217Y481857D01*
X745240Y481876D01*
X745318Y481979D01*
X745401Y482079D01*
X745413Y482106D01*
X745431Y482130D01*
X745502Y482274D01*
X746201Y483961D01*
X748059Y485819D01*
X750486Y486825D01*
X753114Y486825D01*
X755541Y485819D01*
X757399Y483961D01*
X758098Y482274D01*
X758113Y482249D01*
X758122Y482221D01*
X758191Y482111D01*
X758256Y481998D01*
X758276Y481977D01*
X758292Y481952D01*
X758387Y481863D01*
X758477Y481770D01*
X758502Y481754D01*
X758523Y481734D01*
X758637Y481671D01*
X758748Y481603D01*
X758776Y481595D01*
X758802Y481580D01*
X758928Y481548D01*
X759052Y481510D01*
X759081Y481508D01*
X759110Y481501D01*
X759271Y481491D01*
X776674Y481491D01*
X791171Y466994D01*
X791171Y459539D01*
X791180Y459470D01*
X791178Y459400D01*
X791199Y459313D01*
X791211Y459224D01*
X791236Y459159D01*
X791253Y459091D01*
X791295Y459012D01*
X791328Y458928D01*
X791369Y458872D01*
X791401Y458810D01*
X791462Y458743D01*
X791514Y458671D01*
X791568Y458626D01*
X791615Y458575D01*
X791690Y458525D01*
X791759Y458468D01*
X791823Y458438D01*
X791881Y458400D01*
X791966Y458371D01*
X792047Y458332D01*
X792116Y458319D01*
X792182Y458297D01*
X792271Y458290D01*
X792360Y458273D01*
X792429Y458277D01*
X792499Y458271D01*
X792587Y458287D01*
X792677Y458292D01*
X792743Y458314D01*
X792812Y458326D01*
X792894Y458363D01*
X792979Y458390D01*
X793038Y458428D01*
X793102Y458456D01*
X793172Y458513D01*
X793248Y458561D01*
X793296Y458611D01*
X793350Y458655D01*
X793405Y458727D01*
X793466Y458792D01*
X793500Y458853D01*
X793542Y458909D01*
X793613Y459054D01*
X794461Y461101D01*
X796319Y462959D01*
X798746Y463965D01*
X801374Y463965D01*
X803801Y462959D01*
X805659Y461101D01*
X806665Y458674D01*
X806665Y456046D01*
X805659Y453619D01*
X803801Y451761D01*
X801374Y450755D01*
X798746Y450755D01*
X796319Y451761D01*
X794461Y453619D01*
X793613Y455666D01*
X793578Y455727D01*
X793552Y455792D01*
X793500Y455864D01*
X793455Y455943D01*
X793407Y455993D01*
X793366Y456049D01*
X793296Y456107D01*
X793234Y456171D01*
X793174Y456207D01*
X793121Y456252D01*
X793039Y456290D01*
X792963Y456337D01*
X792896Y456358D01*
X792833Y456388D01*
X792745Y456404D01*
X792659Y456431D01*
X792589Y456434D01*
X792521Y456447D01*
X792431Y456442D01*
X792341Y456446D01*
X792273Y456432D01*
X792203Y456428D01*
X792118Y456400D01*
X792030Y456382D01*
X791967Y456351D01*
X791901Y456330D01*
X791825Y456282D01*
X791744Y456242D01*
X791691Y456197D01*
X791632Y456159D01*
X791570Y456094D01*
X791502Y456036D01*
X791462Y455979D01*
X791414Y455928D01*
X791371Y455849D01*
X791319Y455776D01*
X791294Y455710D01*
X791260Y455649D01*
X791238Y455562D01*
X791206Y455478D01*
X791198Y455409D01*
X791181Y455341D01*
X791171Y455181D01*
X791171Y425315D01*
X791183Y425217D01*
X791186Y425118D01*
X791203Y425060D01*
X791211Y425000D01*
X791247Y424908D01*
X791275Y424813D01*
X791305Y424761D01*
X791328Y424704D01*
X791386Y424624D01*
X791436Y424539D01*
X791502Y424463D01*
X791514Y424447D01*
X791524Y424439D01*
X791543Y424418D01*
X792959Y423001D01*
X793965Y420574D01*
X793965Y417946D01*
X792959Y415519D01*
X791543Y414102D01*
X791482Y414024D01*
X791414Y413952D01*
X791385Y413899D01*
X791348Y413851D01*
X791308Y413760D01*
X791260Y413673D01*
X791245Y413615D01*
X791221Y413559D01*
X791206Y413461D01*
X791181Y413365D01*
X791175Y413265D01*
X791171Y413245D01*
X791173Y413233D01*
X791171Y413205D01*
X791171Y386240D01*
X791186Y386122D01*
X791193Y386003D01*
X791206Y385965D01*
X791211Y385924D01*
X791254Y385814D01*
X791291Y385701D01*
X791313Y385666D01*
X791328Y385629D01*
X791398Y385533D01*
X791461Y385432D01*
X791491Y385404D01*
X791514Y385371D01*
X791606Y385296D01*
X791693Y385214D01*
X791728Y385194D01*
X791759Y385169D01*
X791867Y385118D01*
X791971Y385060D01*
X792011Y385050D01*
X792047Y385033D01*
X792164Y385011D01*
X792279Y384981D01*
X792340Y384977D01*
X792360Y384973D01*
X792380Y384975D01*
X792440Y384971D01*
X860766Y384971D01*
X860884Y384986D01*
X861003Y384993D01*
X861041Y385006D01*
X861082Y385011D01*
X861192Y385054D01*
X861305Y385091D01*
X861340Y385113D01*
X861377Y385128D01*
X861473Y385198D01*
X861574Y385261D01*
X861602Y385291D01*
X861635Y385314D01*
X861711Y385406D01*
X861792Y385493D01*
X861812Y385528D01*
X861837Y385559D01*
X861888Y385667D01*
X861946Y385771D01*
X861956Y385811D01*
X861973Y385847D01*
X861995Y385964D01*
X862025Y386079D01*
X862029Y386140D01*
X862033Y386160D01*
X862031Y386180D01*
X862035Y386240D01*
X862035Y387554D01*
X863041Y389981D01*
X864899Y391839D01*
X867326Y392845D01*
X869954Y392845D01*
X872381Y391839D01*
X874239Y389981D01*
X875245Y387554D01*
X875245Y386240D01*
X875260Y386122D01*
X875267Y386003D01*
X875280Y385965D01*
X875285Y385924D01*
X875328Y385814D01*
X875365Y385701D01*
X875387Y385666D01*
X875402Y385629D01*
X875471Y385533D01*
X875535Y385432D01*
X875565Y385404D01*
X875588Y385371D01*
X875680Y385296D01*
X875767Y385214D01*
X875802Y385194D01*
X875833Y385169D01*
X875941Y385118D01*
X876045Y385060D01*
X876085Y385050D01*
X876121Y385033D01*
X876238Y385011D01*
X876353Y384981D01*
X876413Y384977D01*
X876433Y384973D01*
X876454Y384975D01*
X876514Y384971D01*
X990560Y384971D01*
X990678Y384986D01*
X990797Y384993D01*
X990835Y385006D01*
X990876Y385011D01*
X990986Y385054D01*
X991099Y385091D01*
X991134Y385113D01*
X991171Y385128D01*
X991267Y385198D01*
X991368Y385261D01*
X991396Y385291D01*
X991429Y385314D01*
X991505Y385406D01*
X991586Y385493D01*
X991606Y385528D01*
X991631Y385559D01*
X991682Y385667D01*
X991740Y385771D01*
X991750Y385811D01*
X991767Y385847D01*
X991789Y385964D01*
X991819Y386079D01*
X991823Y386140D01*
X991827Y386160D01*
X991825Y386180D01*
X991829Y386240D01*
X991829Y398632D01*
X991817Y398730D01*
X991814Y398829D01*
X991797Y398887D01*
X991789Y398947D01*
X991753Y399039D01*
X991725Y399135D01*
X991695Y399187D01*
X991672Y399243D01*
X991614Y399323D01*
X991564Y399409D01*
X991498Y399484D01*
X991486Y399500D01*
X991476Y399508D01*
X991458Y399529D01*
X989879Y401108D01*
X988019Y402968D01*
X988019Y516742D01*
X988007Y516840D01*
X988004Y516939D01*
X987992Y516980D01*
X987992Y516984D01*
X987987Y517000D01*
X987979Y517057D01*
X987943Y517149D01*
X987915Y517245D01*
X987897Y517275D01*
X987894Y517286D01*
X987880Y517308D01*
X987862Y517353D01*
X987804Y517433D01*
X987754Y517519D01*
X987729Y517547D01*
X987724Y517555D01*
X987712Y517566D01*
X987688Y517594D01*
X987676Y517610D01*
X987666Y517618D01*
X987648Y517639D01*
X974639Y530648D01*
X974561Y530708D01*
X974489Y530776D01*
X974436Y530805D01*
X974388Y530842D01*
X974297Y530882D01*
X974210Y530930D01*
X974152Y530945D01*
X974096Y530969D01*
X973998Y530984D01*
X973903Y531009D01*
X973803Y531015D01*
X973782Y531019D01*
X973770Y531017D01*
X973742Y531019D01*
X9960Y531019D01*
X9940Y531017D01*
X9836Y531013D01*
X8628Y530894D01*
X8524Y530871D01*
X8419Y530856D01*
X8339Y530828D01*
X8318Y530824D01*
X8304Y530816D01*
X8267Y530804D01*
X6035Y529879D01*
X6027Y529875D01*
X6018Y529872D01*
X5888Y529796D01*
X5759Y529722D01*
X5752Y529715D01*
X5744Y529711D01*
X5624Y529604D01*
X3916Y527896D01*
X3910Y527889D01*
X3903Y527883D01*
X3813Y527764D01*
X3721Y527645D01*
X3717Y527637D01*
X3711Y527629D01*
X3641Y527485D01*
X2716Y525253D01*
X2688Y525151D01*
X2652Y525051D01*
X2638Y524968D01*
X2632Y524947D01*
X2632Y524931D01*
X2626Y524892D01*
X2507Y523684D01*
X2507Y523665D01*
X2501Y523560D01*
X2501Y10160D01*
X2503Y10140D01*
X2507Y10036D01*
X2626Y8828D01*
X2649Y8724D01*
X2664Y8619D01*
X2692Y8539D01*
X2696Y8518D01*
X2704Y8504D01*
X2716Y8467D01*
X3641Y6235D01*
X3645Y6227D01*
X3648Y6218D01*
X3724Y6088D01*
X3798Y5959D01*
X3805Y5952D01*
X3809Y5944D01*
X3916Y5824D01*
X5624Y4116D01*
X5631Y4110D01*
X5637Y4103D01*
X5756Y4013D01*
X5875Y3921D01*
X5883Y3917D01*
X5891Y3911D01*
X6035Y3841D01*
X8267Y2916D01*
X8369Y2888D01*
X8469Y2852D01*
X8552Y2838D01*
X8573Y2832D01*
X8589Y2832D01*
X8628Y2826D01*
X9836Y2707D01*
X9855Y2707D01*
X9960Y2701D01*
X474940Y2701D01*
X475058Y2716D01*
G37*
%LPC*%
G36*
X106863Y60445D02*
X106863Y60445D01*
X100426Y62170D01*
X94653Y65502D01*
X89940Y70215D01*
X86608Y75988D01*
X84883Y82425D01*
X84883Y89091D01*
X86608Y95528D01*
X89940Y101301D01*
X94653Y106014D01*
X100426Y109346D01*
X106863Y111071D01*
X113529Y111071D01*
X119966Y109346D01*
X125739Y106014D01*
X130452Y101301D01*
X133784Y95528D01*
X135509Y89091D01*
X135509Y82425D01*
X133784Y75988D01*
X130452Y70215D01*
X125739Y65502D01*
X119966Y62170D01*
X113529Y60445D01*
X106863Y60445D01*
G37*
%LPD*%
%LPC*%
G36*
X682570Y169432D02*
X682570Y169432D01*
X678653Y171055D01*
X675655Y174053D01*
X674032Y177970D01*
X674032Y182210D01*
X675655Y186127D01*
X678653Y189125D01*
X682570Y190748D01*
X686810Y190748D01*
X688761Y189940D01*
X688789Y189932D01*
X688816Y189918D01*
X688942Y189890D01*
X689068Y189856D01*
X689097Y189855D01*
X689126Y189849D01*
X689256Y189853D01*
X689386Y189851D01*
X689414Y189858D01*
X689444Y189858D01*
X689568Y189894D01*
X689695Y189925D01*
X689721Y189939D01*
X689749Y189947D01*
X689861Y190013D01*
X689976Y190074D01*
X689998Y190093D01*
X690023Y190108D01*
X690144Y190215D01*
X692246Y192316D01*
X692306Y192395D01*
X692374Y192467D01*
X692403Y192520D01*
X692440Y192568D01*
X692480Y192659D01*
X692528Y192745D01*
X692543Y192804D01*
X692567Y192859D01*
X692582Y192957D01*
X692607Y193053D01*
X692613Y193153D01*
X692617Y193174D01*
X692615Y193186D01*
X692617Y193214D01*
X692617Y242828D01*
X721964Y272174D01*
X722024Y272253D01*
X722092Y272325D01*
X722121Y272378D01*
X722158Y272426D01*
X722198Y272517D01*
X722246Y272603D01*
X722261Y272662D01*
X722285Y272717D01*
X722300Y272815D01*
X722325Y272911D01*
X722331Y273011D01*
X722335Y273032D01*
X722333Y273044D01*
X722335Y273072D01*
X722335Y275794D01*
X723341Y278221D01*
X725199Y280079D01*
X727394Y280988D01*
X727419Y281003D01*
X727447Y281012D01*
X727557Y281082D01*
X727670Y281146D01*
X727691Y281166D01*
X727716Y281182D01*
X727805Y281277D01*
X727898Y281367D01*
X727914Y281392D01*
X727934Y281414D01*
X727997Y281528D01*
X728065Y281638D01*
X728073Y281667D01*
X728088Y281692D01*
X728120Y281818D01*
X728158Y281942D01*
X728160Y281972D01*
X728167Y282000D01*
X728177Y282161D01*
X728177Y313636D01*
X728165Y313735D01*
X728162Y313834D01*
X728145Y313892D01*
X728137Y313952D01*
X728101Y314044D01*
X728073Y314139D01*
X728043Y314191D01*
X728020Y314248D01*
X727962Y314328D01*
X727912Y314413D01*
X727846Y314489D01*
X727834Y314505D01*
X727824Y314513D01*
X727806Y314534D01*
X725881Y316459D01*
X724875Y318886D01*
X724875Y321514D01*
X725881Y323941D01*
X727739Y325799D01*
X730166Y326805D01*
X732794Y326805D01*
X735221Y325799D01*
X737079Y323941D01*
X738085Y321514D01*
X738085Y318886D01*
X737079Y316459D01*
X735154Y314534D01*
X735094Y314456D01*
X735026Y314384D01*
X734997Y314331D01*
X734960Y314283D01*
X734920Y314192D01*
X734872Y314105D01*
X734857Y314047D01*
X734833Y313991D01*
X734818Y313893D01*
X734793Y313797D01*
X734787Y313697D01*
X734783Y313677D01*
X734785Y313664D01*
X734783Y313636D01*
X734783Y277886D01*
X734784Y277877D01*
X734783Y277867D01*
X734804Y277719D01*
X734823Y277570D01*
X734826Y277562D01*
X734827Y277552D01*
X734879Y277400D01*
X735545Y275794D01*
X735545Y273166D01*
X734539Y270739D01*
X732681Y268881D01*
X730254Y267875D01*
X727532Y267875D01*
X727434Y267863D01*
X727335Y267860D01*
X727276Y267843D01*
X727216Y267835D01*
X727124Y267799D01*
X727029Y267771D01*
X726977Y267741D01*
X726921Y267718D01*
X726841Y267660D01*
X726755Y267610D01*
X726680Y267544D01*
X726663Y267532D01*
X726655Y267522D01*
X726634Y267504D01*
X699594Y240464D01*
X699534Y240385D01*
X699466Y240313D01*
X699437Y240260D01*
X699400Y240212D01*
X699360Y240121D01*
X699312Y240035D01*
X699297Y239976D01*
X699273Y239921D01*
X699258Y239823D01*
X699233Y239727D01*
X699227Y239627D01*
X699223Y239606D01*
X699225Y239594D01*
X699223Y239566D01*
X699223Y189952D01*
X694815Y185544D01*
X694797Y185521D01*
X694774Y185502D01*
X694700Y185395D01*
X694620Y185293D01*
X694608Y185266D01*
X694591Y185242D01*
X694545Y185120D01*
X694494Y185001D01*
X694489Y184972D01*
X694478Y184944D01*
X694464Y184815D01*
X694444Y184687D01*
X694446Y184657D01*
X694443Y184628D01*
X694461Y184500D01*
X694473Y184370D01*
X694483Y184342D01*
X694488Y184313D01*
X694540Y184161D01*
X695348Y182210D01*
X695348Y177970D01*
X693725Y174053D01*
X690727Y171055D01*
X686810Y169432D01*
X682570Y169432D01*
G37*
%LPD*%
%LPC*%
G36*
X651666Y261427D02*
X651666Y261427D01*
X647336Y263221D01*
X644021Y266536D01*
X642227Y270866D01*
X642227Y275554D01*
X644021Y279884D01*
X647336Y283199D01*
X651666Y284993D01*
X656354Y284993D01*
X660684Y283199D01*
X663999Y279884D01*
X664287Y279188D01*
X664356Y279067D01*
X664421Y278944D01*
X664435Y278929D01*
X664445Y278912D01*
X664541Y278812D01*
X664635Y278709D01*
X664652Y278698D01*
X664666Y278683D01*
X664785Y278611D01*
X664901Y278534D01*
X664920Y278528D01*
X664937Y278517D01*
X665070Y278476D01*
X665202Y278431D01*
X665222Y278429D01*
X665241Y278423D01*
X665380Y278417D01*
X665519Y278406D01*
X665539Y278409D01*
X665559Y278408D01*
X665695Y278436D01*
X665832Y278460D01*
X665851Y278469D01*
X665870Y278473D01*
X665995Y278534D01*
X666122Y278591D01*
X666138Y278603D01*
X666156Y278612D01*
X666262Y278702D01*
X666370Y278789D01*
X666383Y278806D01*
X666398Y278819D01*
X666478Y278932D01*
X666562Y279043D01*
X666574Y279069D01*
X666581Y279079D01*
X666588Y279098D01*
X666633Y279188D01*
X666921Y279884D01*
X670236Y283199D01*
X674566Y284993D01*
X679254Y284993D01*
X683584Y283199D01*
X686899Y279884D01*
X687187Y279188D01*
X687256Y279067D01*
X687321Y278944D01*
X687335Y278929D01*
X687345Y278912D01*
X687441Y278812D01*
X687535Y278709D01*
X687552Y278698D01*
X687566Y278683D01*
X687685Y278611D01*
X687801Y278534D01*
X687820Y278528D01*
X687837Y278517D01*
X687970Y278476D01*
X688102Y278431D01*
X688122Y278429D01*
X688141Y278423D01*
X688280Y278417D01*
X688419Y278406D01*
X688439Y278409D01*
X688459Y278408D01*
X688595Y278436D01*
X688732Y278460D01*
X688751Y278469D01*
X688770Y278473D01*
X688895Y278534D01*
X689022Y278591D01*
X689038Y278603D01*
X689056Y278612D01*
X689162Y278702D01*
X689270Y278789D01*
X689283Y278806D01*
X689298Y278819D01*
X689378Y278932D01*
X689462Y279043D01*
X689474Y279069D01*
X689481Y279079D01*
X689488Y279098D01*
X689533Y279188D01*
X689821Y279884D01*
X693136Y283199D01*
X697466Y284993D01*
X702154Y284993D01*
X706484Y283199D01*
X709799Y279884D01*
X711593Y275554D01*
X711593Y270866D01*
X709799Y266536D01*
X706484Y263221D01*
X702154Y261427D01*
X697466Y261427D01*
X693136Y263221D01*
X689821Y266536D01*
X689533Y267232D01*
X689527Y267242D01*
X689526Y267244D01*
X689522Y267251D01*
X689464Y267353D01*
X689399Y267476D01*
X689385Y267491D01*
X689375Y267508D01*
X689278Y267609D01*
X689185Y267711D01*
X689168Y267722D01*
X689154Y267737D01*
X689035Y267810D01*
X688919Y267886D01*
X688900Y267892D01*
X688883Y267903D01*
X688750Y267944D01*
X688618Y267989D01*
X688598Y267991D01*
X688579Y267997D01*
X688440Y268003D01*
X688301Y268014D01*
X688281Y268011D01*
X688261Y268012D01*
X688125Y267983D01*
X687988Y267960D01*
X687970Y267951D01*
X687950Y267947D01*
X687824Y267886D01*
X687698Y267829D01*
X687682Y267817D01*
X687664Y267808D01*
X687558Y267717D01*
X687450Y267631D01*
X687437Y267615D01*
X687422Y267601D01*
X687341Y267487D01*
X687258Y267376D01*
X687246Y267351D01*
X687239Y267341D01*
X687232Y267322D01*
X687187Y267232D01*
X686899Y266536D01*
X683584Y263221D01*
X679254Y261427D01*
X674566Y261427D01*
X670236Y263221D01*
X666921Y266536D01*
X666633Y267232D01*
X666627Y267242D01*
X666626Y267244D01*
X666622Y267251D01*
X666564Y267353D01*
X666499Y267476D01*
X666485Y267491D01*
X666475Y267508D01*
X666378Y267609D01*
X666285Y267711D01*
X666268Y267722D01*
X666254Y267737D01*
X666135Y267810D01*
X666019Y267886D01*
X666000Y267892D01*
X665983Y267903D01*
X665850Y267944D01*
X665718Y267989D01*
X665698Y267991D01*
X665679Y267997D01*
X665540Y268003D01*
X665401Y268014D01*
X665381Y268011D01*
X665361Y268012D01*
X665225Y267983D01*
X665088Y267960D01*
X665070Y267951D01*
X665050Y267947D01*
X664924Y267886D01*
X664798Y267829D01*
X664782Y267817D01*
X664764Y267808D01*
X664658Y267717D01*
X664550Y267631D01*
X664537Y267615D01*
X664522Y267601D01*
X664441Y267487D01*
X664358Y267376D01*
X664346Y267351D01*
X664339Y267341D01*
X664332Y267322D01*
X664287Y267232D01*
X663999Y266536D01*
X660684Y263221D01*
X656354Y261427D01*
X651666Y261427D01*
G37*
%LPD*%
%LPC*%
G36*
X650596Y328057D02*
X650596Y328057D01*
X646266Y329851D01*
X642951Y333166D01*
X641157Y337496D01*
X641157Y342184D01*
X642951Y346514D01*
X646266Y349829D01*
X650596Y351623D01*
X655284Y351623D01*
X659614Y349829D01*
X662929Y346514D01*
X663217Y345818D01*
X663286Y345697D01*
X663351Y345574D01*
X663365Y345559D01*
X663375Y345542D01*
X663472Y345442D01*
X663565Y345339D01*
X663582Y345328D01*
X663596Y345313D01*
X663715Y345240D01*
X663831Y345164D01*
X663850Y345158D01*
X663867Y345147D01*
X664001Y345106D01*
X664132Y345061D01*
X664152Y345059D01*
X664171Y345053D01*
X664311Y345047D01*
X664449Y345036D01*
X664469Y345039D01*
X664489Y345038D01*
X664625Y345066D01*
X664762Y345090D01*
X664781Y345099D01*
X664800Y345103D01*
X664925Y345164D01*
X665052Y345221D01*
X665068Y345233D01*
X665086Y345242D01*
X665192Y345333D01*
X665300Y345419D01*
X665313Y345435D01*
X665328Y345449D01*
X665408Y345562D01*
X665492Y345673D01*
X665504Y345699D01*
X665511Y345709D01*
X665518Y345728D01*
X665563Y345818D01*
X665851Y346514D01*
X669166Y349829D01*
X673496Y351623D01*
X678184Y351623D01*
X682514Y349829D01*
X685829Y346514D01*
X686117Y345818D01*
X686186Y345697D01*
X686251Y345574D01*
X686265Y345559D01*
X686275Y345542D01*
X686371Y345442D01*
X686465Y345339D01*
X686482Y345328D01*
X686496Y345313D01*
X686615Y345241D01*
X686731Y345164D01*
X686750Y345158D01*
X686767Y345147D01*
X686900Y345106D01*
X687032Y345061D01*
X687052Y345059D01*
X687071Y345053D01*
X687210Y345047D01*
X687349Y345036D01*
X687369Y345039D01*
X687389Y345038D01*
X687525Y345066D01*
X687662Y345090D01*
X687681Y345099D01*
X687700Y345103D01*
X687825Y345164D01*
X687952Y345221D01*
X687968Y345233D01*
X687986Y345242D01*
X688092Y345332D01*
X688200Y345419D01*
X688213Y345436D01*
X688228Y345449D01*
X688308Y345562D01*
X688392Y345673D01*
X688404Y345699D01*
X688411Y345709D01*
X688418Y345728D01*
X688463Y345818D01*
X688751Y346514D01*
X692066Y349829D01*
X696396Y351623D01*
X701084Y351623D01*
X705414Y349829D01*
X708729Y346514D01*
X710523Y342184D01*
X710523Y337496D01*
X708729Y333166D01*
X705414Y329851D01*
X701084Y328057D01*
X696396Y328057D01*
X692066Y329851D01*
X688751Y333166D01*
X688463Y333862D01*
X688394Y333983D01*
X688329Y334106D01*
X688315Y334121D01*
X688305Y334138D01*
X688208Y334239D01*
X688115Y334341D01*
X688098Y334352D01*
X688084Y334367D01*
X687965Y334440D01*
X687849Y334516D01*
X687830Y334522D01*
X687813Y334533D01*
X687680Y334574D01*
X687548Y334619D01*
X687528Y334621D01*
X687509Y334627D01*
X687370Y334633D01*
X687231Y334644D01*
X687211Y334641D01*
X687191Y334642D01*
X687055Y334613D01*
X686918Y334590D01*
X686900Y334581D01*
X686880Y334577D01*
X686754Y334516D01*
X686628Y334459D01*
X686612Y334447D01*
X686594Y334438D01*
X686488Y334347D01*
X686380Y334261D01*
X686367Y334245D01*
X686352Y334231D01*
X686271Y334117D01*
X686188Y334006D01*
X686176Y333981D01*
X686169Y333971D01*
X686162Y333952D01*
X686117Y333862D01*
X685829Y333166D01*
X682514Y329851D01*
X678184Y328057D01*
X673496Y328057D01*
X669166Y329851D01*
X665851Y333166D01*
X665563Y333862D01*
X665494Y333983D01*
X665429Y334106D01*
X665415Y334121D01*
X665405Y334138D01*
X665308Y334238D01*
X665215Y334341D01*
X665198Y334352D01*
X665184Y334367D01*
X665066Y334439D01*
X664949Y334516D01*
X664930Y334522D01*
X664913Y334533D01*
X664780Y334574D01*
X664648Y334619D01*
X664628Y334621D01*
X664609Y334627D01*
X664469Y334633D01*
X664331Y334644D01*
X664311Y334641D01*
X664291Y334642D01*
X664154Y334613D01*
X664018Y334590D01*
X664000Y334581D01*
X663980Y334577D01*
X663854Y334516D01*
X663728Y334459D01*
X663712Y334447D01*
X663694Y334438D01*
X663588Y334347D01*
X663479Y334261D01*
X663467Y334244D01*
X663452Y334231D01*
X663372Y334118D01*
X663288Y334007D01*
X663276Y333981D01*
X663269Y333971D01*
X663262Y333952D01*
X663217Y333862D01*
X662929Y333166D01*
X659614Y329851D01*
X655284Y328057D01*
X650596Y328057D01*
G37*
%LPD*%
%LPC*%
G36*
X793936Y266657D02*
X793936Y266657D01*
X789661Y268428D01*
X786388Y271701D01*
X784617Y275976D01*
X784617Y280604D01*
X786388Y284879D01*
X789661Y288152D01*
X793936Y289923D01*
X798564Y289923D01*
X802839Y288152D01*
X806112Y284879D01*
X806527Y283876D01*
X806596Y283755D01*
X806661Y283632D01*
X806675Y283617D01*
X806685Y283600D01*
X806781Y283500D01*
X806875Y283397D01*
X806892Y283386D01*
X806906Y283371D01*
X807024Y283299D01*
X807141Y283222D01*
X807160Y283216D01*
X807177Y283205D01*
X807310Y283164D01*
X807442Y283119D01*
X807462Y283117D01*
X807481Y283111D01*
X807620Y283105D01*
X807759Y283094D01*
X807779Y283097D01*
X807799Y283096D01*
X807935Y283124D01*
X808072Y283148D01*
X808090Y283157D01*
X808110Y283161D01*
X808235Y283222D01*
X808362Y283279D01*
X808378Y283291D01*
X808396Y283300D01*
X808502Y283391D01*
X808610Y283477D01*
X808623Y283494D01*
X808638Y283507D01*
X808718Y283620D01*
X808802Y283731D01*
X808814Y283757D01*
X808821Y283767D01*
X808828Y283786D01*
X808873Y283876D01*
X809288Y284879D01*
X812561Y288152D01*
X816836Y289923D01*
X821464Y289923D01*
X825739Y288152D01*
X829012Y284879D01*
X829427Y283876D01*
X829496Y283755D01*
X829561Y283632D01*
X829575Y283617D01*
X829585Y283600D01*
X829681Y283500D01*
X829775Y283397D01*
X829792Y283386D01*
X829806Y283371D01*
X829924Y283299D01*
X830041Y283222D01*
X830060Y283216D01*
X830077Y283205D01*
X830210Y283164D01*
X830342Y283119D01*
X830362Y283117D01*
X830381Y283111D01*
X830520Y283105D01*
X830659Y283094D01*
X830679Y283097D01*
X830699Y283096D01*
X830835Y283124D01*
X830972Y283148D01*
X830990Y283157D01*
X831010Y283161D01*
X831135Y283222D01*
X831262Y283279D01*
X831278Y283291D01*
X831296Y283300D01*
X831402Y283391D01*
X831510Y283477D01*
X831523Y283494D01*
X831538Y283507D01*
X831618Y283620D01*
X831702Y283731D01*
X831714Y283757D01*
X831721Y283767D01*
X831728Y283786D01*
X831773Y283876D01*
X832188Y284879D01*
X835461Y288152D01*
X839736Y289923D01*
X844364Y289923D01*
X848639Y288152D01*
X851912Y284879D01*
X853683Y280604D01*
X853683Y275976D01*
X851912Y271701D01*
X848639Y268428D01*
X844364Y266657D01*
X839736Y266657D01*
X835461Y268428D01*
X832188Y271701D01*
X831773Y272704D01*
X831704Y272824D01*
X831639Y272948D01*
X831625Y272963D01*
X831615Y272980D01*
X831519Y273080D01*
X831425Y273183D01*
X831408Y273194D01*
X831394Y273209D01*
X831275Y273281D01*
X831159Y273358D01*
X831140Y273364D01*
X831123Y273375D01*
X830990Y273416D01*
X830858Y273461D01*
X830838Y273463D01*
X830819Y273469D01*
X830680Y273475D01*
X830541Y273486D01*
X830521Y273483D01*
X830501Y273484D01*
X830365Y273456D01*
X830228Y273432D01*
X830209Y273423D01*
X830190Y273419D01*
X830065Y273358D01*
X829938Y273301D01*
X829922Y273289D01*
X829904Y273280D01*
X829798Y273190D01*
X829690Y273103D01*
X829677Y273086D01*
X829662Y273073D01*
X829582Y272960D01*
X829498Y272849D01*
X829486Y272823D01*
X829479Y272813D01*
X829472Y272794D01*
X829427Y272704D01*
X829012Y271701D01*
X825739Y268428D01*
X821464Y266657D01*
X816836Y266657D01*
X812561Y268428D01*
X809288Y271701D01*
X808873Y272704D01*
X808804Y272824D01*
X808739Y272948D01*
X808725Y272963D01*
X808715Y272980D01*
X808619Y273080D01*
X808525Y273183D01*
X808508Y273194D01*
X808494Y273209D01*
X808375Y273281D01*
X808259Y273358D01*
X808240Y273364D01*
X808223Y273375D01*
X808090Y273416D01*
X807958Y273461D01*
X807938Y273463D01*
X807919Y273469D01*
X807780Y273475D01*
X807641Y273486D01*
X807621Y273483D01*
X807601Y273484D01*
X807465Y273456D01*
X807328Y273432D01*
X807309Y273423D01*
X807290Y273419D01*
X807165Y273358D01*
X807038Y273301D01*
X807022Y273289D01*
X807004Y273280D01*
X806898Y273190D01*
X806790Y273103D01*
X806777Y273086D01*
X806762Y273073D01*
X806682Y272960D01*
X806598Y272849D01*
X806586Y272823D01*
X806579Y272813D01*
X806572Y272794D01*
X806527Y272704D01*
X806112Y271701D01*
X802839Y268428D01*
X798564Y266657D01*
X793936Y266657D01*
G37*
%LPD*%
%LPC*%
G36*
X794136Y333287D02*
X794136Y333287D01*
X789861Y335058D01*
X786588Y338331D01*
X784817Y342606D01*
X784817Y347234D01*
X786588Y351509D01*
X789861Y354782D01*
X794136Y356553D01*
X798764Y356553D01*
X803039Y354782D01*
X806312Y351509D01*
X806727Y350506D01*
X806796Y350385D01*
X806861Y350262D01*
X806875Y350247D01*
X806885Y350230D01*
X806981Y350130D01*
X807075Y350027D01*
X807092Y350016D01*
X807106Y350001D01*
X807225Y349929D01*
X807341Y349852D01*
X807360Y349846D01*
X807377Y349835D01*
X807510Y349794D01*
X807642Y349749D01*
X807662Y349747D01*
X807681Y349741D01*
X807820Y349735D01*
X807959Y349724D01*
X807979Y349727D01*
X807999Y349726D01*
X808135Y349754D01*
X808272Y349778D01*
X808291Y349787D01*
X808310Y349791D01*
X808435Y349852D01*
X808562Y349909D01*
X808578Y349921D01*
X808596Y349930D01*
X808702Y350020D01*
X808810Y350107D01*
X808823Y350124D01*
X808838Y350137D01*
X808918Y350250D01*
X809002Y350361D01*
X809014Y350387D01*
X809021Y350397D01*
X809028Y350416D01*
X809073Y350506D01*
X809488Y351509D01*
X812761Y354782D01*
X817036Y356553D01*
X821664Y356553D01*
X825939Y354782D01*
X829212Y351509D01*
X829627Y350506D01*
X829696Y350385D01*
X829761Y350262D01*
X829775Y350247D01*
X829785Y350230D01*
X829881Y350130D01*
X829975Y350027D01*
X829992Y350016D01*
X830006Y350001D01*
X830125Y349929D01*
X830241Y349852D01*
X830260Y349846D01*
X830277Y349835D01*
X830410Y349794D01*
X830542Y349749D01*
X830562Y349747D01*
X830581Y349741D01*
X830720Y349735D01*
X830859Y349724D01*
X830879Y349727D01*
X830899Y349726D01*
X831035Y349754D01*
X831172Y349778D01*
X831191Y349787D01*
X831210Y349791D01*
X831335Y349852D01*
X831462Y349909D01*
X831478Y349921D01*
X831496Y349930D01*
X831602Y350020D01*
X831710Y350107D01*
X831723Y350124D01*
X831738Y350137D01*
X831818Y350250D01*
X831902Y350361D01*
X831914Y350387D01*
X831921Y350397D01*
X831928Y350416D01*
X831973Y350506D01*
X832388Y351509D01*
X835661Y354782D01*
X839936Y356553D01*
X844564Y356553D01*
X848839Y354782D01*
X852112Y351509D01*
X853883Y347234D01*
X853883Y342606D01*
X852112Y338331D01*
X848839Y335058D01*
X844564Y333287D01*
X839936Y333287D01*
X835661Y335058D01*
X832388Y338331D01*
X831973Y339334D01*
X831904Y339455D01*
X831839Y339578D01*
X831825Y339593D01*
X831815Y339610D01*
X831718Y339710D01*
X831625Y339813D01*
X831608Y339824D01*
X831594Y339839D01*
X831475Y339912D01*
X831359Y339988D01*
X831340Y339994D01*
X831323Y340005D01*
X831190Y340046D01*
X831058Y340091D01*
X831038Y340093D01*
X831019Y340099D01*
X830880Y340105D01*
X830741Y340116D01*
X830721Y340113D01*
X830701Y340114D01*
X830565Y340086D01*
X830428Y340062D01*
X830409Y340053D01*
X830390Y340049D01*
X830265Y339988D01*
X830138Y339931D01*
X830122Y339919D01*
X830104Y339910D01*
X829998Y339819D01*
X829890Y339733D01*
X829877Y339717D01*
X829862Y339703D01*
X829782Y339589D01*
X829698Y339479D01*
X829686Y339453D01*
X829679Y339443D01*
X829672Y339424D01*
X829627Y339334D01*
X829212Y338331D01*
X825939Y335058D01*
X821664Y333287D01*
X817036Y333287D01*
X812761Y335058D01*
X809488Y338331D01*
X809073Y339334D01*
X809004Y339455D01*
X808939Y339578D01*
X808925Y339593D01*
X808915Y339610D01*
X808818Y339710D01*
X808725Y339813D01*
X808708Y339824D01*
X808694Y339839D01*
X808575Y339912D01*
X808459Y339988D01*
X808440Y339994D01*
X808423Y340005D01*
X808290Y340046D01*
X808158Y340091D01*
X808138Y340093D01*
X808119Y340099D01*
X807980Y340105D01*
X807841Y340116D01*
X807821Y340113D01*
X807801Y340114D01*
X807665Y340086D01*
X807528Y340062D01*
X807509Y340053D01*
X807490Y340049D01*
X807365Y339988D01*
X807238Y339931D01*
X807222Y339919D01*
X807204Y339910D01*
X807098Y339819D01*
X806990Y339733D01*
X806977Y339717D01*
X806962Y339703D01*
X806882Y339589D01*
X806798Y339479D01*
X806786Y339453D01*
X806779Y339443D01*
X806772Y339424D01*
X806727Y339334D01*
X806312Y338331D01*
X803039Y335058D01*
X798764Y333287D01*
X794136Y333287D01*
G37*
%LPD*%
%LPC*%
G36*
X148925Y490889D02*
X148925Y490889D01*
X142577Y493519D01*
X137719Y498377D01*
X135089Y504725D01*
X135089Y511595D01*
X137719Y517943D01*
X142577Y522801D01*
X148925Y525431D01*
X155795Y525431D01*
X162143Y522801D01*
X167001Y517943D01*
X169631Y511595D01*
X169631Y504725D01*
X167001Y498377D01*
X162143Y493519D01*
X155795Y490889D01*
X148925Y490889D01*
G37*
%LPD*%
%LPC*%
G36*
X898225Y490889D02*
X898225Y490889D01*
X891877Y493519D01*
X887019Y498377D01*
X884389Y504725D01*
X884389Y511595D01*
X887019Y517943D01*
X891877Y522801D01*
X898225Y525431D01*
X905095Y525431D01*
X911443Y522801D01*
X916301Y517943D01*
X918931Y511595D01*
X918931Y504725D01*
X916301Y498377D01*
X911443Y493519D01*
X905095Y490889D01*
X898225Y490889D01*
G37*
%LPD*%
%LPC*%
G36*
X961725Y8289D02*
X961725Y8289D01*
X955377Y10919D01*
X950519Y15777D01*
X947889Y22125D01*
X947889Y28995D01*
X950519Y35343D01*
X955377Y40201D01*
X961725Y42831D01*
X968595Y42831D01*
X974943Y40201D01*
X979801Y35343D01*
X982431Y28995D01*
X982431Y22125D01*
X979801Y15777D01*
X974943Y10919D01*
X968595Y8289D01*
X961725Y8289D01*
G37*
%LPD*%
%LPC*%
G36*
X136225Y8289D02*
X136225Y8289D01*
X129877Y10919D01*
X125019Y15777D01*
X122389Y22125D01*
X122389Y28995D01*
X125019Y35343D01*
X129877Y40201D01*
X136225Y42831D01*
X143095Y42831D01*
X149443Y40201D01*
X154301Y35343D01*
X156931Y28995D01*
X156931Y22125D01*
X154301Y15777D01*
X149443Y10919D01*
X143095Y8289D01*
X136225Y8289D01*
G37*
%LPD*%
%LPC*%
G36*
X103502Y250603D02*
X103502Y250603D01*
X99581Y252227D01*
X96579Y255229D01*
X94955Y259150D01*
X94955Y263394D01*
X96579Y267315D01*
X99581Y270317D01*
X103502Y271941D01*
X107746Y271941D01*
X111667Y270317D01*
X114605Y267379D01*
X114645Y267348D01*
X114678Y267311D01*
X114770Y267251D01*
X114857Y267184D01*
X114902Y267164D01*
X114944Y267137D01*
X115047Y267101D01*
X115148Y267057D01*
X115198Y267049D01*
X115244Y267033D01*
X115354Y267025D01*
X115462Y267007D01*
X115512Y267012D01*
X115562Y267008D01*
X115670Y267027D01*
X115779Y267037D01*
X115826Y267054D01*
X115875Y267063D01*
X115975Y267108D01*
X116078Y267145D01*
X116119Y267173D01*
X116165Y267193D01*
X116251Y267262D01*
X116342Y267323D01*
X116374Y267361D01*
X116413Y267392D01*
X116479Y267479D01*
X116552Y267562D01*
X116575Y267606D01*
X116604Y267646D01*
X116675Y267790D01*
X116899Y268331D01*
X119901Y271333D01*
X123822Y272957D01*
X128066Y272957D01*
X131987Y271333D01*
X134989Y268331D01*
X136613Y264410D01*
X136613Y260166D01*
X134989Y256245D01*
X131987Y253243D01*
X128066Y251619D01*
X123822Y251619D01*
X119901Y253243D01*
X116963Y256181D01*
X116923Y256212D01*
X116890Y256249D01*
X116848Y256276D01*
X116815Y256308D01*
X116764Y256335D01*
X116711Y256376D01*
X116666Y256396D01*
X116624Y256423D01*
X116572Y256441D01*
X116536Y256461D01*
X116486Y256474D01*
X116420Y256503D01*
X116370Y256511D01*
X116324Y256527D01*
X116264Y256531D01*
X116228Y256541D01*
X116150Y256546D01*
X116106Y256553D01*
X116079Y256550D01*
X116068Y256551D01*
X116064Y256551D01*
X116047Y256549D01*
X116006Y256552D01*
X115898Y256533D01*
X115789Y256523D01*
X115760Y256512D01*
X115749Y256511D01*
X115731Y256504D01*
X115693Y256497D01*
X115593Y256452D01*
X115490Y256415D01*
X115466Y256399D01*
X115453Y256394D01*
X115436Y256382D01*
X115403Y256367D01*
X115317Y256298D01*
X115226Y256237D01*
X115209Y256217D01*
X115196Y256207D01*
X115181Y256189D01*
X115155Y256168D01*
X115089Y256081D01*
X115016Y255998D01*
X115005Y255977D01*
X114993Y255962D01*
X114982Y255938D01*
X114964Y255914D01*
X114893Y255770D01*
X114669Y255229D01*
X111667Y252227D01*
X107746Y250603D01*
X103502Y250603D01*
G37*
%LPD*%
%LPC*%
G36*
X30069Y334767D02*
X30069Y334767D01*
X24691Y336995D01*
X20575Y341111D01*
X18347Y346489D01*
X18347Y352311D01*
X20575Y357689D01*
X24691Y361805D01*
X30069Y364033D01*
X35891Y364033D01*
X41269Y361805D01*
X45385Y357689D01*
X47613Y352311D01*
X47613Y346489D01*
X45385Y341111D01*
X41269Y336995D01*
X35891Y334767D01*
X30069Y334767D01*
G37*
%LPD*%
%LPC*%
G36*
X30069Y428767D02*
X30069Y428767D01*
X24691Y430995D01*
X20575Y435111D01*
X18347Y440489D01*
X18347Y446311D01*
X20575Y451689D01*
X24691Y455805D01*
X30069Y458033D01*
X35891Y458033D01*
X41269Y455805D01*
X45385Y451689D01*
X47613Y446311D01*
X47613Y440489D01*
X45385Y435111D01*
X41269Y430995D01*
X35891Y428767D01*
X30069Y428767D01*
G37*
%LPD*%
%LPC*%
G36*
X30069Y381767D02*
X30069Y381767D01*
X24691Y383995D01*
X20575Y388111D01*
X18347Y393489D01*
X18347Y399311D01*
X20575Y404689D01*
X24691Y408805D01*
X30069Y411033D01*
X35891Y411033D01*
X41269Y408805D01*
X45385Y404689D01*
X47613Y399311D01*
X47613Y393489D01*
X45385Y388111D01*
X41269Y383995D01*
X35891Y381767D01*
X30069Y381767D01*
G37*
%LPD*%
%LPC*%
G36*
X82735Y41297D02*
X82735Y41297D01*
X82735Y64457D01*
X84528Y64254D01*
X87356Y63609D01*
X90093Y62651D01*
X92706Y61393D01*
X95162Y59850D01*
X97429Y58042D01*
X99480Y55991D01*
X101288Y53724D01*
X102831Y51268D01*
X104089Y48655D01*
X105047Y45918D01*
X105692Y43090D01*
X105895Y41297D01*
X82735Y41297D01*
G37*
%LPD*%
%LPC*%
G36*
X82735Y36219D02*
X82735Y36219D01*
X105895Y36219D01*
X105692Y34426D01*
X105047Y31598D01*
X104089Y28861D01*
X102831Y26248D01*
X101288Y23792D01*
X99480Y21525D01*
X97429Y19474D01*
X95162Y17666D01*
X92706Y16123D01*
X90093Y14865D01*
X87356Y13907D01*
X84528Y13262D01*
X82735Y13059D01*
X82735Y36219D01*
G37*
%LPD*%
%LPC*%
G36*
X54497Y41297D02*
X54497Y41297D01*
X54700Y43090D01*
X55345Y45918D01*
X56303Y48655D01*
X57561Y51268D01*
X59104Y53724D01*
X60912Y55991D01*
X62963Y58042D01*
X65230Y59850D01*
X67686Y61393D01*
X70299Y62651D01*
X73036Y63609D01*
X75864Y64254D01*
X77657Y64457D01*
X77657Y41297D01*
X54497Y41297D01*
G37*
%LPD*%
%LPC*%
G36*
X75864Y13262D02*
X75864Y13262D01*
X73036Y13907D01*
X70299Y14865D01*
X67686Y16123D01*
X65230Y17666D01*
X62963Y19474D01*
X60912Y21525D01*
X59104Y23792D01*
X57561Y26248D01*
X56303Y28861D01*
X55345Y31598D01*
X54700Y34426D01*
X54497Y36219D01*
X77657Y36219D01*
X77657Y13059D01*
X75864Y13262D01*
G37*
%LPD*%
%LPC*%
G36*
X784170Y169432D02*
X784170Y169432D01*
X780253Y171055D01*
X777255Y174053D01*
X775632Y177970D01*
X775632Y182210D01*
X777255Y186127D01*
X780253Y189125D01*
X784170Y190748D01*
X788410Y190748D01*
X792327Y189125D01*
X795325Y186127D01*
X796948Y182210D01*
X796948Y177970D01*
X795325Y174053D01*
X792327Y171055D01*
X788410Y169432D01*
X784170Y169432D01*
G37*
%LPD*%
%LPC*%
G36*
X657170Y169432D02*
X657170Y169432D01*
X653253Y171055D01*
X650255Y174053D01*
X648632Y177970D01*
X648632Y182210D01*
X650255Y186127D01*
X653253Y189125D01*
X657170Y190748D01*
X661410Y190748D01*
X665327Y189125D01*
X668325Y186127D01*
X669948Y182210D01*
X669948Y177970D01*
X668325Y174053D01*
X665327Y171055D01*
X661410Y169432D01*
X657170Y169432D01*
G37*
%LPD*%
%LPC*%
G36*
X834970Y71642D02*
X834970Y71642D01*
X831053Y73265D01*
X828055Y76263D01*
X826432Y80180D01*
X826432Y84420D01*
X828055Y88337D01*
X831053Y91335D01*
X834970Y92958D01*
X839210Y92958D01*
X843127Y91335D01*
X846125Y88337D01*
X847748Y84420D01*
X847748Y80180D01*
X846125Y76263D01*
X843127Y73265D01*
X839210Y71642D01*
X834970Y71642D01*
G37*
%LPD*%
%LPC*%
G36*
X784170Y71642D02*
X784170Y71642D01*
X780253Y73265D01*
X777255Y76263D01*
X775632Y80180D01*
X775632Y84420D01*
X777255Y88337D01*
X780253Y91335D01*
X784170Y92958D01*
X788410Y92958D01*
X792327Y91335D01*
X795325Y88337D01*
X796948Y84420D01*
X796948Y80180D01*
X795325Y76263D01*
X792327Y73265D01*
X788410Y71642D01*
X784170Y71642D01*
G37*
%LPD*%
%LPC*%
G36*
X682570Y71642D02*
X682570Y71642D01*
X678653Y73265D01*
X675655Y76263D01*
X674032Y80180D01*
X674032Y84420D01*
X675655Y88337D01*
X678653Y91335D01*
X682570Y92958D01*
X686810Y92958D01*
X690727Y91335D01*
X693725Y88337D01*
X695348Y84420D01*
X695348Y80180D01*
X693725Y76263D01*
X690727Y73265D01*
X686810Y71642D01*
X682570Y71642D01*
G37*
%LPD*%
%LPC*%
G36*
X657170Y71642D02*
X657170Y71642D01*
X653253Y73265D01*
X650255Y76263D01*
X648632Y80180D01*
X648632Y84420D01*
X650255Y88337D01*
X653253Y91335D01*
X657170Y92958D01*
X661410Y92958D01*
X665327Y91335D01*
X668325Y88337D01*
X669948Y84420D01*
X669948Y80180D01*
X668325Y76263D01*
X665327Y73265D01*
X661410Y71642D01*
X657170Y71642D01*
G37*
%LPD*%
%LPC*%
G36*
X809570Y169432D02*
X809570Y169432D01*
X805653Y171055D01*
X802655Y174053D01*
X801032Y177970D01*
X801032Y182210D01*
X802655Y186127D01*
X805653Y189125D01*
X809570Y190748D01*
X813810Y190748D01*
X817727Y189125D01*
X820725Y186127D01*
X822348Y182210D01*
X822348Y177970D01*
X820725Y174053D01*
X817727Y171055D01*
X813810Y169432D01*
X809570Y169432D01*
G37*
%LPD*%
%LPC*%
G36*
X809570Y71642D02*
X809570Y71642D01*
X805653Y73265D01*
X802655Y76263D01*
X801032Y80180D01*
X801032Y84420D01*
X802655Y88337D01*
X805653Y91335D01*
X809570Y92958D01*
X813810Y92958D01*
X817727Y91335D01*
X820725Y88337D01*
X822348Y84420D01*
X822348Y80180D01*
X820725Y76263D01*
X817727Y73265D01*
X813810Y71642D01*
X809570Y71642D01*
G37*
%LPD*%
%LPC*%
G36*
X758770Y169432D02*
X758770Y169432D01*
X754853Y171055D01*
X751855Y174053D01*
X750232Y177970D01*
X750232Y182210D01*
X751855Y186127D01*
X754853Y189125D01*
X758770Y190748D01*
X763010Y190748D01*
X766927Y189125D01*
X769925Y186127D01*
X771548Y182210D01*
X771548Y177970D01*
X769925Y174053D01*
X766927Y171055D01*
X763010Y169432D01*
X758770Y169432D01*
G37*
%LPD*%
%LPC*%
G36*
X52735Y88297D02*
X52735Y88297D01*
X52735Y109052D01*
X54127Y108896D01*
X56693Y108310D01*
X59177Y107441D01*
X61549Y106299D01*
X63777Y104899D01*
X65835Y103258D01*
X67696Y101397D01*
X69337Y99339D01*
X70737Y97111D01*
X71879Y94739D01*
X72748Y92255D01*
X73334Y89689D01*
X73490Y88297D01*
X52735Y88297D01*
G37*
%LPD*%
%LPC*%
G36*
X26902Y88297D02*
X26902Y88297D01*
X27058Y89689D01*
X27644Y92255D01*
X28513Y94739D01*
X29655Y97111D01*
X29720Y97214D01*
X30518Y98483D01*
X31055Y99339D01*
X32696Y101397D01*
X34557Y103258D01*
X36615Y104899D01*
X38843Y106299D01*
X41215Y107441D01*
X43699Y108310D01*
X46265Y108896D01*
X47657Y109052D01*
X47657Y88297D01*
X26902Y88297D01*
G37*
%LPD*%
%LPC*%
G36*
X52735Y83219D02*
X52735Y83219D01*
X73490Y83219D01*
X73334Y81827D01*
X72748Y79261D01*
X71879Y76777D01*
X70737Y74405D01*
X69973Y73190D01*
X69337Y72177D01*
X67696Y70119D01*
X65835Y68258D01*
X63777Y66617D01*
X61549Y65217D01*
X59177Y64075D01*
X56693Y63206D01*
X54127Y62620D01*
X52735Y62464D01*
X52735Y83219D01*
G37*
%LPD*%
%LPC*%
G36*
X46265Y62620D02*
X46265Y62620D01*
X43699Y63206D01*
X41215Y64075D01*
X38843Y65217D01*
X36615Y66617D01*
X34557Y68258D01*
X32696Y70119D01*
X31055Y72177D01*
X29655Y74405D01*
X28513Y76777D01*
X27644Y79261D01*
X27058Y81827D01*
X26902Y83219D01*
X47657Y83219D01*
X47657Y62464D01*
X46265Y62620D01*
G37*
%LPD*%
%LPC*%
G36*
X923606Y147669D02*
X923606Y147669D01*
X920015Y149157D01*
X917267Y151905D01*
X915779Y155496D01*
X915779Y159384D01*
X917267Y162975D01*
X920015Y165723D01*
X923606Y167211D01*
X927494Y167211D01*
X931085Y165723D01*
X933833Y162975D01*
X935321Y159384D01*
X935321Y155496D01*
X933833Y151905D01*
X931085Y149157D01*
X927494Y147669D01*
X923606Y147669D01*
G37*
%LPD*%
%LPC*%
G36*
X978606Y147669D02*
X978606Y147669D01*
X975015Y149157D01*
X972267Y151905D01*
X970779Y155496D01*
X970779Y159384D01*
X972267Y162975D01*
X975015Y165723D01*
X978606Y167211D01*
X982494Y167211D01*
X986085Y165723D01*
X988833Y162975D01*
X990321Y159384D01*
X990321Y155496D01*
X988833Y151905D01*
X986085Y149157D01*
X982494Y147669D01*
X978606Y147669D01*
G37*
%LPD*%
%LPC*%
G36*
X979876Y310229D02*
X979876Y310229D01*
X976285Y311717D01*
X973537Y314465D01*
X972049Y318056D01*
X972049Y321944D01*
X973537Y325535D01*
X976285Y328283D01*
X979876Y329771D01*
X983764Y329771D01*
X987355Y328283D01*
X990103Y325535D01*
X991591Y321944D01*
X991591Y318056D01*
X990103Y314465D01*
X987355Y311717D01*
X983764Y310229D01*
X979876Y310229D01*
G37*
%LPD*%
%LPC*%
G36*
X924876Y310229D02*
X924876Y310229D01*
X921285Y311717D01*
X918537Y314465D01*
X917049Y318056D01*
X917049Y321944D01*
X918537Y325535D01*
X921285Y328283D01*
X924876Y329771D01*
X928764Y329771D01*
X932355Y328283D01*
X935103Y325535D01*
X936591Y321944D01*
X936591Y318056D01*
X935103Y314465D01*
X932355Y311717D01*
X928764Y310229D01*
X924876Y310229D01*
G37*
%LPD*%
%LPC*%
G36*
X92020Y428657D02*
X92020Y428657D01*
X88472Y430127D01*
X85757Y432842D01*
X84287Y436390D01*
X84287Y440230D01*
X85757Y443778D01*
X88472Y446493D01*
X92020Y447963D01*
X95860Y447963D01*
X99408Y446493D01*
X102123Y443778D01*
X103593Y440230D01*
X103593Y436390D01*
X102123Y432842D01*
X99408Y430127D01*
X95860Y428657D01*
X92020Y428657D01*
G37*
%LPD*%
%LPC*%
G36*
X92020Y327057D02*
X92020Y327057D01*
X88472Y328527D01*
X85757Y331242D01*
X84287Y334790D01*
X84287Y338630D01*
X85757Y342178D01*
X88472Y344893D01*
X92020Y346363D01*
X95860Y346363D01*
X99408Y344893D01*
X102123Y342178D01*
X103593Y338630D01*
X103593Y334790D01*
X102123Y331242D01*
X99408Y328527D01*
X95860Y327057D01*
X92020Y327057D01*
G37*
%LPD*%
%LPC*%
G36*
X92020Y352457D02*
X92020Y352457D01*
X88472Y353927D01*
X85757Y356642D01*
X84287Y360190D01*
X84287Y364030D01*
X85757Y367578D01*
X88472Y370293D01*
X92020Y371763D01*
X95860Y371763D01*
X99408Y370293D01*
X102123Y367578D01*
X103593Y364030D01*
X103593Y360190D01*
X102123Y356642D01*
X99408Y353927D01*
X95860Y352457D01*
X92020Y352457D01*
G37*
%LPD*%
%LPC*%
G36*
X92020Y403257D02*
X92020Y403257D01*
X88472Y404727D01*
X85757Y407442D01*
X84287Y410990D01*
X84287Y414830D01*
X85757Y418378D01*
X88472Y421093D01*
X92020Y422563D01*
X95860Y422563D01*
X99408Y421093D01*
X102123Y418378D01*
X103593Y414830D01*
X103593Y410990D01*
X102123Y407442D01*
X99408Y404727D01*
X95860Y403257D01*
X92020Y403257D01*
G37*
%LPD*%
%LPC*%
G36*
X420256Y105347D02*
X420256Y105347D01*
X416738Y106805D01*
X414045Y109498D01*
X412587Y113016D01*
X412587Y116824D01*
X414045Y120342D01*
X416738Y123035D01*
X420256Y124493D01*
X424064Y124493D01*
X427582Y123035D01*
X430275Y120342D01*
X431733Y116824D01*
X431733Y113016D01*
X430275Y109498D01*
X427582Y106805D01*
X424064Y105347D01*
X420256Y105347D01*
G37*
%LPD*%
%LPC*%
G36*
X496456Y105347D02*
X496456Y105347D01*
X492938Y106805D01*
X490245Y109498D01*
X488787Y113016D01*
X488787Y116824D01*
X490245Y120342D01*
X492938Y123035D01*
X496456Y124493D01*
X500264Y124493D01*
X503782Y123035D01*
X506475Y120342D01*
X507933Y116824D01*
X507933Y113016D01*
X506475Y109498D01*
X503782Y106805D01*
X500264Y105347D01*
X496456Y105347D01*
G37*
%LPD*%
%LPC*%
G36*
X547256Y105347D02*
X547256Y105347D01*
X543738Y106805D01*
X541045Y109498D01*
X539587Y113016D01*
X539587Y116824D01*
X541045Y120342D01*
X543738Y123035D01*
X547256Y124493D01*
X551064Y124493D01*
X554582Y123035D01*
X557275Y120342D01*
X558733Y116824D01*
X558733Y113016D01*
X557275Y109498D01*
X554582Y106805D01*
X551064Y105347D01*
X547256Y105347D01*
G37*
%LPD*%
%LPC*%
G36*
X195496Y243745D02*
X195496Y243745D01*
X193069Y244751D01*
X191211Y246609D01*
X190205Y249036D01*
X190205Y251664D01*
X191211Y254091D01*
X193069Y255949D01*
X193273Y256034D01*
X193317Y256059D01*
X193363Y256075D01*
X193454Y256137D01*
X193550Y256192D01*
X193585Y256226D01*
X193627Y256254D01*
X193699Y256336D01*
X193778Y256413D01*
X193804Y256455D01*
X193837Y256492D01*
X193887Y256590D01*
X193944Y256684D01*
X193959Y256731D01*
X193982Y256776D01*
X194006Y256883D01*
X194038Y256988D01*
X194040Y257038D01*
X194051Y257086D01*
X194048Y257196D01*
X194053Y257306D01*
X194043Y257354D01*
X194042Y257404D01*
X194011Y257509D01*
X193989Y257617D01*
X193967Y257662D01*
X193953Y257709D01*
X193897Y257804D01*
X193849Y257903D01*
X193817Y257940D01*
X193792Y257983D01*
X193685Y258104D01*
X192481Y259309D01*
X191475Y261736D01*
X191475Y264364D01*
X192481Y266791D01*
X194339Y268649D01*
X196766Y269655D01*
X199394Y269655D01*
X201821Y268649D01*
X203679Y266791D01*
X204685Y264364D01*
X204685Y261736D01*
X203679Y259309D01*
X201821Y257451D01*
X201617Y257366D01*
X201573Y257341D01*
X201527Y257325D01*
X201436Y257263D01*
X201340Y257208D01*
X201305Y257174D01*
X201263Y257146D01*
X201191Y257064D01*
X201112Y256987D01*
X201086Y256945D01*
X201053Y256908D01*
X201003Y256810D01*
X200946Y256716D01*
X200931Y256669D01*
X200908Y256624D01*
X200884Y256517D01*
X200852Y256412D01*
X200850Y256362D01*
X200839Y256314D01*
X200842Y256204D01*
X200837Y256094D01*
X200847Y256046D01*
X200848Y255996D01*
X200879Y255891D01*
X200901Y255783D01*
X200923Y255738D01*
X200937Y255691D01*
X200993Y255596D01*
X201041Y255497D01*
X201073Y255460D01*
X201098Y255417D01*
X201205Y255296D01*
X202409Y254091D01*
X203415Y251664D01*
X203415Y249036D01*
X202409Y246609D01*
X200551Y244751D01*
X198124Y243745D01*
X195496Y243745D01*
G37*
%LPD*%
%LPC*%
G36*
X618829Y436660D02*
X618829Y436660D01*
X618814Y436778D01*
X618807Y436897D01*
X618794Y436935D01*
X618789Y436975D01*
X618768Y437031D01*
X618789Y437144D01*
X618819Y437260D01*
X618823Y437320D01*
X618827Y437340D01*
X618825Y437360D01*
X618829Y437420D01*
X618829Y445257D01*
X619625Y445099D01*
X621150Y444467D01*
X622522Y443550D01*
X622992Y443080D01*
X623086Y443007D01*
X623175Y442929D01*
X623211Y442910D01*
X623243Y442886D01*
X623352Y442838D01*
X623458Y442784D01*
X623498Y442775D01*
X623535Y442759D01*
X623653Y442740D01*
X623769Y442714D01*
X623809Y442716D01*
X623849Y442709D01*
X623968Y442720D01*
X624086Y442724D01*
X624125Y442735D01*
X624166Y442739D01*
X624278Y442779D01*
X624392Y442812D01*
X624427Y442833D01*
X624465Y442847D01*
X624563Y442913D01*
X624666Y442974D01*
X624711Y443014D01*
X624728Y443025D01*
X624741Y443041D01*
X624787Y443080D01*
X625420Y443714D01*
X628314Y444913D01*
X631446Y444913D01*
X634340Y443714D01*
X636554Y441500D01*
X637753Y438606D01*
X637753Y435474D01*
X636554Y432580D01*
X634340Y430366D01*
X631446Y429167D01*
X628314Y429167D01*
X625420Y430366D01*
X624787Y431000D01*
X624693Y431073D01*
X624603Y431151D01*
X624567Y431170D01*
X624535Y431195D01*
X624426Y431242D01*
X624320Y431296D01*
X624281Y431305D01*
X624244Y431321D01*
X624126Y431340D01*
X624010Y431366D01*
X623970Y431364D01*
X623929Y431371D01*
X623811Y431360D01*
X623692Y431356D01*
X623653Y431345D01*
X623613Y431341D01*
X623501Y431301D01*
X623386Y431268D01*
X623352Y431247D01*
X623314Y431233D01*
X623215Y431166D01*
X623113Y431106D01*
X623067Y431066D01*
X623050Y431055D01*
X623037Y431039D01*
X622992Y431000D01*
X622522Y430530D01*
X621150Y429613D01*
X619625Y428981D01*
X618829Y428823D01*
X618829Y436660D01*
G37*
%LPD*%
%LPC*%
G36*
X614735Y428981D02*
X614735Y428981D01*
X613210Y429613D01*
X611838Y430530D01*
X611368Y431000D01*
X611274Y431073D01*
X611185Y431151D01*
X611149Y431170D01*
X611117Y431195D01*
X611008Y431242D01*
X610902Y431296D01*
X610862Y431305D01*
X610825Y431321D01*
X610707Y431340D01*
X610591Y431366D01*
X610551Y431364D01*
X610511Y431371D01*
X610392Y431360D01*
X610274Y431356D01*
X610235Y431345D01*
X610194Y431341D01*
X610082Y431301D01*
X609968Y431268D01*
X609933Y431247D01*
X609895Y431233D01*
X609797Y431166D01*
X609694Y431106D01*
X609649Y431066D01*
X609632Y431055D01*
X609618Y431039D01*
X609573Y431000D01*
X608940Y430366D01*
X606046Y429167D01*
X602914Y429167D01*
X600020Y430366D01*
X597806Y432580D01*
X596607Y435474D01*
X596607Y438606D01*
X597806Y441500D01*
X600020Y443714D01*
X602914Y444913D01*
X606046Y444913D01*
X608940Y443714D01*
X609573Y443080D01*
X609667Y443008D01*
X609757Y442929D01*
X609793Y442910D01*
X609825Y442886D01*
X609934Y442838D01*
X610040Y442784D01*
X610079Y442775D01*
X610116Y442759D01*
X610234Y442740D01*
X610350Y442714D01*
X610390Y442716D01*
X610430Y442709D01*
X610549Y442720D01*
X610668Y442724D01*
X610707Y442735D01*
X610747Y442739D01*
X610859Y442779D01*
X610973Y442812D01*
X611008Y442833D01*
X611046Y442847D01*
X611145Y442913D01*
X611247Y442974D01*
X611293Y443014D01*
X611310Y443025D01*
X611323Y443041D01*
X611368Y443080D01*
X611838Y443550D01*
X613210Y444467D01*
X614735Y445099D01*
X615531Y445257D01*
X615531Y437420D01*
X615546Y437302D01*
X615553Y437183D01*
X615565Y437145D01*
X615571Y437105D01*
X615592Y437049D01*
X615571Y436936D01*
X615541Y436820D01*
X615537Y436760D01*
X615533Y436740D01*
X615535Y436720D01*
X615531Y436660D01*
X615531Y428823D01*
X614735Y428981D01*
G37*
%LPD*%
%LPC*%
G36*
X379205Y16737D02*
X379205Y16737D01*
X375962Y18080D01*
X373480Y20562D01*
X372137Y23805D01*
X372137Y27315D01*
X373480Y30558D01*
X375962Y33040D01*
X379205Y34383D01*
X382715Y34383D01*
X385958Y33040D01*
X388440Y30558D01*
X389783Y27315D01*
X389783Y23805D01*
X388440Y20562D01*
X385958Y18080D01*
X382715Y16737D01*
X379205Y16737D01*
G37*
%LPD*%
%LPC*%
G36*
X455405Y16737D02*
X455405Y16737D01*
X452162Y18080D01*
X449680Y20562D01*
X448337Y23805D01*
X448337Y27315D01*
X449680Y30558D01*
X452162Y33040D01*
X455405Y34383D01*
X458915Y34383D01*
X462158Y33040D01*
X464640Y30558D01*
X465983Y27315D01*
X465983Y23805D01*
X464640Y20562D01*
X462158Y18080D01*
X458915Y16737D01*
X455405Y16737D01*
G37*
%LPD*%
%LPC*%
G36*
X658605Y16737D02*
X658605Y16737D01*
X655362Y18080D01*
X652880Y20562D01*
X651537Y23805D01*
X651537Y27315D01*
X652880Y30558D01*
X655362Y33040D01*
X658605Y34383D01*
X662115Y34383D01*
X665358Y33040D01*
X667840Y30558D01*
X669183Y27315D01*
X669183Y23805D01*
X667840Y20562D01*
X665358Y18080D01*
X662115Y16737D01*
X658605Y16737D01*
G37*
%LPD*%
%LPC*%
G36*
X684005Y16737D02*
X684005Y16737D01*
X680762Y18080D01*
X678280Y20562D01*
X676937Y23805D01*
X676937Y27315D01*
X678280Y30558D01*
X680762Y33040D01*
X684005Y34383D01*
X687515Y34383D01*
X690758Y33040D01*
X693240Y30558D01*
X694583Y27315D01*
X694583Y23805D01*
X693240Y20562D01*
X690758Y18080D01*
X687515Y16737D01*
X684005Y16737D01*
G37*
%LPD*%
%LPC*%
G36*
X734805Y16737D02*
X734805Y16737D01*
X731562Y18080D01*
X729080Y20562D01*
X727737Y23805D01*
X727737Y27315D01*
X729080Y30558D01*
X731562Y33040D01*
X734805Y34383D01*
X738315Y34383D01*
X741558Y33040D01*
X744040Y30558D01*
X745383Y27315D01*
X745383Y23805D01*
X744040Y20562D01*
X741558Y18080D01*
X738315Y16737D01*
X734805Y16737D01*
G37*
%LPD*%
%LPC*%
G36*
X414765Y499337D02*
X414765Y499337D01*
X411522Y500680D01*
X409040Y503162D01*
X407697Y506405D01*
X407697Y509915D01*
X409040Y513158D01*
X411522Y515640D01*
X414765Y516983D01*
X418275Y516983D01*
X421518Y515640D01*
X424000Y513158D01*
X425343Y509915D01*
X425343Y506405D01*
X424000Y503162D01*
X421518Y500680D01*
X418275Y499337D01*
X414765Y499337D01*
G37*
%LPD*%
%LPC*%
G36*
X760205Y16737D02*
X760205Y16737D01*
X756962Y18080D01*
X754480Y20562D01*
X753137Y23805D01*
X753137Y27315D01*
X754480Y30558D01*
X756962Y33040D01*
X760205Y34383D01*
X763715Y34383D01*
X766958Y33040D01*
X769440Y30558D01*
X770783Y27315D01*
X770783Y23805D01*
X769440Y20562D01*
X766958Y18080D01*
X763715Y16737D01*
X760205Y16737D01*
G37*
%LPD*%
%LPC*%
G36*
X785605Y16737D02*
X785605Y16737D01*
X782362Y18080D01*
X779880Y20562D01*
X778537Y23805D01*
X778537Y27315D01*
X779880Y30558D01*
X782362Y33040D01*
X785605Y34383D01*
X789115Y34383D01*
X792358Y33040D01*
X794840Y30558D01*
X796183Y27315D01*
X796183Y23805D01*
X794840Y20562D01*
X792358Y18080D01*
X789115Y16737D01*
X785605Y16737D01*
G37*
%LPD*%
%LPC*%
G36*
X836405Y16737D02*
X836405Y16737D01*
X833162Y18080D01*
X830680Y20562D01*
X829337Y23805D01*
X829337Y27315D01*
X830680Y30558D01*
X833162Y33040D01*
X836405Y34383D01*
X839915Y34383D01*
X843158Y33040D01*
X845640Y30558D01*
X846983Y27315D01*
X846983Y23805D01*
X845640Y20562D01*
X843158Y18080D01*
X839915Y16737D01*
X836405Y16737D01*
G37*
%LPD*%
%LPC*%
G36*
X861805Y16737D02*
X861805Y16737D01*
X858562Y18080D01*
X856080Y20562D01*
X854737Y23805D01*
X854737Y27315D01*
X856080Y30558D01*
X858562Y33040D01*
X861805Y34383D01*
X865315Y34383D01*
X868558Y33040D01*
X871040Y30558D01*
X872383Y27315D01*
X872383Y23805D01*
X871040Y20562D01*
X868558Y18080D01*
X865315Y16737D01*
X861805Y16737D01*
G37*
%LPD*%
%LPC*%
G36*
X887205Y16737D02*
X887205Y16737D01*
X883962Y18080D01*
X881480Y20562D01*
X880137Y23805D01*
X880137Y27315D01*
X881480Y30558D01*
X883962Y33040D01*
X887205Y34383D01*
X890715Y34383D01*
X893958Y33040D01*
X896440Y30558D01*
X897783Y27315D01*
X897783Y23805D01*
X896440Y20562D01*
X893958Y18080D01*
X890715Y16737D01*
X887205Y16737D01*
G37*
%LPD*%
%LPC*%
G36*
X912605Y16737D02*
X912605Y16737D01*
X909362Y18080D01*
X906880Y20562D01*
X905537Y23805D01*
X905537Y27315D01*
X906880Y30558D01*
X909362Y33040D01*
X912605Y34383D01*
X916115Y34383D01*
X919358Y33040D01*
X921840Y30558D01*
X923183Y27315D01*
X923183Y23805D01*
X921840Y20562D01*
X919358Y18080D01*
X916115Y16737D01*
X912605Y16737D01*
G37*
%LPD*%
%LPC*%
G36*
X811005Y16737D02*
X811005Y16737D01*
X807762Y18080D01*
X805280Y20562D01*
X803937Y23805D01*
X803937Y27315D01*
X805280Y30558D01*
X807762Y33040D01*
X811005Y34383D01*
X814515Y34383D01*
X817758Y33040D01*
X820240Y30558D01*
X821583Y27315D01*
X821583Y23805D01*
X820240Y20562D01*
X817758Y18080D01*
X814515Y16737D01*
X811005Y16737D01*
G37*
%LPD*%
%LPC*%
G36*
X557005Y16737D02*
X557005Y16737D01*
X553762Y18080D01*
X551280Y20562D01*
X549937Y23805D01*
X549937Y27315D01*
X551280Y30558D01*
X553762Y33040D01*
X557005Y34383D01*
X560515Y34383D01*
X563758Y33040D01*
X566240Y30558D01*
X567583Y27315D01*
X567583Y23805D01*
X566240Y20562D01*
X563758Y18080D01*
X560515Y16737D01*
X557005Y16737D01*
G37*
%LPD*%
%LPC*%
G36*
X506205Y16737D02*
X506205Y16737D01*
X502962Y18080D01*
X500480Y20562D01*
X499137Y23805D01*
X499137Y27315D01*
X500480Y30558D01*
X502962Y33040D01*
X506205Y34383D01*
X509715Y34383D01*
X512958Y33040D01*
X515440Y30558D01*
X516783Y27315D01*
X516783Y23805D01*
X515440Y20562D01*
X512958Y18080D01*
X509715Y16737D01*
X506205Y16737D01*
G37*
%LPD*%
%LPC*%
G36*
X531605Y16737D02*
X531605Y16737D01*
X528362Y18080D01*
X525880Y20562D01*
X524537Y23805D01*
X524537Y27315D01*
X525880Y30558D01*
X528362Y33040D01*
X531605Y34383D01*
X535115Y34383D01*
X538358Y33040D01*
X540840Y30558D01*
X542183Y27315D01*
X542183Y23805D01*
X540840Y20562D01*
X538358Y18080D01*
X535115Y16737D01*
X531605Y16737D01*
G37*
%LPD*%
%LPC*%
G36*
X607805Y16737D02*
X607805Y16737D01*
X604562Y18080D01*
X602080Y20562D01*
X600737Y23805D01*
X600737Y27315D01*
X602080Y30558D01*
X604562Y33040D01*
X607805Y34383D01*
X611315Y34383D01*
X614558Y33040D01*
X617040Y30558D01*
X618383Y27315D01*
X618383Y23805D01*
X617040Y20562D01*
X614558Y18080D01*
X611315Y16737D01*
X607805Y16737D01*
G37*
%LPD*%
%LPC*%
G36*
X633205Y16737D02*
X633205Y16737D01*
X629962Y18080D01*
X627480Y20562D01*
X626137Y23805D01*
X626137Y27315D01*
X627480Y30558D01*
X629962Y33040D01*
X633205Y34383D01*
X636715Y34383D01*
X639958Y33040D01*
X642440Y30558D01*
X643783Y27315D01*
X643783Y23805D01*
X642440Y20562D01*
X639958Y18080D01*
X636715Y16737D01*
X633205Y16737D01*
G37*
%LPD*%
%LPC*%
G36*
X684005Y499337D02*
X684005Y499337D01*
X680762Y500680D01*
X678280Y503162D01*
X676937Y506405D01*
X676937Y509915D01*
X678280Y513158D01*
X680762Y515640D01*
X684005Y516983D01*
X687515Y516983D01*
X690758Y515640D01*
X693240Y513158D01*
X694583Y509915D01*
X694583Y506405D01*
X693240Y503162D01*
X690758Y500680D01*
X687515Y499337D01*
X684005Y499337D01*
G37*
%LPD*%
%LPC*%
G36*
X760205Y499337D02*
X760205Y499337D01*
X756962Y500680D01*
X754480Y503162D01*
X753137Y506405D01*
X753137Y509915D01*
X754480Y513158D01*
X756962Y515640D01*
X760205Y516983D01*
X763715Y516983D01*
X766958Y515640D01*
X769440Y513158D01*
X770783Y509915D01*
X770783Y506405D01*
X769440Y503162D01*
X766958Y500680D01*
X763715Y499337D01*
X760205Y499337D01*
G37*
%LPD*%
%LPC*%
G36*
X607805Y499337D02*
X607805Y499337D01*
X604562Y500680D01*
X602080Y503162D01*
X600737Y506405D01*
X600737Y509915D01*
X602080Y513158D01*
X604562Y515640D01*
X607805Y516983D01*
X611315Y516983D01*
X614558Y515640D01*
X617040Y513158D01*
X618383Y509915D01*
X618383Y506405D01*
X617040Y503162D01*
X614558Y500680D01*
X611315Y499337D01*
X607805Y499337D01*
G37*
%LPD*%
%LPC*%
G36*
X506205Y499337D02*
X506205Y499337D01*
X502962Y500680D01*
X500480Y503162D01*
X499137Y506405D01*
X499137Y509915D01*
X500480Y513158D01*
X502962Y515640D01*
X506205Y516983D01*
X509715Y516983D01*
X512958Y515640D01*
X515440Y513158D01*
X516783Y509915D01*
X516783Y506405D01*
X515440Y503162D01*
X512958Y500680D01*
X509715Y499337D01*
X506205Y499337D01*
G37*
%LPD*%
%LPC*%
G36*
X480805Y499337D02*
X480805Y499337D01*
X477562Y500680D01*
X475080Y503162D01*
X473737Y506405D01*
X473737Y509915D01*
X475080Y513158D01*
X477562Y515640D01*
X480805Y516983D01*
X484315Y516983D01*
X487558Y515640D01*
X490040Y513158D01*
X491383Y509915D01*
X491383Y506405D01*
X490040Y503162D01*
X487558Y500680D01*
X484315Y499337D01*
X480805Y499337D01*
G37*
%LPD*%
%LPC*%
G36*
X811005Y499337D02*
X811005Y499337D01*
X807762Y500680D01*
X805280Y503162D01*
X803937Y506405D01*
X803937Y509915D01*
X805280Y513158D01*
X807762Y515640D01*
X811005Y516983D01*
X814515Y516983D01*
X817758Y515640D01*
X820240Y513158D01*
X821583Y509915D01*
X821583Y506405D01*
X820240Y503162D01*
X817758Y500680D01*
X814515Y499337D01*
X811005Y499337D01*
G37*
%LPD*%
%LPC*%
G36*
X389365Y499337D02*
X389365Y499337D01*
X386122Y500680D01*
X383640Y503162D01*
X382297Y506405D01*
X382297Y509915D01*
X383640Y513158D01*
X386122Y515640D01*
X389365Y516983D01*
X392875Y516983D01*
X396118Y515640D01*
X398600Y513158D01*
X399943Y509915D01*
X399943Y506405D01*
X398600Y503162D01*
X396118Y500680D01*
X392875Y499337D01*
X389365Y499337D01*
G37*
%LPD*%
%LPC*%
G36*
X455405Y499337D02*
X455405Y499337D01*
X452162Y500680D01*
X449680Y503162D01*
X448337Y506405D01*
X448337Y509915D01*
X449680Y513158D01*
X452162Y515640D01*
X455405Y516983D01*
X458915Y516983D01*
X462158Y515640D01*
X464640Y513158D01*
X465983Y509915D01*
X465983Y506405D01*
X464640Y503162D01*
X462158Y500680D01*
X458915Y499337D01*
X455405Y499337D01*
G37*
%LPD*%
%LPC*%
G36*
X363965Y499337D02*
X363965Y499337D01*
X360722Y500680D01*
X358240Y503162D01*
X356897Y506405D01*
X356897Y509915D01*
X358240Y513158D01*
X360722Y515640D01*
X363965Y516983D01*
X367475Y516983D01*
X370718Y515640D01*
X373200Y513158D01*
X374543Y509915D01*
X374543Y506405D01*
X373200Y503162D01*
X370718Y500680D01*
X367475Y499337D01*
X363965Y499337D01*
G37*
%LPD*%
%LPC*%
G36*
X338565Y499337D02*
X338565Y499337D01*
X335322Y500680D01*
X332840Y503162D01*
X331497Y506405D01*
X331497Y509915D01*
X332840Y513158D01*
X335322Y515640D01*
X338565Y516983D01*
X342075Y516983D01*
X345318Y515640D01*
X347800Y513158D01*
X349143Y509915D01*
X349143Y506405D01*
X347800Y503162D01*
X345318Y500680D01*
X342075Y499337D01*
X338565Y499337D01*
G37*
%LPD*%
%LPC*%
G36*
X785605Y499337D02*
X785605Y499337D01*
X782362Y500680D01*
X779880Y503162D01*
X778537Y506405D01*
X778537Y509915D01*
X779880Y513158D01*
X782362Y515640D01*
X785605Y516983D01*
X789115Y516983D01*
X792358Y515640D01*
X794840Y513158D01*
X796183Y509915D01*
X796183Y506405D01*
X794840Y503162D01*
X792358Y500680D01*
X789115Y499337D01*
X785605Y499337D01*
G37*
%LPD*%
%LPC*%
G36*
X557005Y499337D02*
X557005Y499337D01*
X553762Y500680D01*
X551280Y503162D01*
X549937Y506405D01*
X549937Y509915D01*
X551280Y513158D01*
X553762Y515640D01*
X557005Y516983D01*
X560515Y516983D01*
X563758Y515640D01*
X566240Y513158D01*
X567583Y509915D01*
X567583Y506405D01*
X566240Y503162D01*
X563758Y500680D01*
X560515Y499337D01*
X557005Y499337D01*
G37*
%LPD*%
%LPC*%
G36*
X582405Y499337D02*
X582405Y499337D01*
X579162Y500680D01*
X576680Y503162D01*
X575337Y506405D01*
X575337Y509915D01*
X576680Y513158D01*
X579162Y515640D01*
X582405Y516983D01*
X585915Y516983D01*
X589158Y515640D01*
X591640Y513158D01*
X592983Y509915D01*
X592983Y506405D01*
X591640Y503162D01*
X589158Y500680D01*
X585915Y499337D01*
X582405Y499337D01*
G37*
%LPD*%
%LPC*%
G36*
X633205Y499337D02*
X633205Y499337D01*
X629962Y500680D01*
X627480Y503162D01*
X626137Y506405D01*
X626137Y509915D01*
X627480Y513158D01*
X629962Y515640D01*
X633205Y516983D01*
X636715Y516983D01*
X639958Y515640D01*
X642440Y513158D01*
X643783Y509915D01*
X643783Y506405D01*
X642440Y503162D01*
X639958Y500680D01*
X636715Y499337D01*
X633205Y499337D01*
G37*
%LPD*%
%LPC*%
G36*
X531605Y499337D02*
X531605Y499337D01*
X528362Y500680D01*
X525880Y503162D01*
X524537Y506405D01*
X524537Y509915D01*
X525880Y513158D01*
X528362Y515640D01*
X531605Y516983D01*
X535115Y516983D01*
X538358Y515640D01*
X540840Y513158D01*
X542183Y509915D01*
X542183Y506405D01*
X540840Y503162D01*
X538358Y500680D01*
X535115Y499337D01*
X531605Y499337D01*
G37*
%LPD*%
%LPC*%
G36*
X582405Y16737D02*
X582405Y16737D01*
X579162Y18080D01*
X576680Y20562D01*
X575337Y23805D01*
X575337Y27315D01*
X576680Y30558D01*
X579162Y33040D01*
X582405Y34383D01*
X585915Y34383D01*
X589158Y33040D01*
X591640Y30558D01*
X592983Y27315D01*
X592983Y23805D01*
X591640Y20562D01*
X589158Y18080D01*
X585915Y16737D01*
X582405Y16737D01*
G37*
%LPD*%
%LPC*%
G36*
X313165Y499337D02*
X313165Y499337D01*
X309922Y500680D01*
X307440Y503162D01*
X306097Y506405D01*
X306097Y509915D01*
X307440Y513158D01*
X309922Y515640D01*
X313165Y516983D01*
X316675Y516983D01*
X319918Y515640D01*
X322400Y513158D01*
X323743Y509915D01*
X323743Y506405D01*
X322400Y503162D01*
X319918Y500680D01*
X316675Y499337D01*
X313165Y499337D01*
G37*
%LPD*%
%LPC*%
G36*
X861805Y499337D02*
X861805Y499337D01*
X858562Y500680D01*
X856080Y503162D01*
X854737Y506405D01*
X854737Y509915D01*
X856080Y513158D01*
X858562Y515640D01*
X861805Y516983D01*
X865315Y516983D01*
X868558Y515640D01*
X871040Y513158D01*
X872383Y509915D01*
X872383Y506405D01*
X871040Y503162D01*
X868558Y500680D01*
X865315Y499337D01*
X861805Y499337D01*
G37*
%LPD*%
%LPC*%
G36*
X211565Y499337D02*
X211565Y499337D01*
X208322Y500680D01*
X205840Y503162D01*
X204497Y506405D01*
X204497Y509915D01*
X205840Y513158D01*
X208322Y515640D01*
X211565Y516983D01*
X215075Y516983D01*
X218318Y515640D01*
X220800Y513158D01*
X222143Y509915D01*
X222143Y506405D01*
X220800Y503162D01*
X218318Y500680D01*
X215075Y499337D01*
X211565Y499337D01*
G37*
%LPD*%
%LPC*%
G36*
X836405Y499337D02*
X836405Y499337D01*
X833162Y500680D01*
X830680Y503162D01*
X829337Y506405D01*
X829337Y509915D01*
X830680Y513158D01*
X833162Y515640D01*
X836405Y516983D01*
X839915Y516983D01*
X843158Y515640D01*
X845640Y513158D01*
X846983Y509915D01*
X846983Y506405D01*
X845640Y503162D01*
X843158Y500680D01*
X839915Y499337D01*
X836405Y499337D01*
G37*
%LPD*%
%LPC*%
G36*
X287765Y499337D02*
X287765Y499337D01*
X284522Y500680D01*
X282040Y503162D01*
X280697Y506405D01*
X280697Y509915D01*
X282040Y513158D01*
X284522Y515640D01*
X287765Y516983D01*
X291275Y516983D01*
X294518Y515640D01*
X297000Y513158D01*
X298343Y509915D01*
X298343Y506405D01*
X297000Y503162D01*
X294518Y500680D01*
X291275Y499337D01*
X287765Y499337D01*
G37*
%LPD*%
%LPC*%
G36*
X186165Y499337D02*
X186165Y499337D01*
X182922Y500680D01*
X180440Y503162D01*
X179097Y506405D01*
X179097Y509915D01*
X180440Y513158D01*
X182922Y515640D01*
X186165Y516983D01*
X189675Y516983D01*
X192918Y515640D01*
X195400Y513158D01*
X196743Y509915D01*
X196743Y506405D01*
X195400Y503162D01*
X192918Y500680D01*
X189675Y499337D01*
X186165Y499337D01*
G37*
%LPD*%
%LPC*%
G36*
X236965Y499337D02*
X236965Y499337D01*
X233722Y500680D01*
X231240Y503162D01*
X229897Y506405D01*
X229897Y509915D01*
X231240Y513158D01*
X233722Y515640D01*
X236965Y516983D01*
X240475Y516983D01*
X243718Y515640D01*
X246200Y513158D01*
X247543Y509915D01*
X247543Y506405D01*
X246200Y503162D01*
X243718Y500680D01*
X240475Y499337D01*
X236965Y499337D01*
G37*
%LPD*%
%LPC*%
G36*
X734805Y499337D02*
X734805Y499337D01*
X731562Y500680D01*
X729080Y503162D01*
X727737Y506405D01*
X727737Y509915D01*
X729080Y513158D01*
X731562Y515640D01*
X734805Y516983D01*
X738315Y516983D01*
X741558Y515640D01*
X744040Y513158D01*
X745383Y509915D01*
X745383Y506405D01*
X744040Y503162D01*
X741558Y500680D01*
X738315Y499337D01*
X734805Y499337D01*
G37*
%LPD*%
%LPC*%
G36*
X709405Y499337D02*
X709405Y499337D01*
X706162Y500680D01*
X703680Y503162D01*
X702337Y506405D01*
X702337Y509915D01*
X703680Y513158D01*
X706162Y515640D01*
X709405Y516983D01*
X712915Y516983D01*
X716158Y515640D01*
X718640Y513158D01*
X719983Y509915D01*
X719983Y506405D01*
X718640Y503162D01*
X716158Y500680D01*
X712915Y499337D01*
X709405Y499337D01*
G37*
%LPD*%
%LPC*%
G36*
X277605Y16737D02*
X277605Y16737D01*
X274362Y18080D01*
X271880Y20562D01*
X270537Y23805D01*
X270537Y27315D01*
X271880Y30558D01*
X274362Y33040D01*
X277605Y34383D01*
X281115Y34383D01*
X284358Y33040D01*
X286840Y30558D01*
X288183Y27315D01*
X288183Y23805D01*
X286840Y20562D01*
X284358Y18080D01*
X281115Y16737D01*
X277605Y16737D01*
G37*
%LPD*%
%LPC*%
G36*
X303005Y16737D02*
X303005Y16737D01*
X299762Y18080D01*
X297280Y20562D01*
X295937Y23805D01*
X295937Y27315D01*
X297280Y30558D01*
X299762Y33040D01*
X303005Y34383D01*
X306515Y34383D01*
X309758Y33040D01*
X312240Y30558D01*
X313583Y27315D01*
X313583Y23805D01*
X312240Y20562D01*
X309758Y18080D01*
X306515Y16737D01*
X303005Y16737D01*
G37*
%LPD*%
%LPC*%
G36*
X328405Y16737D02*
X328405Y16737D01*
X325162Y18080D01*
X322680Y20562D01*
X321337Y23805D01*
X321337Y27315D01*
X322680Y30558D01*
X325162Y33040D01*
X328405Y34383D01*
X331915Y34383D01*
X335158Y33040D01*
X337640Y30558D01*
X338983Y27315D01*
X338983Y23805D01*
X337640Y20562D01*
X335158Y18080D01*
X331915Y16737D01*
X328405Y16737D01*
G37*
%LPD*%
%LPC*%
G36*
X353805Y16737D02*
X353805Y16737D01*
X350562Y18080D01*
X348080Y20562D01*
X346737Y23805D01*
X346737Y27315D01*
X348080Y30558D01*
X350562Y33040D01*
X353805Y34383D01*
X357315Y34383D01*
X360558Y33040D01*
X363040Y30558D01*
X364383Y27315D01*
X364383Y23805D01*
X363040Y20562D01*
X360558Y18080D01*
X357315Y16737D01*
X353805Y16737D01*
G37*
%LPD*%
%LPC*%
G36*
X237510Y455073D02*
X237510Y455073D01*
X234336Y456388D01*
X231906Y458818D01*
X230591Y461992D01*
X230591Y465428D01*
X231906Y468602D01*
X234336Y471032D01*
X237510Y472347D01*
X240946Y472347D01*
X244120Y471032D01*
X246550Y468602D01*
X247865Y465428D01*
X247865Y461992D01*
X246550Y458818D01*
X244120Y456388D01*
X240946Y455073D01*
X237510Y455073D01*
G37*
%LPD*%
%LPC*%
G36*
X185186Y455073D02*
X185186Y455073D01*
X182012Y456388D01*
X179582Y458818D01*
X178267Y461992D01*
X178267Y465428D01*
X179582Y468602D01*
X182012Y471032D01*
X185186Y472347D01*
X188622Y472347D01*
X191796Y471032D01*
X194226Y468602D01*
X195541Y465428D01*
X195541Y461992D01*
X194226Y458818D01*
X191796Y456388D01*
X188622Y455073D01*
X185186Y455073D01*
G37*
%LPD*%
%LPC*%
G36*
X405150Y453803D02*
X405150Y453803D01*
X401976Y455118D01*
X399546Y457548D01*
X398231Y460722D01*
X398231Y464158D01*
X399546Y467332D01*
X401976Y469762D01*
X405150Y471077D01*
X408586Y471077D01*
X411760Y469762D01*
X414190Y467332D01*
X415505Y464158D01*
X415505Y460722D01*
X414190Y457548D01*
X411760Y455118D01*
X408586Y453803D01*
X405150Y453803D01*
G37*
%LPD*%
%LPC*%
G36*
X352826Y453803D02*
X352826Y453803D01*
X349652Y455118D01*
X347222Y457548D01*
X345907Y460722D01*
X345907Y464158D01*
X347222Y467332D01*
X349652Y469762D01*
X352826Y471077D01*
X356262Y471077D01*
X359436Y469762D01*
X361866Y467332D01*
X363181Y464158D01*
X363181Y460722D01*
X361866Y457548D01*
X359436Y455118D01*
X356262Y453803D01*
X352826Y453803D01*
G37*
%LPD*%
%LPC*%
G36*
X378988Y453803D02*
X378988Y453803D01*
X375814Y455118D01*
X373384Y457548D01*
X372069Y460722D01*
X372069Y464158D01*
X373384Y467332D01*
X375814Y469762D01*
X378988Y471077D01*
X382424Y471077D01*
X385598Y469762D01*
X388028Y467332D01*
X389343Y464158D01*
X389343Y460722D01*
X388028Y457548D01*
X385598Y455118D01*
X382424Y453803D01*
X378988Y453803D01*
G37*
%LPD*%
%LPC*%
G36*
X300502Y453803D02*
X300502Y453803D01*
X297328Y455118D01*
X294898Y457548D01*
X293583Y460722D01*
X293583Y464158D01*
X294898Y467332D01*
X297328Y469762D01*
X300502Y471077D01*
X303938Y471077D01*
X307112Y469762D01*
X309542Y467332D01*
X310857Y464158D01*
X310857Y460722D01*
X309542Y457548D01*
X307112Y455118D01*
X303938Y453803D01*
X300502Y453803D01*
G37*
%LPD*%
%LPC*%
G36*
X326664Y453803D02*
X326664Y453803D01*
X323490Y455118D01*
X321060Y457548D01*
X319745Y460722D01*
X319745Y464158D01*
X321060Y467332D01*
X323490Y469762D01*
X326664Y471077D01*
X330100Y471077D01*
X333274Y469762D01*
X335704Y467332D01*
X337019Y464158D01*
X337019Y460722D01*
X335704Y457548D01*
X333274Y455118D01*
X330100Y453803D01*
X326664Y453803D01*
G37*
%LPD*%
%LPC*%
G36*
X211348Y455073D02*
X211348Y455073D01*
X208174Y456388D01*
X205744Y458818D01*
X204429Y461992D01*
X204429Y465428D01*
X205744Y468602D01*
X208174Y471032D01*
X211348Y472347D01*
X214784Y472347D01*
X217958Y471032D01*
X220388Y468602D01*
X221703Y465428D01*
X221703Y461992D01*
X220388Y458818D01*
X217958Y456388D01*
X214784Y455073D01*
X211348Y455073D01*
G37*
%LPD*%
%LPC*%
G36*
X132862Y455073D02*
X132862Y455073D01*
X129688Y456388D01*
X127258Y458818D01*
X125943Y461992D01*
X125943Y465428D01*
X127258Y468602D01*
X129688Y471032D01*
X132862Y472347D01*
X136298Y472347D01*
X139472Y471032D01*
X141902Y468602D01*
X143217Y465428D01*
X143217Y461992D01*
X141902Y458818D01*
X139472Y456388D01*
X136298Y455073D01*
X132862Y455073D01*
G37*
%LPD*%
%LPC*%
G36*
X159024Y455073D02*
X159024Y455073D01*
X155850Y456388D01*
X153420Y458818D01*
X152105Y461992D01*
X152105Y465428D01*
X153420Y468602D01*
X155850Y471032D01*
X159024Y472347D01*
X162460Y472347D01*
X165634Y471032D01*
X168064Y468602D01*
X169379Y465428D01*
X169379Y461992D01*
X168064Y458818D01*
X165634Y456388D01*
X162460Y455073D01*
X159024Y455073D01*
G37*
%LPD*%
%LPC*%
G36*
X918845Y176367D02*
X918845Y176367D01*
X915694Y177672D01*
X913282Y180084D01*
X911977Y183235D01*
X911977Y186645D01*
X913282Y189796D01*
X915694Y192208D01*
X918845Y193513D01*
X922255Y193513D01*
X925406Y192208D01*
X927818Y189796D01*
X929123Y186645D01*
X929123Y183235D01*
X927818Y180084D01*
X925406Y177672D01*
X922255Y176367D01*
X918845Y176367D01*
G37*
%LPD*%
%LPC*%
G36*
X896845Y148867D02*
X896845Y148867D01*
X893694Y150172D01*
X891282Y152584D01*
X889977Y155735D01*
X889977Y159145D01*
X891282Y162296D01*
X893694Y164708D01*
X896845Y166013D01*
X900255Y166013D01*
X903406Y164708D01*
X905818Y162296D01*
X907123Y159145D01*
X907123Y155735D01*
X905818Y152584D01*
X903406Y150172D01*
X900255Y148867D01*
X896845Y148867D01*
G37*
%LPD*%
%LPC*%
G36*
X910845Y121367D02*
X910845Y121367D01*
X907694Y122672D01*
X905282Y125084D01*
X903977Y128235D01*
X903977Y131645D01*
X905282Y134796D01*
X907694Y137208D01*
X910845Y138513D01*
X914255Y138513D01*
X917406Y137208D01*
X919818Y134796D01*
X921123Y131645D01*
X921123Y128235D01*
X919818Y125084D01*
X917406Y122672D01*
X914255Y121367D01*
X910845Y121367D01*
G37*
%LPD*%
%LPC*%
G36*
X920115Y338927D02*
X920115Y338927D01*
X916964Y340232D01*
X914552Y342644D01*
X913247Y345795D01*
X913247Y349205D01*
X914552Y352356D01*
X916964Y354768D01*
X920115Y356073D01*
X923525Y356073D01*
X926676Y354768D01*
X929088Y352356D01*
X930393Y349205D01*
X930393Y345795D01*
X929088Y342644D01*
X926676Y340232D01*
X923525Y338927D01*
X920115Y338927D01*
G37*
%LPD*%
%LPC*%
G36*
X898115Y311427D02*
X898115Y311427D01*
X894964Y312732D01*
X892552Y315144D01*
X891247Y318295D01*
X891247Y321705D01*
X892552Y324856D01*
X894964Y327268D01*
X898115Y328573D01*
X901525Y328573D01*
X904676Y327268D01*
X907088Y324856D01*
X908393Y321705D01*
X908393Y318295D01*
X907088Y315144D01*
X904676Y312732D01*
X901525Y311427D01*
X898115Y311427D01*
G37*
%LPD*%
%LPC*%
G36*
X912115Y283927D02*
X912115Y283927D01*
X908964Y285232D01*
X906552Y287644D01*
X905247Y290795D01*
X905247Y294205D01*
X906552Y297356D01*
X908964Y299768D01*
X912115Y301073D01*
X915525Y301073D01*
X918676Y299768D01*
X921088Y297356D01*
X922393Y294205D01*
X922393Y290795D01*
X921088Y287644D01*
X918676Y285232D01*
X915525Y283927D01*
X912115Y283927D01*
G37*
%LPD*%
%LPC*%
G36*
X877183Y444151D02*
X877183Y444151D01*
X874195Y445389D01*
X871909Y447675D01*
X870671Y450663D01*
X870671Y453897D01*
X871909Y456885D01*
X874195Y459171D01*
X877183Y460409D01*
X880417Y460409D01*
X883405Y459171D01*
X885691Y456885D01*
X886929Y453897D01*
X886929Y450663D01*
X885691Y447675D01*
X883405Y445389D01*
X880417Y444151D01*
X877183Y444151D01*
G37*
%LPD*%
%LPC*%
G36*
X216783Y35211D02*
X216783Y35211D01*
X213795Y36449D01*
X211509Y38735D01*
X210271Y41723D01*
X210271Y44957D01*
X211509Y47945D01*
X213795Y50231D01*
X216783Y51469D01*
X220017Y51469D01*
X223005Y50231D01*
X225291Y47945D01*
X226529Y44957D01*
X226529Y41723D01*
X225291Y38735D01*
X223005Y36449D01*
X220017Y35211D01*
X216783Y35211D01*
G37*
%LPD*%
%LPC*%
G36*
X218463Y173231D02*
X218463Y173231D01*
X215475Y174469D01*
X213189Y176755D01*
X211951Y179743D01*
X211951Y182977D01*
X213189Y185965D01*
X215475Y188251D01*
X218463Y189489D01*
X221697Y189489D01*
X224685Y188251D01*
X226971Y185965D01*
X228209Y182977D01*
X228209Y179743D01*
X226971Y176755D01*
X224685Y174469D01*
X221697Y173231D01*
X218463Y173231D01*
G37*
%LPD*%
%LPC*%
G36*
X714926Y214535D02*
X714926Y214535D01*
X712499Y215541D01*
X710641Y217399D01*
X709635Y219826D01*
X709635Y222454D01*
X710641Y224881D01*
X712499Y226739D01*
X714926Y227745D01*
X717554Y227745D01*
X719981Y226739D01*
X721839Y224881D01*
X722845Y222454D01*
X722845Y219826D01*
X721839Y217399D01*
X719981Y215541D01*
X717554Y214535D01*
X714926Y214535D01*
G37*
%LPD*%
%LPC*%
G36*
X473626Y389795D02*
X473626Y389795D01*
X471199Y390801D01*
X469341Y392659D01*
X468335Y395086D01*
X468335Y397714D01*
X469341Y400141D01*
X471199Y401999D01*
X473626Y403005D01*
X476254Y403005D01*
X478681Y401999D01*
X480539Y400141D01*
X481545Y397714D01*
X481545Y395086D01*
X480539Y392659D01*
X478681Y390801D01*
X476254Y389795D01*
X473626Y389795D01*
G37*
%LPD*%
%LPC*%
G36*
X105326Y499015D02*
X105326Y499015D01*
X102899Y500021D01*
X101041Y501879D01*
X100035Y504306D01*
X100035Y506934D01*
X101041Y509361D01*
X102899Y511219D01*
X105326Y512225D01*
X107954Y512225D01*
X110381Y511219D01*
X112239Y509361D01*
X113245Y506934D01*
X113245Y504306D01*
X112239Y501879D01*
X110381Y500021D01*
X107954Y499015D01*
X105326Y499015D01*
G37*
%LPD*%
%LPC*%
G36*
X432986Y265335D02*
X432986Y265335D01*
X430559Y266341D01*
X428701Y268199D01*
X427695Y270626D01*
X427695Y273254D01*
X428701Y275681D01*
X430559Y277539D01*
X432986Y278545D01*
X435614Y278545D01*
X438041Y277539D01*
X439899Y275681D01*
X440905Y273254D01*
X440905Y270626D01*
X439899Y268199D01*
X438041Y266341D01*
X435614Y265335D01*
X432986Y265335D01*
G37*
%LPD*%
%LPC*%
G36*
X577766Y260255D02*
X577766Y260255D01*
X575339Y261261D01*
X573481Y263119D01*
X572475Y265546D01*
X572475Y268174D01*
X573481Y270601D01*
X575339Y272459D01*
X577766Y273465D01*
X580394Y273465D01*
X582821Y272459D01*
X584679Y270601D01*
X585685Y268174D01*
X585685Y265546D01*
X584679Y263119D01*
X582821Y261261D01*
X580394Y260255D01*
X577766Y260255D01*
G37*
%LPD*%
%LPC*%
G36*
X974006Y290735D02*
X974006Y290735D01*
X971579Y291741D01*
X969721Y293599D01*
X968715Y296026D01*
X968715Y298654D01*
X969721Y301081D01*
X971579Y302939D01*
X974006Y303945D01*
X976634Y303945D01*
X979061Y302939D01*
X980919Y301081D01*
X981925Y298654D01*
X981925Y296026D01*
X980919Y293599D01*
X979061Y291741D01*
X976634Y290735D01*
X974006Y290735D01*
G37*
%LPD*%
%LPC*%
G36*
X274236Y258985D02*
X274236Y258985D01*
X271809Y259991D01*
X269951Y261849D01*
X268945Y264276D01*
X268945Y266904D01*
X269951Y269331D01*
X271809Y271189D01*
X274236Y272195D01*
X276864Y272195D01*
X279291Y271189D01*
X281149Y269331D01*
X282155Y266904D01*
X282155Y264276D01*
X281149Y261849D01*
X279291Y259991D01*
X276864Y258985D01*
X274236Y258985D01*
G37*
%LPD*%
%LPC*%
G36*
X189146Y293021D02*
X189146Y293021D01*
X186719Y294027D01*
X184861Y295885D01*
X183855Y298312D01*
X183855Y300940D01*
X184861Y303367D01*
X186719Y305225D01*
X189146Y306231D01*
X191774Y306231D01*
X194201Y305225D01*
X196059Y303367D01*
X197065Y300940D01*
X197065Y298312D01*
X196059Y295885D01*
X194201Y294027D01*
X191774Y293021D01*
X189146Y293021D01*
G37*
%LPD*%
%LPC*%
G36*
X420286Y250095D02*
X420286Y250095D01*
X417859Y251101D01*
X416001Y252959D01*
X414995Y255386D01*
X414995Y258014D01*
X416001Y260441D01*
X417859Y262299D01*
X420286Y263305D01*
X422914Y263305D01*
X425341Y262299D01*
X427199Y260441D01*
X428205Y258014D01*
X428205Y255386D01*
X427199Y252959D01*
X425341Y251101D01*
X422914Y250095D01*
X420286Y250095D01*
G37*
%LPD*%
%LPC*%
G36*
X886884Y237649D02*
X886884Y237649D01*
X884457Y238655D01*
X882599Y240513D01*
X881593Y242940D01*
X881593Y245568D01*
X882599Y247995D01*
X884457Y249853D01*
X886884Y250859D01*
X889512Y250859D01*
X891939Y249853D01*
X893797Y247995D01*
X894803Y245568D01*
X894803Y242940D01*
X893797Y240513D01*
X891939Y238655D01*
X889512Y237649D01*
X886884Y237649D01*
G37*
%LPD*%
%LPC*%
G36*
X300906Y227235D02*
X300906Y227235D01*
X298479Y228241D01*
X296621Y230099D01*
X295615Y232526D01*
X295615Y235154D01*
X296621Y237581D01*
X298479Y239439D01*
X300906Y240445D01*
X303534Y240445D01*
X305961Y239439D01*
X307819Y237581D01*
X308825Y235154D01*
X308825Y232526D01*
X307819Y230099D01*
X305961Y228241D01*
X303534Y227235D01*
X300906Y227235D01*
G37*
%LPD*%
%LPC*%
G36*
X318686Y227235D02*
X318686Y227235D01*
X316259Y228241D01*
X314401Y230099D01*
X313395Y232526D01*
X313395Y235154D01*
X314401Y237581D01*
X316259Y239439D01*
X318686Y240445D01*
X321314Y240445D01*
X323741Y239439D01*
X325599Y237581D01*
X326605Y235154D01*
X326605Y232526D01*
X325599Y230099D01*
X323741Y228241D01*
X321314Y227235D01*
X318686Y227235D01*
G37*
%LPD*%
%LPC*%
G36*
X519346Y224695D02*
X519346Y224695D01*
X516919Y225701D01*
X515061Y227559D01*
X514055Y229986D01*
X514055Y232614D01*
X515061Y235041D01*
X516919Y236899D01*
X519346Y237905D01*
X521974Y237905D01*
X524401Y236899D01*
X526259Y235041D01*
X527265Y232614D01*
X527265Y229986D01*
X526259Y227559D01*
X524401Y225701D01*
X521974Y224695D01*
X519346Y224695D01*
G37*
%LPD*%
%LPC*%
G36*
X365198Y361601D02*
X365198Y361601D01*
X362771Y362607D01*
X360913Y364465D01*
X359907Y366892D01*
X359907Y369520D01*
X360913Y371947D01*
X362771Y373805D01*
X365198Y374811D01*
X367826Y374811D01*
X370253Y373805D01*
X372111Y371947D01*
X373117Y369520D01*
X373117Y366892D01*
X372111Y364465D01*
X370253Y362607D01*
X367826Y361601D01*
X365198Y361601D01*
G37*
%LPD*%
%LPC*%
G36*
X191686Y214535D02*
X191686Y214535D01*
X189259Y215541D01*
X187401Y217399D01*
X186395Y219826D01*
X186395Y222454D01*
X187401Y224881D01*
X189259Y226739D01*
X191686Y227745D01*
X194314Y227745D01*
X196741Y226739D01*
X198599Y224881D01*
X199605Y222454D01*
X199605Y219826D01*
X198599Y217399D01*
X196741Y215541D01*
X194314Y214535D01*
X191686Y214535D01*
G37*
%LPD*%
%LPC*%
G36*
X674286Y211995D02*
X674286Y211995D01*
X671859Y213001D01*
X670001Y214859D01*
X668995Y217286D01*
X668995Y219914D01*
X670001Y222341D01*
X671859Y224199D01*
X674286Y225205D01*
X676914Y225205D01*
X679341Y224199D01*
X681199Y222341D01*
X682205Y219914D01*
X682205Y217286D01*
X681199Y214859D01*
X679341Y213001D01*
X676914Y211995D01*
X674286Y211995D01*
G37*
%LPD*%
%LPC*%
G36*
X824146Y209455D02*
X824146Y209455D01*
X821719Y210461D01*
X819861Y212319D01*
X818855Y214746D01*
X818855Y217374D01*
X819861Y219801D01*
X821719Y221659D01*
X824146Y222665D01*
X826774Y222665D01*
X829201Y221659D01*
X831059Y219801D01*
X832065Y217374D01*
X832065Y214746D01*
X831059Y212319D01*
X829201Y210461D01*
X826774Y209455D01*
X824146Y209455D01*
G37*
%LPD*%
%LPC*%
G36*
X387266Y204375D02*
X387266Y204375D01*
X384839Y205381D01*
X382981Y207239D01*
X381975Y209666D01*
X381975Y212294D01*
X382981Y214721D01*
X384839Y216579D01*
X387266Y217585D01*
X389894Y217585D01*
X392321Y216579D01*
X394179Y214721D01*
X395185Y212294D01*
X395185Y209666D01*
X394179Y207239D01*
X392321Y205381D01*
X389894Y204375D01*
X387266Y204375D01*
G37*
%LPD*%
%LPC*%
G36*
X497726Y200565D02*
X497726Y200565D01*
X495299Y201571D01*
X493441Y203429D01*
X492435Y205856D01*
X492435Y208484D01*
X493441Y210911D01*
X495299Y212769D01*
X497726Y213775D01*
X500354Y213775D01*
X502781Y212769D01*
X504639Y210911D01*
X505645Y208484D01*
X505645Y205856D01*
X504639Y203429D01*
X502781Y201571D01*
X500354Y200565D01*
X497726Y200565D01*
G37*
%LPD*%
%LPC*%
G36*
X981626Y199295D02*
X981626Y199295D01*
X979199Y200301D01*
X977341Y202159D01*
X976335Y204586D01*
X976335Y207214D01*
X977341Y209641D01*
X979199Y211499D01*
X981626Y212505D01*
X984254Y212505D01*
X986681Y211499D01*
X988539Y209641D01*
X989545Y207214D01*
X989545Y204586D01*
X988539Y202159D01*
X986681Y200301D01*
X984254Y199295D01*
X981626Y199295D01*
G37*
%LPD*%
%LPC*%
G36*
X549826Y194215D02*
X549826Y194215D01*
X547399Y195221D01*
X545541Y197079D01*
X544535Y199506D01*
X544535Y202134D01*
X545541Y204561D01*
X547399Y206419D01*
X549826Y207425D01*
X552454Y207425D01*
X554881Y206419D01*
X556739Y204561D01*
X557745Y202134D01*
X557745Y199506D01*
X556739Y197079D01*
X554881Y195221D01*
X552454Y194215D01*
X549826Y194215D01*
G37*
%LPD*%
%LPC*%
G36*
X595546Y181515D02*
X595546Y181515D01*
X593119Y182521D01*
X591261Y184379D01*
X590255Y186806D01*
X590255Y189434D01*
X591261Y191861D01*
X593119Y193719D01*
X595546Y194725D01*
X598174Y194725D01*
X600601Y193719D01*
X602459Y191861D01*
X603465Y189434D01*
X603465Y186806D01*
X602459Y184379D01*
X600601Y182521D01*
X598174Y181515D01*
X595546Y181515D01*
G37*
%LPD*%
%LPC*%
G36*
X275506Y181515D02*
X275506Y181515D01*
X273079Y182521D01*
X271221Y184379D01*
X270215Y186806D01*
X270215Y189434D01*
X271221Y191861D01*
X273079Y193719D01*
X275506Y194725D01*
X278134Y194725D01*
X280561Y193719D01*
X282419Y191861D01*
X283425Y189434D01*
X283425Y186806D01*
X282419Y184379D01*
X280561Y182521D01*
X278134Y181515D01*
X275506Y181515D01*
G37*
%LPD*%
%LPC*%
G36*
X313606Y288195D02*
X313606Y288195D01*
X311179Y289201D01*
X309321Y291059D01*
X308315Y293486D01*
X308315Y296114D01*
X309321Y298541D01*
X311179Y300399D01*
X313606Y301405D01*
X316234Y301405D01*
X318661Y300399D01*
X320519Y298541D01*
X321525Y296114D01*
X321525Y293486D01*
X320519Y291059D01*
X318661Y289201D01*
X316234Y288195D01*
X313606Y288195D01*
G37*
%LPD*%
%LPC*%
G36*
X229786Y350171D02*
X229786Y350171D01*
X227359Y351177D01*
X225501Y353035D01*
X224495Y355462D01*
X224495Y358090D01*
X225501Y360517D01*
X227359Y362375D01*
X229786Y363381D01*
X232414Y363381D01*
X234841Y362375D01*
X236699Y360517D01*
X237705Y358090D01*
X237705Y355462D01*
X236699Y353035D01*
X234841Y351177D01*
X232414Y350171D01*
X229786Y350171D01*
G37*
%LPD*%
%LPC*%
G36*
X534586Y387255D02*
X534586Y387255D01*
X532159Y388261D01*
X530301Y390119D01*
X529295Y392546D01*
X529295Y395174D01*
X530301Y397601D01*
X532159Y399459D01*
X534586Y400465D01*
X537214Y400465D01*
X539641Y399459D01*
X541499Y397601D01*
X542505Y395174D01*
X542505Y392546D01*
X541499Y390119D01*
X539641Y388261D01*
X537214Y387255D01*
X534586Y387255D01*
G37*
%LPD*%
%LPC*%
G36*
X448226Y298355D02*
X448226Y298355D01*
X445799Y299361D01*
X443941Y301219D01*
X442935Y303646D01*
X442935Y306274D01*
X443941Y308701D01*
X445799Y310559D01*
X448226Y311565D01*
X450854Y311565D01*
X453281Y310559D01*
X455139Y308701D01*
X456145Y306274D01*
X456145Y303646D01*
X455139Y301219D01*
X453281Y299361D01*
X450854Y298355D01*
X448226Y298355D01*
G37*
%LPD*%
%LPC*%
G36*
X734992Y331121D02*
X734992Y331121D01*
X732565Y332127D01*
X730707Y333985D01*
X729701Y336412D01*
X729701Y339040D01*
X730707Y341467D01*
X732565Y343325D01*
X734992Y344331D01*
X737620Y344331D01*
X740047Y343325D01*
X741905Y341467D01*
X742911Y339040D01*
X742911Y336412D01*
X741905Y333985D01*
X740047Y332127D01*
X737620Y331121D01*
X734992Y331121D01*
G37*
%LPD*%
%LPC*%
G36*
X229786Y331375D02*
X229786Y331375D01*
X227359Y332381D01*
X225501Y334239D01*
X224495Y336666D01*
X224495Y339294D01*
X225501Y341721D01*
X227359Y343579D01*
X229786Y344585D01*
X232414Y344585D01*
X234841Y343579D01*
X236699Y341721D01*
X237705Y339294D01*
X237705Y336666D01*
X236699Y334239D01*
X234841Y332381D01*
X232414Y331375D01*
X229786Y331375D01*
G37*
%LPD*%
%LPC*%
G36*
X176446Y34195D02*
X176446Y34195D01*
X174019Y35201D01*
X172161Y37059D01*
X171155Y39486D01*
X171155Y42114D01*
X172161Y44541D01*
X174019Y46399D01*
X176446Y47405D01*
X179074Y47405D01*
X181501Y46399D01*
X183359Y44541D01*
X184365Y42114D01*
X184365Y39486D01*
X183359Y37059D01*
X181501Y35201D01*
X179074Y34195D01*
X176446Y34195D01*
G37*
%LPD*%
%LPC*%
G36*
X737786Y351695D02*
X737786Y351695D01*
X735359Y352701D01*
X733501Y354559D01*
X732495Y356986D01*
X732495Y359614D01*
X733501Y362041D01*
X735359Y363899D01*
X737786Y364905D01*
X740414Y364905D01*
X742841Y363899D01*
X744699Y362041D01*
X745705Y359614D01*
X745705Y356986D01*
X744699Y354559D01*
X742841Y352701D01*
X740414Y351695D01*
X737786Y351695D01*
G37*
%LPD*%
%LPC*%
G36*
X189146Y333915D02*
X189146Y333915D01*
X186719Y334921D01*
X184861Y336779D01*
X183855Y339206D01*
X183855Y341834D01*
X184861Y344261D01*
X186719Y346119D01*
X189146Y347125D01*
X191774Y347125D01*
X194201Y346119D01*
X196059Y344261D01*
X197065Y341834D01*
X197065Y339206D01*
X196059Y336779D01*
X194201Y334921D01*
X191774Y333915D01*
X189146Y333915D01*
G37*
%LPD*%
%LPC*%
G36*
X542090Y334031D02*
X542090Y334031D01*
X539663Y335037D01*
X537805Y336895D01*
X536799Y339322D01*
X536799Y341950D01*
X537805Y344377D01*
X539663Y346235D01*
X542090Y347241D01*
X544718Y347241D01*
X547145Y346235D01*
X549003Y344377D01*
X550009Y341950D01*
X550009Y339322D01*
X549003Y336895D01*
X547145Y335037D01*
X544718Y334031D01*
X542090Y334031D01*
G37*
%LPD*%
%LPC*%
G36*
X526966Y288195D02*
X526966Y288195D01*
X524539Y289201D01*
X522681Y291059D01*
X521675Y293486D01*
X521675Y296114D01*
X522681Y298541D01*
X524539Y300399D01*
X526966Y301405D01*
X529594Y301405D01*
X532021Y300399D01*
X533879Y298541D01*
X534885Y296114D01*
X534885Y293486D01*
X533879Y291059D01*
X532021Y289201D01*
X529594Y288195D01*
X526966Y288195D01*
G37*
%LPD*%
%LPC*%
G36*
X313606Y140875D02*
X313606Y140875D01*
X311179Y141881D01*
X309321Y143739D01*
X308315Y146166D01*
X308315Y148794D01*
X309321Y151221D01*
X311179Y153079D01*
X313606Y154085D01*
X316234Y154085D01*
X318661Y153079D01*
X320519Y151221D01*
X321525Y148794D01*
X321525Y146166D01*
X320519Y143739D01*
X318661Y141881D01*
X316234Y140875D01*
X313606Y140875D01*
G37*
%LPD*%
%LPC*%
G36*
X51986Y129291D02*
X51986Y129291D01*
X49559Y130296D01*
X47701Y132154D01*
X46695Y134582D01*
X46695Y137209D01*
X47701Y139637D01*
X49559Y141495D01*
X51986Y142500D01*
X54614Y142500D01*
X57041Y141495D01*
X58899Y139637D01*
X59905Y137209D01*
X59905Y134582D01*
X58899Y132154D01*
X57041Y130296D01*
X54614Y129291D01*
X51986Y129291D01*
G37*
%LPD*%
%LPC*%
G36*
X65194Y270415D02*
X65194Y270415D01*
X62767Y271421D01*
X60909Y273279D01*
X59903Y275706D01*
X59903Y278334D01*
X60909Y280761D01*
X62767Y282619D01*
X65194Y283625D01*
X67822Y283625D01*
X70249Y282619D01*
X72107Y280761D01*
X73113Y278334D01*
X73113Y275706D01*
X72107Y273279D01*
X70249Y271421D01*
X67822Y270415D01*
X65194Y270415D01*
G37*
%LPD*%
%LPC*%
G36*
X13886Y112935D02*
X13886Y112935D01*
X11459Y113941D01*
X9601Y115799D01*
X8595Y118226D01*
X8595Y120854D01*
X9601Y123281D01*
X11459Y125139D01*
X13886Y126145D01*
X16514Y126145D01*
X18941Y125139D01*
X20799Y123281D01*
X21805Y120854D01*
X21805Y118226D01*
X20799Y115799D01*
X18941Y113941D01*
X16514Y112935D01*
X13886Y112935D01*
G37*
%LPD*%
%LPC*%
G36*
X267886Y359315D02*
X267886Y359315D01*
X265459Y360321D01*
X263601Y362179D01*
X262595Y364606D01*
X262595Y367234D01*
X263601Y369661D01*
X265459Y371519D01*
X267886Y372525D01*
X270514Y372525D01*
X272941Y371519D01*
X274799Y369661D01*
X275805Y367234D01*
X275805Y364606D01*
X274799Y362179D01*
X272941Y360321D01*
X270514Y359315D01*
X267886Y359315D01*
G37*
%LPD*%
%LPC*%
G36*
X885106Y54515D02*
X885106Y54515D01*
X882679Y55521D01*
X880821Y57379D01*
X879815Y59806D01*
X879815Y62434D01*
X880821Y64861D01*
X882679Y66719D01*
X885106Y67725D01*
X887734Y67725D01*
X890161Y66719D01*
X892019Y64861D01*
X893025Y62434D01*
X893025Y59806D01*
X892019Y57379D01*
X890161Y55521D01*
X887734Y54515D01*
X885106Y54515D01*
G37*
%LPD*%
%LPC*%
G36*
X261790Y379635D02*
X261790Y379635D01*
X259363Y380641D01*
X257505Y382499D01*
X256499Y384926D01*
X256499Y387554D01*
X257505Y389981D01*
X259363Y391839D01*
X261790Y392845D01*
X264418Y392845D01*
X266845Y391839D01*
X268703Y389981D01*
X269709Y387554D01*
X269709Y384926D01*
X268703Y382499D01*
X266845Y380641D01*
X264418Y379635D01*
X261790Y379635D01*
G37*
%LPD*%
%LPC*%
G36*
X610786Y374555D02*
X610786Y374555D01*
X608359Y375561D01*
X606501Y377419D01*
X605495Y379846D01*
X605495Y382474D01*
X606501Y384901D01*
X608359Y386759D01*
X610786Y387765D01*
X613414Y387765D01*
X615841Y386759D01*
X617699Y384901D01*
X618705Y382474D01*
X618705Y379846D01*
X617699Y377419D01*
X615841Y375561D01*
X613414Y374555D01*
X610786Y374555D01*
G37*
%LPD*%
%LPC*%
G36*
X163746Y336455D02*
X163746Y336455D01*
X161319Y337461D01*
X159461Y339319D01*
X158455Y341746D01*
X158455Y344374D01*
X159461Y346801D01*
X161319Y348659D01*
X163746Y349665D01*
X166374Y349665D01*
X168801Y348659D01*
X170659Y346801D01*
X171665Y344374D01*
X171665Y341746D01*
X170659Y339319D01*
X168801Y337461D01*
X166374Y336455D01*
X163746Y336455D01*
G37*
%LPD*%
%LPC*%
G36*
X453306Y338995D02*
X453306Y338995D01*
X450879Y340001D01*
X449021Y341859D01*
X448015Y344286D01*
X448015Y346914D01*
X449021Y349341D01*
X450879Y351199D01*
X453306Y352205D01*
X455934Y352205D01*
X458361Y351199D01*
X460219Y349341D01*
X461225Y346914D01*
X461225Y344286D01*
X460219Y341859D01*
X458361Y340001D01*
X455934Y338995D01*
X453306Y338995D01*
G37*
%LPD*%
%LPC*%
G36*
X524426Y341535D02*
X524426Y341535D01*
X521999Y342541D01*
X520141Y344399D01*
X519135Y346826D01*
X519135Y349454D01*
X520141Y351881D01*
X521999Y353739D01*
X524426Y354745D01*
X527054Y354745D01*
X529481Y353739D01*
X531339Y351881D01*
X532345Y349454D01*
X532345Y346826D01*
X531339Y344399D01*
X529481Y342541D01*
X527054Y341535D01*
X524426Y341535D01*
G37*
%LPD*%
%LPC*%
G36*
X496486Y361855D02*
X496486Y361855D01*
X494059Y362861D01*
X492201Y364719D01*
X491195Y367146D01*
X491195Y369774D01*
X492201Y372201D01*
X494059Y374059D01*
X496486Y375065D01*
X499114Y375065D01*
X501541Y374059D01*
X503399Y372201D01*
X504405Y369774D01*
X504405Y367146D01*
X503399Y364719D01*
X501541Y362861D01*
X499114Y361855D01*
X496486Y361855D01*
G37*
%LPD*%
%LPC*%
G36*
X897806Y359315D02*
X897806Y359315D01*
X895379Y360321D01*
X893521Y362179D01*
X892515Y364606D01*
X892515Y367234D01*
X893521Y369661D01*
X895379Y371519D01*
X897806Y372525D01*
X900434Y372525D01*
X902861Y371519D01*
X904719Y369661D01*
X905725Y367234D01*
X905725Y364606D01*
X904719Y362179D01*
X902861Y360321D01*
X900434Y359315D01*
X897806Y359315D01*
G37*
%LPD*%
%LPC*%
G36*
X245026Y82455D02*
X245026Y82455D01*
X242599Y83461D01*
X240741Y85319D01*
X239735Y87746D01*
X239735Y90374D01*
X240741Y92801D01*
X242599Y94659D01*
X245026Y95665D01*
X247654Y95665D01*
X250081Y94659D01*
X251939Y92801D01*
X252945Y90374D01*
X252945Y87746D01*
X251939Y85319D01*
X250081Y83461D01*
X247654Y82455D01*
X245026Y82455D01*
G37*
%LPD*%
%LPC*%
G36*
X130726Y392335D02*
X130726Y392335D01*
X128299Y393341D01*
X126441Y395199D01*
X125435Y397626D01*
X125435Y400254D01*
X126441Y402681D01*
X128299Y404539D01*
X130726Y405545D01*
X133354Y405545D01*
X135781Y404539D01*
X137639Y402681D01*
X138645Y400254D01*
X138645Y397626D01*
X137639Y395199D01*
X135781Y393341D01*
X133354Y392335D01*
X130726Y392335D01*
G37*
%LPD*%
%LPC*%
G36*
X448226Y402749D02*
X448226Y402749D01*
X445799Y403755D01*
X443941Y405613D01*
X442935Y408040D01*
X442935Y410668D01*
X443941Y413095D01*
X445799Y414953D01*
X448226Y415959D01*
X450854Y415959D01*
X453281Y414953D01*
X455139Y413095D01*
X456145Y410668D01*
X456145Y408040D01*
X455139Y405613D01*
X453281Y403755D01*
X450854Y402749D01*
X448226Y402749D01*
G37*
%LPD*%
%LPC*%
G36*
X407586Y432975D02*
X407586Y432975D01*
X405159Y433981D01*
X403301Y435839D01*
X402295Y438266D01*
X402295Y440894D01*
X403301Y443321D01*
X405159Y445179D01*
X407586Y446185D01*
X410214Y446185D01*
X412641Y445179D01*
X414499Y443321D01*
X415505Y440894D01*
X415505Y438266D01*
X414499Y435839D01*
X412641Y433981D01*
X410214Y432975D01*
X407586Y432975D01*
G37*
%LPD*%
%LPC*%
G36*
X422786Y404019D02*
X422786Y404019D01*
X420358Y405025D01*
X418500Y406883D01*
X417495Y409310D01*
X417495Y411938D01*
X418500Y414365D01*
X420358Y416223D01*
X422786Y417229D01*
X425413Y417229D01*
X427841Y416223D01*
X429699Y414365D01*
X430704Y411938D01*
X430704Y409310D01*
X429699Y406883D01*
X427841Y405025D01*
X425413Y404019D01*
X422786Y404019D01*
G37*
%LPD*%
%LPC*%
G36*
X542206Y405035D02*
X542206Y405035D01*
X539779Y406041D01*
X537921Y407899D01*
X536915Y410326D01*
X536915Y412954D01*
X537921Y415381D01*
X539779Y417239D01*
X542206Y418245D01*
X544834Y418245D01*
X547261Y417239D01*
X549119Y415381D01*
X550125Y412954D01*
X550125Y410326D01*
X549119Y407899D01*
X547261Y406041D01*
X544834Y405035D01*
X542206Y405035D01*
G37*
%LPD*%
%LPC*%
G36*
X760646Y410115D02*
X760646Y410115D01*
X758219Y411121D01*
X756361Y412979D01*
X755355Y415406D01*
X755355Y418034D01*
X756361Y420461D01*
X758219Y422319D01*
X760646Y423325D01*
X763274Y423325D01*
X765701Y422319D01*
X767559Y420461D01*
X768565Y418034D01*
X768565Y415406D01*
X767559Y412979D01*
X765701Y411121D01*
X763274Y410115D01*
X760646Y410115D01*
G37*
%LPD*%
%LPC*%
G36*
X720006Y412655D02*
X720006Y412655D01*
X717579Y413661D01*
X715721Y415519D01*
X714715Y417946D01*
X714715Y420574D01*
X715721Y423001D01*
X717579Y424859D01*
X720006Y425865D01*
X722634Y425865D01*
X725061Y424859D01*
X726919Y423001D01*
X727925Y420574D01*
X727925Y417946D01*
X726919Y415519D01*
X725061Y413661D01*
X722634Y412655D01*
X720006Y412655D01*
G37*
%LPD*%
%LPC*%
G36*
X633646Y412655D02*
X633646Y412655D01*
X631219Y413661D01*
X629361Y415519D01*
X628355Y417946D01*
X628355Y420574D01*
X629361Y423001D01*
X631219Y424859D01*
X633646Y425865D01*
X636274Y425865D01*
X638701Y424859D01*
X640559Y423001D01*
X641565Y420574D01*
X641565Y417946D01*
X640559Y415519D01*
X638701Y413661D01*
X636274Y412655D01*
X633646Y412655D01*
G37*
%LPD*%
%LPC*%
G36*
X130726Y412655D02*
X130726Y412655D01*
X128299Y413661D01*
X126441Y415519D01*
X125435Y417946D01*
X125435Y420574D01*
X126441Y423001D01*
X128299Y424859D01*
X130726Y425865D01*
X133354Y425865D01*
X135781Y424859D01*
X137639Y423001D01*
X138645Y420574D01*
X138645Y417946D01*
X137639Y415519D01*
X135781Y413661D01*
X133354Y412655D01*
X130726Y412655D01*
G37*
%LPD*%
%LPC*%
G36*
X738274Y413143D02*
X738274Y413143D01*
X735847Y414149D01*
X733989Y416007D01*
X732983Y418434D01*
X732983Y421062D01*
X733989Y423489D01*
X735847Y425347D01*
X738274Y426353D01*
X740902Y426353D01*
X743329Y425347D01*
X745187Y423489D01*
X746193Y421062D01*
X746193Y418434D01*
X745187Y416007D01*
X743329Y414149D01*
X740902Y413143D01*
X738274Y413143D01*
G37*
%LPD*%
%LPC*%
G36*
X671746Y417735D02*
X671746Y417735D01*
X669319Y418741D01*
X667461Y420599D01*
X666455Y423026D01*
X666455Y425654D01*
X667461Y428081D01*
X669319Y429939D01*
X671746Y430945D01*
X674374Y430945D01*
X676801Y429939D01*
X678659Y428081D01*
X679665Y425654D01*
X679665Y423026D01*
X678659Y420599D01*
X676801Y418741D01*
X674374Y417735D01*
X671746Y417735D01*
G37*
%LPD*%
%LPC*%
G36*
X651426Y417735D02*
X651426Y417735D01*
X648999Y418741D01*
X647141Y420599D01*
X646135Y423026D01*
X646135Y425654D01*
X647141Y428081D01*
X648999Y429939D01*
X651426Y430945D01*
X654054Y430945D01*
X656481Y429939D01*
X658339Y428081D01*
X659345Y425654D01*
X659345Y423026D01*
X658339Y420599D01*
X656481Y418741D01*
X654054Y417735D01*
X651426Y417735D01*
G37*
%LPD*%
%LPC*%
G36*
X445686Y427895D02*
X445686Y427895D01*
X443259Y428901D01*
X441401Y430759D01*
X440395Y433186D01*
X440395Y435814D01*
X441401Y438241D01*
X443259Y440099D01*
X445686Y441105D01*
X448314Y441105D01*
X450741Y440099D01*
X452599Y438241D01*
X453605Y435814D01*
X453605Y433186D01*
X452599Y430759D01*
X450741Y428901D01*
X448314Y427895D01*
X445686Y427895D01*
G37*
%LPD*%
%LPC*%
G36*
X573956Y431705D02*
X573956Y431705D01*
X571529Y432711D01*
X569671Y434569D01*
X568665Y436996D01*
X568665Y439624D01*
X569671Y442051D01*
X571529Y443909D01*
X573956Y444915D01*
X576584Y444915D01*
X579011Y443909D01*
X580869Y442051D01*
X581875Y439624D01*
X581875Y436996D01*
X580869Y434569D01*
X579011Y432711D01*
X576584Y431705D01*
X573956Y431705D01*
G37*
%LPD*%
%LPC*%
G36*
X427906Y432975D02*
X427906Y432975D01*
X425479Y433981D01*
X423621Y435839D01*
X422615Y438266D01*
X422615Y440894D01*
X423621Y443321D01*
X425479Y445179D01*
X427906Y446185D01*
X430534Y446185D01*
X432961Y445179D01*
X434819Y443321D01*
X435825Y440894D01*
X435825Y438266D01*
X434819Y435839D01*
X432961Y433981D01*
X430534Y432975D01*
X427906Y432975D01*
G37*
%LPD*%
%LPC*%
G36*
X747946Y435515D02*
X747946Y435515D01*
X745519Y436521D01*
X743661Y438379D01*
X742655Y440806D01*
X742655Y443434D01*
X743661Y445861D01*
X745519Y447719D01*
X747946Y448725D01*
X750574Y448725D01*
X753001Y447719D01*
X754859Y445861D01*
X755865Y443434D01*
X755865Y440806D01*
X754859Y438379D01*
X753001Y436521D01*
X750574Y435515D01*
X747946Y435515D01*
G37*
%LPD*%
%LPC*%
G36*
X651426Y438055D02*
X651426Y438055D01*
X648999Y439061D01*
X647141Y440919D01*
X646135Y443346D01*
X646135Y445974D01*
X647141Y448401D01*
X648999Y450259D01*
X651426Y451265D01*
X654054Y451265D01*
X656481Y450259D01*
X658339Y448401D01*
X659345Y445974D01*
X659345Y443346D01*
X658339Y440919D01*
X656481Y439061D01*
X654054Y438055D01*
X651426Y438055D01*
G37*
%LPD*%
%LPC*%
G36*
X493946Y458375D02*
X493946Y458375D01*
X491519Y459381D01*
X489661Y461239D01*
X488655Y463666D01*
X488655Y466294D01*
X489661Y468721D01*
X491519Y470579D01*
X493946Y471585D01*
X496574Y471585D01*
X499001Y470579D01*
X500859Y468721D01*
X501865Y466294D01*
X501865Y463666D01*
X500859Y461239D01*
X499001Y459381D01*
X496574Y458375D01*
X493946Y458375D01*
G37*
%LPD*%
%LPC*%
G36*
X514266Y458375D02*
X514266Y458375D01*
X511839Y459381D01*
X509981Y461239D01*
X508975Y463666D01*
X508975Y466294D01*
X509981Y468721D01*
X511839Y470579D01*
X514266Y471585D01*
X516894Y471585D01*
X519321Y470579D01*
X521179Y468721D01*
X522185Y466294D01*
X522185Y463666D01*
X521179Y461239D01*
X519321Y459381D01*
X516894Y458375D01*
X514266Y458375D01*
G37*
%LPD*%
%LPC*%
G36*
X763186Y460915D02*
X763186Y460915D01*
X760759Y461921D01*
X758901Y463779D01*
X757895Y466206D01*
X757895Y468834D01*
X758901Y471261D01*
X760759Y473119D01*
X763186Y474125D01*
X765814Y474125D01*
X768241Y473119D01*
X770099Y471261D01*
X771105Y468834D01*
X771105Y466206D01*
X770099Y463779D01*
X768241Y461921D01*
X765814Y460915D01*
X763186Y460915D01*
G37*
%LPD*%
%LPC*%
G36*
X798746Y471075D02*
X798746Y471075D01*
X796319Y472081D01*
X794461Y473939D01*
X793455Y476366D01*
X793455Y478994D01*
X794461Y481421D01*
X796319Y483279D01*
X798746Y484285D01*
X801374Y484285D01*
X803801Y483279D01*
X805659Y481421D01*
X806665Y478994D01*
X806665Y476366D01*
X805659Y473939D01*
X803801Y472081D01*
X801374Y471075D01*
X798746Y471075D01*
G37*
%LPD*%
%LPC*%
G36*
X763429Y84839D02*
X763429Y84839D01*
X763429Y93203D01*
X763505Y93191D01*
X765176Y92648D01*
X766742Y91850D01*
X768164Y90817D01*
X769407Y89574D01*
X770440Y88152D01*
X771238Y86586D01*
X771781Y84915D01*
X771793Y84839D01*
X763429Y84839D01*
G37*
%LPD*%
%LPC*%
G36*
X839629Y182629D02*
X839629Y182629D01*
X839629Y190993D01*
X839705Y190981D01*
X841376Y190438D01*
X842942Y189640D01*
X844364Y188607D01*
X845607Y187364D01*
X846640Y185942D01*
X847438Y184376D01*
X847981Y182705D01*
X847993Y182629D01*
X839629Y182629D01*
G37*
%LPD*%
%LPC*%
G36*
X763429Y79761D02*
X763429Y79761D01*
X771793Y79761D01*
X771781Y79685D01*
X771238Y78014D01*
X770440Y76448D01*
X769407Y75026D01*
X768164Y73783D01*
X766742Y72750D01*
X765176Y71952D01*
X763505Y71409D01*
X763429Y71397D01*
X763429Y79761D01*
G37*
%LPD*%
%LPC*%
G36*
X749987Y84839D02*
X749987Y84839D01*
X749999Y84915D01*
X750542Y86586D01*
X751340Y88152D01*
X752373Y89574D01*
X753616Y90817D01*
X755038Y91850D01*
X756604Y92648D01*
X758275Y93191D01*
X758351Y93203D01*
X758351Y84839D01*
X749987Y84839D01*
G37*
%LPD*%
%LPC*%
G36*
X826187Y182629D02*
X826187Y182629D01*
X826199Y182705D01*
X826742Y184376D01*
X827540Y185942D01*
X828573Y187364D01*
X829816Y188607D01*
X831238Y189640D01*
X832804Y190438D01*
X834475Y190981D01*
X834551Y190993D01*
X834551Y182629D01*
X826187Y182629D01*
G37*
%LPD*%
%LPC*%
G36*
X839629Y177551D02*
X839629Y177551D01*
X847993Y177551D01*
X847981Y177475D01*
X847438Y175804D01*
X846640Y174238D01*
X845607Y172816D01*
X844364Y171573D01*
X842942Y170540D01*
X841376Y169742D01*
X839705Y169199D01*
X839629Y169187D01*
X839629Y177551D01*
G37*
%LPD*%
%LPC*%
G36*
X758275Y71409D02*
X758275Y71409D01*
X756604Y71952D01*
X755038Y72750D01*
X753616Y73783D01*
X752373Y75026D01*
X751340Y76448D01*
X750542Y78014D01*
X749999Y79685D01*
X749987Y79761D01*
X758351Y79761D01*
X758351Y71397D01*
X758275Y71409D01*
G37*
%LPD*%
%LPC*%
G36*
X834475Y169199D02*
X834475Y169199D01*
X832804Y169742D01*
X831238Y170540D01*
X829816Y171573D01*
X828573Y172816D01*
X827540Y174238D01*
X826742Y175804D01*
X826199Y177475D01*
X826187Y177551D01*
X834551Y177551D01*
X834551Y169187D01*
X834475Y169199D01*
G37*
%LPD*%
%LPC*%
G36*
X96479Y390049D02*
X96479Y390049D01*
X96479Y397369D01*
X97840Y396926D01*
X99265Y396200D01*
X100559Y395260D01*
X101690Y394129D01*
X102630Y392835D01*
X103356Y391410D01*
X103799Y390049D01*
X96479Y390049D01*
G37*
%LPD*%
%LPC*%
G36*
X96479Y384971D02*
X96479Y384971D01*
X103799Y384971D01*
X103356Y383610D01*
X102630Y382185D01*
X101690Y380891D01*
X100559Y379760D01*
X99265Y378820D01*
X97840Y378094D01*
X96479Y377651D01*
X96479Y384971D01*
G37*
%LPD*%
%LPC*%
G36*
X84081Y390049D02*
X84081Y390049D01*
X84524Y391410D01*
X85250Y392835D01*
X86190Y394129D01*
X87321Y395260D01*
X88615Y396200D01*
X90040Y396926D01*
X91401Y397369D01*
X91401Y390049D01*
X84081Y390049D01*
G37*
%LPD*%
%LPC*%
G36*
X90040Y378094D02*
X90040Y378094D01*
X88615Y378820D01*
X87321Y379760D01*
X86190Y380891D01*
X85250Y382185D01*
X84524Y383610D01*
X84081Y384971D01*
X91401Y384971D01*
X91401Y377651D01*
X90040Y378094D01*
G37*
%LPD*%
%LPC*%
G36*
X526259Y117419D02*
X526259Y117419D01*
X526259Y124707D01*
X527630Y124262D01*
X529043Y123542D01*
X530327Y122609D01*
X531449Y121487D01*
X532382Y120203D01*
X533102Y118790D01*
X533547Y117419D01*
X526259Y117419D01*
G37*
%LPD*%
%LPC*%
G36*
X450059Y117419D02*
X450059Y117419D01*
X450059Y124707D01*
X451430Y124262D01*
X452843Y123542D01*
X454127Y122609D01*
X455249Y121487D01*
X456182Y120203D01*
X456902Y118790D01*
X457347Y117419D01*
X450059Y117419D01*
G37*
%LPD*%
%LPC*%
G36*
X450059Y112421D02*
X450059Y112421D01*
X457347Y112421D01*
X456902Y111050D01*
X456182Y109637D01*
X455249Y108353D01*
X454127Y107231D01*
X452843Y106298D01*
X451430Y105578D01*
X450059Y105133D01*
X450059Y112421D01*
G37*
%LPD*%
%LPC*%
G36*
X526259Y112421D02*
X526259Y112421D01*
X533547Y112421D01*
X533102Y111050D01*
X532382Y109637D01*
X531449Y108353D01*
X530327Y107231D01*
X529043Y106298D01*
X527630Y105578D01*
X526259Y105133D01*
X526259Y112421D01*
G37*
%LPD*%
%LPC*%
G36*
X513973Y117419D02*
X513973Y117419D01*
X514418Y118790D01*
X515138Y120203D01*
X516071Y121487D01*
X517193Y122609D01*
X518477Y123542D01*
X519890Y124262D01*
X521261Y124707D01*
X521261Y117419D01*
X513973Y117419D01*
G37*
%LPD*%
%LPC*%
G36*
X437773Y117419D02*
X437773Y117419D01*
X438218Y118790D01*
X438938Y120203D01*
X439871Y121487D01*
X440993Y122609D01*
X442277Y123542D01*
X443690Y124262D01*
X445061Y124707D01*
X445061Y117419D01*
X437773Y117419D01*
G37*
%LPD*%
%LPC*%
G36*
X443690Y105578D02*
X443690Y105578D01*
X442277Y106298D01*
X440993Y107231D01*
X439871Y108353D01*
X438938Y109637D01*
X438218Y111050D01*
X437773Y112421D01*
X445061Y112421D01*
X445061Y105133D01*
X443690Y105578D01*
G37*
%LPD*%
%LPC*%
G36*
X519890Y105578D02*
X519890Y105578D01*
X518477Y106298D01*
X517193Y107231D01*
X516071Y108353D01*
X515138Y109637D01*
X514418Y111050D01*
X513973Y112421D01*
X521261Y112421D01*
X521261Y105133D01*
X519890Y105578D01*
G37*
%LPD*%
%LPC*%
G36*
X408484Y27684D02*
X408484Y27684D01*
X408484Y34671D01*
X408545Y34661D01*
X409942Y34207D01*
X411250Y33540D01*
X412438Y32677D01*
X413477Y31638D01*
X414340Y30450D01*
X415007Y29142D01*
X415461Y27745D01*
X415471Y27684D01*
X408484Y27684D01*
G37*
%LPD*%
%LPC*%
G36*
X433884Y27684D02*
X433884Y27684D01*
X433884Y34671D01*
X433945Y34661D01*
X435342Y34207D01*
X436650Y33540D01*
X437838Y32677D01*
X438877Y31638D01*
X439740Y30450D01*
X440407Y29142D01*
X440861Y27745D01*
X440871Y27684D01*
X433884Y27684D01*
G37*
%LPD*%
%LPC*%
G36*
X266244Y510284D02*
X266244Y510284D01*
X266244Y517271D01*
X266305Y517261D01*
X267702Y516807D01*
X269010Y516140D01*
X270198Y515277D01*
X271237Y514238D01*
X272100Y513050D01*
X272767Y511742D01*
X273221Y510345D01*
X273231Y510284D01*
X266244Y510284D01*
G37*
%LPD*%
%LPC*%
G36*
X397249Y27684D02*
X397249Y27684D01*
X397259Y27745D01*
X397713Y29142D01*
X398380Y30450D01*
X399243Y31638D01*
X400282Y32677D01*
X401470Y33540D01*
X402778Y34207D01*
X404175Y34661D01*
X404236Y34671D01*
X404236Y27684D01*
X397249Y27684D01*
G37*
%LPD*%
%LPC*%
G36*
X422649Y27684D02*
X422649Y27684D01*
X422659Y27745D01*
X423113Y29142D01*
X423780Y30450D01*
X424643Y31638D01*
X425682Y32677D01*
X426870Y33540D01*
X428178Y34207D01*
X429575Y34661D01*
X429636Y34671D01*
X429636Y27684D01*
X422649Y27684D01*
G37*
%LPD*%
%LPC*%
G36*
X255009Y510284D02*
X255009Y510284D01*
X255019Y510345D01*
X255473Y511742D01*
X256140Y513050D01*
X257003Y514238D01*
X258042Y515277D01*
X259230Y516140D01*
X260538Y516807D01*
X261935Y517261D01*
X261996Y517271D01*
X261996Y510284D01*
X255009Y510284D01*
G37*
%LPD*%
%LPC*%
G36*
X266244Y506036D02*
X266244Y506036D01*
X273231Y506036D01*
X273221Y505975D01*
X272767Y504578D01*
X272100Y503270D01*
X271237Y502082D01*
X270198Y501043D01*
X269010Y500180D01*
X267702Y499513D01*
X266305Y499059D01*
X266244Y499049D01*
X266244Y506036D01*
G37*
%LPD*%
%LPC*%
G36*
X433884Y23436D02*
X433884Y23436D01*
X440871Y23436D01*
X440861Y23375D01*
X440407Y21978D01*
X439740Y20670D01*
X438877Y19482D01*
X437838Y18443D01*
X436650Y17580D01*
X435342Y16913D01*
X433945Y16459D01*
X433884Y16449D01*
X433884Y23436D01*
G37*
%LPD*%
%LPC*%
G36*
X408484Y23436D02*
X408484Y23436D01*
X415471Y23436D01*
X415461Y23375D01*
X415007Y21978D01*
X414340Y20670D01*
X413477Y19482D01*
X412438Y18443D01*
X411250Y17580D01*
X409942Y16913D01*
X408545Y16459D01*
X408484Y16449D01*
X408484Y23436D01*
G37*
%LPD*%
%LPC*%
G36*
X261935Y499059D02*
X261935Y499059D01*
X260538Y499513D01*
X259230Y500180D01*
X258042Y501043D01*
X257003Y502082D01*
X256140Y503270D01*
X255473Y504578D01*
X255019Y505975D01*
X255009Y506036D01*
X261996Y506036D01*
X261996Y499049D01*
X261935Y499059D01*
G37*
%LPD*%
%LPC*%
G36*
X404175Y16459D02*
X404175Y16459D01*
X402778Y16913D01*
X401470Y17580D01*
X400282Y18443D01*
X399243Y19482D01*
X398380Y20670D01*
X397713Y21978D01*
X397259Y23375D01*
X397249Y23436D01*
X404236Y23436D01*
X404236Y16449D01*
X404175Y16459D01*
G37*
%LPD*%
%LPC*%
G36*
X429575Y16459D02*
X429575Y16459D01*
X428178Y16913D01*
X426870Y17580D01*
X425682Y18443D01*
X424643Y19482D01*
X423780Y20670D01*
X423113Y21978D01*
X422659Y23375D01*
X422649Y23436D01*
X429636Y23436D01*
X429636Y16449D01*
X429575Y16459D01*
G37*
%LPD*%
%LPC*%
G36*
X93939Y387509D02*
X93939Y387509D01*
X93939Y387511D01*
X93941Y387511D01*
X93941Y387509D01*
X93939Y387509D01*
G37*
%LPD*%
%LPC*%
G36*
X50195Y85757D02*
X50195Y85757D01*
X50195Y85759D01*
X50197Y85759D01*
X50197Y85757D01*
X50195Y85757D01*
G37*
%LPD*%
%LPC*%
G36*
X760889Y82299D02*
X760889Y82299D01*
X760889Y82301D01*
X760891Y82301D01*
X760891Y82299D01*
X760889Y82299D01*
G37*
%LPD*%
%LPC*%
G36*
X837089Y180089D02*
X837089Y180089D01*
X837089Y180091D01*
X837091Y180091D01*
X837091Y180089D01*
X837089Y180089D01*
G37*
%LPD*%
%LPC*%
G36*
X80195Y38757D02*
X80195Y38757D01*
X80195Y38759D01*
X80197Y38759D01*
X80197Y38757D01*
X80195Y38757D01*
G37*
%LPD*%
D10*
X93940Y387510D03*
X93940Y412910D03*
X93940Y438310D03*
X93940Y362110D03*
X93940Y336710D03*
D11*
X634960Y508160D03*
X609560Y508160D03*
X584160Y508160D03*
X558760Y508160D03*
X533360Y508160D03*
X507960Y508160D03*
X482560Y508160D03*
X457160Y508160D03*
X416520Y508160D03*
X391120Y508160D03*
X365720Y508160D03*
X340320Y508160D03*
X314920Y508160D03*
X289520Y508160D03*
X264120Y508160D03*
X238720Y508160D03*
X213320Y508160D03*
X187920Y508160D03*
X279360Y25560D03*
X304760Y25560D03*
X330160Y25560D03*
X355560Y25560D03*
X380960Y25560D03*
X406360Y25560D03*
X431760Y25560D03*
X457160Y25560D03*
X507960Y25560D03*
X533360Y25560D03*
X558760Y25560D03*
X584160Y25560D03*
X609560Y25560D03*
X634960Y25560D03*
X660360Y25560D03*
X685760Y25560D03*
X685760Y508160D03*
X711160Y508160D03*
X736560Y508160D03*
X761960Y508160D03*
X787360Y508160D03*
X812760Y508160D03*
X838160Y508160D03*
X863560Y508160D03*
X736560Y25560D03*
X761960Y25560D03*
X787360Y25560D03*
X812760Y25560D03*
X838160Y25560D03*
X863560Y25560D03*
X888960Y25560D03*
X914360Y25560D03*
D12*
X134580Y463710D03*
X160742Y463710D03*
X186904Y463710D03*
X213066Y463710D03*
X239228Y463710D03*
X302220Y462440D03*
X328382Y462440D03*
X354544Y462440D03*
X380706Y462440D03*
X406868Y462440D03*
D13*
X796250Y278290D03*
X819150Y278290D03*
X842050Y278290D03*
D14*
X654010Y273210D03*
X676910Y273210D03*
X699810Y273210D03*
D15*
X898550Y157440D03*
X920550Y184940D03*
X912550Y129940D03*
D13*
X796450Y344920D03*
X819350Y344920D03*
X842250Y344920D03*
D14*
X652940Y339840D03*
X675840Y339840D03*
X698740Y339840D03*
D15*
X899820Y320000D03*
X921820Y347500D03*
X913820Y292500D03*
D16*
X659290Y180090D03*
X684690Y180090D03*
X760890Y180090D03*
X786290Y180090D03*
X811690Y180090D03*
X837090Y180090D03*
X659290Y82300D03*
X684690Y82300D03*
X760890Y82300D03*
X786290Y82300D03*
X811690Y82300D03*
X837090Y82300D03*
D17*
X422160Y114920D03*
X447560Y114920D03*
X498360Y114920D03*
X523760Y114920D03*
X549160Y114920D03*
D18*
X604480Y475140D03*
X617180Y475140D03*
X629880Y475140D03*
X604480Y437040D03*
X617180Y437040D03*
X629880Y437040D03*
D19*
X32980Y349400D03*
X32980Y396400D03*
X32980Y443400D03*
D20*
X110196Y85758D03*
D21*
X50196Y85758D03*
D20*
X80196Y38758D03*
D22*
X55840Y449740D03*
D23*
X55840Y442120D01*
D22*
X657820Y505620D03*
D23*
X972780Y414180D02*
X972780Y406560D01*
D22*
X360640Y101760D03*
D23*
X365720Y101760D01*
D22*
X104100Y228760D03*
D23*
X104100Y238920D01*
D22*
X159980Y172880D03*
D24*
X159980Y180500D01*
X154900Y180500D01*
D22*
X469860Y284640D03*
D23*
X459700Y284640D01*
D22*
X218400Y203360D03*
D23*
X223480Y203360D01*
X226020Y200820D01*
D22*
X955000Y437040D03*
D23*
X944840Y437040D01*
D22*
X368260Y236380D03*
D23*
X368260Y231300D01*
D22*
X728940Y274480D03*
D23*
X695920Y241460D01*
X695920Y191320D02*
X684690Y180090D01*
X695920Y191320D02*
X695920Y241460D01*
D22*
X652740Y424340D03*
D23*
X657820Y505620D02*
X657820Y515780D01*
D22*
X264120Y142400D03*
D24*
X266660Y142400D01*
X269200Y139860D01*
X270470Y141130D01*
D22*
X731480Y320200D03*
D23*
X731480Y277020D01*
X728940Y274480D01*
D22*
X749260Y442120D03*
X234422Y433718D03*
D23*
X234422Y425122D01*
X233640Y424340D01*
D22*
X739588Y419748D03*
X751800Y480220D03*
X499040Y207170D03*
X314920Y147480D03*
X454620Y345600D03*
X193000Y221140D03*
X886420Y61120D03*
X736306Y337726D03*
X899120Y365920D03*
X198080Y263050D03*
X196810Y250350D03*
X449540Y304960D03*
X800060Y457360D03*
X764500Y467520D03*
X314920Y294800D03*
X429220Y439580D03*
X596860Y188120D03*
D25*
X218400Y43340D03*
D22*
X302220Y233840D03*
X165060Y343060D03*
X320000Y233840D03*
X190460Y340520D03*
X269200Y365920D03*
X106640Y505620D03*
X66508Y277020D03*
X105624Y261272D03*
X125944Y262288D03*
X275550Y265590D03*
X190460Y299626D03*
X132040Y419260D03*
X132040Y398940D03*
D25*
X980400Y360840D03*
D22*
X627340Y350680D03*
D23*
X632420Y355760D01*
D22*
X144740Y343060D03*
D23*
X149820Y337980D01*
D22*
X538440Y467266D03*
D23*
X538440Y472600D01*
D22*
X467320Y439580D03*
D23*
X467320Y447200D01*
D22*
X624916Y266744D03*
D23*
X629880Y271708D01*
X629880Y271940D01*
D22*
X525740Y269400D03*
X368260Y256700D03*
D24*
X368260Y277020D01*
X335240Y310040D02*
X335240Y350680D01*
X335240Y310040D02*
X368260Y277020D01*
X525740Y274480D02*
X525740Y269400D01*
D22*
X474940Y396400D03*
X868640Y386240D03*
X650200Y475140D03*
X543404Y340636D03*
X366512Y368206D03*
X673060Y424340D03*
X495260Y464980D03*
X515580Y464980D03*
X535900Y393860D03*
X652740Y444660D03*
X575270Y438310D03*
X424100Y410624D03*
X634960Y419260D03*
X497800Y368460D03*
X434300Y271940D03*
X375880Y330360D03*
X525740Y348140D03*
X528280Y294800D03*
X421600Y256700D03*
X388580Y210980D03*
X276820Y188120D03*
X825460Y216060D03*
D25*
X878800Y452280D03*
D22*
X612100Y381160D03*
X551140Y200820D03*
X579080Y266860D03*
X520660Y231300D03*
X888198Y244254D03*
X246340Y89060D03*
X53300Y135896D03*
D25*
X220080Y181360D03*
D22*
X15200Y119540D03*
X177760Y40800D03*
X231100Y356776D03*
X739100Y358300D03*
X721320Y419260D03*
X761960Y416720D03*
X787360Y419260D03*
X231100Y337980D03*
X447000Y434500D03*
X408900Y439580D03*
X263104Y386240D03*
X982940Y205900D03*
X716240Y221140D03*
X975320Y297340D03*
X675600Y218600D03*
X800060Y477680D03*
X449540Y409354D03*
X543520Y411640D03*
M02*
