M48
;GenerationSoftware,Autodesk,EAGLE,9.6.2*%
;CreationDate,2021-05-18T02:03:35Z*%
FMAT,2
ICI,OFF
METRIC,TZ,000.000
T15C0.508
T14C0.660
T13C0.800
T12C0.813
T11C0.850
T10C1.000
T9C1.016
T8C1.150
T7C1.280
T6C1.300
T5C1.680
T4C1.700
T3C3.162
T2C3.200
T1C3.640
%
G90
M71
T1
X8020Y3876
X11020Y8576
T2
X96516Y2556
X15236Y50816
X90166Y50816
X13966Y2556
T3
X5020Y8576
T4
X98055Y15744
X92555Y15744
X98182Y32000
X92682Y32000
T5
X3298Y34940
X3298Y44340
X3298Y39640
T6
X67584Y33984
X69874Y33984
X65294Y33984
X65401Y27321
X67691Y27321
X69981Y27321
T7
X81915Y27829
X79625Y27829
X81935Y34492
X79645Y34492
X84205Y27829
X84225Y34492
T8
X81169Y8230
X78629Y8230
X68469Y8230
X65929Y8230
X83709Y18009
X81169Y18009
X76089Y18009
X65929Y18009
X76089Y8230
X83709Y8230
X68469Y18009
X78629Y18009
T9
X9394Y33671
X9394Y36211
X9394Y38751
X9394Y43831
X9394Y41291
T10
X44756Y11492
X49836Y11492
X52376Y11492
X54916Y11492
X42216Y11492
T11
X76196Y50816
X78736Y50816
X81276Y50816
X83816Y50816
X86356Y50816
X73656Y2556
X76196Y2556
X78736Y2556
X81276Y2556
X83816Y2556
X86356Y2556
X88896Y2556
X91436Y2556
X38096Y2556
X63496Y50816
X60956Y50816
X58416Y50816
X55876Y50816
X53336Y50816
X50796Y50816
X48256Y50816
X45716Y50816
X41652Y50816
X39112Y50816
X36572Y50816
X34032Y50816
X31492Y50816
X28952Y50816
X26412Y50816
X23872Y50816
X21332Y50816
X18792Y50816
X27936Y2556
X30476Y2556
X33016Y2556
X35556Y2556
X40636Y2556
X43176Y2556
X45716Y2556
X50796Y2556
X53336Y2556
X55876Y2556
X58416Y2556
X60956Y2556
X63496Y2556
X66036Y2556
X68576Y2556
X68576Y50816
X71116Y50816
X73656Y50816
T12
X21840Y4334
X40687Y46244
X98040Y36084
X22008Y18136
X13458Y46371
X16074Y46371
X21307Y46371
X23923Y46371
X30222Y46244
X32838Y46244
X35454Y46244
X38071Y46244
X18690Y46371
X87880Y45228
T13
X92182Y34750
X89855Y15744
X92055Y18494
X91255Y12994
X89982Y32000
X91382Y29250
T14
X60448Y47514
X61718Y47514
X62988Y47514
X60448Y43704
X61718Y43704
X62988Y43704
T15
X89912Y36592
X19808Y26305
X19681Y25035
X44954Y30496
X76450Y46752
X31492Y29480
X42922Y43958
X59686Y18812
X30222Y23384
X16506Y34306
X32000Y23384
X19046Y34052
X26920Y36592
X10664Y50562
X6651Y27702
X10562Y26127
X12594Y26229
X27555Y26559
X19046Y29963
X13204Y41926
X13204Y39894
X62734Y35068
X53844Y46727
X46732Y43958
X62492Y26674
X52574Y26940
X36826Y25670
X47494Y39640
X86864Y38624
X65020Y47514
X54340Y34064
X36651Y36821
X67306Y42434
X49526Y46498
X51558Y46498
X53590Y39386
X73959Y41975
X54352Y41164
X44954Y40935
X5584Y44974
X80006Y47768
X67560Y21860
X65782Y50562
X36064Y10176
X97532Y29734
X10410Y22876
X15998Y17288
X46986Y28464
X21840Y20336
X95500Y43704
X36826Y23638
X65274Y44466
X71624Y22114
X98294Y20590
X26310Y38624
X40890Y43958
X44700Y43450
X23110Y33798
X72894Y27448
X65274Y42434
X26412Y14240
X78736Y41926
X76196Y41672
X72132Y41926
X73910Y35830
X23110Y35678
X17776Y4080
X73148Y32020
X74926Y44212
X23442Y43372
X1520Y11954
X80006Y45736
X5330Y13590
X24634Y8906
X88820Y24425
X52066Y23130
X57908Y26686
X55114Y20082
X61210Y38116
X75180Y48022
X82546Y21606
X27682Y18812
X38858Y21098
X14474Y34306
X52828Y29480
X52574Y34814
X37588Y33036
X49904Y20717
X31492Y14748
X45462Y34560
X19300Y22114
X88642Y6112
X73631Y33773
X43430Y27194
X49780Y36846
X63496Y41926
X42410Y41062
X57527Y43831
X42160Y25670
M30