G04 EAGLE Gerber RS-274X export*
G75*
%MOMM*%
%FSLAX34Y34*%
%LPD*%
%INMilling*%
%IPPOS*%
%AMOC8*
5,1,8,0,0,1.08239X$1,22.5*%
G01*
%ADD10C,0.100000*%


D10*
X910550Y180940D02*
X930550Y180940D01*
X930550Y188940D02*
X910550Y188940D01*
X902550Y164940D02*
X902550Y149940D01*
X894550Y149940D02*
X894550Y164940D01*
X902550Y125940D02*
X922550Y125940D01*
X922550Y133940D02*
X902550Y133940D01*
X922550Y133940D02*
X922550Y125940D01*
X902550Y125940D02*
X902550Y133940D01*
X930550Y180940D02*
X930550Y188940D01*
X910550Y188940D02*
X910550Y180940D01*
X902550Y164940D02*
X894550Y164940D01*
X894550Y149940D02*
X902550Y149940D01*
X911820Y343500D02*
X931820Y343500D01*
X931820Y351500D02*
X911820Y351500D01*
X903820Y327500D02*
X903820Y312500D01*
X895820Y312500D02*
X895820Y327500D01*
X903820Y288500D02*
X923820Y288500D01*
X923820Y296500D02*
X903820Y296500D01*
X923820Y296500D02*
X923820Y288500D01*
X903820Y288500D02*
X903820Y296500D01*
X931820Y343500D02*
X931820Y351500D01*
X911820Y351500D02*
X911820Y343500D01*
X903820Y327500D02*
X895820Y327500D01*
X895820Y312500D02*
X903820Y312500D01*
M02*
