G04 EAGLE Gerber RS-274X export*
G75*
%MOMM*%
%FSLAX34Y34*%
%LPD*%
%INSilkscreen Top*%
%IPPOS*%
%AMOC8*
5,1,8,0,0,1.08239X$1,22.5*%
G01*
%ADD10C,0.127000*%
%ADD11C,0.101600*%
%ADD12C,0.076200*%
%ADD13C,0.152400*%
%ADD14C,0.381000*%
%ADD15C,0.254000*%
%ADD16C,0.533400*%
%ADD17C,0.050800*%
%ADD18C,0.203200*%
%ADD19R,0.325000X0.425000*%
%ADD20R,0.350000X0.350000*%
%ADD21C,0.177800*%
%ADD22C,0.070000*%
%ADD23R,0.300000X0.700000*%
%ADD24C,0.406400*%
%ADD25C,0.304800*%
%ADD26C,0.200000*%
%ADD27C,0.025400*%
%ADD28C,0.100000*%
%ADD29C,0.200000*%
%ADD30R,0.425000X0.325000*%
%ADD31C,0.000000*%


D10*
X689189Y52611D02*
X689189Y57187D01*
X691477Y59475D01*
X693765Y57187D01*
X693765Y52611D01*
X693765Y56043D02*
X689189Y56043D01*
X696673Y52611D02*
X696673Y59475D01*
X701249Y52611D01*
X701249Y59475D01*
X704157Y57187D02*
X704157Y52611D01*
X704157Y57187D02*
X706445Y59475D01*
X708733Y57187D01*
X708733Y52611D01*
X708733Y56043D02*
X704157Y56043D01*
X711641Y59475D02*
X711641Y52611D01*
X716217Y52611D01*
X720270Y59475D02*
X722558Y59475D01*
X720270Y59475D02*
X719126Y58331D01*
X719126Y53755D01*
X720270Y52611D01*
X722558Y52611D01*
X723702Y53755D01*
X723702Y58331D01*
X722558Y59475D01*
X730042Y59475D02*
X731186Y58331D01*
X730042Y59475D02*
X727754Y59475D01*
X726610Y58331D01*
X726610Y53755D01*
X727754Y52611D01*
X730042Y52611D01*
X731186Y53755D01*
X731186Y56043D01*
X728898Y56043D01*
X741578Y52611D02*
X743866Y52611D01*
X742722Y52611D02*
X742722Y59475D01*
X741578Y59475D02*
X743866Y59475D01*
X746568Y59475D02*
X746568Y52611D01*
X751143Y52611D02*
X746568Y59475D01*
X751143Y59475D02*
X751143Y52611D01*
D11*
X605092Y524670D02*
X605092Y531788D01*
X602720Y531788D02*
X607465Y531788D01*
X610204Y531788D02*
X614949Y524670D01*
X610204Y524670D02*
X614949Y531788D01*
X628120Y531788D02*
X628120Y524670D01*
X628120Y531788D02*
X631679Y531788D01*
X632865Y530602D01*
X632865Y528229D01*
X631679Y527043D01*
X628120Y527043D01*
X630492Y527043D02*
X632865Y524670D01*
X640349Y524670D02*
X635604Y531788D01*
X640349Y531788D02*
X635604Y524670D01*
D12*
X318355Y47746D02*
X318355Y42407D01*
X318355Y47746D02*
X321025Y47746D01*
X321914Y46856D01*
X321914Y45076D01*
X321025Y44187D01*
X318355Y44187D01*
X320135Y44187D02*
X321914Y42407D01*
X323969Y47746D02*
X327528Y47746D01*
X323969Y47746D02*
X323969Y42407D01*
X327528Y42407D01*
X325748Y45076D02*
X323969Y45076D01*
X332251Y47746D02*
X333141Y46856D01*
X332251Y47746D02*
X330471Y47746D01*
X329582Y46856D01*
X329582Y45966D01*
X330471Y45076D01*
X332251Y45076D01*
X333141Y44187D01*
X333141Y43297D01*
X332251Y42407D01*
X330471Y42407D01*
X329582Y43297D01*
X335195Y47746D02*
X338754Y47746D01*
X335195Y47746D02*
X335195Y42407D01*
X338754Y42407D01*
X336974Y45076D02*
X335195Y45076D01*
X342587Y42407D02*
X342587Y47746D01*
X340808Y47746D02*
X344367Y47746D01*
X350221Y48468D02*
X351111Y49358D01*
X352890Y49358D01*
X353780Y48468D01*
X353780Y47578D01*
X352890Y46688D01*
X352001Y46688D01*
X352890Y46688D02*
X353780Y45799D01*
X353780Y44909D01*
X352890Y44019D01*
X351111Y44019D01*
X350221Y44909D01*
X355834Y45799D02*
X355834Y49358D01*
X355834Y45799D02*
X357614Y44019D01*
X359393Y45799D01*
X359393Y49358D01*
X361447Y48468D02*
X362337Y49358D01*
X364116Y49358D01*
X365006Y48468D01*
X365006Y47578D01*
X364116Y46688D01*
X363227Y46688D01*
X364116Y46688D02*
X365006Y45799D01*
X365006Y44909D01*
X364116Y44019D01*
X362337Y44019D01*
X361447Y44909D01*
X376129Y48596D02*
X379688Y48596D01*
X376129Y48596D02*
X376129Y45926D01*
X377909Y46816D01*
X378798Y46816D01*
X379688Y45926D01*
X379688Y44147D01*
X378798Y43257D01*
X377019Y43257D01*
X376129Y44147D01*
X381742Y45037D02*
X381742Y48596D01*
X381742Y45037D02*
X383522Y43257D01*
X385301Y45037D01*
X385301Y48596D01*
X445217Y48596D02*
X445217Y45037D01*
X446997Y43257D01*
X448776Y45037D01*
X448776Y48596D01*
X450830Y43257D02*
X452610Y43257D01*
X451720Y43257D02*
X451720Y48596D01*
X450830Y48596D02*
X452610Y48596D01*
X454572Y48596D02*
X454572Y43257D01*
X458131Y43257D02*
X454572Y48596D01*
X458131Y48596D02*
X458131Y43257D01*
X415248Y47706D02*
X414358Y48596D01*
X412579Y48596D01*
X411689Y47706D01*
X411689Y44147D01*
X412579Y43257D01*
X414358Y43257D01*
X415248Y44147D01*
X415248Y45926D01*
X413469Y45926D01*
X417302Y43257D02*
X417302Y48596D01*
X420861Y43257D01*
X420861Y48596D01*
X422915Y48596D02*
X422915Y43257D01*
X425584Y43257D01*
X426474Y44147D01*
X426474Y47706D01*
X425584Y48596D01*
X422915Y48596D01*
D11*
X419822Y483017D02*
X412704Y483017D01*
X416263Y479458D01*
X416263Y484203D01*
X387304Y484203D02*
X387304Y479458D01*
X390863Y479458D01*
X389677Y481831D01*
X389677Y483017D01*
X390863Y484203D01*
X393236Y484203D01*
X394422Y483017D01*
X394422Y480644D01*
X393236Y479458D01*
X363090Y481831D02*
X361904Y484203D01*
X363090Y481831D02*
X365463Y479458D01*
X367836Y479458D01*
X369022Y480644D01*
X369022Y483017D01*
X367836Y484203D01*
X366649Y484203D01*
X365463Y483017D01*
X365463Y479458D01*
X339044Y479458D02*
X339044Y484203D01*
X340230Y484203D01*
X344976Y479458D01*
X346162Y479458D01*
X312290Y479458D02*
X311104Y480644D01*
X311104Y483017D01*
X312290Y484203D01*
X313477Y484203D01*
X314663Y483017D01*
X315849Y484203D01*
X317036Y484203D01*
X318222Y483017D01*
X318222Y480644D01*
X317036Y479458D01*
X315849Y479458D01*
X314663Y480644D01*
X313477Y479458D01*
X312290Y479458D01*
X314663Y480644D02*
X314663Y483017D01*
X292822Y480644D02*
X291636Y479458D01*
X292822Y480644D02*
X292822Y483017D01*
X291636Y484203D01*
X286890Y484203D01*
X285704Y483017D01*
X285704Y480644D01*
X286890Y479458D01*
X288077Y479458D01*
X289263Y480644D01*
X289263Y484203D01*
X262677Y474378D02*
X260304Y476751D01*
X267422Y476751D01*
X267422Y479123D02*
X267422Y474378D01*
X266236Y481862D02*
X261490Y481862D01*
X260304Y483049D01*
X260304Y485421D01*
X261490Y486608D01*
X266236Y486608D01*
X267422Y485421D01*
X267422Y483049D01*
X266236Y481862D01*
X261490Y486608D01*
X237277Y474378D02*
X234904Y476751D01*
X242022Y476751D01*
X242022Y479123D02*
X242022Y474378D01*
X237277Y481862D02*
X234904Y484235D01*
X242022Y484235D01*
X242022Y481862D02*
X242022Y486608D01*
X210305Y482392D02*
X207932Y480019D01*
X210305Y482392D02*
X210305Y475274D01*
X212677Y475274D02*
X207932Y475274D01*
X215416Y475274D02*
X220162Y475274D01*
X220162Y480019D02*
X215416Y475274D01*
X220162Y480019D02*
X220162Y481206D01*
X218975Y482392D01*
X216603Y482392D01*
X215416Y481206D01*
X182316Y481804D02*
X179944Y479431D01*
X182316Y481804D02*
X182316Y474686D01*
X179944Y474686D02*
X184689Y474686D01*
X187428Y480618D02*
X188614Y481804D01*
X190987Y481804D01*
X192173Y480618D01*
X192173Y479431D01*
X190987Y478245D01*
X189801Y478245D01*
X190987Y478245D02*
X192173Y477059D01*
X192173Y475872D01*
X190987Y474686D01*
X188614Y474686D01*
X187428Y475872D01*
X509140Y47658D02*
X513886Y47658D01*
X509140Y47658D02*
X507954Y48844D01*
X507954Y51217D01*
X509140Y52403D01*
X513886Y52403D01*
X515072Y51217D01*
X515072Y48844D01*
X513886Y47658D01*
X509140Y52403D01*
X530814Y50031D02*
X533187Y47658D01*
X530814Y50031D02*
X537932Y50031D01*
X537932Y52403D02*
X537932Y47658D01*
X565872Y47658D02*
X565872Y52403D01*
X565872Y47658D02*
X561127Y52403D01*
X559940Y52403D01*
X558754Y51217D01*
X558754Y48844D01*
X559940Y47658D01*
X584154Y48844D02*
X585340Y47658D01*
X584154Y48844D02*
X584154Y51217D01*
X585340Y52403D01*
X586527Y52403D01*
X587713Y51217D01*
X587713Y50031D01*
X587713Y51217D02*
X588899Y52403D01*
X590086Y52403D01*
X591272Y51217D01*
X591272Y48844D01*
X590086Y47658D01*
X609554Y51217D02*
X616672Y51217D01*
X613113Y47658D02*
X609554Y51217D01*
X613113Y52403D02*
X613113Y47658D01*
X633684Y47658D02*
X633684Y52403D01*
X633684Y47658D02*
X637243Y47658D01*
X636057Y50031D01*
X636057Y51217D01*
X637243Y52403D01*
X639616Y52403D01*
X640802Y51217D01*
X640802Y48844D01*
X639616Y47658D01*
X659084Y52403D02*
X660270Y50031D01*
X662643Y47658D01*
X665016Y47658D01*
X666202Y48844D01*
X666202Y51217D01*
X665016Y52403D01*
X663829Y52403D01*
X662643Y51217D01*
X662643Y47658D01*
X685754Y47658D02*
X685754Y52403D01*
X686940Y52403D01*
X691686Y47658D01*
X692872Y47658D01*
X821644Y481747D02*
X822830Y482933D01*
X821644Y481747D02*
X821644Y479374D01*
X822830Y478188D01*
X824017Y478188D01*
X825203Y479374D01*
X825203Y481747D01*
X826389Y482933D01*
X827576Y482933D01*
X828762Y481747D01*
X828762Y479374D01*
X827576Y478188D01*
X828762Y485672D02*
X821644Y485672D01*
X828762Y485672D02*
X828762Y489231D01*
X827576Y490418D01*
X822830Y490418D01*
X821644Y489231D01*
X821644Y485672D01*
X824017Y493156D02*
X828762Y493156D01*
X824017Y493156D02*
X821644Y495529D01*
X824017Y497902D01*
X828762Y497902D01*
X825203Y497902D02*
X825203Y493156D01*
X847044Y481747D02*
X848230Y482933D01*
X847044Y481747D02*
X847044Y479374D01*
X848230Y478188D01*
X849417Y478188D01*
X850603Y479374D01*
X850603Y481747D01*
X851789Y482933D01*
X852976Y482933D01*
X854162Y481747D01*
X854162Y479374D01*
X852976Y478188D01*
X847044Y489231D02*
X848230Y490418D01*
X847044Y489231D02*
X847044Y486859D01*
X848230Y485672D01*
X852976Y485672D01*
X854162Y486859D01*
X854162Y489231D01*
X852976Y490418D01*
X854162Y493156D02*
X847044Y493156D01*
X854162Y493156D02*
X854162Y497902D01*
X736554Y48844D02*
X737740Y47658D01*
X736554Y48844D02*
X736554Y51217D01*
X737740Y52403D01*
X738927Y52403D01*
X740113Y51217D01*
X741299Y52403D01*
X742486Y52403D01*
X743672Y51217D01*
X743672Y48844D01*
X742486Y47658D01*
X741299Y47658D01*
X740113Y48844D01*
X738927Y47658D01*
X737740Y47658D01*
X740113Y48844D02*
X740113Y51217D01*
X767886Y47658D02*
X769072Y48844D01*
X769072Y51217D01*
X767886Y52403D01*
X763140Y52403D01*
X761954Y51217D01*
X761954Y48844D01*
X763140Y47658D01*
X764327Y47658D01*
X765513Y48844D01*
X765513Y52403D01*
D12*
X787227Y49988D02*
X789684Y47531D01*
X787227Y49988D02*
X794599Y49988D01*
X794599Y47531D02*
X794599Y52446D01*
X793370Y55015D02*
X788455Y55015D01*
X787227Y56244D01*
X787227Y58701D01*
X788455Y59930D01*
X793370Y59930D01*
X794599Y58701D01*
X794599Y56244D01*
X793370Y55015D01*
X788455Y59930D01*
D11*
X810722Y50031D02*
X813095Y47658D01*
X810722Y50031D02*
X817840Y50031D01*
X817840Y52403D02*
X817840Y47658D01*
X813095Y55142D02*
X810722Y57515D01*
X817840Y57515D01*
X817840Y55142D02*
X817840Y59888D01*
D10*
X833199Y41689D02*
X842097Y41689D01*
X842097Y46138D01*
X840614Y47621D01*
X834682Y47621D01*
X833199Y46138D01*
X833199Y41689D01*
X836165Y51044D02*
X842097Y51044D01*
X836165Y51044D02*
X833199Y54010D01*
X836165Y56976D01*
X842097Y56976D01*
X837648Y56976D02*
X837648Y51044D01*
X833199Y64848D02*
X834682Y66331D01*
X833199Y64848D02*
X833199Y61882D01*
X834682Y60399D01*
X840614Y60399D01*
X842097Y61882D01*
X842097Y64848D01*
X840614Y66331D01*
X840614Y69755D02*
X834682Y69755D01*
X833199Y71237D01*
X833199Y74203D01*
X834682Y75686D01*
X840614Y75686D01*
X842097Y74203D01*
X842097Y71237D01*
X840614Y69755D01*
X834682Y75686D01*
D11*
X860506Y41562D02*
X867624Y41562D01*
X867624Y45121D01*
X866438Y46307D01*
X861692Y46307D01*
X860506Y45121D01*
X860506Y41562D01*
X862879Y49046D02*
X867624Y49046D01*
X862879Y49046D02*
X860506Y51419D01*
X862879Y53792D01*
X867624Y53792D01*
X864065Y53792D02*
X864065Y49046D01*
X860506Y60089D02*
X861692Y61276D01*
X860506Y60089D02*
X860506Y57717D01*
X861692Y56530D01*
X866438Y56530D01*
X867624Y57717D01*
X867624Y60089D01*
X866438Y61276D01*
X862879Y64014D02*
X860506Y66387D01*
X867624Y66387D01*
X867624Y64014D02*
X867624Y68760D01*
X887092Y46307D02*
X885906Y45121D01*
X885906Y42748D01*
X887092Y41562D01*
X891838Y41562D01*
X893024Y42748D01*
X893024Y45121D01*
X891838Y46307D01*
X893024Y49046D02*
X888279Y49046D01*
X885906Y51419D01*
X888279Y53792D01*
X893024Y53792D01*
X889465Y53792D02*
X889465Y49046D01*
X893024Y56530D02*
X885906Y56530D01*
X893024Y61276D01*
X885906Y61276D01*
X885906Y64014D02*
X893024Y64014D01*
X885906Y64014D02*
X885906Y67574D01*
X887092Y68760D01*
X889465Y68760D01*
X890651Y67574D01*
X890651Y64014D01*
X890651Y66387D02*
X893024Y68760D01*
X893024Y76244D02*
X885906Y71499D01*
X885906Y76244D02*
X893024Y71499D01*
X911222Y46307D02*
X910036Y45121D01*
X910036Y42748D01*
X911222Y41562D01*
X915968Y41562D01*
X917154Y42748D01*
X917154Y45121D01*
X915968Y46307D01*
X917154Y49046D02*
X912409Y49046D01*
X910036Y51419D01*
X912409Y53792D01*
X917154Y53792D01*
X913595Y53792D02*
X913595Y49046D01*
X917154Y56530D02*
X910036Y56530D01*
X917154Y61276D01*
X910036Y61276D01*
X910036Y66387D02*
X917154Y66387D01*
X910036Y64014D02*
X910036Y68760D01*
X910036Y71499D02*
X917154Y76244D01*
X917154Y71499D02*
X910036Y76244D01*
X739862Y442461D02*
X732744Y442461D01*
X732744Y444833D02*
X732744Y440088D01*
X732744Y447572D02*
X739862Y452318D01*
X739862Y447572D02*
X732744Y452318D01*
X735117Y455056D02*
X732744Y457429D01*
X739862Y457429D01*
X739862Y455056D02*
X739862Y459802D01*
X758144Y440088D02*
X765262Y440088D01*
X758144Y440088D02*
X758144Y443647D01*
X759330Y444833D01*
X761703Y444833D01*
X762889Y443647D01*
X762889Y440088D01*
X762889Y442461D02*
X765262Y444833D01*
X765262Y452318D02*
X758144Y447572D01*
X758144Y452318D02*
X765262Y447572D01*
X760517Y455056D02*
X758144Y457429D01*
X765262Y457429D01*
X765262Y455056D02*
X765262Y459802D01*
X719542Y440088D02*
X712424Y440088D01*
X712424Y443647D01*
X713610Y444833D01*
X715983Y444833D01*
X717169Y443647D01*
X717169Y440088D01*
X717169Y442461D02*
X719542Y444833D01*
X719542Y452318D02*
X712424Y447572D01*
X712424Y452318D02*
X719542Y447572D01*
X718356Y455056D02*
X713610Y455056D01*
X712424Y456243D01*
X712424Y458615D01*
X713610Y459802D01*
X718356Y459802D01*
X719542Y458615D01*
X719542Y456243D01*
X718356Y455056D01*
X713610Y459802D01*
X689062Y442461D02*
X681944Y442461D01*
X681944Y444833D02*
X681944Y440088D01*
X681944Y447572D02*
X689062Y452318D01*
X689062Y447572D02*
X681944Y452318D01*
X683130Y455056D02*
X687876Y455056D01*
X683130Y455056D02*
X681944Y456243D01*
X681944Y458615D01*
X683130Y459802D01*
X687876Y459802D01*
X689062Y458615D01*
X689062Y456243D01*
X687876Y455056D01*
X683130Y459802D01*
X808944Y440088D02*
X816062Y440088D01*
X808944Y440088D02*
X808944Y443647D01*
X810130Y444833D01*
X812503Y444833D01*
X813689Y443647D01*
X813689Y440088D01*
X813689Y442461D02*
X816062Y444833D01*
X816062Y452318D02*
X808944Y447572D01*
X808944Y452318D02*
X816062Y447572D01*
X810130Y455056D02*
X808944Y456243D01*
X808944Y458615D01*
X810130Y459802D01*
X811317Y459802D01*
X812503Y458615D01*
X812503Y457429D01*
X812503Y458615D02*
X813689Y459802D01*
X814876Y459802D01*
X816062Y458615D01*
X816062Y456243D01*
X814876Y455056D01*
X790662Y442461D02*
X783544Y442461D01*
X783544Y444833D02*
X783544Y440088D01*
X783544Y447572D02*
X790662Y452318D01*
X790662Y447572D02*
X783544Y452318D01*
X790662Y455056D02*
X790662Y459802D01*
X785917Y459802D02*
X790662Y455056D01*
X785917Y459802D02*
X784730Y459802D01*
X783544Y458615D01*
X783544Y456243D01*
X784730Y455056D01*
X684317Y478188D02*
X681944Y480561D01*
X689062Y480561D01*
X689062Y482933D02*
X689062Y478188D01*
X689062Y489231D02*
X681944Y489231D01*
X685503Y485672D01*
X685503Y490418D01*
X707344Y480561D02*
X709717Y478188D01*
X707344Y480561D02*
X714462Y480561D01*
X714462Y482933D02*
X714462Y478188D01*
X707344Y485672D02*
X707344Y490418D01*
X707344Y485672D02*
X710903Y485672D01*
X709717Y488045D01*
X709717Y489231D01*
X710903Y490418D01*
X713276Y490418D01*
X714462Y489231D01*
X714462Y486859D01*
X713276Y485672D01*
X732744Y480561D02*
X735117Y478188D01*
X732744Y480561D02*
X739862Y480561D01*
X739862Y482933D02*
X739862Y478188D01*
X733930Y488045D02*
X732744Y490418D01*
X733930Y488045D02*
X736303Y485672D01*
X738676Y485672D01*
X739862Y486859D01*
X739862Y489231D01*
X738676Y490418D01*
X737489Y490418D01*
X736303Y489231D01*
X736303Y485672D01*
X760684Y480561D02*
X763057Y478188D01*
X760684Y480561D02*
X767802Y480561D01*
X767802Y482933D02*
X767802Y478188D01*
X760684Y485672D02*
X760684Y490418D01*
X761870Y490418D01*
X766616Y485672D01*
X767802Y485672D01*
X783544Y480561D02*
X785917Y478188D01*
X783544Y480561D02*
X790662Y480561D01*
X790662Y482933D02*
X790662Y478188D01*
X784730Y485672D02*
X783544Y486859D01*
X783544Y489231D01*
X784730Y490418D01*
X785917Y490418D01*
X787103Y489231D01*
X788289Y490418D01*
X789476Y490418D01*
X790662Y489231D01*
X790662Y486859D01*
X789476Y485672D01*
X788289Y485672D01*
X787103Y486859D01*
X785917Y485672D01*
X784730Y485672D01*
X787103Y486859D02*
X787103Y489231D01*
X808944Y480561D02*
X811317Y478188D01*
X808944Y480561D02*
X816062Y480561D01*
X816062Y482933D02*
X816062Y478188D01*
X814876Y485672D02*
X816062Y486859D01*
X816062Y489231D01*
X814876Y490418D01*
X810130Y490418D01*
X808944Y489231D01*
X808944Y486859D01*
X810130Y485672D01*
X811317Y485672D01*
X812503Y486859D01*
X812503Y490418D01*
X841462Y482933D02*
X841462Y478188D01*
X836717Y482933D01*
X835530Y482933D01*
X834344Y481747D01*
X834344Y479374D01*
X835530Y478188D01*
X835530Y485672D02*
X840276Y485672D01*
X835530Y485672D02*
X834344Y486859D01*
X834344Y489231D01*
X835530Y490418D01*
X840276Y490418D01*
X841462Y489231D01*
X841462Y486859D01*
X840276Y485672D01*
X835530Y490418D01*
X866862Y482933D02*
X866862Y478188D01*
X862117Y482933D01*
X860930Y482933D01*
X859744Y481747D01*
X859744Y479374D01*
X860930Y478188D01*
X862117Y485672D02*
X859744Y488045D01*
X866862Y488045D01*
X866862Y485672D02*
X866862Y490418D01*
X206549Y489664D02*
X205362Y490850D01*
X202990Y490850D01*
X201803Y489664D01*
X201803Y488477D01*
X202990Y487291D01*
X205362Y487291D01*
X206549Y486105D01*
X206549Y484918D01*
X205362Y483732D01*
X202990Y483732D01*
X201803Y484918D01*
X209288Y483732D02*
X209288Y490850D01*
X209288Y483732D02*
X212847Y483732D01*
X214033Y484918D01*
X214033Y489664D01*
X212847Y490850D01*
X209288Y490850D01*
X216772Y488477D02*
X216772Y483732D01*
X216772Y488477D02*
X219144Y490850D01*
X221517Y488477D01*
X221517Y483732D01*
X221517Y487291D02*
X216772Y487291D01*
X224256Y488477D02*
X226629Y490850D01*
X226629Y483732D01*
X229001Y483732D02*
X224256Y483732D01*
X173275Y490426D02*
X172088Y491612D01*
X169716Y491612D01*
X168529Y490426D01*
X168529Y489239D01*
X169716Y488053D01*
X172088Y488053D01*
X173275Y486867D01*
X173275Y485680D01*
X172088Y484494D01*
X169716Y484494D01*
X168529Y485680D01*
X179573Y491612D02*
X180759Y490426D01*
X179573Y491612D02*
X177200Y491612D01*
X176014Y490426D01*
X176014Y485680D01*
X177200Y484494D01*
X179573Y484494D01*
X180759Y485680D01*
X183498Y484494D02*
X183498Y491612D01*
X183498Y484494D02*
X188243Y484494D01*
X190982Y489239D02*
X193355Y491612D01*
X193355Y484494D01*
X195727Y484494D02*
X190982Y484494D01*
D12*
X289746Y42407D02*
X291526Y42407D01*
X290636Y42407D02*
X290636Y47746D01*
X289746Y47746D02*
X291526Y47746D01*
X294378Y47746D02*
X296158Y47746D01*
X294378Y47746D02*
X293489Y46856D01*
X293489Y43297D01*
X294378Y42407D01*
X296158Y42407D01*
X297048Y43297D01*
X297048Y46856D01*
X296158Y47746D01*
X299102Y47746D02*
X299102Y42407D01*
X299102Y47746D02*
X301771Y47746D01*
X302661Y46856D01*
X302661Y45076D01*
X301771Y44187D01*
X299102Y44187D01*
X300881Y44187D02*
X302661Y42407D01*
X304715Y47746D02*
X308274Y47746D01*
X304715Y47746D02*
X304715Y42407D01*
X308274Y42407D01*
X306494Y45076D02*
X304715Y45076D01*
X310328Y42407D02*
X310328Y47746D01*
X313887Y47746D01*
X312107Y45076D02*
X310328Y45076D01*
X239479Y327693D02*
X234564Y327693D01*
X239479Y332608D01*
X239479Y333837D01*
X238251Y335065D01*
X235793Y335065D01*
X234564Y333837D01*
X242049Y335065D02*
X246963Y335065D01*
X246963Y333837D01*
X242049Y328922D01*
X242049Y327693D01*
X249533Y328922D02*
X249533Y333837D01*
X250761Y335065D01*
X253219Y335065D01*
X254448Y333837D01*
X254448Y328922D01*
X253219Y327693D01*
X250761Y327693D01*
X249533Y328922D01*
X254448Y333837D01*
X257017Y335065D02*
X261932Y335065D01*
X257017Y335065D02*
X257017Y327693D01*
X261932Y327693D01*
X259474Y331379D02*
X257017Y331379D01*
X163279Y327693D02*
X158364Y327693D01*
X163279Y332608D01*
X163279Y333837D01*
X162051Y335065D01*
X159593Y335065D01*
X158364Y333837D01*
X165849Y335065D02*
X170763Y335065D01*
X170763Y333837D01*
X165849Y328922D01*
X165849Y327693D01*
X173333Y328922D02*
X173333Y333837D01*
X174561Y335065D01*
X177019Y335065D01*
X178248Y333837D01*
X178248Y328922D01*
X177019Y327693D01*
X174561Y327693D01*
X173333Y328922D01*
X178248Y333837D01*
X180817Y335065D02*
X185732Y335065D01*
X180817Y335065D02*
X180817Y327693D01*
X185732Y327693D01*
X183274Y331379D02*
X180817Y331379D01*
X264501Y132373D02*
X264501Y125001D01*
X266958Y129916D02*
X264501Y132373D01*
X266958Y129916D02*
X269416Y132373D01*
X269416Y125001D01*
X271985Y125001D02*
X274443Y125001D01*
X273214Y125001D02*
X273214Y132373D01*
X271985Y132373D02*
X274443Y132373D01*
X280661Y132373D02*
X281889Y131145D01*
X280661Y132373D02*
X278203Y132373D01*
X276975Y131145D01*
X276975Y126230D01*
X278203Y125001D01*
X280661Y125001D01*
X281889Y126230D01*
X284459Y131145D02*
X285687Y132373D01*
X288145Y132373D01*
X289374Y131145D01*
X289374Y129916D01*
X288145Y128687D01*
X286916Y128687D01*
X288145Y128687D02*
X289374Y127458D01*
X289374Y126230D01*
X288145Y125001D01*
X285687Y125001D01*
X284459Y126230D01*
X291943Y126230D02*
X293172Y125001D01*
X295629Y125001D01*
X296858Y126230D01*
X296858Y131145D01*
X295629Y132373D01*
X293172Y132373D01*
X291943Y131145D01*
X291943Y129916D01*
X293172Y128687D01*
X296858Y128687D01*
X299427Y132373D02*
X304342Y132373D01*
X304342Y131145D01*
X299427Y126230D01*
X299427Y125001D01*
X306911Y132373D02*
X311826Y132373D01*
X306911Y132373D02*
X306911Y128687D01*
X309369Y129916D01*
X310597Y129916D01*
X311826Y128687D01*
X311826Y126230D01*
X310597Y125001D01*
X308140Y125001D01*
X306911Y126230D01*
X314395Y128687D02*
X319310Y128687D01*
X321880Y132373D02*
X326794Y132373D01*
X321880Y132373D02*
X321880Y128687D01*
X324337Y129916D01*
X325566Y129916D01*
X326794Y128687D01*
X326794Y126230D01*
X325566Y125001D01*
X323108Y125001D01*
X321880Y126230D01*
X599616Y452661D02*
X594701Y457576D01*
X594701Y452661D02*
X599616Y457576D01*
X602185Y458805D02*
X602185Y453890D01*
X602185Y458805D02*
X603414Y460033D01*
X605871Y460033D01*
X607100Y458805D01*
X607100Y453890D01*
X605871Y452661D01*
X603414Y452661D01*
X602185Y453890D01*
X607100Y458805D01*
X609669Y453890D02*
X609669Y452661D01*
X609669Y453890D02*
X610898Y453890D01*
X610898Y452661D01*
X609669Y452661D01*
X613411Y460033D02*
X618326Y460033D01*
X613411Y460033D02*
X613411Y456347D01*
X615869Y457576D01*
X617098Y457576D01*
X618326Y456347D01*
X618326Y453890D01*
X617098Y452661D01*
X614640Y452661D01*
X613411Y453890D01*
X594701Y414396D02*
X599616Y409481D01*
X594701Y409481D02*
X599616Y414396D01*
X602185Y415625D02*
X602185Y410710D01*
X602185Y415625D02*
X603414Y416853D01*
X605871Y416853D01*
X607100Y415625D01*
X607100Y410710D01*
X605871Y409481D01*
X603414Y409481D01*
X602185Y410710D01*
X607100Y415625D01*
X609669Y410710D02*
X609669Y409481D01*
X609669Y410710D02*
X610898Y410710D01*
X610898Y409481D01*
X609669Y409481D01*
X613411Y416853D02*
X618326Y416853D01*
X613411Y416853D02*
X613411Y413167D01*
X615869Y414396D01*
X617098Y414396D01*
X618326Y413167D01*
X618326Y410710D01*
X617098Y409481D01*
X614640Y409481D01*
X613411Y410710D01*
X627556Y452661D02*
X622641Y457576D01*
X622641Y452661D02*
X627556Y457576D01*
X630125Y457576D02*
X632583Y460033D01*
X632583Y452661D01*
X635040Y452661D02*
X630125Y452661D01*
X620101Y414396D02*
X625016Y409481D01*
X620101Y409481D02*
X625016Y414396D01*
X627585Y414396D02*
X630043Y416853D01*
X630043Y409481D01*
X632500Y409481D02*
X627585Y409481D01*
D11*
X559444Y465073D02*
X557495Y467022D01*
X553597Y467022D01*
X551648Y465073D01*
X551648Y457277D01*
X553597Y455328D01*
X557495Y455328D01*
X559444Y457277D01*
X563342Y455328D02*
X563342Y467022D01*
X565291Y463124D02*
X563342Y461175D01*
X565291Y463124D02*
X569189Y463124D01*
X571138Y461175D01*
X571138Y455328D01*
X575036Y455328D02*
X575036Y457277D01*
X576985Y457277D01*
X576985Y455328D01*
X575036Y455328D01*
X592577Y463124D02*
X596475Y467022D01*
X596475Y455328D01*
X592577Y455328D02*
X600373Y455328D01*
X557495Y413682D02*
X559444Y411733D01*
X557495Y413682D02*
X553597Y413682D01*
X551648Y411733D01*
X551648Y403937D01*
X553597Y401988D01*
X557495Y401988D01*
X559444Y403937D01*
X563342Y401988D02*
X563342Y413682D01*
X565291Y409784D02*
X563342Y407835D01*
X565291Y409784D02*
X569189Y409784D01*
X571138Y407835D01*
X571138Y401988D01*
X575036Y401988D02*
X575036Y403937D01*
X576985Y403937D01*
X576985Y401988D01*
X575036Y401988D01*
X592577Y401988D02*
X600373Y401988D01*
X592577Y401988D02*
X600373Y409784D01*
X600373Y411733D01*
X598424Y413682D01*
X594526Y413682D01*
X592577Y411733D01*
D13*
X866848Y136057D02*
X869560Y138769D01*
X866848Y136057D02*
X866848Y130634D01*
X869560Y127922D01*
X880406Y127922D01*
X883118Y130634D01*
X883118Y136057D01*
X880406Y138769D01*
X883118Y144294D02*
X866848Y144294D01*
X872271Y147005D02*
X874983Y144294D01*
X872271Y147005D02*
X872271Y152429D01*
X874983Y155140D01*
X883118Y155140D01*
X883118Y160665D02*
X880406Y160665D01*
X880406Y163377D01*
X883118Y163377D01*
X883118Y160665D01*
X872271Y185222D02*
X866848Y190646D01*
X883118Y190646D01*
X883118Y196069D02*
X883118Y185222D01*
X869388Y278297D02*
X872100Y281009D01*
X869388Y278297D02*
X869388Y272874D01*
X872100Y270162D01*
X882946Y270162D01*
X885658Y272874D01*
X885658Y278297D01*
X882946Y281009D01*
X885658Y286534D02*
X869388Y286534D01*
X874811Y289245D02*
X877523Y286534D01*
X874811Y289245D02*
X874811Y294669D01*
X877523Y297380D01*
X885658Y297380D01*
X885658Y302905D02*
X882946Y302905D01*
X882946Y305617D01*
X885658Y305617D01*
X885658Y302905D01*
X885658Y327462D02*
X885658Y338309D01*
X885658Y327462D02*
X874811Y338309D01*
X872100Y338309D01*
X869388Y335597D01*
X869388Y330174D01*
X872100Y327462D01*
D14*
X172471Y357665D02*
X169505Y357665D01*
X170988Y357665D02*
X170988Y366563D01*
X169505Y366563D02*
X172471Y366563D01*
X177301Y357665D02*
X183233Y357665D01*
X177301Y357665D02*
X183233Y363597D01*
X183233Y365080D01*
X181750Y366563D01*
X178784Y366563D01*
X177301Y365080D01*
X193444Y366563D02*
X194927Y365080D01*
X193444Y366563D02*
X190478Y366563D01*
X188995Y365080D01*
X188995Y359148D01*
X190478Y357665D01*
X193444Y357665D01*
X194927Y359148D01*
D15*
X157440Y350680D02*
X157440Y368460D01*
X157440Y350680D02*
X203160Y350680D01*
X203160Y368460D01*
D16*
X7696Y467460D02*
X7696Y471612D01*
X7696Y467460D02*
X9772Y465384D01*
X18077Y465384D01*
X20153Y467460D01*
X20153Y471612D01*
X18077Y473688D01*
X9772Y473688D01*
X7696Y471612D01*
X11849Y481755D02*
X20153Y481755D01*
X11849Y481755D02*
X11849Y487984D01*
X13925Y490060D01*
X20153Y490060D01*
X7696Y298515D02*
X7696Y294363D01*
X9772Y292287D01*
X18077Y292287D01*
X20153Y294363D01*
X20153Y298515D01*
X18077Y300591D01*
X9772Y300591D01*
X7696Y298515D01*
X9772Y310734D02*
X20153Y310734D01*
X9772Y310734D02*
X7696Y312810D01*
X13925Y312810D02*
X13925Y308658D01*
X9772Y321649D02*
X20153Y321649D01*
X9772Y321649D02*
X7696Y323725D01*
X13925Y323725D02*
X13925Y319573D01*
D11*
X14692Y346108D02*
X2998Y346108D01*
X8845Y346108D02*
X8845Y353904D01*
X2998Y353904D02*
X14692Y353904D01*
X6896Y357802D02*
X6896Y359751D01*
X14692Y359751D01*
X14692Y357802D02*
X14692Y361700D01*
X2998Y359751D02*
X1049Y359751D01*
X18590Y369496D02*
X18590Y371445D01*
X16641Y373394D01*
X6896Y373394D01*
X6896Y367547D01*
X8845Y365598D01*
X12743Y365598D01*
X14692Y367547D01*
X14692Y373394D01*
X14692Y377292D02*
X2998Y377292D01*
X6896Y379241D02*
X8845Y377292D01*
X6896Y379241D02*
X6896Y383139D01*
X8845Y385088D01*
X14692Y385088D01*
X8845Y388986D02*
X8845Y396782D01*
X10794Y400680D02*
X2998Y400680D01*
X10794Y400680D02*
X14692Y404578D01*
X10794Y408476D01*
X2998Y408476D01*
X14692Y414323D02*
X14692Y418221D01*
X12743Y420170D01*
X8845Y420170D01*
X6896Y418221D01*
X6896Y414323D01*
X8845Y412374D01*
X12743Y412374D01*
X14692Y414323D01*
X2998Y424068D02*
X2998Y426017D01*
X14692Y426017D01*
X14692Y424068D02*
X14692Y427966D01*
X12743Y433813D02*
X4947Y433813D01*
X12743Y433813D02*
X14692Y435762D01*
X6896Y435762D02*
X6896Y431864D01*
X6896Y441609D02*
X6896Y445507D01*
X8845Y447456D01*
X14692Y447456D01*
X14692Y441609D01*
X12743Y439660D01*
X10794Y441609D01*
X10794Y447456D01*
X18590Y455252D02*
X18590Y457201D01*
X16641Y459150D01*
X6896Y459150D01*
X6896Y453303D01*
X8845Y451354D01*
X12743Y451354D01*
X14692Y453303D01*
X14692Y459150D01*
X14692Y464997D02*
X14692Y468895D01*
X14692Y464997D02*
X12743Y463048D01*
X8845Y463048D01*
X6896Y464997D01*
X6896Y468895D01*
X8845Y470844D01*
X10794Y470844D01*
X10794Y463048D01*
D13*
X445222Y149773D02*
X445222Y141130D01*
X450984Y141130D02*
X445222Y149773D01*
X450984Y149773D02*
X450984Y141130D01*
X456018Y141130D02*
X458899Y141130D01*
X456018Y141130D02*
X454577Y142571D01*
X454577Y145452D01*
X456018Y146892D01*
X458899Y146892D01*
X460339Y145452D01*
X460339Y144011D01*
X454577Y144011D01*
X463932Y142571D02*
X463932Y146892D01*
X463932Y142571D02*
X465373Y141130D01*
X469695Y141130D01*
X469695Y146892D01*
X473288Y146892D02*
X473288Y141130D01*
X473288Y144011D02*
X476169Y146892D01*
X477609Y146892D01*
X482524Y141130D02*
X485405Y141130D01*
X486846Y142571D01*
X486846Y145452D01*
X485405Y146892D01*
X482524Y146892D01*
X481084Y145452D01*
X481084Y142571D01*
X482524Y141130D01*
X494760Y149773D02*
X496201Y148333D01*
X494760Y149773D02*
X491879Y149773D01*
X490439Y148333D01*
X490439Y146892D01*
X491879Y145452D01*
X494760Y145452D01*
X496201Y144011D01*
X496201Y142571D01*
X494760Y141130D01*
X491879Y141130D01*
X490439Y142571D01*
X501234Y142571D02*
X501234Y148333D01*
X501234Y142571D02*
X502675Y141130D01*
X502675Y146892D02*
X499794Y146892D01*
X506031Y146892D02*
X507471Y146892D01*
X507471Y141130D01*
X506031Y141130D02*
X508912Y141130D01*
X507471Y149773D02*
X507471Y151214D01*
X512267Y146892D02*
X512267Y141130D01*
X512267Y146892D02*
X513708Y146892D01*
X515149Y145452D01*
X515149Y141130D01*
X515149Y145452D02*
X516589Y146892D01*
X518030Y145452D01*
X518030Y141130D01*
X521623Y141130D02*
X521623Y149773D01*
X521623Y141130D02*
X525944Y141130D01*
X527385Y142571D01*
X527385Y148333D01*
X525944Y149773D01*
X521623Y149773D01*
X530978Y146892D02*
X530978Y142571D01*
X532418Y141130D01*
X536740Y141130D01*
X536740Y146892D01*
X540333Y146892D02*
X541774Y146892D01*
X541774Y141130D01*
X543214Y141130D02*
X540333Y141130D01*
X541774Y149773D02*
X541774Y151214D01*
X546570Y146892D02*
X546570Y141130D01*
X546570Y146892D02*
X550892Y146892D01*
X552332Y145452D01*
X552332Y141130D01*
X557366Y141130D02*
X560247Y141130D01*
X561687Y142571D01*
X561687Y145452D01*
X560247Y146892D01*
X557366Y146892D01*
X555925Y145452D01*
X555925Y142571D01*
X557366Y141130D01*
X574635Y146892D02*
X577517Y141130D01*
X580398Y146892D01*
X583991Y146892D02*
X586872Y149773D01*
X586872Y141130D01*
X583991Y141130D02*
X589753Y141130D01*
X593346Y141130D02*
X593346Y142571D01*
X594786Y142571D01*
X594786Y141130D01*
X593346Y141130D01*
X598023Y146892D02*
X600904Y149773D01*
X600904Y141130D01*
X598023Y141130D02*
X603786Y141130D01*
D17*
X520111Y135301D02*
X517314Y135301D01*
X516382Y134368D01*
X516382Y132504D01*
X517314Y131572D01*
X520111Y131572D01*
D11*
X513802Y133510D02*
X513804Y133645D01*
X513810Y133780D01*
X513820Y133914D01*
X513834Y134048D01*
X513852Y134182D01*
X513873Y134315D01*
X513899Y134447D01*
X513929Y134579D01*
X513962Y134710D01*
X513999Y134839D01*
X514041Y134968D01*
X514085Y135095D01*
X514134Y135221D01*
X514186Y135345D01*
X514242Y135468D01*
X514302Y135589D01*
X514365Y135708D01*
X514431Y135825D01*
X514501Y135940D01*
X514575Y136054D01*
X514652Y136165D01*
X514731Y136273D01*
X514815Y136379D01*
X514901Y136483D01*
X514990Y136584D01*
X515082Y136683D01*
X515177Y136778D01*
X515275Y136871D01*
X515375Y136961D01*
X515478Y137048D01*
X515584Y137132D01*
X515692Y137213D01*
X515802Y137290D01*
X515915Y137364D01*
X516030Y137435D01*
X516147Y137503D01*
X516265Y137567D01*
X516386Y137627D01*
X516508Y137684D01*
X516632Y137737D01*
X516758Y137787D01*
X516884Y137833D01*
X517013Y137875D01*
X517142Y137913D01*
X517272Y137947D01*
X517404Y137978D01*
X517536Y138005D01*
X517669Y138027D01*
X517802Y138046D01*
X517936Y138061D01*
X518071Y138072D01*
X518205Y138079D01*
X518340Y138082D01*
X518475Y138081D01*
X518610Y138076D01*
X518744Y138067D01*
X518879Y138054D01*
X519013Y138037D01*
X519146Y138016D01*
X519278Y137992D01*
X519410Y137963D01*
X519541Y137931D01*
X519671Y137894D01*
X519800Y137854D01*
X519927Y137810D01*
X520053Y137762D01*
X520178Y137711D01*
X520301Y137656D01*
X520423Y137597D01*
X520542Y137535D01*
X520660Y137469D01*
X520776Y137400D01*
X520889Y137328D01*
X521001Y137252D01*
X521110Y137173D01*
X521217Y137091D01*
X521321Y137005D01*
X521423Y136917D01*
X521522Y136825D01*
X521619Y136731D01*
X521712Y136634D01*
X521803Y136534D01*
X521891Y136432D01*
X521975Y136327D01*
X522057Y136219D01*
X522135Y136109D01*
X522210Y135997D01*
X522282Y135883D01*
X522350Y135767D01*
X522415Y135648D01*
X522476Y135528D01*
X522534Y135406D01*
X522588Y135283D01*
X522639Y135158D01*
X522685Y135031D01*
X522728Y134904D01*
X522768Y134775D01*
X522803Y134644D01*
X522835Y134513D01*
X522862Y134381D01*
X522886Y134249D01*
X522906Y134115D01*
X522922Y133981D01*
X522934Y133847D01*
X522942Y133712D01*
X522946Y133577D01*
X522946Y133443D01*
X522942Y133308D01*
X522934Y133173D01*
X522922Y133039D01*
X522906Y132905D01*
X522886Y132771D01*
X522862Y132639D01*
X522835Y132507D01*
X522803Y132376D01*
X522768Y132245D01*
X522728Y132116D01*
X522685Y131989D01*
X522639Y131862D01*
X522588Y131737D01*
X522534Y131614D01*
X522476Y131492D01*
X522415Y131372D01*
X522350Y131253D01*
X522282Y131137D01*
X522210Y131023D01*
X522135Y130911D01*
X522057Y130801D01*
X521975Y130693D01*
X521891Y130588D01*
X521803Y130486D01*
X521712Y130386D01*
X521619Y130289D01*
X521522Y130195D01*
X521423Y130103D01*
X521321Y130015D01*
X521217Y129929D01*
X521110Y129847D01*
X521001Y129768D01*
X520889Y129692D01*
X520776Y129620D01*
X520660Y129551D01*
X520542Y129485D01*
X520423Y129423D01*
X520301Y129364D01*
X520178Y129309D01*
X520053Y129258D01*
X519927Y129210D01*
X519800Y129166D01*
X519671Y129126D01*
X519541Y129089D01*
X519410Y129057D01*
X519278Y129028D01*
X519146Y129004D01*
X519013Y128983D01*
X518879Y128966D01*
X518744Y128953D01*
X518610Y128944D01*
X518475Y128939D01*
X518340Y128938D01*
X518205Y128941D01*
X518071Y128948D01*
X517936Y128959D01*
X517802Y128974D01*
X517669Y128993D01*
X517536Y129015D01*
X517404Y129042D01*
X517272Y129073D01*
X517142Y129107D01*
X517013Y129145D01*
X516884Y129187D01*
X516758Y129233D01*
X516632Y129283D01*
X516508Y129336D01*
X516386Y129393D01*
X516265Y129453D01*
X516147Y129517D01*
X516030Y129585D01*
X515915Y129656D01*
X515802Y129730D01*
X515692Y129807D01*
X515584Y129888D01*
X515478Y129972D01*
X515375Y130059D01*
X515275Y130149D01*
X515177Y130242D01*
X515082Y130337D01*
X514990Y130436D01*
X514901Y130537D01*
X514815Y130641D01*
X514731Y130747D01*
X514652Y130855D01*
X514575Y130966D01*
X514501Y131080D01*
X514431Y131195D01*
X514365Y131312D01*
X514302Y131431D01*
X514242Y131552D01*
X514186Y131675D01*
X514134Y131799D01*
X514085Y131925D01*
X514041Y132052D01*
X513999Y132181D01*
X513962Y132310D01*
X513929Y132441D01*
X513899Y132573D01*
X513873Y132705D01*
X513852Y132838D01*
X513834Y132972D01*
X513820Y133106D01*
X513810Y133240D01*
X513804Y133375D01*
X513802Y133510D01*
D18*
X528026Y128430D02*
X528026Y139107D01*
X535144Y128430D01*
X535144Y139107D01*
X541499Y128430D02*
X545059Y128430D01*
X541499Y128430D02*
X539720Y130210D01*
X539720Y133769D01*
X541499Y135548D01*
X545059Y135548D01*
X546838Y133769D01*
X546838Y131989D01*
X539720Y131989D01*
X551414Y130210D02*
X551414Y135548D01*
X551414Y130210D02*
X553193Y128430D01*
X558532Y128430D01*
X558532Y135548D01*
X563108Y135548D02*
X563108Y128430D01*
X563108Y131989D02*
X566667Y135548D01*
X568446Y135548D01*
X574632Y135548D02*
X578191Y135548D01*
X579971Y133769D01*
X579971Y128430D01*
X574632Y128430D01*
X572853Y130210D01*
X574632Y131989D01*
X579971Y131989D01*
X584547Y139107D02*
X586326Y139107D01*
X586326Y128430D01*
X584547Y128430D02*
X588106Y128430D01*
X594122Y135548D02*
X597681Y135548D01*
X599461Y133769D01*
X599461Y128430D01*
X594122Y128430D01*
X592343Y130210D01*
X594122Y131989D01*
X599461Y131989D01*
X604037Y135548D02*
X611155Y128430D01*
X604037Y128430D02*
X611155Y135548D01*
X615731Y135548D02*
X615731Y130210D01*
X617510Y128430D01*
X622849Y128430D01*
X622849Y126651D02*
X622849Y135548D01*
X622849Y126651D02*
X621069Y124871D01*
X619290Y124871D01*
D17*
X263698Y424594D02*
X263698Y430187D01*
X261834Y430187D02*
X265563Y430187D01*
X267447Y430187D02*
X271176Y430187D01*
X267447Y430187D02*
X267447Y424594D01*
X271176Y424594D01*
X269311Y427390D02*
X267447Y427390D01*
X275857Y430187D02*
X276789Y429255D01*
X275857Y430187D02*
X273992Y430187D01*
X273060Y429255D01*
X273060Y428323D01*
X273992Y427390D01*
X275857Y427390D01*
X276789Y426458D01*
X276789Y425526D01*
X275857Y424594D01*
X273992Y424594D01*
X273060Y425526D01*
X280538Y424594D02*
X280538Y430187D01*
X282402Y430187D02*
X278673Y430187D01*
X289899Y430187D02*
X289899Y424594D01*
X293628Y424594D01*
X295513Y430187D02*
X299241Y430187D01*
X295513Y430187D02*
X295513Y424594D01*
X299241Y424594D01*
X297377Y427390D02*
X295513Y427390D01*
X301126Y424594D02*
X301126Y430187D01*
X301126Y424594D02*
X303922Y424594D01*
X304854Y425526D01*
X304854Y429255D01*
X303922Y430187D01*
X301126Y430187D01*
X306739Y428323D02*
X308603Y430187D01*
X308603Y424594D01*
X306739Y424594D02*
X310467Y424594D01*
X281478Y381927D02*
X281478Y376334D01*
X279614Y381927D02*
X283343Y381927D01*
X285227Y381927D02*
X288956Y381927D01*
X285227Y381927D02*
X285227Y376334D01*
X288956Y376334D01*
X287091Y379130D02*
X285227Y379130D01*
X293637Y381927D02*
X294569Y380995D01*
X293637Y381927D02*
X291772Y381927D01*
X290840Y380995D01*
X290840Y380063D01*
X291772Y379130D01*
X293637Y379130D01*
X294569Y378198D01*
X294569Y377266D01*
X293637Y376334D01*
X291772Y376334D01*
X290840Y377266D01*
X298318Y376334D02*
X298318Y381927D01*
X300182Y381927D02*
X296453Y381927D01*
X307679Y381927D02*
X307679Y376334D01*
X311408Y376334D01*
X313293Y381927D02*
X317021Y381927D01*
X313293Y381927D02*
X313293Y376334D01*
X317021Y376334D01*
X315157Y379130D02*
X313293Y379130D01*
X318906Y376334D02*
X318906Y381927D01*
X318906Y376334D02*
X321702Y376334D01*
X322634Y377266D01*
X322634Y380995D01*
X321702Y381927D01*
X318906Y381927D01*
X324519Y376334D02*
X328247Y376334D01*
X324519Y376334D02*
X328247Y380063D01*
X328247Y380995D01*
X327315Y381927D01*
X325451Y381927D01*
X324519Y380995D01*
D19*
X205105Y293785D03*
X191355Y293785D03*
D20*
X198230Y297660D03*
D12*
X190737Y295254D02*
X183365Y295254D01*
X190737Y295254D02*
X190737Y300169D01*
X183365Y302739D02*
X183365Y307653D01*
X183365Y302739D02*
X190737Y302739D01*
X190737Y307653D01*
X187051Y305196D02*
X187051Y302739D01*
X183365Y310223D02*
X190737Y310223D01*
X190737Y313909D01*
X189508Y315138D01*
X184593Y315138D01*
X183365Y313909D01*
X183365Y310223D01*
X190737Y317707D02*
X190737Y322622D01*
X190737Y317707D02*
X185822Y322622D01*
X184593Y322622D01*
X183365Y321393D01*
X183365Y318936D01*
X184593Y317707D01*
D19*
X229075Y294265D03*
X215325Y294265D03*
D20*
X222200Y298140D03*
D12*
X230195Y295734D02*
X237567Y295734D01*
X237567Y300649D01*
X230195Y303219D02*
X230195Y308133D01*
X230195Y303219D02*
X237567Y303219D01*
X237567Y308133D01*
X233881Y305676D02*
X233881Y303219D01*
X230195Y310703D02*
X237567Y310703D01*
X237567Y314389D01*
X236338Y315618D01*
X231423Y315618D01*
X230195Y314389D01*
X230195Y310703D01*
X232652Y318187D02*
X230195Y320644D01*
X237567Y320644D01*
X237567Y318187D02*
X237567Y323102D01*
X162197Y309633D02*
X154825Y309633D01*
X154825Y313319D01*
X156053Y314548D01*
X158511Y314548D01*
X159740Y313319D01*
X159740Y309633D01*
X159740Y312090D02*
X162197Y314548D01*
X154825Y317117D02*
X154825Y322032D01*
X154825Y317117D02*
X158511Y317117D01*
X157282Y319574D01*
X157282Y320803D01*
X158511Y322032D01*
X160968Y322032D01*
X162197Y320803D01*
X162197Y318346D01*
X160968Y317117D01*
X160110Y276703D02*
X158881Y275475D01*
X160110Y276703D02*
X162567Y276703D01*
X163796Y275475D01*
X163796Y274246D01*
X162567Y273017D01*
X161338Y273017D01*
X162567Y273017D02*
X163796Y271788D01*
X163796Y270560D01*
X162567Y269331D01*
X160110Y269331D01*
X158881Y270560D01*
X166365Y275475D02*
X167594Y276703D01*
X170051Y276703D01*
X171280Y275475D01*
X171280Y274246D01*
X170051Y273017D01*
X168823Y273017D01*
X170051Y273017D02*
X171280Y271788D01*
X171280Y270560D01*
X170051Y269331D01*
X167594Y269331D01*
X166365Y270560D01*
X173849Y270560D02*
X173849Y275475D01*
X175078Y276703D01*
X177535Y276703D01*
X178764Y275475D01*
X178764Y270560D01*
X177535Y269331D01*
X175078Y269331D01*
X173849Y270560D01*
X178764Y275475D01*
X181333Y276703D02*
X186248Y276703D01*
X181333Y276703D02*
X181333Y269331D01*
X186248Y269331D01*
X183791Y273017D02*
X181333Y273017D01*
X257695Y308363D02*
X265067Y308363D01*
X257695Y308363D02*
X257695Y312049D01*
X258923Y313278D01*
X261381Y313278D01*
X262610Y312049D01*
X262610Y308363D01*
X262610Y310820D02*
X265067Y313278D01*
X257695Y315847D02*
X257695Y320762D01*
X258923Y320762D01*
X263838Y315847D01*
X265067Y315847D01*
X235040Y275433D02*
X233811Y274205D01*
X235040Y275433D02*
X237497Y275433D01*
X238726Y274205D01*
X238726Y272976D01*
X237497Y271747D01*
X236268Y271747D01*
X237497Y271747D02*
X238726Y270518D01*
X238726Y269290D01*
X237497Y268061D01*
X235040Y268061D01*
X233811Y269290D01*
X241295Y274205D02*
X242524Y275433D01*
X244981Y275433D01*
X246210Y274205D01*
X246210Y272976D01*
X244981Y271747D01*
X243753Y271747D01*
X244981Y271747D02*
X246210Y270518D01*
X246210Y269290D01*
X244981Y268061D01*
X242524Y268061D01*
X241295Y269290D01*
X248779Y269290D02*
X248779Y274205D01*
X250008Y275433D01*
X252465Y275433D01*
X253694Y274205D01*
X253694Y269290D01*
X252465Y268061D01*
X250008Y268061D01*
X248779Y269290D01*
X253694Y274205D01*
X256263Y275433D02*
X261178Y275433D01*
X256263Y275433D02*
X256263Y268061D01*
X261178Y268061D01*
X258721Y271747D02*
X256263Y271747D01*
D18*
X87800Y475490D02*
X87800Y500590D01*
X77800Y462790D02*
X47000Y462790D01*
X37000Y475790D02*
X37000Y500590D01*
X47000Y513590D02*
X77800Y513590D01*
X49700Y488190D02*
X49704Y488502D01*
X49715Y488813D01*
X49734Y489124D01*
X49761Y489435D01*
X49796Y489745D01*
X49837Y490053D01*
X49887Y490361D01*
X49944Y490668D01*
X50009Y490973D01*
X50081Y491276D01*
X50160Y491577D01*
X50247Y491877D01*
X50341Y492174D01*
X50442Y492469D01*
X50551Y492761D01*
X50667Y493050D01*
X50790Y493337D01*
X50919Y493620D01*
X51056Y493900D01*
X51200Y494177D01*
X51350Y494450D01*
X51507Y494719D01*
X51670Y494984D01*
X51840Y495246D01*
X52017Y495503D01*
X52199Y495755D01*
X52388Y496003D01*
X52583Y496247D01*
X52783Y496485D01*
X52990Y496719D01*
X53202Y496947D01*
X53420Y497170D01*
X53643Y497388D01*
X53871Y497600D01*
X54105Y497807D01*
X54343Y498007D01*
X54587Y498202D01*
X54835Y498391D01*
X55087Y498573D01*
X55344Y498750D01*
X55606Y498920D01*
X55871Y499083D01*
X56140Y499240D01*
X56413Y499390D01*
X56690Y499534D01*
X56970Y499671D01*
X57253Y499800D01*
X57540Y499923D01*
X57829Y500039D01*
X58121Y500148D01*
X58416Y500249D01*
X58713Y500343D01*
X59013Y500430D01*
X59314Y500509D01*
X59617Y500581D01*
X59922Y500646D01*
X60229Y500703D01*
X60537Y500753D01*
X60845Y500794D01*
X61155Y500829D01*
X61466Y500856D01*
X61777Y500875D01*
X62088Y500886D01*
X62400Y500890D01*
X62712Y500886D01*
X63023Y500875D01*
X63334Y500856D01*
X63645Y500829D01*
X63955Y500794D01*
X64263Y500753D01*
X64571Y500703D01*
X64878Y500646D01*
X65183Y500581D01*
X65486Y500509D01*
X65787Y500430D01*
X66087Y500343D01*
X66384Y500249D01*
X66679Y500148D01*
X66971Y500039D01*
X67260Y499923D01*
X67547Y499800D01*
X67830Y499671D01*
X68110Y499534D01*
X68387Y499390D01*
X68660Y499240D01*
X68929Y499083D01*
X69194Y498920D01*
X69456Y498750D01*
X69713Y498573D01*
X69965Y498391D01*
X70213Y498202D01*
X70457Y498007D01*
X70695Y497807D01*
X70929Y497600D01*
X71157Y497388D01*
X71380Y497170D01*
X71598Y496947D01*
X71810Y496719D01*
X72017Y496485D01*
X72217Y496247D01*
X72412Y496003D01*
X72601Y495755D01*
X72783Y495503D01*
X72960Y495246D01*
X73130Y494984D01*
X73293Y494719D01*
X73450Y494450D01*
X73600Y494177D01*
X73744Y493900D01*
X73881Y493620D01*
X74010Y493337D01*
X74133Y493050D01*
X74249Y492761D01*
X74358Y492469D01*
X74459Y492174D01*
X74553Y491877D01*
X74640Y491577D01*
X74719Y491276D01*
X74791Y490973D01*
X74856Y490668D01*
X74913Y490361D01*
X74963Y490053D01*
X75004Y489745D01*
X75039Y489435D01*
X75066Y489124D01*
X75085Y488813D01*
X75096Y488502D01*
X75100Y488190D01*
X75096Y487878D01*
X75085Y487567D01*
X75066Y487256D01*
X75039Y486945D01*
X75004Y486635D01*
X74963Y486327D01*
X74913Y486019D01*
X74856Y485712D01*
X74791Y485407D01*
X74719Y485104D01*
X74640Y484803D01*
X74553Y484503D01*
X74459Y484206D01*
X74358Y483911D01*
X74249Y483619D01*
X74133Y483330D01*
X74010Y483043D01*
X73881Y482760D01*
X73744Y482480D01*
X73600Y482203D01*
X73450Y481930D01*
X73293Y481661D01*
X73130Y481396D01*
X72960Y481134D01*
X72783Y480877D01*
X72601Y480625D01*
X72412Y480377D01*
X72217Y480133D01*
X72017Y479895D01*
X71810Y479661D01*
X71598Y479433D01*
X71380Y479210D01*
X71157Y478992D01*
X70929Y478780D01*
X70695Y478573D01*
X70457Y478373D01*
X70213Y478178D01*
X69965Y477989D01*
X69713Y477807D01*
X69456Y477630D01*
X69194Y477460D01*
X68929Y477297D01*
X68660Y477140D01*
X68387Y476990D01*
X68110Y476846D01*
X67830Y476709D01*
X67547Y476580D01*
X67260Y476457D01*
X66971Y476341D01*
X66679Y476232D01*
X66384Y476131D01*
X66087Y476037D01*
X65787Y475950D01*
X65486Y475871D01*
X65183Y475799D01*
X64878Y475734D01*
X64571Y475677D01*
X64263Y475627D01*
X63955Y475586D01*
X63645Y475551D01*
X63334Y475524D01*
X63023Y475505D01*
X62712Y475494D01*
X62400Y475490D01*
X62088Y475494D01*
X61777Y475505D01*
X61466Y475524D01*
X61155Y475551D01*
X60845Y475586D01*
X60537Y475627D01*
X60229Y475677D01*
X59922Y475734D01*
X59617Y475799D01*
X59314Y475871D01*
X59013Y475950D01*
X58713Y476037D01*
X58416Y476131D01*
X58121Y476232D01*
X57829Y476341D01*
X57540Y476457D01*
X57253Y476580D01*
X56970Y476709D01*
X56690Y476846D01*
X56413Y476990D01*
X56140Y477140D01*
X55871Y477297D01*
X55606Y477460D01*
X55344Y477630D01*
X55087Y477807D01*
X54835Y477989D01*
X54587Y478178D01*
X54343Y478373D01*
X54105Y478573D01*
X53871Y478780D01*
X53643Y478992D01*
X53420Y479210D01*
X53202Y479433D01*
X52990Y479661D01*
X52783Y479895D01*
X52583Y480133D01*
X52388Y480377D01*
X52199Y480625D01*
X52017Y480877D01*
X51840Y481134D01*
X51670Y481396D01*
X51507Y481661D01*
X51350Y481930D01*
X51200Y482203D01*
X51056Y482480D01*
X50919Y482760D01*
X50790Y483043D01*
X50667Y483330D01*
X50551Y483619D01*
X50442Y483911D01*
X50341Y484206D01*
X50247Y484503D01*
X50160Y484803D01*
X50081Y485104D01*
X50009Y485407D01*
X49944Y485712D01*
X49887Y486019D01*
X49837Y486327D01*
X49796Y486635D01*
X49761Y486945D01*
X49734Y487256D01*
X49715Y487567D01*
X49704Y487878D01*
X49700Y488190D01*
D12*
X59078Y522147D02*
X57849Y523375D01*
X55391Y523375D01*
X54163Y522147D01*
X54163Y520918D01*
X55391Y519689D01*
X57849Y519689D01*
X59078Y518460D01*
X59078Y517232D01*
X57849Y516003D01*
X55391Y516003D01*
X54163Y517232D01*
X61647Y520918D02*
X64104Y523375D01*
X64104Y516003D01*
X61647Y516003D02*
X66562Y516003D01*
D10*
X64730Y336710D02*
X68540Y336710D01*
D15*
X64730Y324010D02*
X93940Y324010D01*
X64730Y324010D02*
X64730Y336710D01*
X64730Y339250D01*
X64730Y400210D01*
X64730Y451010D02*
X93940Y451010D01*
X64730Y451010D02*
X64730Y400210D01*
X93940Y324010D02*
X123150Y324010D01*
X123150Y400210D01*
X123150Y451010D02*
X93940Y451010D01*
X123150Y444660D02*
X123150Y431960D01*
X123150Y419260D02*
X123150Y406560D01*
X123150Y330360D02*
X123150Y326550D01*
X123150Y330360D02*
X116800Y330360D01*
X116800Y343060D01*
X123150Y343060D01*
X123150Y355760D01*
X116800Y355760D01*
X116800Y368460D01*
X123150Y368460D01*
X123150Y381160D01*
X116800Y381160D01*
X116800Y393860D01*
X123150Y393860D01*
X123150Y381160D01*
X123150Y393860D02*
X123150Y406560D01*
X123150Y419260D02*
X123150Y431960D01*
X123150Y444660D02*
X123150Y451010D01*
X74890Y336710D02*
X64730Y336710D01*
X74890Y336710D02*
X74890Y339250D01*
X74890Y435770D01*
X74890Y438310D01*
X64730Y438310D01*
X79970Y339250D02*
X74890Y336710D01*
X74890Y339250D02*
X64730Y339250D01*
X79970Y339250D02*
X79970Y435770D01*
X74890Y438310D01*
X74890Y435770D02*
X64730Y435770D01*
X116800Y406560D02*
X123150Y406560D01*
X116800Y406560D02*
X116800Y419260D01*
X123150Y419260D01*
X123150Y431960D02*
X116800Y431960D01*
X116800Y444660D01*
X123150Y444660D01*
D21*
X90604Y455440D02*
X86961Y459084D01*
X97892Y459084D01*
X97892Y455440D02*
X97892Y462728D01*
X86453Y320488D02*
X86453Y313200D01*
X91918Y313200D01*
X90096Y316844D01*
X90096Y318666D01*
X91918Y320488D01*
X95562Y320488D01*
X97384Y318666D01*
X97384Y315022D01*
X95562Y313200D01*
D12*
X60808Y327159D02*
X59579Y325930D01*
X60808Y327159D02*
X60808Y328387D01*
X59579Y329616D01*
X53436Y329616D01*
X53436Y328387D02*
X53436Y330845D01*
X55893Y333414D02*
X53436Y335872D01*
X60808Y335872D01*
X60808Y338329D02*
X60808Y333414D01*
X139548Y329575D02*
X139548Y324660D01*
X134633Y329575D01*
X133404Y329575D01*
X132176Y328346D01*
X132176Y325889D01*
X133404Y324660D01*
X139548Y332144D02*
X139548Y337059D01*
X139548Y332144D02*
X134633Y337059D01*
X133404Y337059D01*
X132176Y335830D01*
X132176Y333373D01*
X133404Y332144D01*
X135862Y339628D02*
X135862Y344543D01*
X139548Y347112D02*
X139548Y352027D01*
X139548Y347112D02*
X134633Y352027D01*
X133404Y352027D01*
X132176Y350799D01*
X132176Y348341D01*
X133404Y347112D01*
X132176Y354597D02*
X132176Y359511D01*
X133404Y359511D01*
X138319Y354597D01*
X139548Y354597D01*
X135862Y362081D02*
X135862Y366996D01*
X139548Y369565D02*
X139548Y374480D01*
X139548Y369565D02*
X134633Y374480D01*
X133404Y374480D01*
X132176Y373251D01*
X132176Y370794D01*
X133404Y369565D01*
X133404Y377049D02*
X138319Y377049D01*
X133404Y377049D02*
X132176Y378278D01*
X132176Y380735D01*
X133404Y381964D01*
X138319Y381964D01*
X139548Y380735D01*
X139548Y378278D01*
X138319Y377049D01*
X133404Y381964D01*
X132176Y384533D02*
X132176Y389448D01*
X132176Y384533D02*
X135862Y384533D01*
X134633Y386991D01*
X134633Y388219D01*
X135862Y389448D01*
X138319Y389448D01*
X139548Y388219D01*
X139548Y385762D01*
X138319Y384533D01*
X134633Y392017D02*
X132176Y394475D01*
X139548Y394475D01*
X139548Y396932D02*
X139548Y392017D01*
X135862Y399502D02*
X135862Y404416D01*
X138319Y406986D02*
X133404Y406986D01*
X132176Y408214D01*
X132176Y410672D01*
X133404Y411901D01*
X138319Y411901D01*
X139548Y410672D01*
X139548Y408214D01*
X138319Y406986D01*
X133404Y411901D01*
X132176Y414470D02*
X132176Y419385D01*
X132176Y414470D02*
X135862Y414470D01*
X134633Y416927D01*
X134633Y418156D01*
X135862Y419385D01*
X138319Y419385D01*
X139548Y418156D01*
X139548Y415699D01*
X138319Y414470D01*
D13*
X476210Y495460D02*
X488910Y495460D01*
X476210Y495460D02*
X469860Y501810D01*
X469860Y514510D01*
X476210Y520860D01*
X514310Y495460D02*
X520660Y501810D01*
X514310Y495460D02*
X501610Y495460D01*
X495260Y501810D01*
X495260Y514510D01*
X501610Y520860D01*
X514310Y520860D01*
X520660Y514510D01*
X495260Y501810D02*
X488910Y495460D01*
X495260Y514510D02*
X488910Y520860D01*
X476210Y520860D01*
X552410Y495460D02*
X565110Y495460D01*
X552410Y495460D02*
X546060Y501810D01*
X546060Y514510D01*
X552410Y520860D01*
X546060Y501810D02*
X539710Y495460D01*
X527010Y495460D01*
X520660Y501810D01*
X520660Y514510D01*
X527010Y520860D01*
X539710Y520860D01*
X546060Y514510D01*
X590510Y495460D02*
X596860Y501810D01*
X590510Y495460D02*
X577810Y495460D01*
X571460Y501810D01*
X571460Y514510D01*
X577810Y520860D01*
X590510Y520860D01*
X596860Y514510D01*
X571460Y501810D02*
X565110Y495460D01*
X571460Y514510D02*
X565110Y520860D01*
X552410Y520860D01*
X628610Y495460D02*
X641310Y495460D01*
X628610Y495460D02*
X622260Y501810D01*
X622260Y514510D01*
X628610Y520860D01*
X622260Y501810D02*
X615910Y495460D01*
X603210Y495460D01*
X596860Y501810D01*
X596860Y514510D01*
X603210Y520860D01*
X615910Y520860D01*
X622260Y514510D01*
X647660Y514510D02*
X647660Y501810D01*
X641310Y495460D01*
X647660Y514510D02*
X641310Y520860D01*
X628610Y520860D01*
X463510Y495460D02*
X450810Y495460D01*
X444460Y501810D01*
X444460Y514510D01*
X450810Y520860D01*
X469860Y501810D02*
X463510Y495460D01*
X469860Y514510D02*
X463510Y520860D01*
X450810Y520860D01*
D12*
X654686Y502091D02*
X655915Y503319D01*
X655915Y504548D01*
X654686Y505777D01*
X648543Y505777D01*
X648543Y507005D02*
X648543Y504548D01*
X648543Y509575D02*
X655915Y509575D01*
X648543Y509575D02*
X648543Y513261D01*
X649771Y514490D01*
X652229Y514490D01*
X653458Y513261D01*
X653458Y509575D01*
X655915Y520745D02*
X648543Y520745D01*
X652229Y517059D01*
X652229Y521974D01*
D13*
X226020Y501810D02*
X219670Y495460D01*
X206970Y495460D01*
X200620Y501810D01*
X200620Y514510D01*
X206970Y520860D01*
X219670Y520860D01*
X226020Y514510D01*
X257770Y495460D02*
X270470Y495460D01*
X257770Y495460D02*
X251420Y501810D01*
X251420Y514510D01*
X257770Y520860D01*
X251420Y501810D02*
X245070Y495460D01*
X232370Y495460D01*
X226020Y501810D01*
X226020Y514510D01*
X232370Y520860D01*
X245070Y520860D01*
X251420Y514510D01*
X295870Y495460D02*
X302220Y501810D01*
X295870Y495460D02*
X283170Y495460D01*
X276820Y501810D01*
X276820Y514510D01*
X283170Y520860D01*
X295870Y520860D01*
X302220Y514510D01*
X276820Y501810D02*
X270470Y495460D01*
X276820Y514510D02*
X270470Y520860D01*
X257770Y520860D01*
X333970Y495460D02*
X346670Y495460D01*
X333970Y495460D02*
X327620Y501810D01*
X327620Y514510D01*
X333970Y520860D01*
X327620Y501810D02*
X321270Y495460D01*
X308570Y495460D01*
X302220Y501810D01*
X302220Y514510D01*
X308570Y520860D01*
X321270Y520860D01*
X327620Y514510D01*
X372070Y495460D02*
X378420Y501810D01*
X372070Y495460D02*
X359370Y495460D01*
X353020Y501810D01*
X353020Y514510D01*
X359370Y520860D01*
X372070Y520860D01*
X378420Y514510D01*
X353020Y501810D02*
X346670Y495460D01*
X353020Y514510D02*
X346670Y520860D01*
X333970Y520860D01*
X410170Y495460D02*
X422870Y495460D01*
X410170Y495460D02*
X403820Y501810D01*
X403820Y514510D01*
X410170Y520860D01*
X403820Y501810D02*
X397470Y495460D01*
X384770Y495460D01*
X378420Y501810D01*
X378420Y514510D01*
X384770Y520860D01*
X397470Y520860D01*
X403820Y514510D01*
X429220Y514510D02*
X429220Y501810D01*
X422870Y495460D01*
X429220Y514510D02*
X422870Y520860D01*
X410170Y520860D01*
X194270Y495460D02*
X181570Y495460D01*
X175220Y501810D01*
X175220Y514510D01*
X181570Y520860D01*
X200620Y501810D02*
X194270Y495460D01*
X200620Y514510D02*
X194270Y520860D01*
X181570Y520860D01*
D12*
X436246Y497011D02*
X437475Y498239D01*
X437475Y499468D01*
X436246Y500697D01*
X430103Y500697D01*
X430103Y501925D02*
X430103Y499468D01*
X430103Y504495D02*
X437475Y504495D01*
X430103Y504495D02*
X430103Y508181D01*
X431331Y509410D01*
X433789Y509410D01*
X435018Y508181D01*
X435018Y504495D01*
X431331Y511979D02*
X430103Y513208D01*
X430103Y515665D01*
X431331Y516894D01*
X432560Y516894D01*
X433789Y515665D01*
X433789Y514436D01*
X433789Y515665D02*
X435018Y516894D01*
X436246Y516894D01*
X437475Y515665D01*
X437475Y513208D01*
X436246Y511979D01*
D11*
X194004Y138742D02*
X194004Y115742D01*
X146004Y115742D01*
X129004Y132742D01*
X129004Y138742D01*
X129004Y157742D02*
X129004Y163742D01*
X146004Y180742D01*
X194004Y180742D01*
X194004Y157742D01*
X191004Y138742D02*
X190763Y138024D01*
X190504Y137311D01*
X190228Y136606D01*
X189935Y135907D01*
X189625Y135215D01*
X189298Y134532D01*
X188955Y133856D01*
X188595Y133189D01*
X188219Y132531D01*
X187827Y131883D01*
X187419Y131244D01*
X186996Y130616D01*
X186557Y129998D01*
X186104Y129391D01*
X185635Y128795D01*
X185153Y128211D01*
X184656Y127639D01*
X184145Y127079D01*
X183621Y126532D01*
X183084Y125997D01*
X182533Y125476D01*
X181970Y124969D01*
X181395Y124476D01*
X180808Y123996D01*
X180210Y123532D01*
X179600Y123082D01*
X178979Y122647D01*
X178348Y122227D01*
X177707Y121823D01*
X177057Y121435D01*
X176396Y121063D01*
X175728Y120707D01*
X175050Y120367D01*
X174364Y120044D01*
X173671Y119738D01*
X172971Y119449D01*
X172263Y119178D01*
X171550Y118923D01*
X170830Y118686D01*
X170104Y118467D01*
X169374Y118266D01*
X168639Y118082D01*
X167899Y117917D01*
X167156Y117770D01*
X166409Y117641D01*
X165659Y117530D01*
X164907Y117437D01*
X164153Y117363D01*
X163397Y117308D01*
X162640Y117271D01*
X161883Y117252D01*
X161125Y117252D01*
X160368Y117271D01*
X159611Y117308D01*
X158855Y117363D01*
X158101Y117437D01*
X157349Y117530D01*
X156599Y117641D01*
X155852Y117770D01*
X155109Y117917D01*
X154369Y118082D01*
X153634Y118266D01*
X152904Y118467D01*
X152178Y118686D01*
X151458Y118923D01*
X150745Y119178D01*
X150037Y119449D01*
X149337Y119738D01*
X148644Y120044D01*
X147958Y120367D01*
X147280Y120707D01*
X146612Y121063D01*
X145951Y121435D01*
X145301Y121823D01*
X144660Y122227D01*
X144029Y122647D01*
X143408Y123082D01*
X142798Y123532D01*
X142200Y123996D01*
X141613Y124476D01*
X141038Y124969D01*
X140475Y125476D01*
X139924Y125997D01*
X139387Y126532D01*
X138863Y127079D01*
X138352Y127639D01*
X137855Y128211D01*
X137373Y128795D01*
X136904Y129391D01*
X136451Y129998D01*
X136012Y130616D01*
X135589Y131244D01*
X135181Y131883D01*
X134789Y132531D01*
X134413Y133189D01*
X134053Y133856D01*
X133710Y134532D01*
X133383Y135215D01*
X133073Y135907D01*
X132780Y136606D01*
X132504Y137311D01*
X132245Y138024D01*
X132004Y138742D01*
X132004Y157742D02*
X132245Y158460D01*
X132504Y159173D01*
X132780Y159878D01*
X133073Y160577D01*
X133383Y161269D01*
X133710Y161952D01*
X134053Y162628D01*
X134413Y163295D01*
X134789Y163953D01*
X135181Y164601D01*
X135589Y165240D01*
X136012Y165868D01*
X136451Y166486D01*
X136904Y167093D01*
X137373Y167689D01*
X137855Y168273D01*
X138352Y168845D01*
X138863Y169405D01*
X139387Y169952D01*
X139924Y170487D01*
X140475Y171008D01*
X141038Y171515D01*
X141613Y172008D01*
X142200Y172488D01*
X142798Y172952D01*
X143408Y173402D01*
X144029Y173837D01*
X144660Y174257D01*
X145301Y174661D01*
X145951Y175049D01*
X146612Y175421D01*
X147280Y175777D01*
X147958Y176117D01*
X148644Y176440D01*
X149337Y176746D01*
X150037Y177035D01*
X150745Y177306D01*
X151458Y177561D01*
X152178Y177798D01*
X152904Y178017D01*
X153634Y178218D01*
X154369Y178402D01*
X155109Y178567D01*
X155852Y178714D01*
X156599Y178843D01*
X157349Y178954D01*
X158101Y179047D01*
X158855Y179121D01*
X159611Y179176D01*
X160368Y179213D01*
X161125Y179232D01*
X161883Y179232D01*
X162640Y179213D01*
X163397Y179176D01*
X164153Y179121D01*
X164907Y179047D01*
X165659Y178954D01*
X166409Y178843D01*
X167156Y178714D01*
X167899Y178567D01*
X168639Y178402D01*
X169374Y178218D01*
X170104Y178017D01*
X170830Y177798D01*
X171550Y177561D01*
X172263Y177306D01*
X172971Y177035D01*
X173671Y176746D01*
X174364Y176440D01*
X175050Y176117D01*
X175728Y175777D01*
X176396Y175421D01*
X177057Y175049D01*
X177707Y174661D01*
X178348Y174257D01*
X178979Y173837D01*
X179600Y173402D01*
X180210Y172952D01*
X180808Y172488D01*
X181395Y172008D01*
X181970Y171515D01*
X182533Y171008D01*
X183084Y170487D01*
X183621Y169952D01*
X184145Y169405D01*
X184656Y168845D01*
X185153Y168273D01*
X185635Y167689D01*
X186104Y167093D01*
X186557Y166486D01*
X186996Y165868D01*
X187419Y165240D01*
X187827Y164601D01*
X188219Y163953D01*
X188595Y163295D01*
X188955Y162628D01*
X189298Y161952D01*
X189625Y161269D01*
X189935Y160577D01*
X190228Y159878D01*
X190504Y159173D01*
X190763Y158460D01*
X191004Y157742D01*
D12*
X161847Y136639D02*
X160619Y137867D01*
X158161Y137867D01*
X156933Y136639D01*
X156933Y131724D01*
X158161Y130495D01*
X160619Y130495D01*
X161847Y131724D01*
X164417Y130495D02*
X169332Y130495D01*
X164417Y130495D02*
X169332Y135410D01*
X169332Y136639D01*
X168103Y137867D01*
X165645Y137867D01*
X164417Y136639D01*
X171901Y131724D02*
X173130Y130495D01*
X175587Y130495D01*
X176816Y131724D01*
X176816Y136639D01*
X175587Y137867D01*
X173130Y137867D01*
X171901Y136639D01*
X171901Y135410D01*
X173130Y134181D01*
X176816Y134181D01*
X153135Y160245D02*
X153135Y167617D01*
X149448Y163931D01*
X154363Y163931D01*
X156933Y167617D02*
X161847Y167617D01*
X161847Y166389D01*
X156933Y161474D01*
X156933Y160245D01*
X164417Y161474D02*
X164417Y165160D01*
X164417Y161474D02*
X165645Y160245D01*
X169332Y160245D01*
X169332Y165160D01*
X171901Y167617D02*
X171901Y160245D01*
X171901Y167617D02*
X176816Y167617D01*
X174358Y163931D02*
X171901Y163931D01*
D13*
X425410Y38260D02*
X438110Y38260D01*
X444460Y31910D01*
X444460Y19210D01*
X438110Y12860D01*
X400010Y38260D02*
X393660Y31910D01*
X400010Y38260D02*
X412710Y38260D01*
X419060Y31910D01*
X419060Y19210D01*
X412710Y12860D01*
X400010Y12860D01*
X393660Y19210D01*
X419060Y31910D02*
X425410Y38260D01*
X419060Y19210D02*
X425410Y12860D01*
X438110Y12860D01*
X361910Y38260D02*
X349210Y38260D01*
X361910Y38260D02*
X368260Y31910D01*
X368260Y19210D01*
X361910Y12860D01*
X368260Y31910D02*
X374610Y38260D01*
X387310Y38260D01*
X393660Y31910D01*
X393660Y19210D01*
X387310Y12860D01*
X374610Y12860D01*
X368260Y19210D01*
X323810Y38260D02*
X317460Y31910D01*
X323810Y38260D02*
X336510Y38260D01*
X342860Y31910D01*
X342860Y19210D01*
X336510Y12860D01*
X323810Y12860D01*
X317460Y19210D01*
X342860Y31910D02*
X349210Y38260D01*
X342860Y19210D02*
X349210Y12860D01*
X361910Y12860D01*
X285710Y38260D02*
X273010Y38260D01*
X285710Y38260D02*
X292060Y31910D01*
X292060Y19210D01*
X285710Y12860D01*
X292060Y31910D02*
X298410Y38260D01*
X311110Y38260D01*
X317460Y31910D01*
X317460Y19210D01*
X311110Y12860D01*
X298410Y12860D01*
X292060Y19210D01*
X266660Y19210D02*
X266660Y31910D01*
X273010Y38260D01*
X266660Y19210D02*
X273010Y12860D01*
X285710Y12860D01*
X450810Y38260D02*
X463510Y38260D01*
X469860Y31910D01*
X469860Y19210D01*
X463510Y12860D01*
X444460Y31910D02*
X450810Y38260D01*
X444460Y19210D02*
X450810Y12860D01*
X463510Y12860D01*
D17*
X267084Y44102D02*
X266152Y45034D01*
X267084Y44102D02*
X268016Y44102D01*
X268948Y45034D01*
X268948Y49695D01*
X268016Y49695D02*
X269881Y49695D01*
X271765Y49695D02*
X271765Y44102D01*
X271765Y49695D02*
X274561Y49695D01*
X275494Y48763D01*
X275494Y46898D01*
X274561Y45966D01*
X271765Y45966D01*
X279242Y48763D02*
X281107Y49695D01*
X279242Y48763D02*
X277378Y46898D01*
X277378Y45034D01*
X278310Y44102D01*
X280175Y44102D01*
X281107Y45034D01*
X281107Y45966D01*
X280175Y46898D01*
X277378Y46898D01*
D13*
X654010Y38260D02*
X666710Y38260D01*
X673060Y31910D01*
X673060Y19210D01*
X666710Y12860D01*
X628610Y38260D02*
X622260Y31910D01*
X628610Y38260D02*
X641310Y38260D01*
X647660Y31910D01*
X647660Y19210D01*
X641310Y12860D01*
X628610Y12860D01*
X622260Y19210D01*
X647660Y31910D02*
X654010Y38260D01*
X647660Y19210D02*
X654010Y12860D01*
X666710Y12860D01*
X590510Y38260D02*
X577810Y38260D01*
X590510Y38260D02*
X596860Y31910D01*
X596860Y19210D01*
X590510Y12860D01*
X596860Y31910D02*
X603210Y38260D01*
X615910Y38260D01*
X622260Y31910D01*
X622260Y19210D01*
X615910Y12860D01*
X603210Y12860D01*
X596860Y19210D01*
X552410Y38260D02*
X546060Y31910D01*
X552410Y38260D02*
X565110Y38260D01*
X571460Y31910D01*
X571460Y19210D01*
X565110Y12860D01*
X552410Y12860D01*
X546060Y19210D01*
X571460Y31910D02*
X577810Y38260D01*
X571460Y19210D02*
X577810Y12860D01*
X590510Y12860D01*
X514310Y38260D02*
X501610Y38260D01*
X514310Y38260D02*
X520660Y31910D01*
X520660Y19210D01*
X514310Y12860D01*
X520660Y31910D02*
X527010Y38260D01*
X539710Y38260D01*
X546060Y31910D01*
X546060Y19210D01*
X539710Y12860D01*
X527010Y12860D01*
X520660Y19210D01*
X495260Y19210D02*
X495260Y31910D01*
X501610Y38260D01*
X495260Y19210D02*
X501610Y12860D01*
X514310Y12860D01*
X679410Y38260D02*
X692110Y38260D01*
X698460Y31910D01*
X698460Y19210D01*
X692110Y12860D01*
X673060Y31910D02*
X679410Y38260D01*
X673060Y19210D02*
X679410Y12860D01*
X692110Y12860D01*
D12*
X496108Y44229D02*
X494879Y45458D01*
X496108Y44229D02*
X497336Y44229D01*
X498565Y45458D01*
X498565Y51601D01*
X497336Y51601D02*
X499794Y51601D01*
X502363Y51601D02*
X502363Y44229D01*
X502363Y51601D02*
X506049Y51601D01*
X507278Y50373D01*
X507278Y47915D01*
X506049Y46686D01*
X502363Y46686D01*
X509847Y51601D02*
X514762Y51601D01*
X514762Y50373D01*
X509847Y45458D01*
X509847Y44229D01*
D13*
X831810Y520860D02*
X844510Y520860D01*
X850860Y514510D01*
X850860Y501810D01*
X844510Y495460D01*
X806410Y520860D02*
X800060Y514510D01*
X806410Y520860D02*
X819110Y520860D01*
X825460Y514510D01*
X825460Y501810D01*
X819110Y495460D01*
X806410Y495460D01*
X800060Y501810D01*
X825460Y514510D02*
X831810Y520860D01*
X825460Y501810D02*
X831810Y495460D01*
X844510Y495460D01*
X768310Y520860D02*
X755610Y520860D01*
X768310Y520860D02*
X774660Y514510D01*
X774660Y501810D01*
X768310Y495460D01*
X774660Y514510D02*
X781010Y520860D01*
X793710Y520860D01*
X800060Y514510D01*
X800060Y501810D01*
X793710Y495460D01*
X781010Y495460D01*
X774660Y501810D01*
X730210Y520860D02*
X723860Y514510D01*
X730210Y520860D02*
X742910Y520860D01*
X749260Y514510D01*
X749260Y501810D01*
X742910Y495460D01*
X730210Y495460D01*
X723860Y501810D01*
X749260Y514510D02*
X755610Y520860D01*
X749260Y501810D02*
X755610Y495460D01*
X768310Y495460D01*
X692110Y520860D02*
X679410Y520860D01*
X692110Y520860D02*
X698460Y514510D01*
X698460Y501810D01*
X692110Y495460D01*
X698460Y514510D02*
X704810Y520860D01*
X717510Y520860D01*
X723860Y514510D01*
X723860Y501810D01*
X717510Y495460D01*
X704810Y495460D01*
X698460Y501810D01*
X673060Y501810D02*
X673060Y514510D01*
X679410Y520860D01*
X673060Y501810D02*
X679410Y495460D01*
X692110Y495460D01*
X857210Y520860D02*
X869910Y520860D01*
X876260Y514510D01*
X876260Y501810D01*
X869910Y495460D01*
X850860Y514510D02*
X857210Y520860D01*
X850860Y501810D02*
X857210Y495460D01*
X869910Y495460D01*
D12*
X671155Y503319D02*
X669926Y502091D01*
X671155Y503319D02*
X671155Y504548D01*
X669926Y505777D01*
X663783Y505777D01*
X663783Y507005D02*
X663783Y504548D01*
X663783Y509575D02*
X671155Y509575D01*
X663783Y509575D02*
X663783Y513261D01*
X665011Y514490D01*
X667469Y514490D01*
X668698Y513261D01*
X668698Y509575D01*
X663783Y517059D02*
X663783Y521974D01*
X663783Y517059D02*
X667469Y517059D01*
X666240Y519516D01*
X666240Y520745D01*
X667469Y521974D01*
X669926Y521974D01*
X671155Y520745D01*
X671155Y518288D01*
X669926Y517059D01*
D13*
X882610Y38260D02*
X895310Y38260D01*
X901660Y31910D01*
X901660Y19210D01*
X895310Y12860D01*
X857210Y38260D02*
X850860Y31910D01*
X857210Y38260D02*
X869910Y38260D01*
X876260Y31910D01*
X876260Y19210D01*
X869910Y12860D01*
X857210Y12860D01*
X850860Y19210D01*
X876260Y31910D02*
X882610Y38260D01*
X876260Y19210D02*
X882610Y12860D01*
X895310Y12860D01*
X819110Y38260D02*
X806410Y38260D01*
X819110Y38260D02*
X825460Y31910D01*
X825460Y19210D01*
X819110Y12860D01*
X825460Y31910D02*
X831810Y38260D01*
X844510Y38260D01*
X850860Y31910D01*
X850860Y19210D01*
X844510Y12860D01*
X831810Y12860D01*
X825460Y19210D01*
X781010Y38260D02*
X774660Y31910D01*
X781010Y38260D02*
X793710Y38260D01*
X800060Y31910D01*
X800060Y19210D01*
X793710Y12860D01*
X781010Y12860D01*
X774660Y19210D01*
X800060Y31910D02*
X806410Y38260D01*
X800060Y19210D02*
X806410Y12860D01*
X819110Y12860D01*
X742910Y38260D02*
X730210Y38260D01*
X742910Y38260D02*
X749260Y31910D01*
X749260Y19210D01*
X742910Y12860D01*
X749260Y31910D02*
X755610Y38260D01*
X768310Y38260D01*
X774660Y31910D01*
X774660Y19210D01*
X768310Y12860D01*
X755610Y12860D01*
X749260Y19210D01*
X723860Y19210D02*
X723860Y31910D01*
X730210Y38260D01*
X723860Y19210D02*
X730210Y12860D01*
X742910Y12860D01*
X908010Y38260D02*
X920710Y38260D01*
X927060Y31910D01*
X927060Y19210D01*
X920710Y12860D01*
X901660Y31910D02*
X908010Y38260D01*
X901660Y19210D02*
X908010Y12860D01*
X920710Y12860D01*
D12*
X724708Y44229D02*
X723479Y45458D01*
X724708Y44229D02*
X725936Y44229D01*
X727165Y45458D01*
X727165Y51601D01*
X725936Y51601D02*
X728394Y51601D01*
X730963Y51601D02*
X730963Y44229D01*
X730963Y51601D02*
X734649Y51601D01*
X735878Y50373D01*
X735878Y47915D01*
X734649Y46686D01*
X730963Y46686D01*
X738447Y50373D02*
X739676Y51601D01*
X742133Y51601D01*
X743362Y50373D01*
X743362Y49144D01*
X742133Y47915D01*
X743362Y46686D01*
X743362Y45458D01*
X742133Y44229D01*
X739676Y44229D01*
X738447Y45458D01*
X738447Y46686D01*
X739676Y47915D01*
X738447Y49144D01*
X738447Y50373D01*
X739676Y47915D02*
X742133Y47915D01*
D10*
X146264Y65900D02*
X146264Y90900D01*
D22*
X140014Y88900D02*
X140014Y68900D01*
X152514Y68900D02*
X152514Y88900D01*
D23*
X146264Y78900D03*
D12*
X154386Y60231D02*
X161758Y60231D01*
X161758Y65146D01*
X156843Y67715D02*
X154386Y70173D01*
X161758Y70173D01*
X161758Y72630D02*
X161758Y67715D01*
X70034Y59475D02*
X70034Y52103D01*
X72492Y57018D02*
X70034Y59475D01*
X72492Y57018D02*
X74949Y59475D01*
X74949Y52103D01*
X77518Y52103D02*
X77518Y59475D01*
X77518Y55789D02*
X82433Y55789D01*
X82433Y59475D02*
X82433Y52103D01*
X85003Y52103D02*
X89917Y52103D01*
X85003Y52103D02*
X89917Y57018D01*
X89917Y58247D01*
X88689Y59475D01*
X86231Y59475D01*
X85003Y58247D01*
X92487Y58247D02*
X92487Y53332D01*
X92487Y58247D02*
X93715Y59475D01*
X96173Y59475D01*
X97402Y58247D01*
X97402Y53332D01*
X96173Y52103D01*
X93715Y52103D01*
X92487Y53332D01*
X97402Y58247D01*
X99971Y52103D02*
X104886Y52103D01*
X99971Y52103D02*
X104886Y57018D01*
X104886Y58247D01*
X103657Y59475D01*
X101200Y59475D01*
X99971Y58247D01*
X107455Y53332D02*
X108684Y52103D01*
X111141Y52103D01*
X112370Y53332D01*
X112370Y58247D01*
X111141Y59475D01*
X108684Y59475D01*
X107455Y58247D01*
X107455Y57018D01*
X108684Y55789D01*
X112370Y55789D01*
X114939Y55789D02*
X119854Y55789D01*
X122423Y58247D02*
X123652Y59475D01*
X126110Y59475D01*
X127338Y58247D01*
X127338Y57018D01*
X126110Y55789D01*
X124881Y55789D01*
X126110Y55789D02*
X127338Y54560D01*
X127338Y53332D01*
X126110Y52103D01*
X123652Y52103D01*
X122423Y53332D01*
X129908Y53332D02*
X129908Y58247D01*
X131136Y59475D01*
X133594Y59475D01*
X134822Y58247D01*
X134822Y53332D01*
X133594Y52103D01*
X131136Y52103D01*
X129908Y53332D01*
X134822Y58247D01*
X137392Y58247D02*
X137392Y53332D01*
X137392Y58247D02*
X138620Y59475D01*
X141078Y59475D01*
X142307Y58247D01*
X142307Y53332D01*
X141078Y52103D01*
X138620Y52103D01*
X137392Y53332D01*
X142307Y58247D01*
X144876Y58247D02*
X144876Y59475D01*
X144876Y58247D02*
X147333Y55789D01*
X149791Y58247D01*
X149791Y59475D01*
X147333Y55789D02*
X147333Y52103D01*
X69429Y303327D02*
X62057Y303327D01*
X62057Y308242D01*
X65743Y305784D02*
X65743Y303327D01*
X64514Y310811D02*
X62057Y313268D01*
X69429Y313268D01*
X69429Y310811D02*
X69429Y315726D01*
D10*
X159792Y93456D02*
X199792Y93456D01*
X159792Y93456D02*
X159792Y71456D01*
X199792Y71456D01*
X199792Y93456D01*
D24*
X189792Y92456D02*
X189792Y72456D01*
D12*
X162665Y110269D02*
X162665Y117641D01*
X162665Y110269D02*
X166351Y110269D01*
X167580Y111498D01*
X167580Y116413D01*
X166351Y117641D01*
X162665Y117641D01*
X170149Y110269D02*
X175064Y110269D01*
X170149Y110269D02*
X175064Y115184D01*
X175064Y116413D01*
X173835Y117641D01*
X171378Y117641D01*
X170149Y116413D01*
X164354Y107481D02*
X165583Y106253D01*
X164354Y107481D02*
X161897Y107481D01*
X160668Y106253D01*
X160668Y105024D01*
X161897Y103795D01*
X164354Y103795D01*
X165583Y102566D01*
X165583Y101338D01*
X164354Y100109D01*
X161897Y100109D01*
X160668Y101338D01*
X171838Y107481D02*
X173067Y106253D01*
X171838Y107481D02*
X169381Y107481D01*
X168152Y106253D01*
X168152Y105024D01*
X169381Y103795D01*
X171838Y103795D01*
X173067Y102566D01*
X173067Y101338D01*
X171838Y100109D01*
X169381Y100109D01*
X168152Y101338D01*
X175636Y105024D02*
X178094Y107481D01*
X178094Y100109D01*
X180551Y100109D02*
X175636Y100109D01*
X183121Y100109D02*
X183121Y107481D01*
X186807Y107481D01*
X188035Y106253D01*
X188035Y103795D01*
X186807Y102566D01*
X183121Y102566D01*
X190605Y106253D02*
X191833Y107481D01*
X194291Y107481D01*
X195520Y106253D01*
X195520Y105024D01*
X194291Y103795D01*
X193062Y103795D01*
X194291Y103795D02*
X195520Y102566D01*
X195520Y101338D01*
X194291Y100109D01*
X191833Y100109D01*
X190605Y101338D01*
X198089Y100109D02*
X198089Y107481D01*
X198089Y100109D02*
X203004Y100109D01*
D10*
X188776Y66088D02*
X168776Y66088D01*
X168776Y52088D01*
X188776Y52088D01*
X188776Y66088D01*
D25*
X183776Y64588D02*
X183776Y53588D01*
D12*
X159109Y48553D02*
X159109Y41181D01*
X162795Y41181D01*
X164024Y42410D01*
X164024Y47325D01*
X162795Y48553D01*
X159109Y48553D01*
X166593Y47325D02*
X167822Y48553D01*
X170279Y48553D01*
X171508Y47325D01*
X171508Y46096D01*
X170279Y44867D01*
X169050Y44867D01*
X170279Y44867D02*
X171508Y43638D01*
X171508Y42410D01*
X170279Y41181D01*
X167822Y41181D01*
X166593Y42410D01*
D13*
X122388Y477426D02*
X251420Y477426D01*
X251420Y449994D02*
X122388Y449994D01*
X251420Y449994D02*
X251420Y477426D01*
X122388Y477426D02*
X122388Y449994D01*
D17*
X106934Y467614D02*
X106934Y475241D01*
X110747Y475241D01*
X112018Y473969D01*
X112018Y471427D01*
X110747Y470156D01*
X106934Y470156D01*
X109476Y470156D02*
X112018Y467614D01*
X114418Y473969D02*
X115689Y475241D01*
X118231Y475241D01*
X119503Y473969D01*
X119503Y472698D01*
X118231Y471427D01*
X119503Y470156D01*
X119503Y468885D01*
X118231Y467614D01*
X115689Y467614D01*
X114418Y468885D01*
X114418Y470156D01*
X115689Y471427D01*
X114418Y472698D01*
X114418Y473969D01*
X115689Y471427D02*
X118231Y471427D01*
D13*
X290028Y476156D02*
X419060Y476156D01*
X419060Y448724D02*
X290028Y448724D01*
X419060Y448724D02*
X419060Y476156D01*
X290028Y476156D02*
X290028Y448724D01*
D17*
X274574Y467614D02*
X274574Y475241D01*
X278387Y475241D01*
X279658Y473969D01*
X279658Y471427D01*
X278387Y470156D01*
X274574Y470156D01*
X277116Y470156D02*
X279658Y467614D01*
X282058Y468885D02*
X283329Y467614D01*
X285871Y467614D01*
X287143Y468885D01*
X287143Y473969D01*
X285871Y475241D01*
X283329Y475241D01*
X282058Y473969D01*
X282058Y472698D01*
X283329Y471427D01*
X287143Y471427D01*
D12*
X681055Y431355D02*
X682283Y432583D01*
X681055Y431355D02*
X681055Y428897D01*
X682283Y427669D01*
X687198Y427669D01*
X688427Y428897D01*
X688427Y431355D01*
X687198Y432583D01*
X683512Y435153D02*
X681055Y437610D01*
X688427Y437610D01*
X688427Y435153D02*
X688427Y440068D01*
X687198Y442637D02*
X688427Y443866D01*
X688427Y446323D01*
X687198Y447552D01*
X682283Y447552D01*
X681055Y446323D01*
X681055Y443866D01*
X682283Y442637D01*
X683512Y442637D01*
X684741Y443866D01*
X684741Y447552D01*
X691221Y425785D02*
X691221Y420870D01*
X691221Y425785D02*
X692450Y427013D01*
X694907Y427013D01*
X696136Y425785D01*
X696136Y420870D01*
X694907Y419641D01*
X692450Y419641D01*
X691221Y420870D01*
X696136Y425785D01*
X698705Y420870D02*
X698705Y419641D01*
X698705Y420870D02*
X699934Y420870D01*
X699934Y419641D01*
X698705Y419641D01*
X702447Y424556D02*
X704905Y427013D01*
X704905Y419641D01*
X707362Y419641D02*
X702447Y419641D01*
X709931Y420870D02*
X709931Y424556D01*
X709931Y420870D02*
X711160Y419641D01*
X714846Y419641D01*
X714846Y424556D01*
X717416Y427013D02*
X717416Y419641D01*
X717416Y427013D02*
X722330Y427013D01*
X719873Y423327D02*
X717416Y423327D01*
D26*
X388070Y281200D02*
X356070Y281200D01*
X388070Y281200D02*
X388070Y232200D01*
X356070Y232200D01*
X356070Y281200D01*
X352570Y282500D02*
X337320Y282500D01*
D12*
X362472Y286037D02*
X364930Y286037D01*
X363701Y286037D02*
X363701Y293409D01*
X362472Y293409D02*
X364930Y293409D01*
X371148Y293409D02*
X372376Y292181D01*
X371148Y293409D02*
X368690Y293409D01*
X367462Y292181D01*
X367462Y287266D01*
X368690Y286037D01*
X371148Y286037D01*
X372376Y287266D01*
X374946Y293409D02*
X379861Y293409D01*
X374946Y293409D02*
X374946Y289723D01*
X377403Y290952D01*
X378632Y290952D01*
X379861Y289723D01*
X379861Y287266D01*
X378632Y286037D01*
X376174Y286037D01*
X374946Y287266D01*
X351344Y219997D02*
X348887Y219997D01*
X350116Y219997D02*
X350116Y227369D01*
X351344Y227369D02*
X348887Y227369D01*
X353876Y227369D02*
X353876Y219997D01*
X358791Y219997D02*
X353876Y227369D01*
X358791Y227369D02*
X358791Y219997D01*
X361361Y219997D02*
X361361Y224912D01*
X363818Y227369D01*
X366275Y224912D01*
X366275Y219997D01*
X366275Y223683D02*
X361361Y223683D01*
X368845Y224912D02*
X371302Y227369D01*
X371302Y219997D01*
X368845Y219997D02*
X373760Y219997D01*
X380015Y219997D02*
X380015Y227369D01*
X376329Y223683D01*
X381244Y223683D01*
X383813Y221226D02*
X385042Y219997D01*
X387499Y219997D01*
X388728Y221226D01*
X388728Y226141D01*
X387499Y227369D01*
X385042Y227369D01*
X383813Y226141D01*
X383813Y224912D01*
X385042Y223683D01*
X388728Y223683D01*
X391297Y224912D02*
X391297Y219997D01*
X391297Y224912D02*
X393755Y227369D01*
X396212Y224912D01*
X396212Y219997D01*
X396212Y223683D02*
X391297Y223683D01*
X398781Y219997D02*
X401239Y219997D01*
X400010Y219997D02*
X400010Y227369D01*
X398781Y227369D02*
X401239Y227369D01*
X403771Y227369D02*
X403771Y219997D01*
X407457Y219997D01*
X408686Y221226D01*
X408686Y226141D01*
X407457Y227369D01*
X403771Y227369D01*
D26*
X858150Y262290D02*
X858150Y291290D01*
X780150Y291290D01*
X780150Y278290D01*
D12*
X781527Y257891D02*
X781527Y252976D01*
X781527Y257891D02*
X782756Y259119D01*
X785213Y259119D01*
X786442Y257891D01*
X786442Y252976D01*
X785213Y251747D01*
X782756Y251747D01*
X781527Y252976D01*
X783984Y254204D02*
X786442Y251747D01*
X789011Y251747D02*
X793926Y251747D01*
X789011Y251747D02*
X793926Y256662D01*
X793926Y257891D01*
X792697Y259119D01*
X790240Y259119D01*
X789011Y257891D01*
X819899Y259119D02*
X819899Y251747D01*
X822356Y256662D02*
X819899Y259119D01*
X822356Y256662D02*
X824813Y259119D01*
X824813Y251747D01*
X827383Y252976D02*
X828611Y251747D01*
X829840Y251747D01*
X831069Y252976D01*
X831069Y259119D01*
X829840Y259119D02*
X832298Y259119D01*
X834867Y259119D02*
X839782Y259119D01*
X834867Y259119D02*
X834867Y251747D01*
X839782Y251747D01*
X837324Y255433D02*
X834867Y255433D01*
X842351Y257891D02*
X843580Y259119D01*
X846037Y259119D01*
X847266Y257891D01*
X847266Y256662D01*
X846037Y255433D01*
X844808Y255433D01*
X846037Y255433D02*
X847266Y254204D01*
X847266Y252976D01*
X846037Y251747D01*
X843580Y251747D01*
X842351Y252976D01*
X853521Y251747D02*
X853521Y259119D01*
X849835Y255433D01*
X854750Y255433D01*
X857319Y252976D02*
X857319Y257891D01*
X858548Y259119D01*
X861005Y259119D01*
X862234Y257891D01*
X862234Y252976D01*
X861005Y251747D01*
X858548Y251747D01*
X857319Y252976D01*
X862234Y257891D01*
D26*
X715910Y261260D02*
X715910Y291260D01*
X637910Y291260D01*
X637910Y273210D01*
D12*
X634207Y257891D02*
X634207Y252976D01*
X634207Y257891D02*
X635436Y259119D01*
X637893Y259119D01*
X639122Y257891D01*
X639122Y252976D01*
X637893Y251747D01*
X635436Y251747D01*
X634207Y252976D01*
X636664Y254204D02*
X639122Y251747D01*
X641691Y256662D02*
X644148Y259119D01*
X644148Y251747D01*
X641691Y251747D02*
X646606Y251747D01*
X677659Y251747D02*
X677659Y259119D01*
X680116Y256662D01*
X682573Y259119D01*
X682573Y251747D01*
X685143Y252976D02*
X686371Y251747D01*
X687600Y251747D01*
X688829Y252976D01*
X688829Y259119D01*
X687600Y259119D02*
X690058Y259119D01*
X692627Y259119D02*
X697542Y259119D01*
X692627Y259119D02*
X692627Y251747D01*
X697542Y251747D01*
X695084Y255433D02*
X692627Y255433D01*
X700111Y257891D02*
X701340Y259119D01*
X703797Y259119D01*
X705026Y257891D01*
X705026Y256662D01*
X703797Y255433D01*
X702568Y255433D01*
X703797Y255433D02*
X705026Y254204D01*
X705026Y252976D01*
X703797Y251747D01*
X701340Y251747D01*
X700111Y252976D01*
X707595Y259119D02*
X712510Y259119D01*
X707595Y259119D02*
X707595Y255433D01*
X710053Y256662D01*
X711281Y256662D01*
X712510Y255433D01*
X712510Y252976D01*
X711281Y251747D01*
X708824Y251747D01*
X707595Y252976D01*
X715079Y252976D02*
X715079Y257891D01*
X716308Y259119D01*
X718765Y259119D01*
X719994Y257891D01*
X719994Y252976D01*
X718765Y251747D01*
X716308Y251747D01*
X715079Y252976D01*
X719994Y257891D01*
X858861Y306611D02*
X858861Y313983D01*
X862547Y313983D01*
X863776Y312755D01*
X863776Y310297D01*
X862547Y309068D01*
X858861Y309068D01*
X861318Y309068D02*
X863776Y306611D01*
X866345Y311526D02*
X868803Y313983D01*
X868803Y306611D01*
X871260Y306611D02*
X866345Y306611D01*
X877515Y306611D02*
X877515Y313983D01*
X873829Y310297D01*
X878744Y310297D01*
X862547Y303823D02*
X862547Y296451D01*
X858861Y300137D02*
X862547Y303823D01*
X863776Y300137D02*
X858861Y300137D01*
X870031Y296451D02*
X870031Y303823D01*
X866345Y300137D01*
X871260Y300137D01*
X873829Y297680D02*
X873829Y296451D01*
X873829Y297680D02*
X875058Y297680D01*
X875058Y296451D01*
X873829Y296451D01*
X877571Y296451D02*
X882486Y296451D01*
X877571Y296451D02*
X882486Y301366D01*
X882486Y302595D01*
X881258Y303823D01*
X878800Y303823D01*
X877571Y302595D01*
X885056Y303823D02*
X885056Y296451D01*
X885056Y298908D02*
X889970Y303823D01*
X886284Y300137D02*
X889970Y296451D01*
X892540Y293994D02*
X894997Y296451D01*
X894997Y297680D01*
X893768Y297680D01*
X893768Y296451D01*
X894997Y296451D01*
X905013Y301366D02*
X907471Y303823D01*
X907471Y296451D01*
X909928Y296451D02*
X905013Y296451D01*
X912497Y296451D02*
X917412Y303823D01*
X919982Y296451D02*
X924896Y296451D01*
X919982Y296451D02*
X924896Y301366D01*
X924896Y302595D01*
X923668Y303823D01*
X921210Y303823D01*
X919982Y302595D01*
X927466Y303823D02*
X927466Y296451D01*
X929923Y298908D01*
X932381Y296451D01*
X932381Y303823D01*
X389369Y360713D02*
X389369Y368085D01*
X393055Y368085D01*
X394283Y366857D01*
X394283Y364399D01*
X393055Y363170D01*
X389369Y363170D01*
X391826Y363170D02*
X394283Y360713D01*
X396853Y365628D02*
X399310Y368085D01*
X399310Y360713D01*
X396853Y360713D02*
X401768Y360713D01*
X404337Y366857D02*
X405566Y368085D01*
X408023Y368085D01*
X409252Y366857D01*
X409252Y365628D01*
X408023Y364399D01*
X406794Y364399D01*
X408023Y364399D02*
X409252Y363170D01*
X409252Y361942D01*
X408023Y360713D01*
X405566Y360713D01*
X404337Y361942D01*
X371098Y355893D02*
X368641Y353436D01*
X371098Y355893D02*
X371098Y348521D01*
X368641Y348521D02*
X373556Y348521D01*
X376125Y349750D02*
X376125Y354665D01*
X377354Y355893D01*
X379811Y355893D01*
X381040Y354665D01*
X381040Y349750D01*
X379811Y348521D01*
X377354Y348521D01*
X376125Y349750D01*
X381040Y354665D01*
X383609Y355893D02*
X383609Y348521D01*
X383609Y350978D02*
X388524Y355893D01*
X384838Y352207D02*
X388524Y348521D01*
X391093Y346064D02*
X393551Y348521D01*
X393551Y349750D01*
X392322Y349750D01*
X392322Y348521D01*
X393551Y348521D01*
X403567Y353436D02*
X406024Y355893D01*
X406024Y348521D01*
X403567Y348521D02*
X408482Y348521D01*
X411051Y348521D02*
X415966Y355893D01*
X418535Y348521D02*
X423450Y348521D01*
X418535Y348521D02*
X423450Y353436D01*
X423450Y354665D01*
X422222Y355893D01*
X419764Y355893D01*
X418535Y354665D01*
X426020Y355893D02*
X426020Y348521D01*
X428477Y350978D01*
X430934Y348521D01*
X430934Y355893D01*
X310629Y359443D02*
X310629Y366815D01*
X314315Y366815D01*
X315543Y365587D01*
X315543Y363129D01*
X314315Y361900D01*
X310629Y361900D01*
X313086Y361900D02*
X315543Y359443D01*
X318113Y364358D02*
X320570Y366815D01*
X320570Y359443D01*
X318113Y359443D02*
X323028Y359443D01*
X325597Y359443D02*
X330512Y359443D01*
X325597Y359443D02*
X330512Y364358D01*
X330512Y365587D01*
X329283Y366815D01*
X326826Y366815D01*
X325597Y365587D01*
X275756Y351575D02*
X273298Y349118D01*
X275756Y351575D02*
X275756Y344203D01*
X278213Y344203D02*
X273298Y344203D01*
X280782Y345432D02*
X280782Y350347D01*
X282011Y351575D01*
X284469Y351575D01*
X285697Y350347D01*
X285697Y345432D01*
X284469Y344203D01*
X282011Y344203D01*
X280782Y345432D01*
X285697Y350347D01*
X288267Y351575D02*
X288267Y344203D01*
X288267Y346660D02*
X293181Y351575D01*
X289495Y347889D02*
X293181Y344203D01*
X295751Y341746D02*
X298208Y344203D01*
X298208Y345432D01*
X296979Y345432D01*
X296979Y344203D01*
X298208Y344203D01*
X308224Y349118D02*
X310682Y351575D01*
X310682Y344203D01*
X313139Y344203D02*
X308224Y344203D01*
X315709Y344203D02*
X320623Y351575D01*
X323193Y344203D02*
X328108Y344203D01*
X323193Y344203D02*
X328108Y349118D01*
X328108Y350347D01*
X326879Y351575D01*
X324421Y351575D01*
X323193Y350347D01*
X330677Y351575D02*
X330677Y344203D01*
X333134Y346660D01*
X335592Y344203D01*
X335592Y351575D01*
X717029Y314745D02*
X717029Y307373D01*
X717029Y314745D02*
X720715Y314745D01*
X721943Y313517D01*
X721943Y311059D01*
X720715Y309830D01*
X717029Y309830D01*
X719486Y309830D02*
X721943Y307373D01*
X724513Y312288D02*
X726970Y314745D01*
X726970Y307373D01*
X724513Y307373D02*
X729428Y307373D01*
X731997Y312288D02*
X734454Y314745D01*
X734454Y307373D01*
X731997Y307373D02*
X736912Y307373D01*
X669507Y300013D02*
X669507Y292641D01*
X665821Y296327D02*
X669507Y300013D01*
X670736Y296327D02*
X665821Y296327D01*
X676991Y292641D02*
X676991Y300013D01*
X673305Y296327D01*
X678220Y296327D01*
X680789Y293870D02*
X680789Y292641D01*
X680789Y293870D02*
X682018Y293870D01*
X682018Y292641D01*
X680789Y292641D01*
X684531Y292641D02*
X689446Y292641D01*
X684531Y292641D02*
X689446Y297556D01*
X689446Y298785D01*
X688218Y300013D01*
X685760Y300013D01*
X684531Y298785D01*
X692016Y300013D02*
X692016Y292641D01*
X692016Y295098D02*
X696930Y300013D01*
X693244Y296327D02*
X696930Y292641D01*
X699500Y290184D02*
X701957Y292641D01*
X701957Y293870D01*
X700728Y293870D01*
X700728Y292641D01*
X701957Y292641D01*
X711973Y297556D02*
X714431Y300013D01*
X714431Y292641D01*
X716888Y292641D02*
X711973Y292641D01*
X719457Y292641D02*
X724372Y300013D01*
X726942Y292641D02*
X731856Y292641D01*
X726942Y292641D02*
X731856Y297556D01*
X731856Y298785D01*
X730628Y300013D01*
X728170Y300013D01*
X726942Y298785D01*
X734426Y300013D02*
X734426Y292641D01*
X736883Y295098D01*
X739341Y292641D01*
X739341Y300013D01*
D13*
X377658Y311310D02*
X367498Y311310D01*
X364958Y311310D01*
X367498Y311310D02*
X367498Y317660D01*
X367498Y311310D02*
X367498Y304960D01*
X367498Y311310D02*
X375118Y317660D01*
X375118Y316390D02*
X367498Y311310D01*
X375118Y315120D01*
X375118Y313850D02*
X367498Y311310D01*
X375118Y312580D01*
X375118Y304960D02*
X367498Y311310D01*
X375118Y306230D01*
X375118Y307500D02*
X367498Y311310D01*
X375118Y308770D01*
X375118Y310040D02*
X367498Y311310D01*
X375118Y317660D02*
X375118Y304960D01*
X381468Y295562D02*
X441412Y295562D01*
X441412Y300642D01*
X441412Y327058D02*
X381468Y327058D01*
X381468Y321978D01*
X381468Y300642D02*
X381468Y295562D01*
X441412Y321978D02*
X441412Y327058D01*
D17*
X384008Y330614D02*
X384008Y338241D01*
X384008Y330614D02*
X387821Y330614D01*
X389092Y331885D01*
X389092Y336969D01*
X387821Y338241D01*
X384008Y338241D01*
X394034Y336969D02*
X396577Y338241D01*
X394034Y336969D02*
X391492Y334427D01*
X391492Y331885D01*
X392763Y330614D01*
X395305Y330614D01*
X396577Y331885D01*
X396577Y333156D01*
X395305Y334427D01*
X391492Y334427D01*
D27*
X364198Y300774D02*
X365173Y299799D01*
X364198Y300774D02*
X362249Y300774D01*
X361275Y299799D01*
X361275Y295901D01*
X362249Y294927D01*
X364198Y294927D01*
X365173Y295901D01*
X365173Y297850D01*
X363224Y297850D01*
X366888Y294927D02*
X366888Y300774D01*
X370786Y300774D01*
X368837Y297850D02*
X366888Y297850D01*
X372501Y298825D02*
X374450Y300774D01*
X374450Y294927D01*
X372501Y294927D02*
X376399Y294927D01*
X378114Y295901D02*
X379089Y294927D01*
X380063Y294927D01*
X381038Y295901D01*
X381038Y300774D01*
X382012Y300774D02*
X380063Y300774D01*
X383727Y297850D02*
X387625Y297850D01*
X389340Y300774D02*
X393238Y300774D01*
X389340Y300774D02*
X389340Y294927D01*
X393238Y294927D01*
X391289Y297850D02*
X389340Y297850D01*
X394954Y299799D02*
X395928Y300774D01*
X397877Y300774D01*
X398852Y299799D01*
X398852Y298825D01*
X397877Y297850D01*
X396903Y297850D01*
X397877Y297850D02*
X398852Y296876D01*
X398852Y295901D01*
X397877Y294927D01*
X395928Y294927D01*
X394954Y295901D01*
X400567Y294927D02*
X400567Y300774D01*
X400567Y294927D02*
X403490Y294927D01*
X404465Y295901D01*
X404465Y299799D01*
X403490Y300774D01*
X400567Y300774D01*
X407154Y300774D02*
X409103Y300774D01*
X407154Y300774D02*
X406180Y299799D01*
X406180Y295901D01*
X407154Y294927D01*
X409103Y294927D01*
X410078Y295901D01*
X410078Y299799D01*
X409103Y300774D01*
X411793Y297850D02*
X415691Y297850D01*
X417406Y294927D02*
X421304Y294927D01*
X417406Y294927D02*
X421304Y298825D01*
X421304Y299799D01*
X420329Y300774D01*
X418380Y300774D01*
X417406Y299799D01*
X423019Y298825D02*
X424968Y300774D01*
X424968Y294927D01*
X423019Y294927D02*
X426917Y294927D01*
X431556Y294927D02*
X431556Y300774D01*
X428632Y297850D01*
X432530Y297850D01*
X434245Y294927D02*
X434245Y300774D01*
X437169Y300774D01*
X438143Y299799D01*
X438143Y298825D01*
X437169Y297850D01*
X438143Y296876D01*
X438143Y295901D01*
X437169Y294927D01*
X434245Y294927D01*
X434245Y297850D02*
X437169Y297850D01*
X439858Y298825D02*
X439858Y294927D01*
X439858Y298825D02*
X441807Y300774D01*
X443756Y298825D01*
X443756Y294927D01*
X443756Y297850D02*
X439858Y297850D01*
X445471Y297850D02*
X449369Y297850D01*
X451085Y294927D02*
X451085Y300774D01*
X451085Y294927D02*
X454982Y294927D01*
D13*
X298918Y311310D02*
X288758Y311310D01*
X286218Y311310D01*
X288758Y311310D02*
X288758Y317660D01*
X288758Y311310D02*
X288758Y304960D01*
X288758Y311310D02*
X296378Y317660D01*
X296378Y316390D02*
X288758Y311310D01*
X296378Y315120D01*
X296378Y313850D02*
X288758Y311310D01*
X296378Y312580D01*
X296378Y304960D02*
X288758Y311310D01*
X296378Y306230D01*
X296378Y307500D02*
X288758Y311310D01*
X296378Y308770D01*
X296378Y310040D02*
X288758Y311310D01*
X296378Y317660D02*
X296378Y304960D01*
X302728Y295562D02*
X362672Y295562D01*
X362672Y300642D01*
X362672Y327058D02*
X302728Y327058D01*
X302728Y321978D01*
X302728Y300642D02*
X302728Y295562D01*
X362672Y321978D02*
X362672Y327058D01*
D17*
X305268Y330614D02*
X305268Y338241D01*
X305268Y330614D02*
X309081Y330614D01*
X310352Y331885D01*
X310352Y336969D01*
X309081Y338241D01*
X305268Y338241D01*
X312752Y338241D02*
X317837Y338241D01*
X317837Y336969D01*
X312752Y331885D01*
X312752Y330614D01*
D27*
X305778Y293154D02*
X306753Y292179D01*
X305778Y293154D02*
X303829Y293154D01*
X302855Y292179D01*
X302855Y288281D01*
X303829Y287307D01*
X305778Y287307D01*
X306753Y288281D01*
X306753Y290230D01*
X304804Y290230D01*
X308468Y287307D02*
X308468Y293154D01*
X312366Y293154D01*
X310417Y290230D02*
X308468Y290230D01*
X314081Y291205D02*
X316030Y293154D01*
X316030Y287307D01*
X314081Y287307D02*
X317979Y287307D01*
X319694Y288281D02*
X320669Y287307D01*
X321643Y287307D01*
X322618Y288281D01*
X322618Y293154D01*
X323592Y293154D02*
X321643Y293154D01*
X325307Y290230D02*
X329205Y290230D01*
X330920Y293154D02*
X334818Y293154D01*
X330920Y293154D02*
X330920Y287307D01*
X334818Y287307D01*
X332869Y290230D02*
X330920Y290230D01*
X336534Y292179D02*
X337508Y293154D01*
X339457Y293154D01*
X340432Y292179D01*
X340432Y291205D01*
X339457Y290230D01*
X338483Y290230D01*
X339457Y290230D02*
X340432Y289256D01*
X340432Y288281D01*
X339457Y287307D01*
X337508Y287307D01*
X336534Y288281D01*
X342147Y287307D02*
X342147Y293154D01*
X342147Y287307D02*
X345070Y287307D01*
X346045Y288281D01*
X346045Y292179D01*
X345070Y293154D01*
X342147Y293154D01*
X348734Y293154D02*
X350683Y293154D01*
X348734Y293154D02*
X347760Y292179D01*
X347760Y288281D01*
X348734Y287307D01*
X350683Y287307D01*
X351658Y288281D01*
X351658Y292179D01*
X350683Y293154D01*
X353373Y290230D02*
X357271Y290230D01*
X358986Y287307D02*
X362884Y287307D01*
X358986Y287307D02*
X362884Y291205D01*
X362884Y292179D01*
X361909Y293154D01*
X359960Y293154D01*
X358986Y292179D01*
X364599Y291205D02*
X366548Y293154D01*
X366548Y287307D01*
X364599Y287307D02*
X368497Y287307D01*
X373136Y287307D02*
X373136Y293154D01*
X370212Y290230D01*
X374110Y290230D01*
X375825Y287307D02*
X375825Y293154D01*
X378749Y293154D01*
X379723Y292179D01*
X379723Y291205D01*
X378749Y290230D01*
X379723Y289256D01*
X379723Y288281D01*
X378749Y287307D01*
X375825Y287307D01*
X375825Y290230D02*
X378749Y290230D01*
X381438Y291205D02*
X381438Y287307D01*
X381438Y291205D02*
X383387Y293154D01*
X385336Y291205D01*
X385336Y287307D01*
X385336Y290230D02*
X381438Y290230D01*
X387051Y290230D02*
X390949Y290230D01*
X392665Y287307D02*
X392665Y293154D01*
X392665Y287307D02*
X396562Y287307D01*
D26*
X355050Y217700D02*
X323050Y217700D01*
X355050Y217700D02*
X355050Y168700D01*
X323050Y168700D01*
X323050Y217700D01*
X319550Y219000D02*
X304300Y219000D01*
D12*
X329452Y219997D02*
X331910Y219997D01*
X330681Y219997D02*
X330681Y227369D01*
X329452Y227369D02*
X331910Y227369D01*
X338128Y227369D02*
X339356Y226141D01*
X338128Y227369D02*
X335670Y227369D01*
X334442Y226141D01*
X334442Y221226D01*
X335670Y219997D01*
X338128Y219997D01*
X339356Y221226D01*
X341926Y227369D02*
X346841Y227369D01*
X346841Y226141D01*
X341926Y221226D01*
X341926Y219997D01*
X310686Y161329D02*
X308228Y161329D01*
X307000Y160101D01*
X307000Y155186D01*
X308228Y153957D01*
X310686Y153957D01*
X311915Y155186D01*
X311915Y160101D01*
X310686Y161329D01*
X314484Y161329D02*
X314484Y153957D01*
X314484Y161329D02*
X318170Y161329D01*
X319399Y160101D01*
X319399Y157643D01*
X318170Y156414D01*
X314484Y156414D01*
X321968Y153957D02*
X321968Y158872D01*
X324425Y161329D01*
X326883Y158872D01*
X326883Y153957D01*
X326883Y157643D02*
X321968Y157643D01*
X329452Y158872D02*
X331910Y161329D01*
X331910Y153957D01*
X334367Y153957D02*
X329452Y153957D01*
X340622Y153957D02*
X340622Y161329D01*
X336936Y157643D01*
X341851Y157643D01*
X344420Y155186D02*
X344420Y160101D01*
X345649Y161329D01*
X348107Y161329D01*
X349335Y160101D01*
X349335Y155186D01*
X348107Y153957D01*
X345649Y153957D01*
X344420Y155186D01*
X349335Y160101D01*
X351905Y158872D02*
X351905Y153957D01*
X351905Y158872D02*
X354362Y161329D01*
X356819Y158872D01*
X356819Y153957D01*
X356819Y157643D02*
X351905Y157643D01*
X359389Y153957D02*
X361846Y153957D01*
X360617Y153957D02*
X360617Y161329D01*
X359389Y161329D02*
X361846Y161329D01*
X364378Y161329D02*
X364378Y153957D01*
X368064Y153957D01*
X369293Y155186D01*
X369293Y160101D01*
X368064Y161329D01*
X364378Y161329D01*
X409689Y215933D02*
X409689Y223305D01*
X413375Y223305D01*
X414603Y222077D01*
X414603Y219619D01*
X413375Y218390D01*
X409689Y218390D01*
X412146Y218390D02*
X414603Y215933D01*
X417173Y220848D02*
X419630Y223305D01*
X419630Y215933D01*
X417173Y215933D02*
X422088Y215933D01*
X424657Y223305D02*
X429572Y223305D01*
X424657Y223305D02*
X424657Y219619D01*
X427114Y220848D01*
X428343Y220848D01*
X429572Y219619D01*
X429572Y217162D01*
X428343Y215933D01*
X425886Y215933D01*
X424657Y217162D01*
X434675Y151632D02*
X437132Y149174D01*
X434675Y151632D02*
X442047Y151632D01*
X442047Y154089D02*
X442047Y149174D01*
X440818Y156658D02*
X435903Y156658D01*
X434675Y157887D01*
X434675Y160344D01*
X435903Y161573D01*
X440818Y161573D01*
X442047Y160344D01*
X442047Y157887D01*
X440818Y156658D01*
X435903Y161573D01*
X435903Y164142D02*
X440818Y164142D01*
X435903Y164142D02*
X434675Y165371D01*
X434675Y167829D01*
X435903Y169057D01*
X440818Y169057D01*
X442047Y167829D01*
X442047Y165371D01*
X440818Y164142D01*
X435903Y169057D01*
X434675Y171627D02*
X434675Y176541D01*
X434675Y171627D02*
X442047Y171627D01*
X442047Y176541D01*
X438361Y174084D02*
X438361Y171627D01*
X444504Y179111D02*
X442047Y181568D01*
X440818Y181568D01*
X440818Y180339D01*
X442047Y180339D01*
X442047Y181568D01*
X437132Y191584D02*
X434675Y194042D01*
X442047Y194042D01*
X442047Y196499D02*
X442047Y191584D01*
X442047Y199069D02*
X434675Y203983D01*
X442047Y206553D02*
X442047Y211468D01*
X442047Y206553D02*
X437132Y211468D01*
X435903Y211468D01*
X434675Y210239D01*
X434675Y207781D01*
X435903Y206553D01*
X434675Y214037D02*
X442047Y214037D01*
X439590Y216494D01*
X442047Y218952D01*
X434675Y218952D01*
D26*
X1011550Y183440D02*
X1011550Y131440D01*
X929050Y131440D01*
X937050Y183440D02*
X1011550Y183440D01*
X904050Y183440D02*
X889550Y183440D01*
X889550Y131440D02*
X896050Y131440D01*
X889550Y169440D02*
X889550Y183440D01*
X889550Y145440D02*
X889550Y131440D01*
D17*
X910264Y154381D02*
X908399Y156245D01*
X913992Y156245D01*
X913992Y154381D02*
X913992Y158109D01*
X924292Y169481D02*
X924292Y173209D01*
X924292Y169481D02*
X920564Y173209D01*
X919631Y173209D01*
X918699Y172277D01*
X918699Y170413D01*
X919631Y169481D01*
X910799Y139913D02*
X911731Y138981D01*
X910799Y139913D02*
X910799Y141777D01*
X911731Y142709D01*
X912664Y142709D01*
X913596Y141777D01*
X913596Y140845D01*
X913596Y141777D02*
X914528Y142709D01*
X915460Y142709D01*
X916392Y141777D01*
X916392Y139913D01*
X915460Y138981D01*
D11*
X996484Y186824D02*
X997670Y185638D01*
X998857Y185638D01*
X1000043Y186824D01*
X1000043Y192756D01*
X998857Y192756D02*
X1001229Y192756D01*
X1003968Y191570D02*
X1005154Y192756D01*
X1007527Y192756D01*
X1008713Y191570D01*
X1008713Y190383D01*
X1007527Y189197D01*
X1006341Y189197D01*
X1007527Y189197D02*
X1008713Y188011D01*
X1008713Y186824D01*
X1007527Y185638D01*
X1005154Y185638D01*
X1003968Y186824D01*
D26*
X544480Y279250D02*
X512480Y279250D01*
X544480Y279250D02*
X544480Y230250D01*
X512480Y230250D01*
X512480Y279250D01*
X508980Y280550D02*
X493730Y280550D01*
D12*
X518882Y284087D02*
X521340Y284087D01*
X520111Y284087D02*
X520111Y291459D01*
X518882Y291459D02*
X521340Y291459D01*
X527558Y291459D02*
X528786Y290231D01*
X527558Y291459D02*
X525100Y291459D01*
X523872Y290231D01*
X523872Y285316D01*
X525100Y284087D01*
X527558Y284087D01*
X528786Y285316D01*
X531356Y290231D02*
X532584Y291459D01*
X535042Y291459D01*
X536271Y290231D01*
X536271Y289002D01*
X535042Y287773D01*
X536271Y286544D01*
X536271Y285316D01*
X535042Y284087D01*
X532584Y284087D01*
X531356Y285316D01*
X531356Y286544D01*
X532584Y287773D01*
X531356Y289002D01*
X531356Y290231D01*
X532584Y287773D02*
X535042Y287773D01*
X575733Y230694D02*
X575733Y228237D01*
X575733Y229466D02*
X568361Y229466D01*
X568361Y230694D02*
X568361Y228237D01*
X568361Y233226D02*
X575733Y233226D01*
X575733Y238141D02*
X568361Y233226D01*
X568361Y238141D02*
X575733Y238141D01*
X575733Y240711D02*
X570818Y240711D01*
X568361Y243168D01*
X570818Y245625D01*
X575733Y245625D01*
X572047Y245625D02*
X572047Y240711D01*
X570818Y248195D02*
X568361Y250652D01*
X575733Y250652D01*
X575733Y248195D02*
X575733Y253110D01*
X575733Y259365D02*
X568361Y259365D01*
X572047Y255679D01*
X572047Y260594D01*
X574504Y263163D02*
X575733Y264392D01*
X575733Y266849D01*
X574504Y268078D01*
X569589Y268078D01*
X568361Y266849D01*
X568361Y264392D01*
X569589Y263163D01*
X570818Y263163D01*
X572047Y264392D01*
X572047Y268078D01*
X570818Y270647D02*
X575733Y270647D01*
X570818Y270647D02*
X568361Y273105D01*
X570818Y275562D01*
X575733Y275562D01*
X572047Y275562D02*
X572047Y270647D01*
X575733Y278131D02*
X575733Y280589D01*
X575733Y279360D02*
X568361Y279360D01*
X568361Y278131D02*
X568361Y280589D01*
X568361Y283121D02*
X575733Y283121D01*
X575733Y286807D01*
X574504Y288036D01*
X569589Y288036D01*
X568361Y286807D01*
X568361Y283121D01*
D26*
X858350Y328920D02*
X858350Y357920D01*
X780350Y357920D01*
X780350Y344920D01*
D12*
X778787Y325881D02*
X778787Y320966D01*
X778787Y325881D02*
X780016Y327109D01*
X782473Y327109D01*
X783702Y325881D01*
X783702Y320966D01*
X782473Y319737D01*
X780016Y319737D01*
X778787Y320966D01*
X781244Y322194D02*
X783702Y319737D01*
X789957Y319737D02*
X789957Y327109D01*
X786271Y323423D01*
X791186Y323423D01*
X819699Y319737D02*
X819699Y327109D01*
X822156Y324652D01*
X824613Y327109D01*
X824613Y319737D01*
X827183Y320966D02*
X828411Y319737D01*
X829640Y319737D01*
X830869Y320966D01*
X830869Y327109D01*
X829640Y327109D02*
X832098Y327109D01*
X834667Y327109D02*
X839582Y327109D01*
X834667Y327109D02*
X834667Y319737D01*
X839582Y319737D01*
X837124Y323423D02*
X834667Y323423D01*
X842151Y325881D02*
X843380Y327109D01*
X845837Y327109D01*
X847066Y325881D01*
X847066Y324652D01*
X845837Y323423D01*
X844608Y323423D01*
X845837Y323423D02*
X847066Y322194D01*
X847066Y320966D01*
X845837Y319737D01*
X843380Y319737D01*
X842151Y320966D01*
X853321Y319737D02*
X853321Y327109D01*
X849635Y323423D01*
X854550Y323423D01*
X857119Y320966D02*
X857119Y325881D01*
X858348Y327109D01*
X860805Y327109D01*
X862034Y325881D01*
X862034Y320966D01*
X860805Y319737D01*
X858348Y319737D01*
X857119Y320966D01*
X862034Y325881D01*
D26*
X714840Y327890D02*
X714840Y357890D01*
X636840Y357890D01*
X636840Y339840D01*
D12*
X632737Y323341D02*
X632737Y318426D01*
X632737Y323341D02*
X633966Y324569D01*
X636423Y324569D01*
X637652Y323341D01*
X637652Y318426D01*
X636423Y317197D01*
X633966Y317197D01*
X632737Y318426D01*
X635194Y319654D02*
X637652Y317197D01*
X640221Y323341D02*
X641450Y324569D01*
X643907Y324569D01*
X645136Y323341D01*
X645136Y322112D01*
X643907Y320883D01*
X642678Y320883D01*
X643907Y320883D02*
X645136Y319654D01*
X645136Y318426D01*
X643907Y317197D01*
X641450Y317197D01*
X640221Y318426D01*
X678729Y317197D02*
X678729Y324569D01*
X681186Y322112D01*
X683643Y324569D01*
X683643Y317197D01*
X686213Y318426D02*
X687441Y317197D01*
X688670Y317197D01*
X689899Y318426D01*
X689899Y324569D01*
X688670Y324569D02*
X691128Y324569D01*
X693697Y324569D02*
X698612Y324569D01*
X693697Y324569D02*
X693697Y317197D01*
X698612Y317197D01*
X696154Y320883D02*
X693697Y320883D01*
X701181Y323341D02*
X702410Y324569D01*
X704867Y324569D01*
X706096Y323341D01*
X706096Y322112D01*
X704867Y320883D01*
X703638Y320883D01*
X704867Y320883D02*
X706096Y319654D01*
X706096Y318426D01*
X704867Y317197D01*
X702410Y317197D01*
X701181Y318426D01*
X708665Y324569D02*
X713580Y324569D01*
X708665Y324569D02*
X708665Y320883D01*
X711123Y322112D01*
X712351Y322112D01*
X713580Y320883D01*
X713580Y318426D01*
X712351Y317197D01*
X709894Y317197D01*
X708665Y318426D01*
X716149Y318426D02*
X716149Y323341D01*
X717378Y324569D01*
X719835Y324569D01*
X721064Y323341D01*
X721064Y318426D01*
X719835Y317197D01*
X717378Y317197D01*
X716149Y318426D01*
X721064Y323341D01*
X809539Y385523D02*
X809539Y392895D01*
X813225Y392895D01*
X814453Y391667D01*
X814453Y389209D01*
X813225Y387980D01*
X809539Y387980D01*
X811996Y387980D02*
X814453Y385523D01*
X817023Y385523D02*
X821938Y385523D01*
X817023Y385523D02*
X821938Y390438D01*
X821938Y391667D01*
X820709Y392895D01*
X818251Y392895D01*
X817023Y391667D01*
X824507Y390438D02*
X826964Y392895D01*
X826964Y385523D01*
X824507Y385523D02*
X829422Y385523D01*
X866268Y367495D02*
X866268Y360123D01*
X862582Y363809D02*
X866268Y367495D01*
X867497Y363809D02*
X862582Y363809D01*
X873752Y360123D02*
X873752Y367495D01*
X870066Y363809D01*
X874981Y363809D01*
X877550Y361352D02*
X877550Y360123D01*
X877550Y361352D02*
X878779Y361352D01*
X878779Y360123D01*
X877550Y360123D01*
X881292Y360123D02*
X886207Y360123D01*
X881292Y360123D02*
X886207Y365038D01*
X886207Y366267D01*
X884979Y367495D01*
X882521Y367495D01*
X881292Y366267D01*
X888777Y367495D02*
X888777Y360123D01*
X888777Y362580D02*
X893691Y367495D01*
X890005Y363809D02*
X893691Y360123D01*
X896261Y357666D02*
X898718Y360123D01*
X898718Y361352D01*
X897489Y361352D01*
X897489Y360123D01*
X898718Y360123D01*
X908734Y365038D02*
X911192Y367495D01*
X911192Y360123D01*
X913649Y360123D02*
X908734Y360123D01*
X916219Y360123D02*
X921133Y367495D01*
X923703Y360123D02*
X928618Y360123D01*
X923703Y360123D02*
X928618Y365038D01*
X928618Y366267D01*
X927389Y367495D01*
X924931Y367495D01*
X923703Y366267D01*
X931187Y367495D02*
X931187Y360123D01*
X933644Y362580D01*
X936102Y360123D01*
X936102Y367495D01*
X548319Y367405D02*
X548319Y360033D01*
X548319Y367405D02*
X552005Y367405D01*
X553233Y366177D01*
X553233Y363719D01*
X552005Y362490D01*
X548319Y362490D01*
X550776Y362490D02*
X553233Y360033D01*
X555803Y360033D02*
X560718Y360033D01*
X555803Y360033D02*
X560718Y364948D01*
X560718Y366177D01*
X559489Y367405D01*
X557031Y367405D01*
X555803Y366177D01*
X563287Y366177D02*
X563287Y361262D01*
X563287Y366177D02*
X564516Y367405D01*
X566973Y367405D01*
X568202Y366177D01*
X568202Y361262D01*
X566973Y360033D01*
X564516Y360033D01*
X563287Y361262D01*
X568202Y366177D01*
X532188Y351493D02*
X529731Y349036D01*
X532188Y351493D02*
X532188Y344121D01*
X529731Y344121D02*
X534646Y344121D01*
X537215Y345350D02*
X537215Y350265D01*
X538444Y351493D01*
X540901Y351493D01*
X542130Y350265D01*
X542130Y345350D01*
X540901Y344121D01*
X538444Y344121D01*
X537215Y345350D01*
X542130Y350265D01*
X544699Y351493D02*
X544699Y344121D01*
X544699Y346578D02*
X549614Y351493D01*
X545928Y347807D02*
X549614Y344121D01*
X552183Y341664D02*
X554641Y344121D01*
X554641Y345350D01*
X553412Y345350D01*
X553412Y344121D01*
X554641Y344121D01*
X564657Y349036D02*
X567114Y351493D01*
X567114Y344121D01*
X564657Y344121D02*
X569572Y344121D01*
X572141Y344121D02*
X577056Y351493D01*
X579625Y344121D02*
X584540Y344121D01*
X579625Y344121D02*
X584540Y349036D01*
X584540Y350265D01*
X583312Y351493D01*
X580854Y351493D01*
X579625Y350265D01*
X587110Y351493D02*
X587110Y344121D01*
X589567Y346578D01*
X592024Y344121D01*
X592024Y351493D01*
X466639Y357583D02*
X466639Y364955D01*
X470325Y364955D01*
X471553Y363727D01*
X471553Y361269D01*
X470325Y360040D01*
X466639Y360040D01*
X469096Y360040D02*
X471553Y357583D01*
X474123Y362498D02*
X476580Y364955D01*
X476580Y357583D01*
X474123Y357583D02*
X479038Y357583D01*
X481607Y358812D02*
X482836Y357583D01*
X485293Y357583D01*
X486522Y358812D01*
X486522Y363727D01*
X485293Y364955D01*
X482836Y364955D01*
X481607Y363727D01*
X481607Y362498D01*
X482836Y361269D01*
X486522Y361269D01*
X439386Y352255D02*
X436928Y349798D01*
X439386Y352255D02*
X439386Y344883D01*
X441843Y344883D02*
X436928Y344883D01*
X444412Y346112D02*
X444412Y351027D01*
X445641Y352255D01*
X448099Y352255D01*
X449327Y351027D01*
X449327Y346112D01*
X448099Y344883D01*
X445641Y344883D01*
X444412Y346112D01*
X449327Y351027D01*
X451897Y352255D02*
X451897Y344883D01*
X451897Y347340D02*
X456811Y352255D01*
X453125Y348569D02*
X456811Y344883D01*
X459381Y342426D02*
X461838Y344883D01*
X461838Y346112D01*
X460609Y346112D01*
X460609Y344883D01*
X461838Y344883D01*
X471854Y349798D02*
X474312Y352255D01*
X474312Y344883D01*
X476769Y344883D02*
X471854Y344883D01*
X479339Y344883D02*
X484253Y352255D01*
X486823Y344883D02*
X491738Y344883D01*
X486823Y344883D02*
X491738Y349798D01*
X491738Y351027D01*
X490509Y352255D01*
X488051Y352255D01*
X486823Y351027D01*
X494307Y352255D02*
X494307Y344883D01*
X496764Y347340D01*
X499222Y344883D01*
X499222Y352255D01*
X723171Y384671D02*
X723171Y392043D01*
X726857Y392043D01*
X728086Y390815D01*
X728086Y388357D01*
X726857Y387128D01*
X723171Y387128D01*
X725628Y387128D02*
X728086Y384671D01*
X730655Y389586D02*
X733113Y392043D01*
X733113Y384671D01*
X735570Y384671D02*
X730655Y384671D01*
X738139Y390815D02*
X739368Y392043D01*
X741825Y392043D01*
X743054Y390815D01*
X743054Y389586D01*
X741825Y388357D01*
X743054Y387128D01*
X743054Y385900D01*
X741825Y384671D01*
X739368Y384671D01*
X738139Y385900D01*
X738139Y387128D01*
X739368Y388357D01*
X738139Y389586D01*
X738139Y390815D01*
X739368Y388357D02*
X741825Y388357D01*
X670977Y371723D02*
X670977Y364351D01*
X667291Y368037D02*
X670977Y371723D01*
X672206Y368037D02*
X667291Y368037D01*
X678461Y364351D02*
X678461Y371723D01*
X674775Y368037D01*
X679690Y368037D01*
X682259Y365580D02*
X682259Y364351D01*
X682259Y365580D02*
X683488Y365580D01*
X683488Y364351D01*
X682259Y364351D01*
X686001Y364351D02*
X690916Y364351D01*
X686001Y364351D02*
X690916Y369266D01*
X690916Y370495D01*
X689688Y371723D01*
X687230Y371723D01*
X686001Y370495D01*
X693486Y371723D02*
X693486Y364351D01*
X693486Y366808D02*
X698400Y371723D01*
X694714Y368037D02*
X698400Y364351D01*
X700970Y361894D02*
X703427Y364351D01*
X703427Y365580D01*
X702198Y365580D01*
X702198Y364351D01*
X703427Y364351D01*
X713443Y369266D02*
X715901Y371723D01*
X715901Y364351D01*
X718358Y364351D02*
X713443Y364351D01*
X720927Y364351D02*
X725842Y371723D01*
X728412Y364351D02*
X733326Y364351D01*
X728412Y364351D02*
X733326Y369266D01*
X733326Y370495D01*
X732098Y371723D01*
X729640Y371723D01*
X728412Y370495D01*
X735896Y371723D02*
X735896Y364351D01*
X738353Y366808D01*
X740811Y364351D01*
X740811Y371723D01*
D13*
X535338Y310630D02*
X525178Y310630D01*
X522638Y310630D01*
X525178Y310630D02*
X525178Y316980D01*
X525178Y310630D02*
X525178Y304280D01*
X525178Y310630D02*
X532798Y316980D01*
X532798Y315710D02*
X525178Y310630D01*
X532798Y314440D01*
X532798Y313170D02*
X525178Y310630D01*
X532798Y311900D01*
X532798Y304280D02*
X525178Y310630D01*
X532798Y305550D01*
X532798Y306820D02*
X525178Y310630D01*
X532798Y308090D01*
X532798Y309360D02*
X525178Y310630D01*
X532798Y316980D02*
X532798Y304280D01*
X539148Y294882D02*
X599092Y294882D01*
X599092Y299962D01*
X599092Y326378D02*
X539148Y326378D01*
X539148Y321298D01*
X539148Y299962D02*
X539148Y294882D01*
X599092Y321298D02*
X599092Y326378D01*
D17*
X539148Y329934D02*
X539148Y337561D01*
X539148Y329934D02*
X542961Y329934D01*
X544232Y331205D01*
X544232Y336289D01*
X542961Y337561D01*
X539148Y337561D01*
X546632Y336289D02*
X547903Y337561D01*
X550445Y337561D01*
X551717Y336289D01*
X551717Y335018D01*
X550445Y333747D01*
X551717Y332476D01*
X551717Y331205D01*
X550445Y329934D01*
X547903Y329934D01*
X546632Y331205D01*
X546632Y332476D01*
X547903Y333747D01*
X546632Y335018D01*
X546632Y336289D01*
X547903Y333747D02*
X550445Y333747D01*
D27*
X567598Y292474D02*
X568573Y291499D01*
X567598Y292474D02*
X565649Y292474D01*
X564675Y291499D01*
X564675Y287601D01*
X565649Y286627D01*
X567598Y286627D01*
X568573Y287601D01*
X568573Y289550D01*
X566624Y289550D01*
X570288Y286627D02*
X570288Y292474D01*
X574186Y292474D01*
X572237Y289550D02*
X570288Y289550D01*
X575901Y290525D02*
X577850Y292474D01*
X577850Y286627D01*
X575901Y286627D02*
X579799Y286627D01*
X581514Y287601D02*
X582489Y286627D01*
X583463Y286627D01*
X584438Y287601D01*
X584438Y292474D01*
X585412Y292474D02*
X583463Y292474D01*
X587127Y289550D02*
X591025Y289550D01*
X592740Y292474D02*
X596638Y292474D01*
X592740Y292474D02*
X592740Y286627D01*
X596638Y286627D01*
X594689Y289550D02*
X592740Y289550D01*
X598354Y291499D02*
X599328Y292474D01*
X601277Y292474D01*
X602252Y291499D01*
X602252Y290525D01*
X601277Y289550D01*
X600303Y289550D01*
X601277Y289550D02*
X602252Y288576D01*
X602252Y287601D01*
X601277Y286627D01*
X599328Y286627D01*
X598354Y287601D01*
X603967Y286627D02*
X603967Y292474D01*
X603967Y286627D02*
X606890Y286627D01*
X607865Y287601D01*
X607865Y291499D01*
X606890Y292474D01*
X603967Y292474D01*
X610554Y292474D02*
X612503Y292474D01*
X610554Y292474D02*
X609580Y291499D01*
X609580Y287601D01*
X610554Y286627D01*
X612503Y286627D01*
X613478Y287601D01*
X613478Y291499D01*
X612503Y292474D01*
X615193Y289550D02*
X619091Y289550D01*
X620806Y286627D02*
X624704Y286627D01*
X620806Y286627D02*
X624704Y290525D01*
X624704Y291499D01*
X623729Y292474D01*
X621780Y292474D01*
X620806Y291499D01*
X626419Y290525D02*
X628368Y292474D01*
X628368Y286627D01*
X626419Y286627D02*
X630317Y286627D01*
X634956Y286627D02*
X634956Y292474D01*
X632032Y289550D01*
X635930Y289550D01*
X637645Y286627D02*
X637645Y292474D01*
X640569Y292474D01*
X641543Y291499D01*
X641543Y290525D01*
X640569Y289550D01*
X641543Y288576D01*
X641543Y287601D01*
X640569Y286627D01*
X637645Y286627D01*
X637645Y289550D02*
X640569Y289550D01*
X643258Y290525D02*
X643258Y286627D01*
X643258Y290525D02*
X645207Y292474D01*
X647156Y290525D01*
X647156Y286627D01*
X647156Y289550D02*
X643258Y289550D01*
X648871Y289550D02*
X652769Y289550D01*
X654485Y286627D02*
X654485Y292474D01*
X654485Y286627D02*
X658382Y286627D01*
D13*
X455328Y310630D02*
X445168Y310630D01*
X442628Y310630D01*
X445168Y310630D02*
X445168Y316980D01*
X445168Y310630D02*
X445168Y304280D01*
X445168Y310630D02*
X452788Y316980D01*
X452788Y315710D02*
X445168Y310630D01*
X452788Y314440D01*
X452788Y313170D02*
X445168Y310630D01*
X452788Y311900D01*
X452788Y304280D02*
X445168Y310630D01*
X452788Y305550D01*
X452788Y306820D02*
X445168Y310630D01*
X452788Y308090D01*
X452788Y309360D02*
X445168Y310630D01*
X452788Y316980D02*
X452788Y304280D01*
X459138Y294882D02*
X519082Y294882D01*
X519082Y299962D01*
X519082Y326378D02*
X459138Y326378D01*
X459138Y321298D01*
X459138Y299962D02*
X459138Y294882D01*
X519082Y321298D02*
X519082Y326378D01*
D17*
X461678Y329934D02*
X461678Y337561D01*
X461678Y329934D02*
X465491Y329934D01*
X466762Y331205D01*
X466762Y336289D01*
X465491Y337561D01*
X461678Y337561D01*
X469162Y331205D02*
X470433Y329934D01*
X472975Y329934D01*
X474247Y331205D01*
X474247Y336289D01*
X472975Y337561D01*
X470433Y337561D01*
X469162Y336289D01*
X469162Y335018D01*
X470433Y333747D01*
X474247Y333747D01*
D27*
X446948Y300094D02*
X447923Y299119D01*
X446948Y300094D02*
X444999Y300094D01*
X444025Y299119D01*
X444025Y295221D01*
X444999Y294247D01*
X446948Y294247D01*
X447923Y295221D01*
X447923Y297170D01*
X445974Y297170D01*
X449638Y294247D02*
X449638Y300094D01*
X453536Y300094D01*
X451587Y297170D02*
X449638Y297170D01*
X455251Y298145D02*
X457200Y300094D01*
X457200Y294247D01*
X455251Y294247D02*
X459149Y294247D01*
X460864Y295221D02*
X461839Y294247D01*
X462813Y294247D01*
X463788Y295221D01*
X463788Y300094D01*
X464762Y300094D02*
X462813Y300094D01*
X466477Y297170D02*
X470375Y297170D01*
X472090Y300094D02*
X475988Y300094D01*
X472090Y300094D02*
X472090Y294247D01*
X475988Y294247D01*
X474039Y297170D02*
X472090Y297170D01*
X477704Y299119D02*
X478678Y300094D01*
X480627Y300094D01*
X481602Y299119D01*
X481602Y298145D01*
X480627Y297170D01*
X479653Y297170D01*
X480627Y297170D02*
X481602Y296196D01*
X481602Y295221D01*
X480627Y294247D01*
X478678Y294247D01*
X477704Y295221D01*
X483317Y294247D02*
X483317Y300094D01*
X483317Y294247D02*
X486240Y294247D01*
X487215Y295221D01*
X487215Y299119D01*
X486240Y300094D01*
X483317Y300094D01*
X489904Y300094D02*
X491853Y300094D01*
X489904Y300094D02*
X488930Y299119D01*
X488930Y295221D01*
X489904Y294247D01*
X491853Y294247D01*
X492828Y295221D01*
X492828Y299119D01*
X491853Y300094D01*
X494543Y297170D02*
X498441Y297170D01*
X500156Y294247D02*
X504054Y294247D01*
X500156Y294247D02*
X504054Y298145D01*
X504054Y299119D01*
X503079Y300094D01*
X501130Y300094D01*
X500156Y299119D01*
X505769Y298145D02*
X507718Y300094D01*
X507718Y294247D01*
X505769Y294247D02*
X509667Y294247D01*
X514306Y294247D02*
X514306Y300094D01*
X511382Y297170D01*
X515280Y297170D01*
X516995Y294247D02*
X516995Y300094D01*
X519919Y300094D01*
X520893Y299119D01*
X520893Y298145D01*
X519919Y297170D01*
X520893Y296196D01*
X520893Y295221D01*
X519919Y294247D01*
X516995Y294247D01*
X516995Y297170D02*
X519919Y297170D01*
X522608Y298145D02*
X522608Y294247D01*
X522608Y298145D02*
X524557Y300094D01*
X526506Y298145D01*
X526506Y294247D01*
X526506Y297170D02*
X522608Y297170D01*
X528221Y297170D02*
X532119Y297170D01*
X533835Y294247D02*
X533835Y300094D01*
X533835Y294247D02*
X537732Y294247D01*
D26*
X510190Y211940D02*
X478190Y211940D01*
X510190Y211940D02*
X510190Y162940D01*
X478190Y162940D01*
X478190Y211940D01*
X474690Y213240D02*
X459440Y213240D01*
D12*
X480850Y216777D02*
X483307Y216777D01*
X482079Y216777D02*
X482079Y224149D01*
X483307Y224149D02*
X480850Y224149D01*
X489526Y224149D02*
X490754Y222921D01*
X489526Y224149D02*
X487068Y224149D01*
X485840Y222921D01*
X485840Y218006D01*
X487068Y216777D01*
X489526Y216777D01*
X490754Y218006D01*
X493324Y221692D02*
X495781Y224149D01*
X495781Y216777D01*
X493324Y216777D02*
X498239Y216777D01*
X500808Y218006D02*
X500808Y222921D01*
X502037Y224149D01*
X504494Y224149D01*
X505723Y222921D01*
X505723Y218006D01*
X504494Y216777D01*
X502037Y216777D01*
X500808Y218006D01*
X505723Y222921D01*
X469890Y161411D02*
X467432Y161411D01*
X466204Y160183D01*
X466204Y155268D01*
X467432Y154039D01*
X469890Y154039D01*
X471119Y155268D01*
X471119Y160183D01*
X469890Y161411D01*
X473688Y161411D02*
X473688Y154039D01*
X473688Y161411D02*
X477374Y161411D01*
X478603Y160183D01*
X478603Y157725D01*
X477374Y156496D01*
X473688Y156496D01*
X481172Y154039D02*
X481172Y158954D01*
X483629Y161411D01*
X486087Y158954D01*
X486087Y154039D01*
X486087Y157725D02*
X481172Y157725D01*
X488656Y158954D02*
X491114Y161411D01*
X491114Y154039D01*
X493571Y154039D02*
X488656Y154039D01*
X499826Y154039D02*
X499826Y161411D01*
X496140Y157725D01*
X501055Y157725D01*
X503624Y155268D02*
X503624Y160183D01*
X504853Y161411D01*
X507311Y161411D01*
X508539Y160183D01*
X508539Y155268D01*
X507311Y154039D01*
X504853Y154039D01*
X503624Y155268D01*
X508539Y160183D01*
X511109Y158954D02*
X511109Y154039D01*
X511109Y158954D02*
X513566Y161411D01*
X516023Y158954D01*
X516023Y154039D01*
X516023Y157725D02*
X511109Y157725D01*
X518593Y154039D02*
X521050Y154039D01*
X519821Y154039D02*
X519821Y161411D01*
X518593Y161411D02*
X521050Y161411D01*
X523582Y161411D02*
X523582Y154039D01*
X527268Y154039D01*
X528497Y155268D01*
X528497Y160183D01*
X527268Y161411D01*
X523582Y161411D01*
X565699Y208993D02*
X565699Y216365D01*
X569385Y216365D01*
X570613Y215137D01*
X570613Y212679D01*
X569385Y211450D01*
X565699Y211450D01*
X568156Y211450D02*
X570613Y208993D01*
X573183Y208993D02*
X578098Y208993D01*
X573183Y208993D02*
X578098Y213908D01*
X578098Y215137D01*
X576869Y216365D01*
X574411Y216365D01*
X573183Y215137D01*
X580667Y208993D02*
X585582Y208993D01*
X580667Y208993D02*
X585582Y213908D01*
X585582Y215137D01*
X584353Y216365D01*
X581896Y216365D01*
X580667Y215137D01*
X592327Y174648D02*
X594784Y172191D01*
X592327Y174648D02*
X599699Y174648D01*
X599699Y172191D02*
X599699Y177106D01*
X598470Y179675D02*
X593555Y179675D01*
X592327Y180904D01*
X592327Y183361D01*
X593555Y184590D01*
X598470Y184590D01*
X599699Y183361D01*
X599699Y180904D01*
X598470Y179675D01*
X593555Y184590D01*
X593555Y187159D02*
X598470Y187159D01*
X593555Y187159D02*
X592327Y188388D01*
X592327Y190845D01*
X593555Y192074D01*
X598470Y192074D01*
X599699Y190845D01*
X599699Y188388D01*
X598470Y187159D01*
X593555Y192074D01*
X592327Y194643D02*
X592327Y199558D01*
X592327Y194643D02*
X599699Y194643D01*
X599699Y199558D01*
X596013Y197101D02*
X596013Y194643D01*
X602156Y202128D02*
X599699Y204585D01*
X598470Y204585D01*
X598470Y203356D01*
X599699Y203356D01*
X599699Y204585D01*
X594784Y214601D02*
X592327Y217059D01*
X599699Y217059D01*
X599699Y219516D02*
X599699Y214601D01*
X599699Y222085D02*
X592327Y227000D01*
X599699Y229570D02*
X599699Y234484D01*
X599699Y229570D02*
X594784Y234484D01*
X593555Y234484D01*
X592327Y233256D01*
X592327Y230798D01*
X593555Y229570D01*
X592327Y237054D02*
X599699Y237054D01*
X597242Y239511D01*
X599699Y241969D01*
X592327Y241969D01*
D26*
X1012820Y294000D02*
X1012820Y346000D01*
X1012820Y294000D02*
X930320Y294000D01*
X938320Y346000D02*
X1012820Y346000D01*
X905320Y346000D02*
X890820Y346000D01*
X890820Y294000D02*
X897320Y294000D01*
X890820Y332000D02*
X890820Y346000D01*
X890820Y308000D02*
X890820Y294000D01*
D17*
X911534Y316941D02*
X909669Y318805D01*
X915262Y318805D01*
X915262Y316941D02*
X915262Y320669D01*
X925562Y332041D02*
X925562Y335769D01*
X925562Y332041D02*
X921834Y335769D01*
X920901Y335769D01*
X919969Y334837D01*
X919969Y332973D01*
X920901Y332041D01*
X912069Y302473D02*
X913001Y301541D01*
X912069Y302473D02*
X912069Y304337D01*
X913001Y305269D01*
X913934Y305269D01*
X914866Y304337D01*
X914866Y303405D01*
X914866Y304337D02*
X915798Y305269D01*
X916730Y305269D01*
X917662Y304337D01*
X917662Y302473D01*
X916730Y301541D01*
D11*
X996484Y350654D02*
X997670Y349468D01*
X998857Y349468D01*
X1000043Y350654D01*
X1000043Y356586D01*
X998857Y356586D02*
X1001229Y356586D01*
X1007527Y356586D02*
X1007527Y349468D01*
X1003968Y353027D02*
X1007527Y356586D01*
X1008713Y353027D02*
X1003968Y353027D01*
D28*
X857190Y243390D02*
X639190Y243390D01*
X857190Y243390D02*
X857190Y168390D01*
X639190Y168390D01*
X639190Y243390D01*
D29*
X658190Y163390D03*
D26*
X658192Y163452D01*
X658198Y163513D01*
X658207Y163574D01*
X658220Y163634D01*
X658237Y163693D01*
X658258Y163751D01*
X658282Y163808D01*
X658309Y163863D01*
X658340Y163916D01*
X658374Y163968D01*
X658411Y164017D01*
X658451Y164064D01*
X658494Y164108D01*
X658539Y164149D01*
X658587Y164188D01*
X658638Y164224D01*
X658690Y164256D01*
X658744Y164285D01*
X658800Y164311D01*
X658858Y164333D01*
X658916Y164352D01*
X658976Y164367D01*
X659037Y164378D01*
X659098Y164386D01*
X659159Y164390D01*
X659221Y164390D01*
X659282Y164386D01*
X659343Y164378D01*
X659404Y164367D01*
X659464Y164352D01*
X659522Y164333D01*
X659580Y164311D01*
X659636Y164285D01*
X659690Y164256D01*
X659742Y164224D01*
X659793Y164188D01*
X659841Y164149D01*
X659886Y164108D01*
X659929Y164064D01*
X659969Y164017D01*
X660006Y163968D01*
X660040Y163916D01*
X660071Y163863D01*
X660098Y163808D01*
X660122Y163751D01*
X660143Y163693D01*
X660160Y163634D01*
X660173Y163574D01*
X660182Y163513D01*
X660188Y163452D01*
X660190Y163390D01*
D29*
X660190Y163390D03*
D26*
X660188Y163328D01*
X660182Y163267D01*
X660173Y163206D01*
X660160Y163146D01*
X660143Y163087D01*
X660122Y163029D01*
X660098Y162972D01*
X660071Y162917D01*
X660040Y162864D01*
X660006Y162812D01*
X659969Y162763D01*
X659929Y162716D01*
X659886Y162672D01*
X659841Y162631D01*
X659793Y162592D01*
X659742Y162556D01*
X659690Y162524D01*
X659636Y162495D01*
X659580Y162469D01*
X659522Y162447D01*
X659464Y162428D01*
X659404Y162413D01*
X659343Y162402D01*
X659282Y162394D01*
X659221Y162390D01*
X659159Y162390D01*
X659098Y162394D01*
X659037Y162402D01*
X658976Y162413D01*
X658916Y162428D01*
X658858Y162447D01*
X658800Y162469D01*
X658744Y162495D01*
X658690Y162524D01*
X658638Y162556D01*
X658587Y162592D01*
X658539Y162631D01*
X658494Y162672D01*
X658451Y162716D01*
X658411Y162763D01*
X658374Y162812D01*
X658340Y162864D01*
X658309Y162917D01*
X658282Y162972D01*
X658258Y163029D01*
X658237Y163087D01*
X658220Y163146D01*
X658207Y163206D01*
X658198Y163267D01*
X658192Y163328D01*
X658190Y163390D01*
D12*
X737345Y199207D02*
X737345Y206579D01*
X741031Y206579D01*
X742260Y205351D01*
X742260Y202893D01*
X741031Y201664D01*
X737345Y201664D01*
X748515Y206579D02*
X749744Y205351D01*
X748515Y206579D02*
X746058Y206579D01*
X744829Y205351D01*
X744829Y204122D01*
X746058Y202893D01*
X748515Y202893D01*
X749744Y201664D01*
X749744Y200436D01*
X748515Y199207D01*
X746058Y199207D01*
X744829Y200436D01*
X752313Y199207D02*
X757228Y199207D01*
X752313Y199207D02*
X757228Y204122D01*
X757228Y205351D01*
X755999Y206579D01*
X753542Y206579D01*
X752313Y205351D01*
X714892Y206579D02*
X714892Y199207D01*
X719807Y199207D02*
X714892Y206579D01*
X719807Y206579D02*
X719807Y199207D01*
X722376Y199207D02*
X722376Y206579D01*
X724834Y204122D01*
X727291Y206579D01*
X727291Y199207D01*
X732318Y199207D02*
X732318Y206579D01*
X729861Y206579D02*
X734775Y206579D01*
X737345Y205351D02*
X737345Y200436D01*
X737345Y205351D02*
X738573Y206579D01*
X741031Y206579D01*
X742260Y205351D01*
X742260Y200436D01*
X741031Y199207D01*
X738573Y199207D01*
X737345Y200436D01*
X742260Y205351D01*
X744829Y206579D02*
X749744Y206579D01*
X744829Y206579D02*
X744829Y202893D01*
X747286Y204122D01*
X748515Y204122D01*
X749744Y202893D01*
X749744Y200436D01*
X748515Y199207D01*
X746058Y199207D01*
X744829Y200436D01*
X752313Y206579D02*
X757228Y206579D01*
X757228Y205351D01*
X752313Y200436D01*
X752313Y199207D01*
X759797Y199207D02*
X764712Y199207D01*
X759797Y199207D02*
X764712Y204122D01*
X764712Y205351D01*
X763483Y206579D01*
X761026Y206579D01*
X759797Y205351D01*
X770968Y206579D02*
X772196Y205351D01*
X770968Y206579D02*
X768510Y206579D01*
X767281Y205351D01*
X767281Y204122D01*
X768510Y202893D01*
X770968Y202893D01*
X772196Y201664D01*
X772196Y200436D01*
X770968Y199207D01*
X768510Y199207D01*
X767281Y200436D01*
X778452Y206579D02*
X779680Y205351D01*
X778452Y206579D02*
X775994Y206579D01*
X774766Y205351D01*
X774766Y200436D01*
X775994Y199207D01*
X778452Y199207D01*
X779680Y200436D01*
D28*
X857190Y145600D02*
X639190Y145600D01*
X857190Y145600D02*
X857190Y70600D01*
X639190Y70600D01*
X639190Y145600D01*
D29*
X658190Y65600D03*
D26*
X658192Y65662D01*
X658198Y65723D01*
X658207Y65784D01*
X658220Y65844D01*
X658237Y65903D01*
X658258Y65961D01*
X658282Y66018D01*
X658309Y66073D01*
X658340Y66126D01*
X658374Y66178D01*
X658411Y66227D01*
X658451Y66274D01*
X658494Y66318D01*
X658539Y66359D01*
X658587Y66398D01*
X658638Y66434D01*
X658690Y66466D01*
X658744Y66495D01*
X658800Y66521D01*
X658858Y66543D01*
X658916Y66562D01*
X658976Y66577D01*
X659037Y66588D01*
X659098Y66596D01*
X659159Y66600D01*
X659221Y66600D01*
X659282Y66596D01*
X659343Y66588D01*
X659404Y66577D01*
X659464Y66562D01*
X659522Y66543D01*
X659580Y66521D01*
X659636Y66495D01*
X659690Y66466D01*
X659742Y66434D01*
X659793Y66398D01*
X659841Y66359D01*
X659886Y66318D01*
X659929Y66274D01*
X659969Y66227D01*
X660006Y66178D01*
X660040Y66126D01*
X660071Y66073D01*
X660098Y66018D01*
X660122Y65961D01*
X660143Y65903D01*
X660160Y65844D01*
X660173Y65784D01*
X660182Y65723D01*
X660188Y65662D01*
X660190Y65600D01*
D29*
X660190Y65600D03*
D26*
X660188Y65538D01*
X660182Y65477D01*
X660173Y65416D01*
X660160Y65356D01*
X660143Y65297D01*
X660122Y65239D01*
X660098Y65182D01*
X660071Y65127D01*
X660040Y65074D01*
X660006Y65022D01*
X659969Y64973D01*
X659929Y64926D01*
X659886Y64882D01*
X659841Y64841D01*
X659793Y64802D01*
X659742Y64766D01*
X659690Y64734D01*
X659636Y64705D01*
X659580Y64679D01*
X659522Y64657D01*
X659464Y64638D01*
X659404Y64623D01*
X659343Y64612D01*
X659282Y64604D01*
X659221Y64600D01*
X659159Y64600D01*
X659098Y64604D01*
X659037Y64612D01*
X658976Y64623D01*
X658916Y64638D01*
X658858Y64657D01*
X658800Y64679D01*
X658744Y64705D01*
X658690Y64734D01*
X658638Y64766D01*
X658587Y64802D01*
X658539Y64841D01*
X658494Y64882D01*
X658451Y64926D01*
X658411Y64973D01*
X658374Y65022D01*
X658340Y65074D01*
X658309Y65127D01*
X658282Y65182D01*
X658258Y65239D01*
X658237Y65297D01*
X658220Y65356D01*
X658207Y65416D01*
X658198Y65477D01*
X658192Y65538D01*
X658190Y65600D01*
D12*
X737345Y101417D02*
X737345Y108789D01*
X741031Y108789D01*
X742260Y107561D01*
X742260Y105103D01*
X741031Y103874D01*
X737345Y103874D01*
X748515Y108789D02*
X749744Y107561D01*
X748515Y108789D02*
X746058Y108789D01*
X744829Y107561D01*
X744829Y106332D01*
X746058Y105103D01*
X748515Y105103D01*
X749744Y103874D01*
X749744Y102646D01*
X748515Y101417D01*
X746058Y101417D01*
X744829Y102646D01*
X752313Y106332D02*
X754771Y108789D01*
X754771Y101417D01*
X757228Y101417D02*
X752313Y101417D01*
X714892Y101417D02*
X714892Y108789D01*
X719807Y101417D01*
X719807Y108789D01*
X722376Y108789D02*
X722376Y101417D01*
X724834Y106332D02*
X722376Y108789D01*
X724834Y106332D02*
X727291Y108789D01*
X727291Y101417D01*
X732318Y101417D02*
X732318Y108789D01*
X729861Y108789D02*
X734775Y108789D01*
X737345Y107561D02*
X737345Y102646D01*
X737345Y107561D02*
X738573Y108789D01*
X741031Y108789D01*
X742260Y107561D01*
X742260Y102646D01*
X741031Y101417D01*
X738573Y101417D01*
X737345Y102646D01*
X742260Y107561D01*
X744829Y108789D02*
X749744Y108789D01*
X744829Y108789D02*
X744829Y105103D01*
X747286Y106332D01*
X748515Y106332D01*
X749744Y105103D01*
X749744Y102646D01*
X748515Y101417D01*
X746058Y101417D01*
X744829Y102646D01*
X752313Y108789D02*
X757228Y108789D01*
X757228Y107561D01*
X752313Y102646D01*
X752313Y101417D01*
X759797Y101417D02*
X764712Y101417D01*
X759797Y101417D02*
X764712Y106332D01*
X764712Y107561D01*
X763483Y108789D01*
X761026Y108789D01*
X759797Y107561D01*
X770968Y108789D02*
X772196Y107561D01*
X770968Y108789D02*
X768510Y108789D01*
X767281Y107561D01*
X767281Y106332D01*
X768510Y105103D01*
X770968Y105103D01*
X772196Y103874D01*
X772196Y102646D01*
X770968Y101417D01*
X768510Y101417D01*
X767281Y102646D01*
X778452Y108789D02*
X779680Y107561D01*
X778452Y108789D02*
X775994Y108789D01*
X774766Y107561D01*
X774766Y102646D01*
X775994Y101417D01*
X778452Y101417D01*
X779680Y102646D01*
D26*
X324410Y119540D02*
X301710Y119540D01*
X324410Y119540D02*
X324410Y89540D01*
X301710Y89540D01*
X301710Y119540D01*
X298210Y120040D02*
X284060Y120040D01*
D12*
X299720Y100857D02*
X302177Y100857D01*
X300949Y100857D02*
X300949Y108229D01*
X302177Y108229D02*
X299720Y108229D01*
X308396Y108229D02*
X309624Y107001D01*
X308396Y108229D02*
X305938Y108229D01*
X304710Y107001D01*
X304710Y102086D01*
X305938Y100857D01*
X308396Y100857D01*
X309624Y102086D01*
X312194Y105772D02*
X314651Y108229D01*
X314651Y100857D01*
X312194Y100857D02*
X317109Y100857D01*
X323364Y100857D02*
X323364Y108229D01*
X319678Y104543D01*
X324593Y104543D01*
D10*
X395060Y123920D02*
X395060Y63920D01*
X591560Y63920D02*
X591560Y123920D01*
X591560Y63920D02*
X395060Y63920D01*
X395060Y123920D02*
X411460Y123920D01*
X450960Y123920D02*
X494960Y123920D01*
X552560Y123920D02*
X591560Y123920D01*
X444160Y123920D02*
X432860Y123920D01*
X501760Y123920D02*
X520360Y123920D01*
X527160Y123920D02*
X545760Y123920D01*
D26*
X386660Y117420D02*
X386662Y117483D01*
X386668Y117545D01*
X386678Y117607D01*
X386691Y117669D01*
X386709Y117729D01*
X386730Y117788D01*
X386755Y117846D01*
X386784Y117902D01*
X386816Y117956D01*
X386851Y118008D01*
X386889Y118057D01*
X386931Y118105D01*
X386975Y118149D01*
X387023Y118191D01*
X387072Y118229D01*
X387124Y118264D01*
X387178Y118296D01*
X387234Y118325D01*
X387292Y118350D01*
X387351Y118371D01*
X387411Y118389D01*
X387473Y118402D01*
X387535Y118412D01*
X387597Y118418D01*
X387660Y118420D01*
X387723Y118418D01*
X387785Y118412D01*
X387847Y118402D01*
X387909Y118389D01*
X387969Y118371D01*
X388028Y118350D01*
X388086Y118325D01*
X388142Y118296D01*
X388196Y118264D01*
X388248Y118229D01*
X388297Y118191D01*
X388345Y118149D01*
X388389Y118105D01*
X388431Y118057D01*
X388469Y118008D01*
X388504Y117956D01*
X388536Y117902D01*
X388565Y117846D01*
X388590Y117788D01*
X388611Y117729D01*
X388629Y117669D01*
X388642Y117607D01*
X388652Y117545D01*
X388658Y117483D01*
X388660Y117420D01*
X388658Y117357D01*
X388652Y117295D01*
X388642Y117233D01*
X388629Y117171D01*
X388611Y117111D01*
X388590Y117052D01*
X388565Y116994D01*
X388536Y116938D01*
X388504Y116884D01*
X388469Y116832D01*
X388431Y116783D01*
X388389Y116735D01*
X388345Y116691D01*
X388297Y116649D01*
X388248Y116611D01*
X388196Y116576D01*
X388142Y116544D01*
X388086Y116515D01*
X388028Y116490D01*
X387969Y116469D01*
X387909Y116451D01*
X387847Y116438D01*
X387785Y116428D01*
X387723Y116422D01*
X387660Y116420D01*
X387597Y116422D01*
X387535Y116428D01*
X387473Y116438D01*
X387411Y116451D01*
X387351Y116469D01*
X387292Y116490D01*
X387234Y116515D01*
X387178Y116544D01*
X387124Y116576D01*
X387072Y116611D01*
X387023Y116649D01*
X386975Y116691D01*
X386931Y116735D01*
X386889Y116783D01*
X386851Y116832D01*
X386816Y116884D01*
X386784Y116938D01*
X386755Y116994D01*
X386730Y117052D01*
X386709Y117111D01*
X386691Y117171D01*
X386678Y117233D01*
X386668Y117295D01*
X386662Y117357D01*
X386660Y117420D01*
D12*
X395081Y131450D02*
X395081Y137593D01*
X395081Y131450D02*
X396310Y130221D01*
X398767Y130221D01*
X399996Y131450D01*
X399996Y137593D01*
X402565Y136365D02*
X403794Y137593D01*
X406251Y137593D01*
X407480Y136365D01*
X407480Y135136D01*
X406251Y133907D01*
X407480Y132678D01*
X407480Y131450D01*
X406251Y130221D01*
X403794Y130221D01*
X402565Y131450D01*
X402565Y132678D01*
X403794Y133907D01*
X402565Y135136D01*
X402565Y136365D01*
X403794Y133907D02*
X406251Y133907D01*
X511381Y78153D02*
X511381Y70781D01*
X511381Y78153D02*
X515067Y78153D01*
X516296Y76925D01*
X516296Y74467D01*
X515067Y73238D01*
X511381Y73238D01*
X518865Y70781D02*
X518865Y78153D01*
X518865Y70781D02*
X522551Y70781D01*
X523780Y72010D01*
X523780Y76925D01*
X522551Y78153D01*
X518865Y78153D01*
X526349Y78153D02*
X526349Y70781D01*
X528807Y75696D02*
X526349Y78153D01*
X528807Y75696D02*
X531264Y78153D01*
X531264Y70781D01*
X533833Y78153D02*
X538748Y78153D01*
X533833Y78153D02*
X533833Y70781D01*
X538748Y70781D01*
X536291Y74467D02*
X533833Y74467D01*
X541318Y75696D02*
X543775Y78153D01*
X543775Y70781D01*
X541318Y70781D02*
X546232Y70781D01*
X548802Y74467D02*
X553717Y74467D01*
X559972Y78153D02*
X561201Y76925D01*
X559972Y78153D02*
X557515Y78153D01*
X556286Y76925D01*
X556286Y75696D01*
X557515Y74467D01*
X559972Y74467D01*
X561201Y73238D01*
X561201Y72010D01*
X559972Y70781D01*
X557515Y70781D01*
X556286Y72010D01*
X563770Y78153D02*
X568685Y78153D01*
X563770Y78153D02*
X563770Y74467D01*
X566228Y75696D01*
X567456Y75696D01*
X568685Y74467D01*
X568685Y72010D01*
X567456Y70781D01*
X564999Y70781D01*
X563770Y72010D01*
X571254Y74467D02*
X576169Y74467D01*
X578738Y78153D02*
X578738Y70781D01*
X582425Y70781D01*
X583653Y72010D01*
X583653Y76925D01*
X582425Y78153D01*
X578738Y78153D01*
X586223Y78153D02*
X591137Y78153D01*
X586223Y78153D02*
X586223Y74467D01*
X588680Y75696D01*
X589909Y75696D01*
X591137Y74467D01*
X591137Y72010D01*
X589909Y70781D01*
X587451Y70781D01*
X586223Y72010D01*
X593707Y74467D02*
X598622Y74467D01*
X604877Y78153D02*
X606106Y76925D01*
X604877Y78153D02*
X602420Y78153D01*
X601191Y76925D01*
X601191Y75696D01*
X602420Y74467D01*
X604877Y74467D01*
X606106Y73238D01*
X606106Y72010D01*
X604877Y70781D01*
X602420Y70781D01*
X601191Y72010D01*
D13*
X101708Y138880D02*
X101708Y159200D01*
X70212Y159200D02*
X70212Y138880D01*
D12*
X70380Y136050D02*
X62414Y128085D01*
X62414Y136050D02*
X70380Y128085D01*
X66397Y128085D02*
X66397Y136050D01*
X70380Y132068D02*
X62414Y132068D01*
D17*
X55368Y148095D02*
X55368Y154451D01*
X55368Y148095D02*
X56639Y146824D01*
X59181Y146824D01*
X60452Y148095D01*
X60452Y154451D01*
X65394Y153179D02*
X67937Y154451D01*
X65394Y153179D02*
X62852Y150637D01*
X62852Y148095D01*
X64123Y146824D01*
X66665Y146824D01*
X67937Y148095D01*
X67937Y149366D01*
X66665Y150637D01*
X62852Y150637D01*
X22602Y144291D02*
X22602Y136664D01*
X27686Y136664D01*
X32628Y136664D02*
X32628Y144291D01*
X30086Y144291D02*
X35171Y144291D01*
X41384Y144291D02*
X42655Y143019D01*
X41384Y144291D02*
X38841Y144291D01*
X37570Y143019D01*
X37570Y137935D01*
X38841Y136664D01*
X41384Y136664D01*
X42655Y137935D01*
X48868Y136664D02*
X48868Y144291D01*
X45054Y140477D01*
X50139Y140477D01*
X56352Y136664D02*
X56352Y144291D01*
X52539Y140477D01*
X57623Y140477D01*
X60023Y141748D02*
X62565Y144291D01*
X62565Y136664D01*
X60023Y136664D02*
X65107Y136664D01*
X67507Y136664D02*
X72591Y136664D01*
X67507Y136664D02*
X72591Y141748D01*
X72591Y143019D01*
X71320Y144291D01*
X68778Y144291D01*
X67507Y143019D01*
X74991Y144291D02*
X74991Y136664D01*
X74991Y140477D02*
X80075Y140477D01*
X80075Y136664D02*
X80075Y144291D01*
X86289Y144291D02*
X87560Y143019D01*
X86289Y144291D02*
X83746Y144291D01*
X82475Y143019D01*
X82475Y141748D01*
X83746Y140477D01*
X86289Y140477D01*
X87560Y139206D01*
X87560Y137935D01*
X86289Y136664D01*
X83746Y136664D01*
X82475Y137935D01*
X92502Y143019D02*
X95044Y144291D01*
X92502Y143019D02*
X89959Y140477D01*
X89959Y137935D01*
X91230Y136664D01*
X93773Y136664D01*
X95044Y137935D01*
X95044Y139206D01*
X93773Y140477D01*
X89959Y140477D01*
X99986Y136664D02*
X99986Y144291D01*
X97444Y144291D02*
X102528Y144291D01*
X104928Y144291D02*
X104928Y136664D01*
X104928Y144291D02*
X108741Y144291D01*
X110012Y143019D01*
X110012Y140477D01*
X108741Y139206D01*
X104928Y139206D01*
X107470Y139206D02*
X110012Y136664D01*
X112412Y136664D02*
X112412Y144291D01*
X114954Y141748D01*
X117496Y144291D01*
X117496Y136664D01*
X119896Y136664D02*
X119896Y144291D01*
X123709Y144291D01*
X124980Y143019D01*
X124980Y140477D01*
X123709Y139206D01*
X119896Y139206D01*
X127380Y136664D02*
X127380Y144291D01*
X131193Y144291D01*
X132465Y143019D01*
X132465Y141748D01*
X131193Y140477D01*
X132465Y139206D01*
X132465Y137935D01*
X131193Y136664D01*
X127380Y136664D01*
X127380Y140477D02*
X131193Y140477D01*
X134864Y136664D02*
X134864Y144291D01*
X139949Y144291D01*
X137407Y140477D02*
X134864Y140477D01*
D13*
X49888Y155390D02*
X49888Y163010D01*
X49888Y175456D02*
X33632Y175456D01*
X33632Y165042D01*
X33632Y142944D02*
X49888Y142944D01*
X33632Y142944D02*
X33632Y153358D01*
X63350Y150564D02*
X63404Y150562D01*
X63458Y150556D01*
X63512Y150547D01*
X63565Y150533D01*
X63616Y150516D01*
X63667Y150495D01*
X63715Y150471D01*
X63762Y150443D01*
X63807Y150412D01*
X63849Y150378D01*
X63889Y150341D01*
X63926Y150301D01*
X63960Y150259D01*
X63991Y150214D01*
X64019Y150167D01*
X64043Y150119D01*
X64064Y150068D01*
X64081Y150017D01*
X64095Y149964D01*
X64104Y149910D01*
X64110Y149856D01*
X64112Y149802D01*
X64110Y149748D01*
X64104Y149694D01*
X64095Y149640D01*
X64081Y149587D01*
X64064Y149536D01*
X64043Y149485D01*
X64019Y149437D01*
X63991Y149390D01*
X63960Y149345D01*
X63926Y149303D01*
X63889Y149263D01*
X63849Y149226D01*
X63807Y149192D01*
X63762Y149161D01*
X63715Y149133D01*
X63667Y149109D01*
X63616Y149088D01*
X63565Y149071D01*
X63512Y149057D01*
X63458Y149048D01*
X63404Y149042D01*
X63350Y149040D01*
X63296Y149042D01*
X63242Y149048D01*
X63188Y149057D01*
X63135Y149071D01*
X63084Y149088D01*
X63033Y149109D01*
X62985Y149133D01*
X62938Y149161D01*
X62893Y149192D01*
X62851Y149226D01*
X62811Y149263D01*
X62774Y149303D01*
X62740Y149345D01*
X62709Y149390D01*
X62681Y149437D01*
X62657Y149485D01*
X62636Y149536D01*
X62619Y149587D01*
X62605Y149640D01*
X62596Y149694D01*
X62590Y149748D01*
X62588Y149802D01*
X62590Y149856D01*
X62596Y149910D01*
X62605Y149964D01*
X62619Y150017D01*
X62636Y150068D01*
X62657Y150119D01*
X62681Y150167D01*
X62709Y150214D01*
X62740Y150259D01*
X62774Y150301D01*
X62811Y150341D01*
X62851Y150378D01*
X62893Y150412D01*
X62938Y150443D01*
X62985Y150471D01*
X63033Y150495D01*
X63084Y150516D01*
X63135Y150533D01*
X63188Y150547D01*
X63242Y150556D01*
X63296Y150562D01*
X63350Y150564D01*
D17*
X23725Y152088D02*
X17370Y152088D01*
X23725Y152088D02*
X24996Y153359D01*
X24996Y155901D01*
X23725Y157172D01*
X17370Y157172D01*
X17370Y159572D02*
X17370Y164657D01*
X18641Y164657D01*
X23725Y159572D01*
X24996Y159572D01*
D12*
X205229Y158533D02*
X205229Y165905D01*
X208915Y165905D01*
X210143Y164677D01*
X210143Y162219D01*
X208915Y160990D01*
X205229Y160990D01*
X207686Y160990D02*
X210143Y158533D01*
X212713Y164677D02*
X213941Y165905D01*
X216399Y165905D01*
X217628Y164677D01*
X217628Y163448D01*
X216399Y162219D01*
X215170Y162219D01*
X216399Y162219D02*
X217628Y160990D01*
X217628Y159762D01*
X216399Y158533D01*
X213941Y158533D01*
X212713Y159762D01*
X220197Y164677D02*
X221426Y165905D01*
X223883Y165905D01*
X225112Y164677D01*
X225112Y163448D01*
X223883Y162219D01*
X222654Y162219D01*
X223883Y162219D02*
X225112Y160990D01*
X225112Y159762D01*
X223883Y158533D01*
X221426Y158533D01*
X220197Y159762D01*
X227915Y127971D02*
X235287Y127971D01*
X231601Y124284D02*
X227915Y127971D01*
X231601Y129199D02*
X231601Y124284D01*
X227915Y131769D02*
X227915Y136683D01*
X229143Y136683D01*
X234058Y131769D01*
X235287Y131769D01*
X234058Y139253D02*
X229143Y139253D01*
X227915Y140481D01*
X227915Y142939D01*
X229143Y144168D01*
X234058Y144168D01*
X235287Y142939D01*
X235287Y140481D01*
X234058Y139253D01*
X229143Y144168D01*
X227915Y146737D02*
X235287Y146737D01*
X232830Y146737D02*
X227915Y151652D01*
X231601Y147966D02*
X235287Y151652D01*
X208835Y98365D02*
X210063Y97137D01*
X208835Y98365D02*
X206377Y98365D01*
X205149Y97137D01*
X205149Y92222D01*
X206377Y90993D01*
X208835Y90993D01*
X210063Y92222D01*
X212633Y90993D02*
X217548Y90993D01*
X212633Y90993D02*
X217548Y95908D01*
X217548Y97137D01*
X216319Y98365D01*
X213861Y98365D01*
X212633Y97137D01*
X222574Y97137D02*
X225032Y98365D01*
X222574Y97137D02*
X220117Y94679D01*
X220117Y92222D01*
X221346Y90993D01*
X223803Y90993D01*
X225032Y92222D01*
X225032Y93450D01*
X223803Y94679D01*
X220117Y94679D01*
X227947Y72918D02*
X230404Y70461D01*
X227947Y72918D02*
X235319Y72918D01*
X235319Y70461D02*
X235319Y75376D01*
X234090Y77945D02*
X230404Y77945D01*
X234090Y77945D02*
X235319Y79174D01*
X235319Y82860D01*
X230404Y82860D01*
X227947Y85429D02*
X235319Y85429D01*
X227947Y85429D02*
X227947Y90344D01*
X231633Y87887D02*
X231633Y85429D01*
D17*
X286290Y78787D02*
X287223Y77855D01*
X286290Y78787D02*
X284426Y78787D01*
X283494Y77855D01*
X283494Y74126D01*
X284426Y73194D01*
X286290Y73194D01*
X287223Y74126D01*
X289107Y73194D02*
X292836Y73194D01*
X289107Y73194D02*
X292836Y76923D01*
X292836Y77855D01*
X291903Y78787D01*
X290039Y78787D01*
X289107Y77855D01*
X294720Y78787D02*
X298449Y78787D01*
X298449Y77855D01*
X294720Y74126D01*
X294720Y73194D01*
X324449Y52146D02*
X326314Y50282D01*
X324449Y52146D02*
X330042Y52146D01*
X330042Y50282D02*
X330042Y54010D01*
X329110Y55895D02*
X325381Y55895D01*
X324449Y56827D01*
X324449Y58691D01*
X325381Y59623D01*
X329110Y59623D01*
X330042Y58691D01*
X330042Y56827D01*
X329110Y55895D01*
X325381Y59623D01*
X326314Y61508D02*
X329110Y61508D01*
X330042Y62440D01*
X330042Y65236D01*
X326314Y65236D01*
X324449Y67121D02*
X330042Y67121D01*
X324449Y67121D02*
X324449Y70849D01*
X327246Y68985D02*
X327246Y67121D01*
D12*
X255609Y103573D02*
X255609Y110945D01*
X259295Y110945D01*
X260523Y109717D01*
X260523Y107259D01*
X259295Y106030D01*
X255609Y106030D01*
X258066Y106030D02*
X260523Y103573D01*
X263093Y109717D02*
X264321Y110945D01*
X266779Y110945D01*
X268008Y109717D01*
X268008Y108488D01*
X266779Y107259D01*
X265550Y107259D01*
X266779Y107259D02*
X268008Y106030D01*
X268008Y104802D01*
X266779Y103573D01*
X264321Y103573D01*
X263093Y104802D01*
X270577Y103573D02*
X275492Y103573D01*
X270577Y103573D02*
X275492Y108488D01*
X275492Y109717D01*
X274263Y110945D01*
X271806Y110945D01*
X270577Y109717D01*
X247315Y72982D02*
X249772Y70524D01*
X247315Y72982D02*
X254687Y72982D01*
X254687Y75439D02*
X254687Y70524D01*
X253458Y78009D02*
X248543Y78009D01*
X247315Y79237D01*
X247315Y81695D01*
X248543Y82923D01*
X253458Y82923D01*
X254687Y81695D01*
X254687Y79237D01*
X253458Y78009D01*
X248543Y82923D01*
X248543Y85493D02*
X253458Y85493D01*
X248543Y85493D02*
X247315Y86721D01*
X247315Y89179D01*
X248543Y90408D01*
X253458Y90408D01*
X254687Y89179D01*
X254687Y86721D01*
X253458Y85493D01*
X248543Y90408D01*
X247315Y92977D02*
X254687Y92977D01*
X252230Y92977D02*
X247315Y97892D01*
X251001Y94206D02*
X254687Y97892D01*
X115528Y228797D02*
X114299Y230025D01*
X111841Y230025D01*
X110613Y228797D01*
X110613Y223882D01*
X111841Y222653D01*
X114299Y222653D01*
X115528Y223882D01*
X120554Y228797D02*
X123012Y230025D01*
X120554Y228797D02*
X118097Y226339D01*
X118097Y223882D01*
X119326Y222653D01*
X121783Y222653D01*
X123012Y223882D01*
X123012Y225110D01*
X121783Y226339D01*
X118097Y226339D01*
X130775Y197362D02*
X133232Y194904D01*
X130775Y197362D02*
X138147Y197362D01*
X138147Y199819D02*
X138147Y194904D01*
X136918Y202389D02*
X132003Y202389D01*
X130775Y203617D01*
X130775Y206075D01*
X132003Y207303D01*
X136918Y207303D01*
X138147Y206075D01*
X138147Y203617D01*
X136918Y202389D01*
X132003Y207303D01*
X133232Y209873D02*
X138147Y209873D01*
X133232Y209873D02*
X133232Y213559D01*
X134461Y214788D01*
X138147Y214788D01*
X138147Y217357D02*
X130775Y217357D01*
X130775Y222272D01*
X134461Y219814D02*
X134461Y217357D01*
D26*
X-9000Y184500D02*
X-9000Y259500D01*
X24730Y259500D02*
X41000Y259500D01*
X41000Y184500D02*
X24730Y184500D01*
X48441Y237720D02*
X48443Y237762D01*
X48449Y237804D01*
X48459Y237846D01*
X48472Y237886D01*
X48489Y237925D01*
X48510Y237962D01*
X48534Y237997D01*
X48561Y238029D01*
X48591Y238059D01*
X48623Y238086D01*
X48658Y238110D01*
X48695Y238131D01*
X48734Y238148D01*
X48774Y238161D01*
X48816Y238171D01*
X48858Y238177D01*
X48900Y238179D01*
X48942Y238177D01*
X48984Y238171D01*
X49026Y238161D01*
X49066Y238148D01*
X49105Y238131D01*
X49142Y238110D01*
X49177Y238086D01*
X49209Y238059D01*
X49239Y238029D01*
X49266Y237997D01*
X49290Y237962D01*
X49311Y237925D01*
X49328Y237886D01*
X49341Y237846D01*
X49351Y237804D01*
X49357Y237762D01*
X49359Y237720D01*
X49357Y237678D01*
X49351Y237636D01*
X49341Y237594D01*
X49328Y237554D01*
X49311Y237515D01*
X49290Y237478D01*
X49266Y237443D01*
X49239Y237411D01*
X49209Y237381D01*
X49177Y237354D01*
X49142Y237330D01*
X49105Y237309D01*
X49066Y237292D01*
X49026Y237279D01*
X48984Y237269D01*
X48942Y237263D01*
X48900Y237261D01*
X48858Y237263D01*
X48816Y237269D01*
X48774Y237279D01*
X48734Y237292D01*
X48695Y237309D01*
X48658Y237330D01*
X48623Y237354D01*
X48591Y237381D01*
X48561Y237411D01*
X48534Y237443D01*
X48510Y237478D01*
X48489Y237515D01*
X48472Y237554D01*
X48459Y237594D01*
X48449Y237636D01*
X48443Y237678D01*
X48441Y237720D01*
D12*
X30483Y212996D02*
X29254Y211767D01*
X30483Y212996D02*
X30483Y214224D01*
X29254Y215453D01*
X23111Y215453D01*
X23111Y214224D02*
X23111Y216682D01*
X30483Y219251D02*
X30483Y224166D01*
X30483Y219251D02*
X25568Y224166D01*
X24339Y224166D01*
X23111Y222937D01*
X23111Y220480D01*
X24339Y219251D01*
X23111Y185516D02*
X30483Y185516D01*
X26797Y181830D02*
X23111Y185516D01*
X26797Y186745D02*
X26797Y181830D01*
X23111Y189314D02*
X23111Y194229D01*
X24339Y194229D01*
X29254Y189314D01*
X30483Y189314D01*
X24339Y196799D02*
X23111Y198027D01*
X23111Y200485D01*
X24339Y201713D01*
X25568Y201713D01*
X26797Y200485D01*
X26797Y199256D01*
X26797Y200485D02*
X28026Y201713D01*
X29254Y201713D01*
X30483Y200485D01*
X30483Y198027D01*
X29254Y196799D01*
X30483Y207969D02*
X23111Y207969D01*
X26797Y204283D01*
X26797Y209198D01*
X24339Y214224D02*
X23111Y216682D01*
X24339Y214224D02*
X26797Y211767D01*
X29254Y211767D01*
X30483Y212996D01*
X30483Y215453D01*
X29254Y216682D01*
X28026Y216682D01*
X26797Y215453D01*
X26797Y211767D01*
X26797Y219251D02*
X26797Y224166D01*
X29254Y226735D02*
X24339Y226735D01*
X23111Y227964D01*
X23111Y230421D01*
X24339Y231650D01*
X29254Y231650D01*
X30483Y230421D01*
X30483Y227964D01*
X29254Y226735D01*
X24339Y231650D01*
X24339Y234219D02*
X29254Y234219D01*
X24339Y234219D02*
X23111Y235448D01*
X23111Y237905D01*
X24339Y239134D01*
X29254Y239134D01*
X30483Y237905D01*
X30483Y235448D01*
X29254Y234219D01*
X24339Y239134D01*
X24339Y241703D02*
X29254Y241703D01*
X24339Y241703D02*
X23111Y242932D01*
X23111Y245390D01*
X24339Y246618D01*
X29254Y246618D01*
X30483Y245390D01*
X30483Y242932D01*
X29254Y241703D01*
X24339Y246618D01*
X25568Y249188D02*
X23111Y251645D01*
X30483Y251645D01*
X30483Y249188D02*
X30483Y254102D01*
X188573Y419133D02*
X188573Y426505D01*
X192259Y426505D01*
X193488Y425277D01*
X193488Y422819D01*
X192259Y421590D01*
X188573Y421590D01*
X191030Y421590D02*
X193488Y419133D01*
X199743Y419133D02*
X199743Y426505D01*
X196057Y422819D01*
X200972Y422819D01*
X178135Y397106D02*
X180592Y394649D01*
X178135Y397106D02*
X185507Y397106D01*
X185507Y394649D02*
X185507Y399563D01*
X184278Y402133D02*
X179363Y402133D01*
X178135Y403361D01*
X178135Y405819D01*
X179363Y407048D01*
X184278Y407048D01*
X185507Y405819D01*
X185507Y403361D01*
X184278Y402133D01*
X179363Y407048D01*
X178135Y409617D02*
X185507Y409617D01*
X183050Y409617D02*
X178135Y414532D01*
X181821Y410846D02*
X185507Y414532D01*
X158093Y419133D02*
X158093Y426505D01*
X161779Y426505D01*
X163008Y425277D01*
X163008Y422819D01*
X161779Y421590D01*
X158093Y421590D01*
X160550Y421590D02*
X163008Y419133D01*
X165577Y425277D02*
X166806Y426505D01*
X169263Y426505D01*
X170492Y425277D01*
X170492Y424048D01*
X169263Y422819D01*
X168034Y422819D01*
X169263Y422819D02*
X170492Y421590D01*
X170492Y420362D01*
X169263Y419133D01*
X166806Y419133D01*
X165577Y420362D01*
X147655Y397106D02*
X150112Y394649D01*
X147655Y397106D02*
X155027Y397106D01*
X155027Y394649D02*
X155027Y399563D01*
X153798Y402133D02*
X148883Y402133D01*
X147655Y403361D01*
X147655Y405819D01*
X148883Y407048D01*
X153798Y407048D01*
X155027Y405819D01*
X155027Y403361D01*
X153798Y402133D01*
X148883Y407048D01*
X147655Y409617D02*
X155027Y409617D01*
X152570Y409617D02*
X147655Y414532D01*
X151341Y410846D02*
X155027Y414532D01*
X24471Y514850D02*
X24471Y520993D01*
X24471Y514850D02*
X25700Y513621D01*
X28157Y513621D01*
X29386Y514850D01*
X29386Y520993D01*
X31955Y514850D02*
X33184Y513621D01*
X35641Y513621D01*
X36870Y514850D01*
X36870Y516078D01*
X35641Y517307D01*
X33184Y517307D01*
X31955Y518536D01*
X31955Y519765D01*
X33184Y520993D01*
X35641Y520993D01*
X36870Y519765D01*
X34413Y522222D02*
X34413Y512392D01*
X39439Y518536D02*
X41897Y520993D01*
X41897Y513621D01*
X44354Y513621D02*
X39439Y513621D01*
X-11089Y57443D02*
X-11089Y51300D01*
X-9860Y50071D01*
X-7403Y50071D01*
X-6174Y51300D01*
X-6174Y57443D01*
X-3605Y51300D02*
X-2376Y50071D01*
X81Y50071D01*
X1310Y51300D01*
X1310Y52528D01*
X81Y53757D01*
X-2376Y53757D01*
X-3605Y54986D01*
X-3605Y56215D01*
X-2376Y57443D01*
X81Y57443D01*
X1310Y56215D01*
X-1147Y58672D02*
X-1147Y48842D01*
X3879Y50071D02*
X8794Y50071D01*
X3879Y50071D02*
X8794Y54986D01*
X8794Y56215D01*
X7565Y57443D01*
X5108Y57443D01*
X3879Y56215D01*
X929219Y49315D02*
X929219Y43172D01*
X930448Y41943D01*
X932905Y41943D01*
X934134Y43172D01*
X934134Y49315D01*
X936703Y43172D02*
X937932Y41943D01*
X940389Y41943D01*
X941618Y43172D01*
X941618Y44400D01*
X940389Y45629D01*
X937932Y45629D01*
X936703Y46858D01*
X936703Y48087D01*
X937932Y49315D01*
X940389Y49315D01*
X941618Y48087D01*
X939161Y50544D02*
X939161Y40714D01*
X944187Y48087D02*
X945416Y49315D01*
X947873Y49315D01*
X949102Y48087D01*
X949102Y46858D01*
X947873Y45629D01*
X946645Y45629D01*
X947873Y45629D02*
X949102Y44400D01*
X949102Y43172D01*
X947873Y41943D01*
X945416Y41943D01*
X944187Y43172D01*
D26*
X139340Y190930D02*
X139340Y250680D01*
X175540Y250680D02*
X175540Y196680D01*
D17*
X134834Y218321D02*
X129241Y218321D01*
X134834Y218321D02*
X134834Y221117D01*
X133902Y222049D01*
X130173Y222049D01*
X129241Y221117D01*
X129241Y218321D01*
X129241Y226730D02*
X134834Y226730D01*
X132038Y223934D02*
X129241Y226730D01*
X132038Y227663D02*
X132038Y223934D01*
D12*
X176611Y171672D02*
X183983Y171672D01*
X183983Y176587D01*
X176611Y182842D02*
X177839Y184071D01*
X176611Y182842D02*
X176611Y180385D01*
X177839Y179156D01*
X179068Y179156D01*
X180297Y180385D01*
X180297Y182842D01*
X181526Y184071D01*
X182754Y184071D01*
X183983Y182842D01*
X183983Y180385D01*
X182754Y179156D01*
X183983Y186640D02*
X176611Y186640D01*
X179068Y189098D01*
X176611Y191555D01*
X183983Y191555D01*
X179068Y194124D02*
X176611Y196582D01*
X183983Y196582D01*
X183983Y199039D02*
X183983Y194124D01*
X179068Y201609D02*
X176611Y204066D01*
X183983Y204066D01*
X183983Y201609D02*
X183983Y206523D01*
X176611Y209093D02*
X176611Y214008D01*
X176611Y209093D02*
X180297Y209093D01*
X179068Y211550D01*
X179068Y212779D01*
X180297Y214008D01*
X182754Y214008D01*
X183983Y212779D01*
X183983Y210321D01*
X182754Y209093D01*
X182754Y216577D02*
X183983Y217806D01*
X183983Y219034D01*
X182754Y220263D01*
X176611Y220263D01*
X176611Y219034D02*
X176611Y221492D01*
X176611Y224061D02*
X176611Y228976D01*
X176611Y224061D02*
X183983Y224061D01*
X183983Y228976D01*
X180297Y226518D02*
X180297Y224061D01*
X177839Y231545D02*
X176611Y232774D01*
X176611Y235231D01*
X177839Y236460D01*
X179068Y236460D01*
X180297Y235231D01*
X180297Y234003D01*
X180297Y235231D02*
X181526Y236460D01*
X182754Y236460D01*
X183983Y235231D01*
X183983Y232774D01*
X182754Y231545D01*
X185212Y239029D02*
X185212Y243944D01*
X183983Y248971D02*
X176611Y248971D01*
X176611Y251428D02*
X176611Y246513D01*
X176611Y253998D02*
X183983Y253998D01*
X176611Y253998D02*
X176611Y257684D01*
X177839Y258912D01*
X180297Y258912D01*
X181526Y257684D01*
X181526Y253998D01*
X181526Y256455D02*
X183983Y258912D01*
X179068Y261482D02*
X176611Y263939D01*
X183983Y263939D01*
X183983Y261482D02*
X183983Y266397D01*
X177839Y268966D02*
X176611Y270195D01*
X176611Y272652D01*
X177839Y273881D01*
X179068Y273881D01*
X180297Y272652D01*
X180297Y271423D01*
X180297Y272652D02*
X181526Y273881D01*
X182754Y273881D01*
X183983Y272652D01*
X183983Y270195D01*
X182754Y268966D01*
D26*
X185650Y41120D02*
X245400Y41120D01*
X245400Y4920D02*
X191400Y4920D01*
D12*
X181443Y18457D02*
X174071Y18457D01*
X181443Y18457D02*
X181443Y22143D01*
X180214Y23372D01*
X175299Y23372D01*
X174071Y22143D01*
X174071Y18457D01*
X174071Y25941D02*
X174071Y30856D01*
X174071Y25941D02*
X177757Y25941D01*
X176528Y28398D01*
X176528Y29627D01*
X177757Y30856D01*
X180214Y30856D01*
X181443Y29627D01*
X181443Y27170D01*
X180214Y25941D01*
X166392Y11469D02*
X166392Y4097D01*
X171307Y4097D01*
X177562Y11469D02*
X178791Y10241D01*
X177562Y11469D02*
X175105Y11469D01*
X173876Y10241D01*
X173876Y9012D01*
X175105Y7783D01*
X177562Y7783D01*
X178791Y6554D01*
X178791Y5326D01*
X177562Y4097D01*
X175105Y4097D01*
X173876Y5326D01*
X181360Y4097D02*
X181360Y11469D01*
X183818Y9012D01*
X186275Y11469D01*
X186275Y4097D01*
X188844Y9012D02*
X191302Y11469D01*
X191302Y4097D01*
X193759Y4097D02*
X188844Y4097D01*
X196329Y9012D02*
X198786Y11469D01*
X198786Y4097D01*
X196329Y4097D02*
X201243Y4097D01*
X203813Y11469D02*
X208728Y11469D01*
X203813Y11469D02*
X203813Y7783D01*
X206270Y9012D01*
X207499Y9012D01*
X208728Y7783D01*
X208728Y5326D01*
X207499Y4097D01*
X205041Y4097D01*
X203813Y5326D01*
X211297Y5326D02*
X212526Y4097D01*
X213754Y4097D01*
X214983Y5326D01*
X214983Y11469D01*
X213754Y11469D02*
X216212Y11469D01*
X218781Y11469D02*
X223696Y11469D01*
X218781Y11469D02*
X218781Y4097D01*
X223696Y4097D01*
X221238Y7783D02*
X218781Y7783D01*
X226265Y10241D02*
X227494Y11469D01*
X229951Y11469D01*
X231180Y10241D01*
X231180Y9012D01*
X229951Y7783D01*
X228723Y7783D01*
X229951Y7783D02*
X231180Y6554D01*
X231180Y5326D01*
X229951Y4097D01*
X227494Y4097D01*
X226265Y5326D01*
X233749Y2868D02*
X238664Y2868D01*
X243691Y4097D02*
X243691Y11469D01*
X246148Y11469D02*
X241233Y11469D01*
X248718Y11469D02*
X248718Y4097D01*
X248718Y11469D02*
X252404Y11469D01*
X253632Y10241D01*
X253632Y7783D01*
X252404Y6554D01*
X248718Y6554D01*
X251175Y6554D02*
X253632Y4097D01*
X256202Y9012D02*
X258659Y11469D01*
X258659Y4097D01*
X256202Y4097D02*
X261117Y4097D01*
X263686Y10241D02*
X264915Y11469D01*
X267372Y11469D01*
X268601Y10241D01*
X268601Y9012D01*
X267372Y7783D01*
X266143Y7783D01*
X267372Y7783D02*
X268601Y6554D01*
X268601Y5326D01*
X267372Y4097D01*
X264915Y4097D01*
X263686Y5326D01*
X748655Y317285D02*
X749883Y316057D01*
X748655Y317285D02*
X746197Y317285D01*
X744969Y316057D01*
X744969Y311142D01*
X746197Y309913D01*
X748655Y309913D01*
X749883Y311142D01*
X752453Y316057D02*
X753681Y317285D01*
X756139Y317285D01*
X757368Y316057D01*
X757368Y314828D01*
X756139Y313599D01*
X754910Y313599D01*
X756139Y313599D02*
X757368Y312370D01*
X757368Y311142D01*
X756139Y309913D01*
X753681Y309913D01*
X752453Y311142D01*
X759937Y317285D02*
X764852Y317285D01*
X759937Y317285D02*
X759937Y313599D01*
X762394Y314828D01*
X763623Y314828D01*
X764852Y313599D01*
X764852Y311142D01*
X763623Y309913D01*
X761166Y309913D01*
X759937Y311142D01*
X752098Y307633D02*
X749641Y305176D01*
X752098Y307633D02*
X752098Y300261D01*
X749641Y300261D02*
X754556Y300261D01*
X757125Y301490D02*
X757125Y305176D01*
X757125Y301490D02*
X758354Y300261D01*
X762040Y300261D01*
X762040Y305176D01*
X764609Y307633D02*
X764609Y300261D01*
X764609Y307633D02*
X769524Y307633D01*
X767067Y303947D02*
X764609Y303947D01*
X610183Y316057D02*
X608955Y317285D01*
X606497Y317285D01*
X605269Y316057D01*
X605269Y311142D01*
X606497Y309913D01*
X608955Y309913D01*
X610183Y311142D01*
X612753Y316057D02*
X613981Y317285D01*
X616439Y317285D01*
X617668Y316057D01*
X617668Y314828D01*
X616439Y313599D01*
X615210Y313599D01*
X616439Y313599D02*
X617668Y312370D01*
X617668Y311142D01*
X616439Y309913D01*
X613981Y309913D01*
X612753Y311142D01*
X622694Y316057D02*
X625152Y317285D01*
X622694Y316057D02*
X620237Y313599D01*
X620237Y311142D01*
X621466Y309913D01*
X623923Y309913D01*
X625152Y311142D01*
X625152Y312370D01*
X623923Y313599D01*
X620237Y313599D01*
X609858Y307633D02*
X607401Y305176D01*
X609858Y307633D02*
X609858Y300261D01*
X607401Y300261D02*
X612316Y300261D01*
X614885Y301490D02*
X614885Y305176D01*
X614885Y301490D02*
X616114Y300261D01*
X619800Y300261D01*
X619800Y305176D01*
X622369Y307633D02*
X622369Y300261D01*
X622369Y307633D02*
X627284Y307633D01*
X624827Y303947D02*
X622369Y303947D01*
X751195Y380785D02*
X752423Y379557D01*
X751195Y380785D02*
X748737Y380785D01*
X747509Y379557D01*
X747509Y374642D01*
X748737Y373413D01*
X751195Y373413D01*
X752423Y374642D01*
X754993Y379557D02*
X756221Y380785D01*
X758679Y380785D01*
X759908Y379557D01*
X759908Y378328D01*
X758679Y377099D01*
X757450Y377099D01*
X758679Y377099D02*
X759908Y375870D01*
X759908Y374642D01*
X758679Y373413D01*
X756221Y373413D01*
X754993Y374642D01*
X762477Y380785D02*
X767392Y380785D01*
X767392Y379557D01*
X762477Y374642D01*
X762477Y373413D01*
X749966Y370625D02*
X747509Y368168D01*
X749966Y370625D02*
X749966Y363253D01*
X747509Y363253D02*
X752423Y363253D01*
X754993Y364482D02*
X754993Y368168D01*
X754993Y364482D02*
X756221Y363253D01*
X759908Y363253D01*
X759908Y368168D01*
X762477Y370625D02*
X762477Y363253D01*
X762477Y370625D02*
X767392Y370625D01*
X764934Y366939D02*
X762477Y366939D01*
X607643Y387177D02*
X606415Y388405D01*
X603957Y388405D01*
X602729Y387177D01*
X602729Y382262D01*
X603957Y381033D01*
X606415Y381033D01*
X607643Y382262D01*
X610213Y387177D02*
X611441Y388405D01*
X613899Y388405D01*
X615128Y387177D01*
X615128Y385948D01*
X613899Y384719D01*
X612670Y384719D01*
X613899Y384719D02*
X615128Y383490D01*
X615128Y382262D01*
X613899Y381033D01*
X611441Y381033D01*
X610213Y382262D01*
X617697Y387177D02*
X618926Y388405D01*
X621383Y388405D01*
X622612Y387177D01*
X622612Y385948D01*
X621383Y384719D01*
X622612Y383490D01*
X622612Y382262D01*
X621383Y381033D01*
X618926Y381033D01*
X617697Y382262D01*
X617697Y383490D01*
X618926Y384719D01*
X617697Y385948D01*
X617697Y387177D01*
X618926Y384719D02*
X621383Y384719D01*
X605186Y375705D02*
X602729Y373248D01*
X605186Y375705D02*
X605186Y368333D01*
X602729Y368333D02*
X607643Y368333D01*
X610213Y369562D02*
X610213Y373248D01*
X610213Y369562D02*
X611441Y368333D01*
X615128Y368333D01*
X615128Y373248D01*
X617697Y375705D02*
X617697Y368333D01*
X617697Y375705D02*
X622612Y375705D01*
X620154Y372019D02*
X617697Y372019D01*
X422063Y398747D02*
X420835Y399975D01*
X418377Y399975D01*
X417149Y398747D01*
X417149Y393832D01*
X418377Y392603D01*
X420835Y392603D01*
X422063Y393832D01*
X424633Y398747D02*
X425861Y399975D01*
X428319Y399975D01*
X429548Y398747D01*
X429548Y397518D01*
X428319Y396289D01*
X427090Y396289D01*
X428319Y396289D02*
X429548Y395060D01*
X429548Y393832D01*
X428319Y392603D01*
X425861Y392603D01*
X424633Y393832D01*
X432117Y393832D02*
X433346Y392603D01*
X435803Y392603D01*
X437032Y393832D01*
X437032Y398747D01*
X435803Y399975D01*
X433346Y399975D01*
X432117Y398747D01*
X432117Y397518D01*
X433346Y396289D01*
X437032Y396289D01*
X441075Y369278D02*
X443532Y366820D01*
X441075Y369278D02*
X448447Y369278D01*
X448447Y371735D02*
X448447Y366820D01*
X447218Y374304D02*
X442303Y374304D01*
X441075Y375533D01*
X441075Y377991D01*
X442303Y379219D01*
X447218Y379219D01*
X448447Y377991D01*
X448447Y375533D01*
X447218Y374304D01*
X442303Y379219D01*
X442303Y381789D02*
X447218Y381789D01*
X442303Y381789D02*
X441075Y383017D01*
X441075Y385475D01*
X442303Y386703D01*
X447218Y386703D01*
X448447Y385475D01*
X448447Y383017D01*
X447218Y381789D01*
X442303Y386703D01*
X443532Y389273D02*
X448447Y389273D01*
X443532Y389273D02*
X443532Y392959D01*
X444761Y394188D01*
X448447Y394188D01*
X448447Y396757D02*
X441075Y396757D01*
X441075Y401672D01*
X444761Y399214D02*
X444761Y396757D01*
X578315Y397435D02*
X579543Y396207D01*
X578315Y397435D02*
X575857Y397435D01*
X574629Y396207D01*
X574629Y391292D01*
X575857Y390063D01*
X578315Y390063D01*
X579543Y391292D01*
X585799Y390063D02*
X585799Y397435D01*
X582113Y393749D01*
X587028Y393749D01*
X589597Y391292D02*
X589597Y396207D01*
X590826Y397435D01*
X593283Y397435D01*
X594512Y396207D01*
X594512Y391292D01*
X593283Y390063D01*
X590826Y390063D01*
X589597Y391292D01*
X594512Y396207D01*
X596015Y364198D02*
X598472Y361740D01*
X596015Y364198D02*
X603387Y364198D01*
X603387Y366655D02*
X603387Y361740D01*
X602158Y369224D02*
X597243Y369224D01*
X596015Y370453D01*
X596015Y372911D01*
X597243Y374139D01*
X602158Y374139D01*
X603387Y372911D01*
X603387Y370453D01*
X602158Y369224D01*
X597243Y374139D01*
X597243Y376709D02*
X602158Y376709D01*
X597243Y376709D02*
X596015Y377937D01*
X596015Y380395D01*
X597243Y381623D01*
X602158Y381623D01*
X603387Y380395D01*
X603387Y377937D01*
X602158Y376709D01*
X597243Y381623D01*
X598472Y384193D02*
X603387Y384193D01*
X598472Y384193D02*
X598472Y387879D01*
X599701Y389108D01*
X603387Y389108D01*
X603387Y391677D02*
X596015Y391677D01*
X596015Y396592D01*
X599701Y394134D02*
X599701Y391677D01*
D26*
X603480Y490140D02*
X603482Y490184D01*
X603488Y490228D01*
X603498Y490271D01*
X603511Y490313D01*
X603528Y490354D01*
X603549Y490393D01*
X603573Y490430D01*
X603600Y490465D01*
X603630Y490497D01*
X603663Y490527D01*
X603699Y490553D01*
X603736Y490577D01*
X603776Y490596D01*
X603817Y490613D01*
X603860Y490625D01*
X603903Y490634D01*
X603947Y490639D01*
X603991Y490640D01*
X604035Y490637D01*
X604079Y490630D01*
X604122Y490619D01*
X604164Y490605D01*
X604204Y490587D01*
X604243Y490565D01*
X604279Y490541D01*
X604313Y490513D01*
X604345Y490482D01*
X604374Y490448D01*
X604400Y490412D01*
X604422Y490374D01*
X604441Y490334D01*
X604456Y490292D01*
X604468Y490250D01*
X604476Y490206D01*
X604480Y490162D01*
X604480Y490118D01*
X604476Y490074D01*
X604468Y490030D01*
X604456Y489988D01*
X604441Y489946D01*
X604422Y489906D01*
X604400Y489868D01*
X604374Y489832D01*
X604345Y489798D01*
X604313Y489767D01*
X604279Y489739D01*
X604243Y489715D01*
X604204Y489693D01*
X604164Y489675D01*
X604122Y489661D01*
X604079Y489650D01*
X604035Y489643D01*
X603991Y489640D01*
X603947Y489641D01*
X603903Y489646D01*
X603860Y489655D01*
X603817Y489667D01*
X603776Y489684D01*
X603736Y489703D01*
X603699Y489727D01*
X603663Y489753D01*
X603630Y489783D01*
X603600Y489815D01*
X603573Y489850D01*
X603549Y489887D01*
X603528Y489926D01*
X603511Y489967D01*
X603498Y490009D01*
X603488Y490052D01*
X603482Y490096D01*
X603480Y490140D01*
D10*
X601940Y462440D02*
X614640Y462440D01*
X619720Y462440D02*
X632420Y462440D01*
D17*
X638153Y472346D02*
X637221Y473278D01*
X638153Y472346D02*
X639085Y472346D01*
X640017Y473278D01*
X640017Y477939D01*
X639085Y477939D02*
X640949Y477939D01*
X642834Y477939D02*
X646563Y477939D01*
X642834Y477939D02*
X642834Y475142D01*
X644698Y476075D01*
X645630Y476075D01*
X646563Y475142D01*
X646563Y473278D01*
X645630Y472346D01*
X643766Y472346D01*
X642834Y473278D01*
D26*
X603480Y452040D02*
X603482Y452084D01*
X603488Y452128D01*
X603498Y452171D01*
X603511Y452213D01*
X603528Y452254D01*
X603549Y452293D01*
X603573Y452330D01*
X603600Y452365D01*
X603630Y452397D01*
X603663Y452427D01*
X603699Y452453D01*
X603736Y452477D01*
X603776Y452496D01*
X603817Y452513D01*
X603860Y452525D01*
X603903Y452534D01*
X603947Y452539D01*
X603991Y452540D01*
X604035Y452537D01*
X604079Y452530D01*
X604122Y452519D01*
X604164Y452505D01*
X604204Y452487D01*
X604243Y452465D01*
X604279Y452441D01*
X604313Y452413D01*
X604345Y452382D01*
X604374Y452348D01*
X604400Y452312D01*
X604422Y452274D01*
X604441Y452234D01*
X604456Y452192D01*
X604468Y452150D01*
X604476Y452106D01*
X604480Y452062D01*
X604480Y452018D01*
X604476Y451974D01*
X604468Y451930D01*
X604456Y451888D01*
X604441Y451846D01*
X604422Y451806D01*
X604400Y451768D01*
X604374Y451732D01*
X604345Y451698D01*
X604313Y451667D01*
X604279Y451639D01*
X604243Y451615D01*
X604204Y451593D01*
X604164Y451575D01*
X604122Y451561D01*
X604079Y451550D01*
X604035Y451543D01*
X603991Y451540D01*
X603947Y451541D01*
X603903Y451546D01*
X603860Y451555D01*
X603817Y451567D01*
X603776Y451584D01*
X603736Y451603D01*
X603699Y451627D01*
X603663Y451653D01*
X603630Y451683D01*
X603600Y451715D01*
X603573Y451750D01*
X603549Y451787D01*
X603528Y451826D01*
X603511Y451867D01*
X603498Y451909D01*
X603488Y451952D01*
X603482Y451996D01*
X603480Y452040D01*
D10*
X601940Y424340D02*
X614640Y424340D01*
X619720Y424340D02*
X632420Y424340D01*
D17*
X638153Y434246D02*
X637221Y435178D01*
X638153Y434246D02*
X639085Y434246D01*
X640017Y435178D01*
X640017Y439839D01*
X639085Y439839D02*
X640949Y439839D01*
X644698Y438907D02*
X646563Y439839D01*
X644698Y438907D02*
X642834Y437042D01*
X642834Y435178D01*
X643766Y434246D01*
X645630Y434246D01*
X646563Y435178D01*
X646563Y436110D01*
X645630Y437042D01*
X642834Y437042D01*
D15*
X-20Y459900D02*
X-20Y332900D01*
X-20Y459900D02*
X65980Y459900D01*
X65980Y332900D01*
X-20Y332900D01*
X30250Y319260D02*
X30252Y319340D01*
X30258Y319421D01*
X30268Y319501D01*
X30282Y319580D01*
X30299Y319658D01*
X30321Y319736D01*
X30346Y319812D01*
X30375Y319888D01*
X30407Y319961D01*
X30444Y320033D01*
X30483Y320103D01*
X30526Y320171D01*
X30573Y320237D01*
X30622Y320300D01*
X30675Y320361D01*
X30730Y320420D01*
X30789Y320475D01*
X30850Y320528D01*
X30913Y320577D01*
X30979Y320624D01*
X31047Y320667D01*
X31117Y320706D01*
X31189Y320743D01*
X31262Y320775D01*
X31338Y320804D01*
X31414Y320829D01*
X31492Y320851D01*
X31570Y320868D01*
X31649Y320882D01*
X31729Y320892D01*
X31810Y320898D01*
X31890Y320900D01*
X31970Y320898D01*
X32051Y320892D01*
X32131Y320882D01*
X32210Y320868D01*
X32288Y320851D01*
X32366Y320829D01*
X32442Y320804D01*
X32518Y320775D01*
X32591Y320743D01*
X32663Y320706D01*
X32733Y320667D01*
X32801Y320624D01*
X32867Y320577D01*
X32930Y320528D01*
X32991Y320475D01*
X33050Y320420D01*
X33105Y320361D01*
X33158Y320300D01*
X33207Y320237D01*
X33254Y320171D01*
X33297Y320103D01*
X33336Y320033D01*
X33373Y319961D01*
X33405Y319888D01*
X33434Y319812D01*
X33459Y319736D01*
X33481Y319658D01*
X33498Y319580D01*
X33512Y319501D01*
X33522Y319421D01*
X33528Y319340D01*
X33530Y319260D01*
X33528Y319180D01*
X33522Y319099D01*
X33512Y319019D01*
X33498Y318940D01*
X33481Y318862D01*
X33459Y318784D01*
X33434Y318708D01*
X33405Y318632D01*
X33373Y318559D01*
X33336Y318487D01*
X33297Y318417D01*
X33254Y318349D01*
X33207Y318283D01*
X33158Y318220D01*
X33105Y318159D01*
X33050Y318100D01*
X32991Y318045D01*
X32930Y317992D01*
X32867Y317943D01*
X32801Y317896D01*
X32733Y317853D01*
X32663Y317814D01*
X32591Y317777D01*
X32518Y317745D01*
X32442Y317716D01*
X32366Y317691D01*
X32288Y317669D01*
X32210Y317652D01*
X32131Y317638D01*
X32051Y317628D01*
X31970Y317622D01*
X31890Y317620D01*
X31810Y317622D01*
X31729Y317628D01*
X31649Y317638D01*
X31570Y317652D01*
X31492Y317669D01*
X31414Y317691D01*
X31338Y317716D01*
X31262Y317745D01*
X31189Y317777D01*
X31117Y317814D01*
X31047Y317853D01*
X30979Y317896D01*
X30913Y317943D01*
X30850Y317992D01*
X30789Y318045D01*
X30730Y318100D01*
X30675Y318159D01*
X30622Y318220D01*
X30573Y318283D01*
X30526Y318349D01*
X30483Y318417D01*
X30444Y318487D01*
X30407Y318559D01*
X30375Y318632D01*
X30346Y318708D01*
X30321Y318784D01*
X30299Y318862D01*
X30282Y318940D01*
X30268Y319019D01*
X30258Y319099D01*
X30252Y319180D01*
X30250Y319260D01*
D12*
X70142Y459951D02*
X68913Y461179D01*
X66456Y461179D01*
X65227Y459951D01*
X65227Y458722D01*
X66456Y457493D01*
X68913Y457493D01*
X70142Y456264D01*
X70142Y455036D01*
X68913Y453807D01*
X66456Y453807D01*
X65227Y455036D01*
X72711Y459951D02*
X73940Y461179D01*
X76397Y461179D01*
X77626Y459951D01*
X77626Y458722D01*
X76397Y457493D01*
X75168Y457493D01*
X76397Y457493D02*
X77626Y456264D01*
X77626Y455036D01*
X76397Y453807D01*
X73940Y453807D01*
X72711Y455036D01*
X960461Y513621D02*
X960461Y520993D01*
X964147Y520993D01*
X965376Y519765D01*
X965376Y517307D01*
X964147Y516078D01*
X960461Y516078D01*
X962918Y516078D02*
X965376Y513621D01*
X967945Y519765D02*
X969174Y520993D01*
X971631Y520993D01*
X972860Y519765D01*
X972860Y518536D01*
X971631Y517307D01*
X970403Y517307D01*
X971631Y517307D02*
X972860Y516078D01*
X972860Y514850D01*
X971631Y513621D01*
X969174Y513621D01*
X967945Y514850D01*
X979115Y513621D02*
X979115Y520993D01*
X975429Y517307D01*
X980344Y517307D01*
X955759Y485173D02*
X950844Y485173D01*
X955759Y490088D01*
X955759Y491317D01*
X954531Y492545D01*
X952073Y492545D01*
X950844Y491317D01*
X958329Y485173D02*
X963243Y485173D01*
X958329Y485173D02*
X963243Y490088D01*
X963243Y491317D01*
X962015Y492545D01*
X959557Y492545D01*
X958329Y491317D01*
X965813Y491317D02*
X965813Y486402D01*
X965813Y491317D02*
X967041Y492545D01*
X969499Y492545D01*
X970728Y491317D01*
X970728Y486402D01*
X969499Y485173D01*
X967041Y485173D01*
X965813Y486402D01*
X970728Y491317D01*
X973297Y492545D02*
X978212Y492545D01*
X973297Y492545D02*
X973297Y485173D01*
X978212Y485173D01*
X975754Y488859D02*
X973297Y488859D01*
D26*
X836580Y471960D02*
X829580Y471960D01*
X836580Y471960D02*
X836580Y442760D01*
X829580Y442760D01*
X829580Y471960D01*
X826080Y472860D02*
X816080Y472860D01*
D12*
X838677Y447121D02*
X838677Y442206D01*
X838677Y447121D02*
X839906Y448349D01*
X842363Y448349D01*
X843592Y447121D01*
X843592Y442206D01*
X842363Y440977D01*
X839906Y440977D01*
X838677Y442206D01*
X841134Y443434D02*
X843592Y440977D01*
X846161Y447121D02*
X847390Y448349D01*
X849847Y448349D01*
X851076Y447121D01*
X851076Y445892D01*
X849847Y444663D01*
X851076Y443434D01*
X851076Y442206D01*
X849847Y440977D01*
X847390Y440977D01*
X846161Y442206D01*
X846161Y443434D01*
X847390Y444663D01*
X846161Y445892D01*
X846161Y447121D01*
X847390Y444663D02*
X849847Y444663D01*
D28*
X875270Y473590D02*
X973770Y473590D01*
X973770Y375090D01*
X875270Y375090D01*
X875270Y473590D01*
D29*
X949520Y368340D03*
D26*
X949522Y368278D01*
X949528Y368217D01*
X949537Y368156D01*
X949550Y368096D01*
X949567Y368037D01*
X949588Y367979D01*
X949612Y367922D01*
X949639Y367867D01*
X949670Y367814D01*
X949704Y367762D01*
X949741Y367713D01*
X949781Y367666D01*
X949824Y367622D01*
X949869Y367581D01*
X949917Y367542D01*
X949968Y367506D01*
X950020Y367474D01*
X950074Y367445D01*
X950130Y367419D01*
X950188Y367397D01*
X950246Y367378D01*
X950306Y367363D01*
X950367Y367352D01*
X950428Y367344D01*
X950489Y367340D01*
X950551Y367340D01*
X950612Y367344D01*
X950673Y367352D01*
X950734Y367363D01*
X950794Y367378D01*
X950852Y367397D01*
X950910Y367419D01*
X950966Y367445D01*
X951020Y367474D01*
X951072Y367506D01*
X951123Y367542D01*
X951171Y367581D01*
X951216Y367622D01*
X951259Y367666D01*
X951299Y367713D01*
X951336Y367762D01*
X951370Y367814D01*
X951401Y367867D01*
X951428Y367922D01*
X951452Y367979D01*
X951473Y368037D01*
X951490Y368096D01*
X951503Y368156D01*
X951512Y368217D01*
X951518Y368278D01*
X951520Y368340D01*
D29*
X951520Y368340D03*
D26*
X951518Y368402D01*
X951512Y368463D01*
X951503Y368524D01*
X951490Y368584D01*
X951473Y368643D01*
X951452Y368701D01*
X951428Y368758D01*
X951401Y368813D01*
X951370Y368866D01*
X951336Y368918D01*
X951299Y368967D01*
X951259Y369014D01*
X951216Y369058D01*
X951171Y369099D01*
X951123Y369138D01*
X951072Y369174D01*
X951020Y369206D01*
X950966Y369235D01*
X950910Y369261D01*
X950852Y369283D01*
X950794Y369302D01*
X950734Y369317D01*
X950673Y369328D01*
X950612Y369336D01*
X950551Y369340D01*
X950489Y369340D01*
X950428Y369336D01*
X950367Y369328D01*
X950306Y369317D01*
X950246Y369302D01*
X950188Y369283D01*
X950130Y369261D01*
X950074Y369235D01*
X950020Y369206D01*
X949968Y369174D01*
X949917Y369138D01*
X949869Y369099D01*
X949824Y369058D01*
X949781Y369014D01*
X949741Y368967D01*
X949704Y368918D01*
X949670Y368866D01*
X949639Y368813D01*
X949612Y368758D01*
X949588Y368701D01*
X949567Y368643D01*
X949550Y368584D01*
X949537Y368524D01*
X949528Y368463D01*
X949522Y368402D01*
X949520Y368340D01*
D11*
X921130Y424363D02*
X919181Y426312D01*
X915283Y426312D01*
X913334Y424363D01*
X913334Y422414D01*
X915283Y420465D01*
X919181Y420465D01*
X921130Y418516D01*
X921130Y416567D01*
X919181Y414618D01*
X915283Y414618D01*
X913334Y416567D01*
X925028Y414618D02*
X932824Y414618D01*
X925028Y414618D02*
X932824Y422414D01*
X932824Y424363D01*
X930875Y426312D01*
X926977Y426312D01*
X925028Y424363D01*
X877278Y426312D02*
X875329Y424363D01*
X877278Y426312D02*
X881176Y426312D01*
X883125Y424363D01*
X883125Y422414D01*
X881176Y420465D01*
X879227Y420465D01*
X881176Y420465D02*
X883125Y418516D01*
X883125Y416567D01*
X881176Y414618D01*
X877278Y414618D01*
X875329Y416567D01*
X887023Y416567D02*
X887023Y424363D01*
X888971Y426312D01*
X892869Y426312D01*
X894818Y424363D01*
X894818Y416567D01*
X892869Y414618D01*
X888971Y414618D01*
X887023Y416567D01*
X894818Y424363D01*
X898716Y424363D02*
X898716Y416567D01*
X898716Y424363D02*
X900665Y426312D01*
X904563Y426312D01*
X906512Y424363D01*
X906512Y416567D01*
X904563Y414618D01*
X900665Y414618D01*
X898716Y416567D01*
X906512Y424363D01*
X914308Y424363D02*
X918206Y426312D01*
X914308Y424363D02*
X910410Y420465D01*
X910410Y416567D01*
X912359Y414618D01*
X916257Y414618D01*
X918206Y416567D01*
X918206Y418516D01*
X916257Y420465D01*
X910410Y420465D01*
X922104Y416567D02*
X922104Y414618D01*
X922104Y416567D02*
X924053Y416567D01*
X924053Y414618D01*
X922104Y414618D01*
X927951Y414618D02*
X935747Y414618D01*
X927951Y414618D02*
X935747Y422414D01*
X935747Y424363D01*
X933798Y426312D01*
X929900Y426312D01*
X927951Y424363D01*
X939645Y422414D02*
X943543Y426312D01*
X943543Y414618D01*
X939645Y414618D02*
X947441Y414618D01*
X951339Y422414D02*
X955237Y426312D01*
X955237Y414618D01*
X951339Y414618D02*
X959135Y414618D01*
X963033Y426312D02*
X970829Y426312D01*
X963033Y426312D02*
X963033Y420465D01*
X966931Y422414D01*
X968880Y422414D01*
X970829Y420465D01*
X970829Y416567D01*
X968880Y414618D01*
X964982Y414618D01*
X963033Y416567D01*
D26*
X489800Y427640D02*
X489800Y389390D01*
X505800Y395640D02*
X505800Y427640D01*
D12*
X480099Y390470D02*
X478871Y389241D01*
X478871Y386783D01*
X480099Y385555D01*
X485014Y385555D01*
X486243Y386783D01*
X486243Y389241D01*
X485014Y390470D01*
X481328Y393039D02*
X478871Y395496D01*
X486243Y395496D01*
X486243Y393039D02*
X486243Y397954D01*
X478871Y400523D02*
X478871Y405438D01*
X480099Y405438D01*
X485014Y400523D01*
X486243Y400523D01*
D26*
X528660Y395640D02*
X528660Y433890D01*
X512660Y427640D02*
X512660Y395640D01*
D12*
X532211Y417181D02*
X533439Y418410D01*
X532211Y417181D02*
X532211Y414723D01*
X533439Y413495D01*
X538354Y413495D01*
X539583Y414723D01*
X539583Y417181D01*
X538354Y418410D01*
X534668Y420979D02*
X532211Y423436D01*
X539583Y423436D01*
X539583Y420979D02*
X539583Y425894D01*
X533439Y428463D02*
X532211Y429692D01*
X532211Y432149D01*
X533439Y433378D01*
X534668Y433378D01*
X535897Y432149D01*
X537126Y433378D01*
X538354Y433378D01*
X539583Y432149D01*
X539583Y429692D01*
X538354Y428463D01*
X537126Y428463D01*
X535897Y429692D01*
X534668Y428463D01*
X533439Y428463D01*
X535897Y429692D02*
X535897Y432149D01*
D28*
X117196Y130758D02*
X117196Y115758D01*
X117196Y130758D02*
X-34804Y130758D01*
X-34804Y40758D01*
X45196Y40758D01*
D11*
X41709Y65666D02*
X39760Y67615D01*
X41709Y65666D02*
X43658Y65666D01*
X45607Y67615D01*
X45607Y77360D01*
X43658Y77360D02*
X47556Y77360D01*
X51454Y77360D02*
X59250Y77360D01*
X59250Y75411D01*
X51454Y67615D01*
X51454Y65666D01*
X-16761Y75411D02*
X-18710Y77360D01*
X-22608Y77360D01*
X-24557Y75411D01*
X-24557Y67615D01*
X-22608Y65666D01*
X-18710Y65666D01*
X-16761Y67615D01*
X-10914Y77360D02*
X-7016Y77360D01*
X-10914Y77360D02*
X-12863Y75411D01*
X-12863Y67615D01*
X-10914Y65666D01*
X-7016Y65666D01*
X-5067Y67615D01*
X-5067Y75411D01*
X-7016Y77360D01*
X-1169Y77360D02*
X-1169Y65666D01*
X6627Y65666D02*
X-1169Y77360D01*
X6627Y77360D02*
X6627Y65666D01*
X10525Y71513D02*
X18321Y71513D01*
X28066Y77360D02*
X30015Y75411D01*
X28066Y77360D02*
X24168Y77360D01*
X22219Y75411D01*
X22219Y73462D01*
X24168Y71513D01*
X28066Y71513D01*
X30015Y69564D01*
X30015Y67615D01*
X28066Y65666D01*
X24168Y65666D01*
X22219Y67615D01*
X35862Y77360D02*
X39760Y77360D01*
X35862Y77360D02*
X33913Y75411D01*
X33913Y67615D01*
X35862Y65666D01*
X39760Y65666D01*
X41709Y67615D01*
X41709Y75411D01*
X39760Y77360D01*
X51454Y77360D02*
X53403Y75411D01*
X51454Y77360D02*
X47556Y77360D01*
X45607Y75411D01*
X45607Y67615D01*
X47556Y65666D01*
X51454Y65666D01*
X53403Y67615D01*
X57301Y67615D02*
X59250Y65666D01*
X61199Y65666D01*
X63148Y67615D01*
X63148Y77360D01*
X61199Y77360D02*
X65097Y77360D01*
X68995Y71513D02*
X76791Y71513D01*
X80689Y65666D02*
X88485Y65666D01*
X80689Y65666D02*
X88485Y73462D01*
X88485Y75411D01*
X86536Y77360D01*
X82638Y77360D01*
X80689Y75411D01*
X92383Y73462D02*
X96281Y77360D01*
X96281Y65666D01*
X92383Y65666D02*
X100179Y65666D01*
X104077Y77360D02*
X111873Y77360D01*
X104077Y77360D02*
X104077Y71513D01*
X107975Y73462D01*
X109924Y73462D01*
X111873Y71513D01*
X111873Y67615D01*
X109924Y65666D01*
X106026Y65666D01*
X104077Y67615D01*
X115771Y77360D02*
X123567Y77360D01*
X115771Y77360D02*
X115771Y71513D01*
X119669Y73462D01*
X121618Y73462D01*
X123567Y71513D01*
X123567Y67615D01*
X121618Y65666D01*
X117720Y65666D01*
X115771Y67615D01*
D13*
X563840Y469806D02*
X579588Y469806D01*
X579588Y488094D02*
X563840Y488094D01*
D27*
X577937Y488221D02*
X577937Y492034D01*
X577937Y488221D02*
X580479Y488221D01*
X581679Y492034D02*
X584221Y492034D01*
X581679Y492034D02*
X581679Y488221D01*
X584221Y488221D01*
X582950Y490128D02*
X581679Y490128D01*
X585421Y492034D02*
X585421Y488221D01*
X587328Y488221D01*
X587963Y488857D01*
X587963Y491399D01*
X587328Y492034D01*
X585421Y492034D01*
X589163Y491399D02*
X589799Y492034D01*
X591070Y492034D01*
X591705Y491399D01*
X591705Y490763D01*
X591070Y490128D01*
X590434Y490128D01*
X591070Y490128D02*
X591705Y489492D01*
X591705Y488857D01*
X591070Y488221D01*
X589799Y488221D01*
X589163Y488857D01*
D13*
X582128Y414688D02*
X566380Y414688D01*
X566380Y432976D02*
X582128Y432976D01*
D27*
X554315Y432849D02*
X554315Y438696D01*
X554315Y432849D02*
X558213Y432849D01*
X559928Y438696D02*
X563826Y438696D01*
X559928Y438696D02*
X559928Y432849D01*
X563826Y432849D01*
X561877Y435772D02*
X559928Y435772D01*
X565541Y438696D02*
X565541Y432849D01*
X568465Y432849D01*
X569439Y433823D01*
X569439Y437721D01*
X568465Y438696D01*
X565541Y438696D01*
X574078Y438696D02*
X574078Y432849D01*
X571154Y435772D02*
X574078Y438696D01*
X575052Y435772D02*
X571154Y435772D01*
D30*
X290065Y421055D03*
X290065Y407305D03*
D20*
X286190Y414180D03*
D30*
X294055Y386985D03*
X294055Y400735D03*
D20*
X297930Y393860D03*
D17*
X232295Y393611D02*
X232295Y388018D01*
X232295Y393611D02*
X235091Y393611D01*
X236023Y392679D01*
X236023Y390814D01*
X235091Y389882D01*
X232295Y389882D01*
X234159Y389882D02*
X236023Y388018D01*
X237908Y388018D02*
X241636Y388018D01*
X237908Y388018D02*
X241636Y391747D01*
X241636Y392679D01*
X240704Y393611D01*
X238840Y393611D01*
X237908Y392679D01*
X245385Y392679D02*
X247249Y393611D01*
X245385Y392679D02*
X243521Y390814D01*
X243521Y388950D01*
X244453Y388018D01*
X246317Y388018D01*
X247249Y388950D01*
X247249Y389882D01*
X246317Y390814D01*
X243521Y390814D01*
X327874Y396654D02*
X327874Y402247D01*
X330670Y402247D01*
X331603Y401315D01*
X331603Y399450D01*
X330670Y398518D01*
X327874Y398518D01*
X329738Y398518D02*
X331603Y396654D01*
X333487Y396654D02*
X337216Y396654D01*
X333487Y396654D02*
X337216Y400383D01*
X337216Y401315D01*
X336283Y402247D01*
X334419Y402247D01*
X333487Y401315D01*
X339100Y402247D02*
X342829Y402247D01*
X342829Y401315D01*
X339100Y397586D01*
X339100Y396654D01*
X294796Y279311D02*
X294796Y275582D01*
X296661Y273718D01*
X298525Y275582D01*
X298525Y279311D01*
X303206Y279311D02*
X304138Y278379D01*
X303206Y279311D02*
X301342Y279311D01*
X300409Y278379D01*
X300409Y277447D01*
X301342Y276514D01*
X303206Y276514D01*
X304138Y275582D01*
X304138Y274650D01*
X303206Y273718D01*
X301342Y273718D01*
X300409Y274650D01*
X307887Y273718D02*
X307887Y279311D01*
X306023Y279311D02*
X309751Y279311D01*
X311636Y273718D02*
X313500Y273718D01*
X312568Y273718D02*
X312568Y279311D01*
X311636Y279311D02*
X313500Y279311D01*
X315378Y279311D02*
X315378Y273718D01*
X317242Y277447D02*
X315378Y279311D01*
X317242Y277447D02*
X319106Y279311D01*
X319106Y273718D01*
X320991Y277447D02*
X322855Y279311D01*
X322855Y273718D01*
X320991Y273718D02*
X324719Y273718D01*
D31*
X306115Y259494D02*
X306115Y259240D01*
X306030Y259494D02*
X306199Y259494D01*
X306264Y259494D02*
X306264Y259240D01*
X306264Y259494D02*
X306391Y259494D01*
X306433Y259452D01*
X306433Y259367D01*
X306391Y259325D01*
X306264Y259325D01*
X306582Y259240D02*
X306582Y259494D01*
X306498Y259494D02*
X306667Y259494D01*
X306732Y259494D02*
X306732Y259240D01*
X306732Y259494D02*
X306859Y259494D01*
X306901Y259452D01*
X306901Y259367D01*
X306859Y259325D01*
X306732Y259325D01*
X306966Y259282D02*
X306966Y259452D01*
X307008Y259494D01*
X307093Y259494D01*
X307135Y259452D01*
X307135Y259282D01*
X307093Y259240D01*
X307008Y259240D01*
X306966Y259282D01*
X307135Y259452D01*
X307199Y259452D02*
X307242Y259494D01*
X307326Y259494D01*
X307369Y259452D01*
X307369Y259409D01*
X307326Y259367D01*
X307369Y259325D01*
X307369Y259282D01*
X307326Y259240D01*
X307242Y259240D01*
X307199Y259282D01*
X307199Y259325D01*
X307242Y259367D01*
X307199Y259409D01*
X307199Y259452D01*
X307242Y259367D02*
X307326Y259367D01*
X307433Y259240D02*
X307433Y259494D01*
X307560Y259494D01*
X307603Y259452D01*
X307603Y259367D01*
X307560Y259325D01*
X307433Y259325D01*
X307518Y259325D02*
X307603Y259240D01*
D17*
X452276Y270502D02*
X452276Y274231D01*
X452276Y270502D02*
X454141Y268638D01*
X456005Y270502D01*
X456005Y274231D01*
X460686Y274231D02*
X461618Y273299D01*
X460686Y274231D02*
X458822Y274231D01*
X457889Y273299D01*
X457889Y272367D01*
X458822Y271434D01*
X460686Y271434D01*
X461618Y270502D01*
X461618Y269570D01*
X460686Y268638D01*
X458822Y268638D01*
X457889Y269570D01*
X465367Y268638D02*
X465367Y274231D01*
X463503Y274231D02*
X467231Y274231D01*
X469116Y268638D02*
X470980Y268638D01*
X470048Y268638D02*
X470048Y274231D01*
X469116Y274231D02*
X470980Y274231D01*
X472858Y274231D02*
X472858Y268638D01*
X474722Y272367D02*
X472858Y274231D01*
X474722Y272367D02*
X476586Y274231D01*
X476586Y268638D01*
X478471Y268638D02*
X482199Y268638D01*
X478471Y268638D02*
X482199Y272367D01*
X482199Y273299D01*
X481267Y274231D01*
X479403Y274231D01*
X478471Y273299D01*
D31*
X472118Y269400D02*
X472118Y269146D01*
X472033Y269400D02*
X472202Y269400D01*
X472267Y269400D02*
X472267Y269146D01*
X472267Y269400D02*
X472394Y269400D01*
X472436Y269358D01*
X472436Y269273D01*
X472394Y269231D01*
X472267Y269231D01*
X472585Y269146D02*
X472585Y269400D01*
X472501Y269400D02*
X472670Y269400D01*
X472734Y269400D02*
X472734Y269146D01*
X472734Y269400D02*
X472862Y269400D01*
X472904Y269358D01*
X472904Y269273D01*
X472862Y269231D01*
X472734Y269231D01*
X472968Y269188D02*
X472968Y269358D01*
X473011Y269400D01*
X473095Y269400D01*
X473138Y269358D01*
X473138Y269188D01*
X473095Y269146D01*
X473011Y269146D01*
X472968Y269188D01*
X473138Y269358D01*
X473202Y269358D02*
X473245Y269400D01*
X473329Y269400D01*
X473372Y269358D01*
X473372Y269315D01*
X473329Y269273D01*
X473372Y269231D01*
X473372Y269188D01*
X473329Y269146D01*
X473245Y269146D01*
X473202Y269188D01*
X473202Y269231D01*
X473245Y269273D01*
X473202Y269315D01*
X473202Y269358D01*
X473245Y269273D02*
X473329Y269273D01*
X473436Y269146D02*
X473436Y269400D01*
X473563Y269400D01*
X473606Y269358D01*
X473606Y269273D01*
X473563Y269231D01*
X473436Y269231D01*
X473521Y269231D02*
X473606Y269146D01*
D12*
X410551Y287478D02*
X410551Y292393D01*
X410551Y287478D02*
X413008Y285021D01*
X415466Y287478D01*
X415466Y292393D01*
X418035Y289936D02*
X420493Y292393D01*
X420493Y285021D01*
X422950Y285021D02*
X418035Y285021D01*
D31*
X410255Y272194D02*
X410255Y271940D01*
X410170Y272194D02*
X410339Y272194D01*
X410404Y272194D02*
X410404Y271940D01*
X410404Y272194D02*
X410531Y272194D01*
X410573Y272152D01*
X410573Y272067D01*
X410531Y272025D01*
X410404Y272025D01*
X410722Y271940D02*
X410722Y272194D01*
X410638Y272194D02*
X410807Y272194D01*
X410872Y272194D02*
X410872Y271940D01*
X410872Y272194D02*
X410999Y272194D01*
X411041Y272152D01*
X411041Y272067D01*
X410999Y272025D01*
X410872Y272025D01*
X411106Y272109D02*
X411190Y272194D01*
X411190Y271940D01*
X411106Y271940D02*
X411275Y271940D01*
X411339Y271982D02*
X411339Y272152D01*
X411382Y272194D01*
X411466Y272194D01*
X411509Y272152D01*
X411509Y271982D01*
X411466Y271940D01*
X411382Y271940D01*
X411339Y271982D01*
X411509Y272152D01*
X411573Y272194D02*
X411573Y271940D01*
X411573Y272194D02*
X411700Y272194D01*
X411743Y272152D01*
X411743Y272067D01*
X411700Y272025D01*
X411573Y272025D01*
X411658Y272025D02*
X411743Y271940D01*
D12*
X268311Y239053D02*
X268311Y234138D01*
X270768Y231681D01*
X273226Y234138D01*
X273226Y239053D01*
X275795Y231681D02*
X280710Y231681D01*
X275795Y231681D02*
X280710Y236596D01*
X280710Y237825D01*
X279481Y239053D01*
X277024Y239053D01*
X275795Y237825D01*
D31*
X268015Y216314D02*
X268015Y216060D01*
X267930Y216314D02*
X268099Y216314D01*
X268164Y216314D02*
X268164Y216060D01*
X268164Y216314D02*
X268291Y216314D01*
X268333Y216272D01*
X268333Y216187D01*
X268291Y216145D01*
X268164Y216145D01*
X268482Y216060D02*
X268482Y216314D01*
X268398Y216314D02*
X268567Y216314D01*
X268632Y216314D02*
X268632Y216060D01*
X268632Y216314D02*
X268759Y216314D01*
X268801Y216272D01*
X268801Y216187D01*
X268759Y216145D01*
X268632Y216145D01*
X268866Y216229D02*
X268950Y216314D01*
X268950Y216060D01*
X268866Y216060D02*
X269035Y216060D01*
X269099Y216102D02*
X269099Y216272D01*
X269142Y216314D01*
X269226Y216314D01*
X269269Y216272D01*
X269269Y216102D01*
X269226Y216060D01*
X269142Y216060D01*
X269099Y216102D01*
X269269Y216272D01*
X269333Y216314D02*
X269333Y216060D01*
X269333Y216314D02*
X269460Y216314D01*
X269503Y216272D01*
X269503Y216187D01*
X269460Y216145D01*
X269333Y216145D01*
X269418Y216145D02*
X269503Y216060D01*
D12*
X550251Y216358D02*
X550251Y221273D01*
X550251Y216358D02*
X552708Y213901D01*
X555166Y216358D01*
X555166Y221273D01*
X557735Y220045D02*
X558964Y221273D01*
X561421Y221273D01*
X562650Y220045D01*
X562650Y218816D01*
X561421Y217587D01*
X560193Y217587D01*
X561421Y217587D02*
X562650Y216358D01*
X562650Y215130D01*
X561421Y213901D01*
X558964Y213901D01*
X557735Y215130D01*
D31*
X534715Y208694D02*
X534715Y208440D01*
X534630Y208694D02*
X534799Y208694D01*
X534864Y208694D02*
X534864Y208440D01*
X534864Y208694D02*
X534991Y208694D01*
X535033Y208652D01*
X535033Y208567D01*
X534991Y208525D01*
X534864Y208525D01*
X535182Y208440D02*
X535182Y208694D01*
X535098Y208694D02*
X535267Y208694D01*
X535332Y208694D02*
X535332Y208440D01*
X535332Y208694D02*
X535459Y208694D01*
X535501Y208652D01*
X535501Y208567D01*
X535459Y208525D01*
X535332Y208525D01*
X535566Y208609D02*
X535650Y208694D01*
X535650Y208440D01*
X535566Y208440D02*
X535735Y208440D01*
X535799Y208482D02*
X535799Y208652D01*
X535842Y208694D01*
X535926Y208694D01*
X535969Y208652D01*
X535969Y208482D01*
X535926Y208440D01*
X535842Y208440D01*
X535799Y208482D01*
X535969Y208652D01*
X536033Y208694D02*
X536033Y208440D01*
X536033Y208694D02*
X536160Y208694D01*
X536203Y208652D01*
X536203Y208567D01*
X536160Y208525D01*
X536033Y208525D01*
X536118Y208525D02*
X536203Y208440D01*
D12*
X435951Y246838D02*
X435951Y251753D01*
X435951Y246838D02*
X438408Y244381D01*
X440866Y246838D01*
X440866Y251753D01*
X447121Y251753D02*
X447121Y244381D01*
X443435Y248067D02*
X447121Y251753D01*
X448350Y248067D02*
X443435Y248067D01*
D31*
X435655Y229014D02*
X435655Y228760D01*
X435570Y229014D02*
X435739Y229014D01*
X435804Y229014D02*
X435804Y228760D01*
X435804Y229014D02*
X435931Y229014D01*
X435973Y228972D01*
X435973Y228887D01*
X435931Y228845D01*
X435804Y228845D01*
X436122Y228760D02*
X436122Y229014D01*
X436038Y229014D02*
X436207Y229014D01*
X436272Y229014D02*
X436272Y228760D01*
X436272Y229014D02*
X436399Y229014D01*
X436441Y228972D01*
X436441Y228887D01*
X436399Y228845D01*
X436272Y228845D01*
X436506Y228929D02*
X436590Y229014D01*
X436590Y228760D01*
X436506Y228760D02*
X436675Y228760D01*
X436739Y228802D02*
X436739Y228972D01*
X436782Y229014D01*
X436866Y229014D01*
X436909Y228972D01*
X436909Y228802D01*
X436866Y228760D01*
X436782Y228760D01*
X436739Y228802D01*
X436909Y228972D01*
X436973Y229014D02*
X436973Y228760D01*
X436973Y229014D02*
X437100Y229014D01*
X437143Y228972D01*
X437143Y228887D01*
X437100Y228845D01*
X436973Y228845D01*
X437058Y228845D02*
X437143Y228760D01*
D12*
X378210Y190285D02*
X378210Y185370D01*
X380668Y182913D01*
X383125Y185370D01*
X383125Y190285D01*
X385694Y190285D02*
X385694Y182913D01*
X385694Y190285D02*
X390609Y190285D01*
X388152Y186599D02*
X385694Y186599D01*
X393179Y182913D02*
X398093Y190285D01*
X400663Y190285D02*
X400663Y182913D01*
X400663Y190285D02*
X404349Y190285D01*
X405578Y189057D01*
X405578Y187828D01*
X404349Y186599D01*
X405578Y185370D01*
X405578Y184142D01*
X404349Y182913D01*
X400663Y182913D01*
X400663Y186599D02*
X404349Y186599D01*
X408147Y187828D02*
X410604Y190285D01*
X410604Y182913D01*
X408147Y182913D02*
X413062Y182913D01*
D31*
X400998Y182786D02*
X400998Y183040D01*
X401082Y183040D02*
X400913Y183040D01*
X401147Y183040D02*
X401147Y182786D01*
X401147Y183040D02*
X401274Y183040D01*
X401316Y182998D01*
X401316Y182913D01*
X401274Y182871D01*
X401147Y182871D01*
X401465Y182786D02*
X401465Y183040D01*
X401381Y183040D02*
X401550Y183040D01*
X401614Y183040D02*
X401614Y182786D01*
X401614Y183040D02*
X401742Y183040D01*
X401784Y182998D01*
X401784Y182913D01*
X401742Y182871D01*
X401614Y182871D01*
X401848Y182955D02*
X401933Y183040D01*
X401933Y182786D01*
X401848Y182786D02*
X402018Y182786D01*
X402082Y182828D02*
X402082Y182998D01*
X402125Y183040D01*
X402209Y183040D01*
X402252Y182998D01*
X402252Y182828D01*
X402209Y182786D01*
X402125Y182786D01*
X402082Y182828D01*
X402252Y182998D01*
X402316Y183040D02*
X402316Y182786D01*
X402316Y183040D02*
X402443Y183040D01*
X402486Y182998D01*
X402486Y182913D01*
X402443Y182871D01*
X402316Y182871D01*
X402401Y182871D02*
X402486Y182786D01*
D12*
X532471Y180798D02*
X532471Y185713D01*
X532471Y180798D02*
X534928Y178341D01*
X537386Y180798D01*
X537386Y185713D01*
X539955Y185713D02*
X539955Y178341D01*
X539955Y185713D02*
X544870Y185713D01*
X542413Y182027D02*
X539955Y182027D01*
X547439Y178341D02*
X552354Y185713D01*
X554923Y185713D02*
X554923Y178341D01*
X554923Y185713D02*
X558610Y185713D01*
X559838Y184485D01*
X559838Y183256D01*
X558610Y182027D01*
X559838Y180798D01*
X559838Y179570D01*
X558610Y178341D01*
X554923Y178341D01*
X554923Y182027D02*
X558610Y182027D01*
X562408Y178341D02*
X567322Y178341D01*
X562408Y178341D02*
X567322Y183256D01*
X567322Y184485D01*
X566094Y185713D01*
X563636Y185713D01*
X562408Y184485D01*
D31*
X542335Y160434D02*
X542335Y160180D01*
X542250Y160434D02*
X542419Y160434D01*
X542484Y160434D02*
X542484Y160180D01*
X542484Y160434D02*
X542611Y160434D01*
X542653Y160392D01*
X542653Y160307D01*
X542611Y160265D01*
X542484Y160265D01*
X542802Y160180D02*
X542802Y160434D01*
X542718Y160434D02*
X542887Y160434D01*
X542952Y160434D02*
X542952Y160180D01*
X542952Y160434D02*
X543079Y160434D01*
X543121Y160392D01*
X543121Y160307D01*
X543079Y160265D01*
X542952Y160265D01*
X543186Y160349D02*
X543270Y160434D01*
X543270Y160180D01*
X543186Y160180D02*
X543355Y160180D01*
X543419Y160222D02*
X543419Y160392D01*
X543462Y160434D01*
X543546Y160434D01*
X543589Y160392D01*
X543589Y160222D01*
X543546Y160180D01*
X543462Y160180D01*
X543419Y160222D01*
X543589Y160392D01*
X543653Y160434D02*
X543653Y160180D01*
X543653Y160434D02*
X543780Y160434D01*
X543823Y160392D01*
X543823Y160307D01*
X543780Y160265D01*
X543653Y160265D01*
X543738Y160265D02*
X543823Y160180D01*
D17*
X750784Y290230D02*
X754513Y290230D01*
X752648Y288366D02*
X752648Y292095D01*
X756397Y293027D02*
X756397Y287434D01*
X756397Y290230D02*
X760126Y290230D01*
X760126Y287434D02*
X760126Y293027D01*
X762010Y293027D02*
X762010Y289298D01*
X763874Y287434D01*
X765739Y289298D01*
X765739Y293027D01*
D31*
X753155Y272194D02*
X753155Y271940D01*
X753070Y272194D02*
X753239Y272194D01*
X753304Y272194D02*
X753304Y271940D01*
X753304Y272194D02*
X753431Y272194D01*
X753473Y272152D01*
X753473Y272067D01*
X753431Y272025D01*
X753304Y272025D01*
X753622Y271940D02*
X753622Y272194D01*
X753538Y272194D02*
X753707Y272194D01*
X753772Y272194D02*
X753772Y271940D01*
X753772Y272194D02*
X753899Y272194D01*
X753941Y272152D01*
X753941Y272067D01*
X753899Y272025D01*
X753772Y272025D01*
X754006Y272109D02*
X754090Y272194D01*
X754090Y271940D01*
X754006Y271940D02*
X754175Y271940D01*
X754239Y271982D02*
X754239Y272152D01*
X754282Y272194D01*
X754366Y272194D01*
X754409Y272152D01*
X754409Y271982D01*
X754366Y271940D01*
X754282Y271940D01*
X754239Y271982D01*
X754409Y272152D01*
X754473Y272194D02*
X754473Y271940D01*
X754473Y272194D02*
X754600Y272194D01*
X754643Y272152D01*
X754643Y272067D01*
X754600Y272025D01*
X754473Y272025D01*
X754558Y272025D02*
X754643Y271940D01*
D17*
X609733Y292770D02*
X606004Y292770D01*
X611617Y289974D02*
X611617Y295567D01*
X611617Y292770D02*
X615346Y292770D01*
X615346Y289974D02*
X615346Y295567D01*
X617230Y295567D02*
X617230Y291838D01*
X619094Y289974D01*
X620959Y291838D01*
X620959Y295567D01*
D31*
X608375Y274734D02*
X608375Y274480D01*
X608290Y274734D02*
X608459Y274734D01*
X608524Y274734D02*
X608524Y274480D01*
X608524Y274734D02*
X608651Y274734D01*
X608693Y274692D01*
X608693Y274607D01*
X608651Y274565D01*
X608524Y274565D01*
X608842Y274480D02*
X608842Y274734D01*
X608758Y274734D02*
X608927Y274734D01*
X608992Y274734D02*
X608992Y274480D01*
X608992Y274734D02*
X609119Y274734D01*
X609161Y274692D01*
X609161Y274607D01*
X609119Y274565D01*
X608992Y274565D01*
X609226Y274649D02*
X609310Y274734D01*
X609310Y274480D01*
X609226Y274480D02*
X609395Y274480D01*
X609459Y274522D02*
X609459Y274692D01*
X609502Y274734D01*
X609586Y274734D01*
X609629Y274692D01*
X609629Y274522D01*
X609586Y274480D01*
X609502Y274480D01*
X609459Y274522D01*
X609629Y274692D01*
X609693Y274734D02*
X609693Y274480D01*
X609693Y274734D02*
X609820Y274734D01*
X609863Y274692D01*
X609863Y274607D01*
X609820Y274565D01*
X609693Y274565D01*
X609778Y274565D02*
X609863Y274480D01*
D17*
X183173Y207086D02*
X183173Y203357D01*
X185037Y201493D01*
X186902Y203357D01*
X186902Y207086D01*
X188786Y201493D02*
X190650Y201493D01*
X189718Y201493D02*
X189718Y207086D01*
X188786Y207086D02*
X190650Y207086D01*
X192528Y207086D02*
X192528Y201493D01*
X196257Y201493D02*
X192528Y207086D01*
X196257Y207086D02*
X196257Y201493D01*
X198141Y207086D02*
X201870Y207086D01*
X198141Y207086D02*
X198141Y204289D01*
X200006Y205222D01*
X200938Y205222D01*
X201870Y204289D01*
X201870Y202425D01*
X200938Y201493D01*
X199073Y201493D01*
X198141Y202425D01*
X203754Y203357D02*
X203754Y207086D01*
X203754Y203357D02*
X205619Y201493D01*
X207483Y203357D01*
X207483Y207086D01*
D31*
X189275Y190914D02*
X189275Y190660D01*
X189190Y190914D02*
X189359Y190914D01*
X189424Y190914D02*
X189424Y190660D01*
X189424Y190914D02*
X189551Y190914D01*
X189593Y190872D01*
X189593Y190787D01*
X189551Y190745D01*
X189424Y190745D01*
X189742Y190660D02*
X189742Y190914D01*
X189658Y190914D02*
X189827Y190914D01*
X189892Y190914D02*
X189892Y190660D01*
X189892Y190914D02*
X190019Y190914D01*
X190061Y190872D01*
X190061Y190787D01*
X190019Y190745D01*
X189892Y190745D01*
X190126Y190829D02*
X190210Y190914D01*
X190210Y190660D01*
X190126Y190660D02*
X190295Y190660D01*
X190359Y190702D02*
X190359Y190872D01*
X190402Y190914D01*
X190486Y190914D01*
X190529Y190872D01*
X190529Y190702D01*
X190486Y190660D01*
X190402Y190660D01*
X190359Y190702D01*
X190529Y190872D01*
X190593Y190914D02*
X190593Y190660D01*
X190593Y190914D02*
X190720Y190914D01*
X190763Y190872D01*
X190763Y190787D01*
X190720Y190745D01*
X190593Y190745D01*
X190678Y190745D02*
X190763Y190660D01*
D17*
X221273Y226893D02*
X221273Y232486D01*
X221273Y226893D02*
X224069Y226893D01*
X225002Y227825D01*
X225002Y231554D01*
X224069Y232486D01*
X221273Y232486D01*
X229682Y232486D02*
X230615Y231554D01*
X229682Y232486D02*
X227818Y232486D01*
X226886Y231554D01*
X226886Y227825D01*
X227818Y226893D01*
X229682Y226893D01*
X230615Y227825D01*
X230615Y229689D01*
X228750Y229689D01*
X232499Y226893D02*
X232499Y232486D01*
X236228Y226893D01*
X236228Y232486D01*
X238112Y232486D02*
X238112Y226893D01*
X240909Y226893D01*
X241841Y227825D01*
X241841Y231554D01*
X240909Y232486D01*
X238112Y232486D01*
D31*
X222295Y216314D02*
X222295Y216060D01*
X222210Y216314D02*
X222379Y216314D01*
X222444Y216314D02*
X222444Y216060D01*
X222444Y216314D02*
X222571Y216314D01*
X222613Y216272D01*
X222613Y216187D01*
X222571Y216145D01*
X222444Y216145D01*
X222762Y216060D02*
X222762Y216314D01*
X222678Y216314D02*
X222847Y216314D01*
X222912Y216314D02*
X222912Y216060D01*
X222912Y216314D02*
X223039Y216314D01*
X223081Y216272D01*
X223081Y216187D01*
X223039Y216145D01*
X222912Y216145D01*
X223146Y216229D02*
X223230Y216314D01*
X223230Y216060D01*
X223146Y216060D02*
X223315Y216060D01*
X223379Y216102D02*
X223379Y216272D01*
X223422Y216314D01*
X223506Y216314D01*
X223549Y216272D01*
X223549Y216102D01*
X223506Y216060D01*
X223422Y216060D01*
X223379Y216102D01*
X223549Y216272D01*
X223613Y216314D02*
X223613Y216060D01*
X223613Y216314D02*
X223740Y216314D01*
X223783Y216272D01*
X223783Y216187D01*
X223740Y216145D01*
X223613Y216145D01*
X223698Y216145D02*
X223783Y216060D01*
D17*
X604813Y111242D02*
X604813Y107513D01*
X604813Y111242D02*
X606677Y113106D01*
X608542Y111242D01*
X608542Y107513D01*
X608542Y110309D02*
X604813Y110309D01*
X613222Y113106D02*
X614155Y112174D01*
X613222Y113106D02*
X611358Y113106D01*
X610426Y112174D01*
X610426Y108445D01*
X611358Y107513D01*
X613222Y107513D01*
X614155Y108445D01*
X614155Y110309D01*
X612290Y110309D01*
X616039Y107513D02*
X616039Y113106D01*
X619768Y107513D01*
X619768Y113106D01*
X621652Y113106D02*
X621652Y107513D01*
X624449Y107513D01*
X625381Y108445D01*
X625381Y112174D01*
X624449Y113106D01*
X621652Y113106D01*
D31*
X610915Y94394D02*
X610915Y94140D01*
X610830Y94394D02*
X610999Y94394D01*
X611064Y94394D02*
X611064Y94140D01*
X611064Y94394D02*
X611191Y94394D01*
X611233Y94352D01*
X611233Y94267D01*
X611191Y94225D01*
X611064Y94225D01*
X611382Y94140D02*
X611382Y94394D01*
X611298Y94394D02*
X611467Y94394D01*
X611532Y94394D02*
X611532Y94140D01*
X611532Y94394D02*
X611659Y94394D01*
X611701Y94352D01*
X611701Y94267D01*
X611659Y94225D01*
X611532Y94225D01*
X611766Y94309D02*
X611850Y94394D01*
X611850Y94140D01*
X611766Y94140D02*
X611935Y94140D01*
X611999Y94182D02*
X611999Y94352D01*
X612042Y94394D01*
X612126Y94394D01*
X612169Y94352D01*
X612169Y94182D01*
X612126Y94140D01*
X612042Y94140D01*
X611999Y94182D01*
X612169Y94352D01*
X612233Y94394D02*
X612233Y94140D01*
X612233Y94394D02*
X612360Y94394D01*
X612403Y94352D01*
X612403Y94267D01*
X612360Y94225D01*
X612233Y94225D01*
X612318Y94225D02*
X612403Y94140D01*
D17*
X201885Y232486D02*
X200953Y231554D01*
X201885Y232486D02*
X203749Y232486D01*
X204682Y231554D01*
X204682Y230622D01*
X203749Y229689D01*
X202817Y229689D01*
X203749Y229689D02*
X204682Y228757D01*
X204682Y227825D01*
X203749Y226893D01*
X201885Y226893D01*
X200953Y227825D01*
X206566Y227825D02*
X206566Y226893D01*
X206566Y227825D02*
X207498Y227825D01*
X207498Y226893D01*
X206566Y226893D01*
X209373Y231554D02*
X210305Y232486D01*
X212169Y232486D01*
X213101Y231554D01*
X213101Y230622D01*
X212169Y229689D01*
X211237Y229689D01*
X212169Y229689D02*
X213101Y228757D01*
X213101Y227825D01*
X212169Y226893D01*
X210305Y226893D01*
X209373Y227825D01*
X214986Y228757D02*
X214986Y232486D01*
X214986Y228757D02*
X216850Y226893D01*
X218714Y228757D01*
X218714Y232486D01*
D31*
X204515Y216314D02*
X204515Y216060D01*
X204430Y216314D02*
X204599Y216314D01*
X204664Y216314D02*
X204664Y216060D01*
X204664Y216314D02*
X204791Y216314D01*
X204833Y216272D01*
X204833Y216187D01*
X204791Y216145D01*
X204664Y216145D01*
X204982Y216060D02*
X204982Y216314D01*
X204898Y216314D02*
X205067Y216314D01*
X205132Y216314D02*
X205132Y216060D01*
X205132Y216314D02*
X205259Y216314D01*
X205301Y216272D01*
X205301Y216187D01*
X205259Y216145D01*
X205132Y216145D01*
X205366Y216229D02*
X205450Y216314D01*
X205450Y216060D01*
X205366Y216060D02*
X205535Y216060D01*
X205599Y216102D02*
X205599Y216272D01*
X205642Y216314D01*
X205726Y216314D01*
X205769Y216272D01*
X205769Y216102D01*
X205726Y216060D01*
X205642Y216060D01*
X205599Y216102D01*
X205769Y216272D01*
X205833Y216314D02*
X205833Y216060D01*
X205833Y216314D02*
X205960Y216314D01*
X206003Y216272D01*
X206003Y216187D01*
X205960Y216145D01*
X205833Y216145D01*
X205918Y216145D02*
X206003Y216060D01*
D17*
X607353Y130629D02*
X611082Y130629D01*
X609217Y128765D02*
X609217Y132494D01*
X612966Y133426D02*
X616695Y133426D01*
X612966Y133426D02*
X612966Y130629D01*
X614830Y131562D01*
X615762Y131562D01*
X616695Y130629D01*
X616695Y128765D01*
X615762Y127833D01*
X613898Y127833D01*
X612966Y128765D01*
X618579Y129697D02*
X618579Y133426D01*
X618579Y129697D02*
X620443Y127833D01*
X622308Y129697D01*
X622308Y133426D01*
D31*
X610915Y117254D02*
X610915Y117000D01*
X610830Y117254D02*
X610999Y117254D01*
X611064Y117254D02*
X611064Y117000D01*
X611064Y117254D02*
X611191Y117254D01*
X611233Y117212D01*
X611233Y117127D01*
X611191Y117085D01*
X611064Y117085D01*
X611382Y117000D02*
X611382Y117254D01*
X611298Y117254D02*
X611467Y117254D01*
X611532Y117254D02*
X611532Y117000D01*
X611532Y117254D02*
X611659Y117254D01*
X611701Y117212D01*
X611701Y117127D01*
X611659Y117085D01*
X611532Y117085D01*
X611766Y117169D02*
X611850Y117254D01*
X611850Y117000D01*
X611766Y117000D02*
X611935Y117000D01*
X611999Y117042D02*
X611999Y117212D01*
X612042Y117254D01*
X612126Y117254D01*
X612169Y117212D01*
X612169Y117042D01*
X612126Y117000D01*
X612042Y117000D01*
X611999Y117042D01*
X612169Y117212D01*
X612233Y117254D02*
X612233Y117000D01*
X612233Y117254D02*
X612360Y117254D01*
X612403Y117212D01*
X612403Y117127D01*
X612360Y117085D01*
X612233Y117085D01*
X612318Y117085D02*
X612403Y117000D01*
D17*
X611082Y87449D02*
X607353Y87449D01*
X612966Y90246D02*
X616695Y90246D01*
X612966Y90246D02*
X612966Y87449D01*
X614830Y88382D01*
X615762Y88382D01*
X616695Y87449D01*
X616695Y85585D01*
X615762Y84653D01*
X613898Y84653D01*
X612966Y85585D01*
X618579Y86517D02*
X618579Y90246D01*
X618579Y86517D02*
X620443Y84653D01*
X622308Y86517D01*
X622308Y90246D01*
D31*
X610915Y74074D02*
X610915Y73820D01*
X610830Y74074D02*
X610999Y74074D01*
X611064Y74074D02*
X611064Y73820D01*
X611064Y74074D02*
X611191Y74074D01*
X611233Y74032D01*
X611233Y73947D01*
X611191Y73905D01*
X611064Y73905D01*
X611382Y73820D02*
X611382Y74074D01*
X611298Y74074D02*
X611467Y74074D01*
X611532Y74074D02*
X611532Y73820D01*
X611532Y74074D02*
X611659Y74074D01*
X611701Y74032D01*
X611701Y73947D01*
X611659Y73905D01*
X611532Y73905D01*
X611766Y73989D02*
X611850Y74074D01*
X611850Y73820D01*
X611766Y73820D02*
X611935Y73820D01*
X611999Y73862D02*
X611999Y74032D01*
X612042Y74074D01*
X612126Y74074D01*
X612169Y74032D01*
X612169Y73862D01*
X612126Y73820D01*
X612042Y73820D01*
X611999Y73862D01*
X612169Y74032D01*
X612233Y74074D02*
X612233Y73820D01*
X612233Y74074D02*
X612360Y74074D01*
X612403Y74032D01*
X612403Y73947D01*
X612360Y73905D01*
X612233Y73905D01*
X612318Y73905D02*
X612403Y73820D01*
X791255Y429420D02*
X791255Y429674D01*
X791339Y429674D02*
X791170Y429674D01*
X791404Y429674D02*
X791404Y429420D01*
X791404Y429674D02*
X791531Y429674D01*
X791573Y429632D01*
X791573Y429547D01*
X791531Y429505D01*
X791404Y429505D01*
X791722Y429420D02*
X791722Y429674D01*
X791638Y429674D02*
X791807Y429674D01*
X791872Y429674D02*
X791872Y429420D01*
X791872Y429674D02*
X791999Y429674D01*
X792041Y429632D01*
X792041Y429547D01*
X791999Y429505D01*
X791872Y429505D01*
X792106Y429462D02*
X792106Y429632D01*
X792148Y429674D01*
X792233Y429674D01*
X792275Y429632D01*
X792275Y429462D01*
X792233Y429420D01*
X792148Y429420D01*
X792106Y429462D01*
X792275Y429632D01*
X792339Y429632D02*
X792382Y429674D01*
X792466Y429674D01*
X792509Y429632D01*
X792509Y429589D01*
X792466Y429547D01*
X792509Y429505D01*
X792509Y429462D01*
X792466Y429420D01*
X792382Y429420D01*
X792339Y429462D01*
X792339Y429505D01*
X792382Y429547D01*
X792339Y429589D01*
X792339Y429632D01*
X792382Y429547D02*
X792466Y429547D01*
X792573Y429420D02*
X792573Y429674D01*
X792700Y429674D01*
X792743Y429632D01*
X792743Y429547D01*
X792700Y429505D01*
X792573Y429505D01*
X792658Y429505D02*
X792743Y429420D01*
D26*
X949254Y97784D02*
X949254Y72884D01*
D11*
X888228Y90932D02*
X888228Y102626D01*
X896024Y102626D01*
X892126Y96779D02*
X888228Y96779D01*
X899922Y90932D02*
X907718Y90932D01*
X899922Y90932D02*
X907718Y98728D01*
X907718Y100677D01*
X905769Y102626D01*
X901871Y102626D01*
X899922Y100677D01*
D26*
X949000Y231390D02*
X949000Y256290D01*
D11*
X887974Y261432D02*
X887974Y249738D01*
X887974Y261432D02*
X895770Y261432D01*
X891872Y255585D02*
X887974Y255585D01*
X899668Y259483D02*
X901617Y261432D01*
X905515Y261432D01*
X907464Y259483D01*
X907464Y257534D01*
X905515Y255585D01*
X903566Y255585D01*
X905515Y255585D02*
X907464Y253636D01*
X907464Y251687D01*
X905515Y249738D01*
X901617Y249738D01*
X899668Y251687D01*
M02*
