G04 EAGLE Gerber RS-274X export*
G75*
%MOMM*%
%FSLAX34Y34*%
%LPD*%
%INSilkscreen Bottom*%
%IPPOS*%
%AMOC8*
5,1,8,0,0,1.08239X$1,22.5*%
G01*
%ADD10C,0.177800*%
%ADD11C,0.304800*%
%ADD12C,0.076200*%
%ADD13C,0.050800*%
%ADD14C,0.101600*%
%ADD15C,0.254000*%
%ADD16C,0.152400*%
%ADD17C,0.203200*%
%ADD18C,0.884400*%
%ADD19C,0.025400*%
%ADD20C,0.200000*%
%ADD21C,0.250000*%
%ADD22C,0.000000*%

G36*
X484213Y452637D02*
X484213Y452637D01*
X484215Y452636D01*
X484258Y452656D01*
X484302Y452675D01*
X484302Y452677D01*
X484304Y452678D01*
X484337Y452763D01*
X484337Y456573D01*
X484336Y456575D01*
X484337Y456577D01*
X484317Y456620D01*
X484299Y456663D01*
X484297Y456664D01*
X484296Y456666D01*
X484211Y456699D01*
X481671Y456699D01*
X481669Y456698D01*
X481667Y456699D01*
X481624Y456679D01*
X481580Y456660D01*
X481580Y456658D01*
X481578Y456658D01*
X481545Y456573D01*
X481545Y452763D01*
X481546Y452761D01*
X481545Y452759D01*
X481565Y452716D01*
X481583Y452672D01*
X481585Y452671D01*
X481586Y452669D01*
X481671Y452636D01*
X484211Y452636D01*
X484213Y452637D01*
G37*
G36*
X664172Y451370D02*
X664172Y451370D01*
X664174Y451369D01*
X664217Y451389D01*
X664261Y451407D01*
X664261Y451409D01*
X664263Y451410D01*
X664296Y451495D01*
X664296Y455305D01*
X664295Y455307D01*
X664296Y455309D01*
X664276Y455352D01*
X664258Y455396D01*
X664256Y455396D01*
X664255Y455398D01*
X664170Y455431D01*
X661630Y455431D01*
X661628Y455430D01*
X661626Y455431D01*
X661583Y455411D01*
X661539Y455393D01*
X661539Y455391D01*
X661537Y455390D01*
X661504Y455305D01*
X661504Y451495D01*
X661505Y451493D01*
X661504Y451491D01*
X661524Y451448D01*
X661542Y451404D01*
X661544Y451404D01*
X661545Y451402D01*
X661630Y451369D01*
X664170Y451369D01*
X664172Y451370D01*
G37*
G36*
X499453Y398027D02*
X499453Y398027D01*
X499455Y398026D01*
X499498Y398046D01*
X499542Y398065D01*
X499542Y398067D01*
X499544Y398068D01*
X499577Y398153D01*
X499577Y401963D01*
X499576Y401965D01*
X499577Y401967D01*
X499557Y402010D01*
X499539Y402053D01*
X499537Y402054D01*
X499536Y402056D01*
X499451Y402089D01*
X496911Y402089D01*
X496909Y402088D01*
X496907Y402089D01*
X496864Y402069D01*
X496820Y402050D01*
X496820Y402048D01*
X496818Y402048D01*
X496785Y401963D01*
X496785Y398153D01*
X496786Y398151D01*
X496785Y398149D01*
X496805Y398106D01*
X496823Y398062D01*
X496825Y398061D01*
X496826Y398059D01*
X496911Y398026D01*
X499451Y398026D01*
X499453Y398027D01*
G37*
G36*
X664172Y380250D02*
X664172Y380250D01*
X664174Y380249D01*
X664217Y380269D01*
X664261Y380287D01*
X664261Y380289D01*
X664263Y380290D01*
X664296Y380375D01*
X664296Y384185D01*
X664295Y384187D01*
X664296Y384189D01*
X664276Y384232D01*
X664258Y384276D01*
X664256Y384276D01*
X664255Y384278D01*
X664170Y384311D01*
X661630Y384311D01*
X661628Y384310D01*
X661626Y384311D01*
X661583Y384291D01*
X661539Y384273D01*
X661539Y384271D01*
X661537Y384270D01*
X661504Y384185D01*
X661504Y380375D01*
X661505Y380373D01*
X661504Y380371D01*
X661524Y380328D01*
X661542Y380284D01*
X661544Y380284D01*
X661545Y380282D01*
X661630Y380249D01*
X664170Y380249D01*
X664172Y380250D01*
G37*
D10*
X78816Y250731D02*
X89197Y250731D01*
X91273Y252807D01*
X91273Y256959D01*
X89197Y259035D01*
X78816Y259035D01*
X78816Y270057D02*
X80892Y272133D01*
X78816Y270057D02*
X78816Y265904D01*
X80892Y263828D01*
X82969Y263828D01*
X85045Y265904D01*
X85045Y270057D01*
X87121Y272133D01*
X89197Y272133D01*
X91273Y270057D01*
X91273Y265904D01*
X89197Y263828D01*
X91273Y276926D02*
X78816Y276926D01*
X78816Y283154D01*
X80892Y285230D01*
X82969Y285230D01*
X85045Y283154D01*
X87121Y285230D01*
X89197Y285230D01*
X91273Y283154D01*
X91273Y276926D01*
X85045Y276926D02*
X85045Y283154D01*
X93349Y290023D02*
X93349Y298327D01*
X91273Y303120D02*
X78816Y303120D01*
X91273Y303120D02*
X91273Y309348D01*
X89197Y311424D01*
X80892Y311424D01*
X78816Y309348D01*
X78816Y303120D01*
X78816Y316217D02*
X91273Y316217D01*
X82969Y320369D02*
X78816Y316217D01*
X82969Y320369D02*
X78816Y324522D01*
X91273Y324522D01*
X70147Y250731D02*
X59766Y250731D01*
X70147Y250731D02*
X72223Y252807D01*
X72223Y256959D01*
X70147Y259035D01*
X59766Y259035D01*
X59766Y270057D02*
X61842Y272133D01*
X59766Y270057D02*
X59766Y265904D01*
X61842Y263828D01*
X63919Y263828D01*
X65995Y265904D01*
X65995Y270057D01*
X68071Y272133D01*
X70147Y272133D01*
X72223Y270057D01*
X72223Y265904D01*
X70147Y263828D01*
X72223Y276926D02*
X59766Y276926D01*
X59766Y283154D01*
X61842Y285230D01*
X63919Y285230D01*
X65995Y283154D01*
X68071Y285230D01*
X70147Y285230D01*
X72223Y283154D01*
X72223Y276926D01*
X65995Y276926D02*
X65995Y283154D01*
X74299Y290023D02*
X74299Y298327D01*
X72223Y303120D02*
X59766Y303120D01*
X72223Y303120D02*
X72223Y309348D01*
X70147Y311424D01*
X61842Y311424D01*
X59766Y309348D01*
X59766Y303120D01*
X59766Y316217D02*
X72223Y316217D01*
X59766Y316217D02*
X59766Y322446D01*
X61842Y324522D01*
X65995Y324522D01*
X68071Y322446D01*
X68071Y316217D01*
D11*
X109942Y247810D02*
X109942Y207424D01*
X93940Y207424D01*
D10*
X104470Y251239D02*
X114851Y251239D01*
X116927Y253315D01*
X116927Y257467D01*
X114851Y259543D01*
X104470Y259543D01*
X104470Y270565D02*
X106546Y272641D01*
X104470Y270565D02*
X104470Y266412D01*
X106546Y264336D01*
X108623Y264336D01*
X110699Y266412D01*
X110699Y270565D01*
X112775Y272641D01*
X114851Y272641D01*
X116927Y270565D01*
X116927Y266412D01*
X114851Y264336D01*
X116927Y277434D02*
X104470Y277434D01*
X104470Y283662D01*
X106546Y285738D01*
X108623Y285738D01*
X110699Y283662D01*
X112775Y285738D01*
X114851Y285738D01*
X116927Y283662D01*
X116927Y277434D01*
X110699Y277434D02*
X110699Y283662D01*
X119003Y290531D02*
X119003Y298835D01*
X104470Y303628D02*
X104470Y311932D01*
X104470Y303628D02*
X110699Y303628D01*
X108623Y307780D01*
X108623Y309856D01*
X110699Y311932D01*
X114851Y311932D01*
X116927Y309856D01*
X116927Y305704D01*
X114851Y303628D01*
X112775Y316725D02*
X104470Y316725D01*
X112775Y316725D02*
X116927Y320877D01*
X112775Y325030D01*
X104470Y325030D01*
X127584Y250731D02*
X137965Y250731D01*
X140041Y252807D01*
X140041Y256959D01*
X137965Y259035D01*
X127584Y259035D01*
X127584Y270057D02*
X129660Y272133D01*
X127584Y270057D02*
X127584Y265904D01*
X129660Y263828D01*
X131737Y263828D01*
X133813Y265904D01*
X133813Y270057D01*
X135889Y272133D01*
X137965Y272133D01*
X140041Y270057D01*
X140041Y265904D01*
X137965Y263828D01*
X140041Y276926D02*
X127584Y276926D01*
X127584Y283154D01*
X129660Y285230D01*
X131737Y285230D01*
X133813Y283154D01*
X135889Y285230D01*
X137965Y285230D01*
X140041Y283154D01*
X140041Y276926D01*
X133813Y276926D02*
X133813Y283154D01*
X142117Y290023D02*
X142117Y298327D01*
X129660Y311424D02*
X127584Y309348D01*
X127584Y305196D01*
X129660Y303120D01*
X137965Y303120D01*
X140041Y305196D01*
X140041Y309348D01*
X137965Y311424D01*
X133813Y311424D01*
X133813Y307272D01*
X140041Y316217D02*
X127584Y316217D01*
X140041Y324522D01*
X127584Y324522D01*
X127584Y329315D02*
X140041Y329315D01*
X140041Y335543D01*
X137965Y337619D01*
X129660Y337619D01*
X127584Y335543D01*
X127584Y329315D01*
D11*
X133564Y247810D02*
X133564Y193454D01*
X64730Y193454D01*
X64730Y200312D01*
D12*
X281194Y197905D02*
X283651Y195448D01*
X281194Y197905D02*
X281194Y190533D01*
X283651Y190533D02*
X278737Y190533D01*
X276167Y191762D02*
X276167Y196677D01*
X274939Y197905D01*
X272481Y197905D01*
X271252Y196677D01*
X271252Y191762D01*
X272481Y190533D01*
X274939Y190533D01*
X276167Y191762D01*
X271252Y196677D01*
X268683Y197905D02*
X268683Y190533D01*
X268683Y192990D02*
X263768Y197905D01*
X267454Y194219D02*
X263768Y190533D01*
D13*
X745958Y424876D02*
X751551Y424876D01*
X749687Y426740D01*
X751551Y428604D01*
X745958Y428604D01*
X751551Y433285D02*
X750619Y434218D01*
X751551Y433285D02*
X751551Y431421D01*
X750619Y430489D01*
X746890Y430489D01*
X745958Y431421D01*
X745958Y433285D01*
X746890Y434218D01*
X745958Y436102D02*
X751551Y436102D01*
X751551Y438899D01*
X750619Y439831D01*
X748754Y439831D01*
X747822Y438899D01*
X747822Y436102D01*
X745958Y444512D02*
X751551Y444512D01*
X748754Y441715D01*
X748754Y445444D01*
X749687Y447328D02*
X751551Y449193D01*
X745958Y449193D01*
X745958Y451057D02*
X745958Y447328D01*
X745958Y452941D02*
X751551Y452941D01*
X748754Y452941D02*
X748754Y456670D01*
X745958Y456670D02*
X751551Y456670D01*
X751551Y458555D02*
X747822Y458555D01*
X745958Y460419D01*
X747822Y462283D01*
X751551Y462283D01*
X750619Y464168D02*
X751551Y465100D01*
X751551Y466964D01*
X750619Y467896D01*
X749687Y467896D01*
X748754Y466964D01*
X748754Y466032D01*
X748754Y466964D02*
X747822Y467896D01*
X746890Y467896D01*
X745958Y466964D01*
X745958Y465100D01*
X746890Y464168D01*
X749687Y469781D02*
X751551Y471645D01*
X745958Y471645D01*
X745958Y469781D02*
X745958Y473509D01*
X745958Y361376D02*
X751551Y361376D01*
X749687Y363240D01*
X751551Y365104D01*
X745958Y365104D01*
X751551Y369785D02*
X750619Y370718D01*
X751551Y369785D02*
X751551Y367921D01*
X750619Y366989D01*
X746890Y366989D01*
X745958Y367921D01*
X745958Y369785D01*
X746890Y370718D01*
X745958Y372602D02*
X751551Y372602D01*
X751551Y375399D01*
X750619Y376331D01*
X748754Y376331D01*
X747822Y375399D01*
X747822Y372602D01*
X745958Y381012D02*
X751551Y381012D01*
X748754Y378215D01*
X748754Y381944D01*
X749687Y383828D02*
X751551Y385693D01*
X745958Y385693D01*
X745958Y387557D02*
X745958Y383828D01*
X745958Y389441D02*
X751551Y389441D01*
X748754Y389441D02*
X748754Y393170D01*
X745958Y393170D02*
X751551Y393170D01*
X751551Y395055D02*
X747822Y395055D01*
X745958Y396919D01*
X747822Y398783D01*
X751551Y398783D01*
X750619Y400668D02*
X751551Y401600D01*
X751551Y403464D01*
X750619Y404396D01*
X749687Y404396D01*
X748754Y403464D01*
X748754Y402532D01*
X748754Y403464D02*
X747822Y404396D01*
X746890Y404396D01*
X745958Y403464D01*
X745958Y401600D01*
X746890Y400668D01*
X749687Y406281D02*
X751551Y408145D01*
X745958Y408145D01*
X745958Y406281D02*
X745958Y410009D01*
D14*
X630388Y107826D02*
X630388Y103928D01*
X630388Y105877D02*
X642082Y105877D01*
X642082Y103928D02*
X642082Y107826D01*
X630388Y113673D02*
X630388Y117571D01*
X632337Y119520D01*
X636235Y119520D01*
X638184Y117571D01*
X638184Y113673D01*
X636235Y111724D01*
X632337Y111724D01*
X630388Y113673D01*
X632337Y123418D02*
X638184Y123418D01*
X632337Y123418D02*
X630388Y125367D01*
X630388Y131214D01*
X638184Y131214D01*
X640133Y137061D02*
X632337Y137061D01*
X630388Y139010D01*
X638184Y139010D02*
X638184Y135112D01*
D15*
X645120Y152560D02*
X627340Y152560D01*
X627340Y104300D01*
X645120Y104300D01*
D16*
X779740Y248064D02*
X779740Y256707D01*
X773978Y248064D01*
X773978Y256707D01*
X768944Y248064D02*
X766063Y248064D01*
X768944Y248064D02*
X770385Y249505D01*
X770385Y252386D01*
X768944Y253826D01*
X766063Y253826D01*
X764623Y252386D01*
X764623Y250945D01*
X770385Y250945D01*
X761030Y249505D02*
X761030Y253826D01*
X761030Y249505D02*
X759589Y248064D01*
X755267Y248064D01*
X755267Y253826D01*
X751674Y253826D02*
X751674Y248064D01*
X751674Y250945D02*
X748793Y253826D01*
X747353Y253826D01*
X742438Y248064D02*
X739557Y248064D01*
X738116Y249505D01*
X738116Y252386D01*
X739557Y253826D01*
X742438Y253826D01*
X743878Y252386D01*
X743878Y249505D01*
X742438Y248064D01*
X730202Y256707D02*
X728761Y255267D01*
X730202Y256707D02*
X733083Y256707D01*
X734523Y255267D01*
X734523Y253826D01*
X733083Y252386D01*
X730202Y252386D01*
X728761Y250945D01*
X728761Y249505D01*
X730202Y248064D01*
X733083Y248064D01*
X734523Y249505D01*
X723728Y249505D02*
X723728Y255267D01*
X723728Y249505D02*
X722287Y248064D01*
X722287Y253826D02*
X725168Y253826D01*
X718931Y253826D02*
X717491Y253826D01*
X717491Y248064D01*
X718931Y248064D02*
X716050Y248064D01*
X717491Y256707D02*
X717491Y258148D01*
X712695Y253826D02*
X712695Y248064D01*
X712695Y253826D02*
X711254Y253826D01*
X709813Y252386D01*
X709813Y248064D01*
X709813Y252386D02*
X708373Y253826D01*
X706932Y252386D01*
X706932Y248064D01*
X703339Y248064D02*
X703339Y256707D01*
X703339Y248064D02*
X699018Y248064D01*
X697577Y249505D01*
X697577Y255267D01*
X699018Y256707D01*
X703339Y256707D01*
X693984Y253826D02*
X693984Y249505D01*
X692544Y248064D01*
X688222Y248064D01*
X688222Y253826D01*
X684629Y253826D02*
X683188Y253826D01*
X683188Y248064D01*
X681748Y248064D02*
X684629Y248064D01*
X683188Y256707D02*
X683188Y258148D01*
X678392Y253826D02*
X678392Y248064D01*
X678392Y253826D02*
X674071Y253826D01*
X672630Y252386D01*
X672630Y248064D01*
X667596Y248064D02*
X664715Y248064D01*
X663275Y249505D01*
X663275Y252386D01*
X664715Y253826D01*
X667596Y253826D01*
X669037Y252386D01*
X669037Y249505D01*
X667596Y248064D01*
X650327Y253826D02*
X647446Y248064D01*
X644564Y253826D01*
X640971Y253826D02*
X638090Y256707D01*
X638090Y248064D01*
X640971Y248064D02*
X635209Y248064D01*
X631616Y248064D02*
X631616Y249505D01*
X630176Y249505D01*
X630176Y248064D01*
X631616Y248064D01*
X626939Y253826D02*
X624058Y256707D01*
X624058Y248064D01*
X626939Y248064D02*
X621176Y248064D01*
D13*
X772456Y238839D02*
X775252Y238839D01*
X776184Y237906D01*
X776184Y236042D01*
X775252Y235110D01*
X772456Y235110D01*
D14*
X769580Y237396D02*
X769582Y237531D01*
X769588Y237666D01*
X769598Y237800D01*
X769612Y237934D01*
X769630Y238068D01*
X769651Y238201D01*
X769677Y238333D01*
X769707Y238465D01*
X769740Y238596D01*
X769777Y238725D01*
X769819Y238854D01*
X769863Y238981D01*
X769912Y239107D01*
X769964Y239231D01*
X770020Y239354D01*
X770080Y239475D01*
X770143Y239594D01*
X770209Y239711D01*
X770279Y239826D01*
X770353Y239940D01*
X770430Y240051D01*
X770509Y240159D01*
X770593Y240265D01*
X770679Y240369D01*
X770768Y240470D01*
X770860Y240569D01*
X770955Y240664D01*
X771053Y240757D01*
X771153Y240847D01*
X771256Y240934D01*
X771362Y241018D01*
X771470Y241099D01*
X771580Y241176D01*
X771693Y241250D01*
X771808Y241321D01*
X771925Y241389D01*
X772043Y241453D01*
X772164Y241513D01*
X772286Y241570D01*
X772410Y241623D01*
X772536Y241673D01*
X772662Y241719D01*
X772791Y241761D01*
X772920Y241799D01*
X773050Y241833D01*
X773182Y241864D01*
X773314Y241891D01*
X773447Y241913D01*
X773580Y241932D01*
X773714Y241947D01*
X773849Y241958D01*
X773983Y241965D01*
X774118Y241968D01*
X774253Y241967D01*
X774388Y241962D01*
X774522Y241953D01*
X774657Y241940D01*
X774791Y241923D01*
X774924Y241902D01*
X775056Y241878D01*
X775188Y241849D01*
X775319Y241817D01*
X775449Y241780D01*
X775578Y241740D01*
X775705Y241696D01*
X775831Y241648D01*
X775956Y241597D01*
X776079Y241542D01*
X776201Y241483D01*
X776320Y241421D01*
X776438Y241355D01*
X776554Y241286D01*
X776667Y241214D01*
X776779Y241138D01*
X776888Y241059D01*
X776995Y240977D01*
X777099Y240891D01*
X777201Y240803D01*
X777300Y240711D01*
X777397Y240617D01*
X777490Y240520D01*
X777581Y240420D01*
X777669Y240318D01*
X777753Y240213D01*
X777835Y240105D01*
X777913Y239995D01*
X777988Y239883D01*
X778060Y239769D01*
X778128Y239653D01*
X778193Y239534D01*
X778254Y239414D01*
X778312Y239292D01*
X778366Y239169D01*
X778417Y239044D01*
X778463Y238917D01*
X778506Y238790D01*
X778546Y238661D01*
X778581Y238530D01*
X778613Y238399D01*
X778640Y238267D01*
X778664Y238135D01*
X778684Y238001D01*
X778700Y237867D01*
X778712Y237733D01*
X778720Y237598D01*
X778724Y237463D01*
X778724Y237329D01*
X778720Y237194D01*
X778712Y237059D01*
X778700Y236925D01*
X778684Y236791D01*
X778664Y236657D01*
X778640Y236525D01*
X778613Y236393D01*
X778581Y236262D01*
X778546Y236131D01*
X778506Y236002D01*
X778463Y235875D01*
X778417Y235748D01*
X778366Y235623D01*
X778312Y235500D01*
X778254Y235378D01*
X778193Y235258D01*
X778128Y235139D01*
X778060Y235023D01*
X777988Y234909D01*
X777913Y234797D01*
X777835Y234687D01*
X777753Y234579D01*
X777669Y234474D01*
X777581Y234372D01*
X777490Y234272D01*
X777397Y234175D01*
X777300Y234081D01*
X777201Y233989D01*
X777099Y233901D01*
X776995Y233815D01*
X776888Y233733D01*
X776779Y233654D01*
X776667Y233578D01*
X776554Y233506D01*
X776438Y233437D01*
X776320Y233371D01*
X776201Y233309D01*
X776079Y233250D01*
X775956Y233195D01*
X775831Y233144D01*
X775705Y233096D01*
X775578Y233052D01*
X775449Y233012D01*
X775319Y232975D01*
X775188Y232943D01*
X775056Y232914D01*
X774924Y232890D01*
X774791Y232869D01*
X774657Y232852D01*
X774522Y232839D01*
X774388Y232830D01*
X774253Y232825D01*
X774118Y232824D01*
X773983Y232827D01*
X773849Y232834D01*
X773714Y232845D01*
X773580Y232860D01*
X773447Y232879D01*
X773314Y232901D01*
X773182Y232928D01*
X773050Y232959D01*
X772920Y232993D01*
X772791Y233031D01*
X772662Y233073D01*
X772536Y233119D01*
X772410Y233169D01*
X772286Y233222D01*
X772164Y233279D01*
X772043Y233339D01*
X771925Y233403D01*
X771808Y233471D01*
X771693Y233542D01*
X771580Y233616D01*
X771470Y233693D01*
X771362Y233774D01*
X771256Y233858D01*
X771153Y233945D01*
X771053Y234035D01*
X770955Y234128D01*
X770860Y234223D01*
X770768Y234322D01*
X770679Y234423D01*
X770593Y234527D01*
X770509Y234633D01*
X770430Y234741D01*
X770353Y234852D01*
X770279Y234966D01*
X770209Y235081D01*
X770143Y235198D01*
X770080Y235317D01*
X770020Y235438D01*
X769964Y235561D01*
X769912Y235685D01*
X769863Y235811D01*
X769819Y235938D01*
X769777Y236067D01*
X769740Y236196D01*
X769707Y236327D01*
X769677Y236459D01*
X769651Y236591D01*
X769630Y236724D01*
X769612Y236858D01*
X769598Y236992D01*
X769588Y237126D01*
X769582Y237261D01*
X769580Y237396D01*
D17*
X766024Y232570D02*
X766024Y243247D01*
X758906Y232570D01*
X758906Y243247D01*
X752551Y232570D02*
X748991Y232570D01*
X752551Y232570D02*
X754330Y234350D01*
X754330Y237909D01*
X752551Y239688D01*
X748991Y239688D01*
X747212Y237909D01*
X747212Y236129D01*
X754330Y236129D01*
X742636Y234350D02*
X742636Y239688D01*
X742636Y234350D02*
X740857Y232570D01*
X735518Y232570D01*
X735518Y239688D01*
X730942Y239688D02*
X730942Y232570D01*
X730942Y236129D02*
X727383Y239688D01*
X725604Y239688D01*
X719418Y239688D02*
X715859Y239688D01*
X714079Y237909D01*
X714079Y232570D01*
X719418Y232570D01*
X721197Y234350D01*
X719418Y236129D01*
X714079Y236129D01*
X709503Y243247D02*
X707724Y243247D01*
X707724Y232570D01*
X709503Y232570D02*
X705944Y232570D01*
X699928Y239688D02*
X696369Y239688D01*
X694589Y237909D01*
X694589Y232570D01*
X699928Y232570D01*
X701707Y234350D01*
X699928Y236129D01*
X694589Y236129D01*
X690013Y239688D02*
X682895Y232570D01*
X690013Y232570D02*
X682895Y239688D01*
X678319Y239688D02*
X678319Y234350D01*
X676540Y232570D01*
X671201Y232570D01*
X671201Y230791D02*
X671201Y239688D01*
X671201Y230791D02*
X672981Y229011D01*
X674760Y229011D01*
D13*
X819618Y423402D02*
X825211Y423402D01*
X823347Y425266D01*
X825211Y427131D01*
X819618Y427131D01*
X819618Y429015D02*
X823347Y429015D01*
X825211Y430880D01*
X823347Y432744D01*
X819618Y432744D01*
X822414Y432744D02*
X822414Y429015D01*
X825211Y434628D02*
X819618Y438357D01*
X819618Y434628D02*
X825211Y438357D01*
X824279Y442106D02*
X825211Y443970D01*
X824279Y442106D02*
X822414Y440241D01*
X820550Y440241D01*
X819618Y441174D01*
X819618Y443038D01*
X820550Y443970D01*
X821482Y443970D01*
X822414Y443038D01*
X822414Y440241D01*
X820550Y445855D02*
X824279Y445855D01*
X825211Y446787D01*
X825211Y448651D01*
X824279Y449583D01*
X820550Y449583D01*
X819618Y448651D01*
X819618Y446787D01*
X820550Y445855D01*
X824279Y449583D01*
X823347Y451468D02*
X825211Y453332D01*
X819618Y453332D01*
X819618Y451468D02*
X819618Y455196D01*
X824279Y457081D02*
X825211Y458013D01*
X825211Y459877D01*
X824279Y460809D01*
X823347Y460809D01*
X822414Y459877D01*
X821482Y460809D01*
X820550Y460809D01*
X819618Y459877D01*
X819618Y458013D01*
X820550Y457081D01*
X821482Y457081D01*
X822414Y458013D01*
X823347Y457081D01*
X824279Y457081D01*
X822414Y458013D02*
X822414Y459877D01*
D17*
X233270Y300720D02*
X233270Y198720D01*
X181270Y198720D01*
X181270Y300720D01*
X233270Y300720D01*
D18*
X223520Y291720D03*
D12*
X230731Y304861D02*
X233188Y304861D01*
X231959Y304861D02*
X231959Y312233D01*
X230731Y312233D02*
X233188Y312233D01*
X224512Y312233D02*
X223284Y311005D01*
X224512Y312233D02*
X226970Y312233D01*
X228199Y311005D01*
X228199Y306090D01*
X226970Y304861D01*
X224512Y304861D01*
X223284Y306090D01*
X220714Y304861D02*
X215800Y304861D01*
X220714Y304861D02*
X215800Y309776D01*
X215800Y311005D01*
X217028Y312233D01*
X219486Y312233D01*
X220714Y311005D01*
X213695Y236711D02*
X206323Y236711D01*
X213695Y236711D02*
X213695Y241626D01*
X210009Y239168D02*
X210009Y236711D01*
X206323Y246652D02*
X213695Y246652D01*
X213695Y244195D02*
X213695Y249110D01*
X206323Y251679D02*
X206323Y256594D01*
X206323Y251679D02*
X211238Y256594D01*
X212467Y256594D01*
X213695Y255365D01*
X213695Y252908D01*
X212467Y251679D01*
X212467Y259163D02*
X213695Y260392D01*
X213695Y262850D01*
X212467Y264078D01*
X211238Y264078D01*
X210009Y262850D01*
X210009Y261621D01*
X210009Y262850D02*
X208780Y264078D01*
X207552Y264078D01*
X206323Y262850D01*
X206323Y260392D01*
X207552Y259163D01*
X206323Y266648D02*
X206323Y271562D01*
X206323Y266648D02*
X211238Y271562D01*
X212467Y271562D01*
X213695Y270334D01*
X213695Y267876D01*
X212467Y266648D01*
X213695Y274132D02*
X206323Y274132D01*
X213695Y274132D02*
X213695Y277818D01*
X212467Y279047D01*
X210009Y279047D01*
X208780Y277818D01*
X208780Y274132D01*
X208780Y276589D02*
X206323Y279047D01*
X206323Y281616D02*
X213695Y281616D01*
X206323Y281616D02*
X206323Y286531D01*
X289081Y216231D02*
X296453Y216231D01*
X296453Y219917D01*
X295225Y221146D01*
X292767Y221146D01*
X291538Y219917D01*
X291538Y216231D01*
X291538Y218688D02*
X289081Y221146D01*
X295225Y226173D02*
X296453Y228630D01*
X295225Y226173D02*
X292767Y223715D01*
X290310Y223715D01*
X289081Y224944D01*
X289081Y227401D01*
X290310Y228630D01*
X291538Y228630D01*
X292767Y227401D01*
X292767Y223715D01*
X258353Y218688D02*
X255896Y216231D01*
X258353Y218688D02*
X250981Y218688D01*
X250981Y216231D02*
X250981Y221146D01*
X252210Y223715D02*
X257125Y223715D01*
X258353Y224944D01*
X258353Y227401D01*
X257125Y228630D01*
X252210Y228630D01*
X250981Y227401D01*
X250981Y224944D01*
X252210Y223715D01*
X257125Y228630D01*
X258353Y231199D02*
X250981Y231199D01*
X253438Y231199D02*
X258353Y236114D01*
X254667Y232428D02*
X250981Y236114D01*
X131087Y488543D02*
X131087Y495915D01*
X127401Y495915D01*
X126172Y494687D01*
X126172Y492229D01*
X127401Y491000D01*
X131087Y491000D01*
X128630Y491000D02*
X126172Y488543D01*
X123603Y493458D02*
X121146Y495915D01*
X121146Y488543D01*
X123603Y488543D02*
X118688Y488543D01*
X132495Y463446D02*
X130038Y460989D01*
X132495Y463446D02*
X125123Y463446D01*
X125123Y460989D02*
X125123Y465903D01*
X126352Y468473D02*
X131267Y468473D01*
X132495Y469701D01*
X132495Y472159D01*
X131267Y473388D01*
X126352Y473388D01*
X125123Y472159D01*
X125123Y469701D01*
X126352Y468473D01*
X131267Y473388D01*
X132495Y475957D02*
X125123Y475957D01*
X127580Y475957D02*
X132495Y480872D01*
X128809Y477186D02*
X125123Y480872D01*
X19535Y491319D02*
X18307Y492548D01*
X19535Y491319D02*
X19535Y488861D01*
X18307Y487633D01*
X13392Y487633D01*
X12163Y488861D01*
X12163Y491319D01*
X13392Y492548D01*
X17078Y495117D02*
X19535Y497574D01*
X12163Y497574D01*
X12163Y495117D02*
X12163Y500032D01*
X51492Y468922D02*
X56407Y468922D01*
X57635Y470151D01*
X57635Y472608D01*
X56407Y473837D01*
X51492Y473837D01*
X50263Y472608D01*
X50263Y470151D01*
X51492Y468922D01*
X56407Y473837D01*
X51492Y476406D02*
X50263Y476406D01*
X51492Y476406D02*
X51492Y477635D01*
X50263Y477635D01*
X50263Y476406D01*
X55178Y480149D02*
X57635Y482606D01*
X50263Y482606D01*
X50263Y480149D02*
X50263Y485063D01*
X51492Y487633D02*
X55178Y487633D01*
X51492Y487633D02*
X50263Y488861D01*
X50263Y492548D01*
X55178Y492548D01*
X57635Y495117D02*
X50263Y495117D01*
X57635Y495117D02*
X57635Y500032D01*
X53949Y497574D02*
X53949Y495117D01*
X230627Y143513D02*
X231855Y142285D01*
X231855Y139827D01*
X230627Y138599D01*
X225712Y138599D01*
X224483Y139827D01*
X224483Y142285D01*
X225712Y143513D01*
X224483Y146083D02*
X224483Y150998D01*
X224483Y146083D02*
X229398Y150998D01*
X230627Y150998D01*
X231855Y149769D01*
X231855Y147311D01*
X230627Y146083D01*
X231855Y153567D02*
X231855Y158482D01*
X231855Y153567D02*
X228169Y153567D01*
X229398Y156024D01*
X229398Y157253D01*
X228169Y158482D01*
X225712Y158482D01*
X224483Y157253D01*
X224483Y154796D01*
X225712Y153567D01*
X256609Y163200D02*
X256609Y168115D01*
X255380Y169343D01*
X252923Y169343D01*
X251694Y168115D01*
X251694Y163200D01*
X252923Y161971D01*
X255380Y161971D01*
X256609Y163200D01*
X251694Y168115D01*
X249125Y163200D02*
X249125Y161971D01*
X249125Y163200D02*
X247896Y163200D01*
X247896Y161971D01*
X249125Y161971D01*
X245383Y166886D02*
X242925Y169343D01*
X242925Y161971D01*
X240468Y161971D02*
X245383Y161971D01*
X237899Y163200D02*
X237899Y166886D01*
X237899Y163200D02*
X236670Y161971D01*
X232984Y161971D01*
X232984Y166886D01*
X230414Y169343D02*
X230414Y161971D01*
X230414Y169343D02*
X225500Y169343D01*
X227957Y165657D02*
X230414Y165657D01*
X166273Y103267D02*
X165045Y104496D01*
X166273Y103267D02*
X166273Y100810D01*
X165045Y99581D01*
X160130Y99581D01*
X158901Y100810D01*
X158901Y103267D01*
X160130Y104496D01*
X158901Y107065D02*
X158901Y111980D01*
X158901Y107065D02*
X163816Y111980D01*
X165045Y111980D01*
X166273Y110751D01*
X166273Y108294D01*
X165045Y107065D01*
X165045Y114549D02*
X166273Y115778D01*
X166273Y118235D01*
X165045Y119464D01*
X163816Y119464D01*
X162587Y118235D01*
X161358Y119464D01*
X160130Y119464D01*
X158901Y118235D01*
X158901Y115778D01*
X160130Y114549D01*
X161358Y114549D01*
X162587Y115778D01*
X163816Y114549D01*
X165045Y114549D01*
X162587Y115778D02*
X162587Y118235D01*
X194678Y125705D02*
X197136Y123248D01*
X194678Y125705D02*
X194678Y118333D01*
X192221Y118333D02*
X197136Y118333D01*
X189651Y119562D02*
X189651Y124477D01*
X188423Y125705D01*
X185965Y125705D01*
X184737Y124477D01*
X184737Y119562D01*
X185965Y118333D01*
X188423Y118333D01*
X189651Y119562D01*
X184737Y124477D01*
X182167Y123248D02*
X182167Y118333D01*
X182167Y123248D02*
X178481Y123248D01*
X177252Y122019D01*
X177252Y118333D01*
X174683Y118333D02*
X174683Y125705D01*
X169768Y125705D01*
X172226Y122019D02*
X174683Y122019D01*
X55265Y487413D02*
X47893Y487413D01*
X55265Y487413D02*
X55265Y491099D01*
X54037Y492328D01*
X51579Y492328D01*
X50350Y491099D01*
X50350Y487413D01*
X50350Y489870D02*
X47893Y492328D01*
X47893Y494897D02*
X47893Y499812D01*
X47893Y494897D02*
X52808Y499812D01*
X54037Y499812D01*
X55265Y498583D01*
X55265Y496126D01*
X54037Y494897D01*
X85993Y476131D02*
X93365Y476131D01*
X89679Y472444D01*
X89679Y477359D01*
X93365Y479929D02*
X93365Y484843D01*
X92137Y484843D01*
X87222Y479929D01*
X85993Y479929D01*
X87222Y487413D02*
X92137Y487413D01*
X93365Y488641D01*
X93365Y491099D01*
X92137Y492328D01*
X87222Y492328D01*
X85993Y491099D01*
X85993Y488641D01*
X87222Y487413D01*
X92137Y492328D01*
X93365Y494897D02*
X93365Y499812D01*
X93365Y494897D02*
X85993Y494897D01*
X85993Y499812D01*
X89679Y497354D02*
X89679Y494897D01*
X533144Y223855D02*
X534373Y225083D01*
X536830Y225083D01*
X538059Y223855D01*
X538059Y218940D01*
X536830Y217711D01*
X534373Y217711D01*
X533144Y218940D01*
X530575Y223855D02*
X529346Y225083D01*
X526889Y225083D01*
X525660Y223855D01*
X525660Y222626D01*
X526889Y221397D01*
X528117Y221397D01*
X526889Y221397D02*
X525660Y220168D01*
X525660Y218940D01*
X526889Y217711D01*
X529346Y217711D01*
X530575Y218940D01*
X540812Y190382D02*
X545727Y190382D01*
X546955Y191611D01*
X546955Y194068D01*
X545727Y195297D01*
X540812Y195297D01*
X539583Y194068D01*
X539583Y191611D01*
X540812Y190382D01*
X545727Y195297D01*
X540812Y197866D02*
X539583Y197866D01*
X540812Y197866D02*
X540812Y199095D01*
X539583Y199095D01*
X539583Y197866D01*
X544498Y201609D02*
X546955Y204066D01*
X539583Y204066D01*
X539583Y201609D02*
X539583Y206523D01*
X540812Y209093D02*
X544498Y209093D01*
X540812Y209093D02*
X539583Y210321D01*
X539583Y214008D01*
X544498Y214008D01*
X546955Y216577D02*
X539583Y216577D01*
X546955Y216577D02*
X546955Y221492D01*
X543269Y219034D02*
X543269Y216577D01*
X341251Y162485D02*
X340022Y161257D01*
X341251Y162485D02*
X343709Y162485D01*
X344937Y161257D01*
X344937Y156342D01*
X343709Y155113D01*
X341251Y155113D01*
X340022Y156342D01*
X333767Y155113D02*
X333767Y162485D01*
X337453Y158799D01*
X332538Y158799D01*
X349182Y119072D02*
X354097Y119072D01*
X355325Y120301D01*
X355325Y122758D01*
X354097Y123987D01*
X349182Y123987D01*
X347953Y122758D01*
X347953Y120301D01*
X349182Y119072D01*
X354097Y123987D01*
X349182Y126556D02*
X347953Y126556D01*
X349182Y126556D02*
X349182Y127785D01*
X347953Y127785D01*
X347953Y126556D01*
X352868Y130299D02*
X355325Y132756D01*
X347953Y132756D01*
X347953Y130299D02*
X347953Y135213D01*
X349182Y137783D02*
X352868Y137783D01*
X349182Y137783D02*
X347953Y139011D01*
X347953Y142698D01*
X352868Y142698D01*
X355325Y145267D02*
X347953Y145267D01*
X355325Y145267D02*
X355325Y150182D01*
X351639Y147724D02*
X351639Y145267D01*
X403604Y377525D02*
X404833Y378753D01*
X407290Y378753D01*
X408519Y377525D01*
X408519Y372610D01*
X407290Y371381D01*
X404833Y371381D01*
X403604Y372610D01*
X401035Y378753D02*
X396120Y378753D01*
X401035Y378753D02*
X401035Y375067D01*
X398577Y376296D01*
X397349Y376296D01*
X396120Y375067D01*
X396120Y372610D01*
X397349Y371381D01*
X399806Y371381D01*
X401035Y372610D01*
X413050Y345981D02*
X417965Y345981D01*
X419193Y347210D01*
X419193Y349667D01*
X417965Y350896D01*
X413050Y350896D01*
X411821Y349667D01*
X411821Y347210D01*
X413050Y345981D01*
X417965Y350896D01*
X413050Y353465D02*
X411821Y353465D01*
X413050Y353465D02*
X413050Y354694D01*
X411821Y354694D01*
X411821Y353465D01*
X416736Y357207D02*
X419193Y359665D01*
X411821Y359665D01*
X411821Y362122D02*
X411821Y357207D01*
X413050Y364691D02*
X416736Y364691D01*
X413050Y364691D02*
X411821Y365920D01*
X411821Y369606D01*
X416736Y369606D01*
X419193Y372176D02*
X411821Y372176D01*
X419193Y372176D02*
X419193Y377090D01*
X415507Y374633D02*
X415507Y372176D01*
D19*
X88401Y217713D02*
X88401Y214917D01*
X89333Y217713D02*
X87469Y217713D01*
X86526Y217713D02*
X86526Y214917D01*
X86526Y217713D02*
X85128Y217713D01*
X84662Y217247D01*
X84662Y216315D01*
X85128Y215849D01*
X86526Y215849D01*
X83720Y217247D02*
X83254Y217713D01*
X82322Y217713D01*
X81856Y217247D01*
X81856Y216781D01*
X82322Y216315D01*
X82788Y216315D01*
X82322Y216315D02*
X81856Y215849D01*
X81856Y215383D01*
X82322Y214917D01*
X83254Y214917D01*
X83720Y215383D01*
X68111Y214917D02*
X68111Y217713D01*
X69043Y217713D02*
X67179Y217713D01*
X66236Y217713D02*
X66236Y214917D01*
X66236Y217713D02*
X64838Y217713D01*
X64372Y217247D01*
X64372Y216315D01*
X64838Y215849D01*
X66236Y215849D01*
X62032Y214917D02*
X62032Y217713D01*
X63430Y216315D01*
X61566Y216315D01*
X68111Y240317D02*
X68111Y243113D01*
X69043Y243113D02*
X67179Y243113D01*
X66236Y243113D02*
X66236Y240317D01*
X66236Y243113D02*
X64838Y243113D01*
X64372Y242647D01*
X64372Y241715D01*
X64838Y241249D01*
X66236Y241249D01*
X63430Y240317D02*
X61566Y240317D01*
X63430Y240317D02*
X61566Y242181D01*
X61566Y242647D01*
X62032Y243113D01*
X62964Y243113D01*
X63430Y242647D01*
X88401Y243113D02*
X88401Y240317D01*
X89333Y243113D02*
X87469Y243113D01*
X86526Y243113D02*
X86526Y240317D01*
X86526Y243113D02*
X85128Y243113D01*
X84662Y242647D01*
X84662Y241715D01*
X85128Y241249D01*
X86526Y241249D01*
X83720Y242181D02*
X82788Y243113D01*
X82788Y240317D01*
X83720Y240317D02*
X81856Y240317D01*
D20*
X343320Y430960D02*
X375420Y430960D01*
X343320Y430960D02*
X343320Y382160D01*
X375420Y382160D01*
X375420Y430960D01*
X378920Y432610D02*
X394120Y432610D01*
D12*
X368968Y402877D02*
X366510Y402877D01*
X367739Y402877D02*
X367739Y410249D01*
X368968Y410249D02*
X366510Y410249D01*
X360292Y410249D02*
X359064Y409021D01*
X360292Y410249D02*
X362750Y410249D01*
X363978Y409021D01*
X363978Y404106D01*
X362750Y402877D01*
X360292Y402877D01*
X359064Y404106D01*
X352808Y402877D02*
X352808Y410249D01*
X356494Y406563D01*
X351579Y406563D01*
X388926Y402877D02*
X388926Y410249D01*
X388926Y406563D02*
X384011Y406563D01*
X384011Y410249D02*
X384011Y402877D01*
X377755Y410249D02*
X376527Y409021D01*
X377755Y410249D02*
X380213Y410249D01*
X381441Y409021D01*
X381441Y404106D01*
X380213Y402877D01*
X377755Y402877D01*
X376527Y404106D01*
X373957Y402877D02*
X373957Y410249D01*
X370271Y410249D01*
X369042Y409021D01*
X369042Y406563D01*
X370271Y405334D01*
X373957Y405334D01*
X366473Y402877D02*
X366473Y410249D01*
X366473Y402877D02*
X361558Y402877D01*
X358989Y404106D02*
X358989Y409021D01*
X357760Y410249D01*
X355303Y410249D01*
X354074Y409021D01*
X354074Y404106D01*
X355303Y402877D01*
X357760Y402877D01*
X358989Y404106D01*
X354074Y409021D01*
X351505Y410249D02*
X346590Y410249D01*
X351505Y410249D02*
X351505Y406563D01*
X349047Y407792D01*
X347819Y407792D01*
X346590Y406563D01*
X346590Y404106D01*
X347819Y402877D01*
X350276Y402877D01*
X351505Y404106D01*
X344021Y409021D02*
X342792Y410249D01*
X340335Y410249D01*
X339106Y409021D01*
X339106Y407792D01*
X340335Y406563D01*
X341563Y406563D01*
X340335Y406563D02*
X339106Y405334D01*
X339106Y404106D01*
X340335Y402877D01*
X342792Y402877D01*
X344021Y404106D01*
X336537Y407792D02*
X334079Y410249D01*
X334079Y402877D01*
X331622Y402877D02*
X336537Y402877D01*
D20*
X206510Y429690D02*
X174410Y429690D01*
X174410Y380890D01*
X206510Y380890D01*
X206510Y429690D01*
X210010Y431340D02*
X225210Y431340D01*
D12*
X200058Y401607D02*
X197600Y401607D01*
X198829Y401607D02*
X198829Y408979D01*
X200058Y408979D02*
X197600Y408979D01*
X191382Y408979D02*
X190154Y407751D01*
X191382Y408979D02*
X193840Y408979D01*
X195068Y407751D01*
X195068Y402836D01*
X193840Y401607D01*
X191382Y401607D01*
X190154Y402836D01*
X187584Y407751D02*
X186356Y408979D01*
X183898Y408979D01*
X182669Y407751D01*
X182669Y406522D01*
X183898Y405293D01*
X185127Y405293D01*
X183898Y405293D02*
X182669Y404064D01*
X182669Y402836D01*
X183898Y401607D01*
X186356Y401607D01*
X187584Y402836D01*
X220016Y401607D02*
X220016Y408979D01*
X220016Y405293D02*
X215101Y405293D01*
X215101Y408979D02*
X215101Y401607D01*
X208845Y408979D02*
X207617Y407751D01*
X208845Y408979D02*
X211303Y408979D01*
X212531Y407751D01*
X212531Y402836D01*
X211303Y401607D01*
X208845Y401607D01*
X207617Y402836D01*
X205047Y401607D02*
X205047Y408979D01*
X201361Y408979D01*
X200132Y407751D01*
X200132Y405293D01*
X201361Y404064D01*
X205047Y404064D01*
X197563Y401607D02*
X197563Y408979D01*
X197563Y401607D02*
X192648Y401607D01*
X190079Y402836D02*
X190079Y407751D01*
X188850Y408979D01*
X186393Y408979D01*
X185164Y407751D01*
X185164Y402836D01*
X186393Y401607D01*
X188850Y401607D01*
X190079Y402836D01*
X185164Y407751D01*
X182595Y408979D02*
X177680Y408979D01*
X182595Y408979D02*
X182595Y405293D01*
X180137Y406522D01*
X178909Y406522D01*
X177680Y405293D01*
X177680Y402836D01*
X178909Y401607D01*
X181366Y401607D01*
X182595Y402836D01*
X175111Y407751D02*
X173882Y408979D01*
X171425Y408979D01*
X170196Y407751D01*
X170196Y406522D01*
X171425Y405293D01*
X172653Y405293D01*
X171425Y405293D02*
X170196Y404064D01*
X170196Y402836D01*
X171425Y401607D01*
X173882Y401607D01*
X175111Y402836D01*
X167627Y406522D02*
X165169Y408979D01*
X165169Y401607D01*
X162712Y401607D02*
X167627Y401607D01*
X213104Y372445D02*
X214333Y373673D01*
X216790Y373673D01*
X218019Y372445D01*
X218019Y367530D01*
X216790Y366301D01*
X214333Y366301D01*
X213104Y367530D01*
X210535Y372445D02*
X209306Y373673D01*
X206849Y373673D01*
X205620Y372445D01*
X205620Y371216D01*
X206849Y369987D01*
X205620Y368758D01*
X205620Y367530D01*
X206849Y366301D01*
X209306Y366301D01*
X210535Y367530D01*
X210535Y368758D01*
X209306Y369987D01*
X210535Y371216D01*
X210535Y372445D01*
X209306Y369987D02*
X206849Y369987D01*
X230719Y359745D02*
X230719Y354830D01*
X230719Y359745D02*
X229490Y360973D01*
X227033Y360973D01*
X225804Y359745D01*
X225804Y354830D01*
X227033Y353601D01*
X229490Y353601D01*
X230719Y354830D01*
X225804Y359745D01*
X223235Y354830D02*
X223235Y353601D01*
X223235Y354830D02*
X222006Y354830D01*
X222006Y353601D01*
X223235Y353601D01*
X219493Y358516D02*
X217035Y360973D01*
X217035Y353601D01*
X214578Y353601D02*
X219493Y353601D01*
X212009Y354830D02*
X212009Y358516D01*
X212009Y354830D02*
X210780Y353601D01*
X207094Y353601D01*
X207094Y358516D01*
X204524Y360973D02*
X204524Y353601D01*
X204524Y360973D02*
X199610Y360973D01*
X202067Y357287D02*
X204524Y357287D01*
X383284Y373715D02*
X384513Y374943D01*
X386970Y374943D01*
X388199Y373715D01*
X388199Y368800D01*
X386970Y367571D01*
X384513Y367571D01*
X383284Y368800D01*
X380715Y374943D02*
X375800Y374943D01*
X375800Y373715D01*
X380715Y368800D01*
X380715Y367571D01*
X400899Y361015D02*
X400899Y356100D01*
X400899Y361015D02*
X399670Y362243D01*
X397213Y362243D01*
X395984Y361015D01*
X395984Y356100D01*
X397213Y354871D01*
X399670Y354871D01*
X400899Y356100D01*
X395984Y361015D01*
X393415Y356100D02*
X393415Y354871D01*
X393415Y356100D02*
X392186Y356100D01*
X392186Y354871D01*
X393415Y354871D01*
X389673Y359786D02*
X387215Y362243D01*
X387215Y354871D01*
X384758Y354871D02*
X389673Y354871D01*
X382189Y356100D02*
X382189Y359786D01*
X382189Y356100D02*
X380960Y354871D01*
X377274Y354871D01*
X377274Y359786D01*
X374704Y362243D02*
X374704Y354871D01*
X374704Y362243D02*
X369790Y362243D01*
X372247Y358557D02*
X374704Y358557D01*
D16*
X498816Y427896D02*
X532344Y427896D01*
X498816Y427896D02*
X498816Y430182D01*
X498816Y461424D02*
X532344Y461424D01*
X532344Y459138D01*
X532344Y430182D02*
X532344Y427896D01*
X498816Y459138D02*
X498816Y461424D01*
D12*
X537714Y457954D02*
X545679Y465920D01*
X537714Y465920D02*
X545679Y457954D01*
X545679Y461937D02*
X537714Y461937D01*
X541696Y457954D02*
X541696Y465920D01*
D13*
X520152Y465235D02*
X520152Y471591D01*
X520152Y465235D02*
X518881Y463964D01*
X516339Y463964D01*
X515068Y465235D01*
X515068Y471591D01*
X512668Y470319D02*
X511397Y471591D01*
X508855Y471591D01*
X507584Y470319D01*
X507584Y469048D01*
X508855Y467777D01*
X510126Y467777D01*
X508855Y467777D02*
X507584Y466506D01*
X507584Y465235D01*
X508855Y463964D01*
X511397Y463964D01*
X512668Y465235D01*
X552918Y425871D02*
X552918Y418244D01*
X547834Y418244D01*
X542892Y418244D02*
X542892Y425871D01*
X545434Y425871D02*
X540350Y425871D01*
X537950Y423328D02*
X535408Y425871D01*
X535408Y418244D01*
X537950Y418244D02*
X532865Y418244D01*
X530466Y419515D02*
X529194Y418244D01*
X526652Y418244D01*
X525381Y419515D01*
X525381Y424599D01*
X526652Y425871D01*
X529194Y425871D01*
X530466Y424599D01*
X530466Y423328D01*
X529194Y422057D01*
X525381Y422057D01*
X522981Y419515D02*
X521710Y418244D01*
X519168Y418244D01*
X517897Y419515D01*
X517897Y424599D01*
X519168Y425871D01*
X521710Y425871D01*
X522981Y424599D01*
X522981Y423328D01*
X521710Y422057D01*
X517897Y422057D01*
X515497Y423328D02*
X512955Y425871D01*
X512955Y418244D01*
X515497Y418244D02*
X510413Y418244D01*
X508013Y418244D02*
X505471Y418244D01*
X506742Y418244D02*
X506742Y425871D01*
X508013Y425871D02*
X505471Y425871D01*
X503024Y425871D02*
X503024Y418244D01*
X500481Y423328D02*
X503024Y425871D01*
X500481Y423328D02*
X497939Y425871D01*
X497939Y418244D01*
X490455Y424599D02*
X491726Y425871D01*
X494268Y425871D01*
X495539Y424599D01*
X495539Y423328D01*
X494268Y422057D01*
X491726Y422057D01*
X490455Y420786D01*
X490455Y419515D01*
X491726Y418244D01*
X494268Y418244D01*
X495539Y419515D01*
X488055Y418244D02*
X488055Y425871D01*
X484242Y425871D01*
X482971Y424599D01*
X482971Y422057D01*
X484242Y420786D01*
X488055Y420786D01*
X480571Y418244D02*
X480571Y425871D01*
X476758Y425871D01*
X475487Y424599D01*
X475487Y423328D01*
X476758Y422057D01*
X475487Y420786D01*
X475487Y419515D01*
X476758Y418244D01*
X480571Y418244D01*
X480571Y422057D02*
X476758Y422057D01*
X473087Y418244D02*
X473087Y425871D01*
X468003Y425871D01*
X470545Y422057D02*
X473087Y422057D01*
D16*
X514056Y373286D02*
X547584Y373286D01*
X514056Y373286D02*
X514056Y375572D01*
X514056Y406814D02*
X547584Y406814D01*
X547584Y404528D01*
X547584Y375572D02*
X547584Y373286D01*
X514056Y404528D02*
X514056Y406814D01*
D12*
X552954Y403344D02*
X560919Y411310D01*
X552954Y411310D02*
X560919Y403344D01*
X560919Y407327D02*
X552954Y407327D01*
X556936Y403344D02*
X556936Y411310D01*
D13*
X535392Y410625D02*
X535392Y416981D01*
X535392Y410625D02*
X534121Y409354D01*
X531579Y409354D01*
X530308Y410625D01*
X530308Y416981D01*
X527908Y409354D02*
X522824Y409354D01*
X527908Y409354D02*
X522824Y414438D01*
X522824Y415709D01*
X524095Y416981D01*
X526637Y416981D01*
X527908Y415709D01*
X568158Y371261D02*
X568158Y363634D01*
X563074Y363634D01*
X558132Y363634D02*
X558132Y371261D01*
X560674Y371261D02*
X555590Y371261D01*
X553190Y368718D02*
X550648Y371261D01*
X550648Y363634D01*
X553190Y363634D02*
X548105Y363634D01*
X545706Y364905D02*
X544434Y363634D01*
X541892Y363634D01*
X540621Y364905D01*
X540621Y369989D01*
X541892Y371261D01*
X544434Y371261D01*
X545706Y369989D01*
X545706Y368718D01*
X544434Y367447D01*
X540621Y367447D01*
X538221Y364905D02*
X536950Y363634D01*
X534408Y363634D01*
X533137Y364905D01*
X533137Y369989D01*
X534408Y371261D01*
X536950Y371261D01*
X538221Y369989D01*
X538221Y368718D01*
X536950Y367447D01*
X533137Y367447D01*
X530737Y368718D02*
X528195Y371261D01*
X528195Y363634D01*
X530737Y363634D02*
X525653Y363634D01*
X523253Y363634D02*
X520711Y363634D01*
X521982Y363634D02*
X521982Y371261D01*
X523253Y371261D02*
X520711Y371261D01*
X518264Y371261D02*
X518264Y363634D01*
X515721Y368718D02*
X518264Y371261D01*
X515721Y368718D02*
X513179Y371261D01*
X513179Y363634D01*
X505695Y369989D02*
X506966Y371261D01*
X509508Y371261D01*
X510779Y369989D01*
X510779Y368718D01*
X509508Y367447D01*
X506966Y367447D01*
X505695Y366176D01*
X505695Y364905D01*
X506966Y363634D01*
X509508Y363634D01*
X510779Y364905D01*
X503295Y363634D02*
X503295Y371261D01*
X499482Y371261D01*
X498211Y369989D01*
X498211Y367447D01*
X499482Y366176D01*
X503295Y366176D01*
X495811Y363634D02*
X495811Y371261D01*
X491998Y371261D01*
X490727Y369989D01*
X490727Y368718D01*
X491998Y367447D01*
X490727Y366176D01*
X490727Y364905D01*
X491998Y363634D01*
X495811Y363634D01*
X495811Y367447D02*
X491998Y367447D01*
X488327Y363634D02*
X488327Y371261D01*
X483243Y371261D01*
X485785Y367447D02*
X488327Y367447D01*
D16*
X678394Y361856D02*
X726146Y361856D01*
X726146Y415704D02*
X678394Y415704D01*
D12*
X730500Y412996D02*
X738465Y420962D01*
X730500Y420962D02*
X738465Y412996D01*
X738465Y416979D02*
X730500Y416979D01*
X734482Y412996D02*
X734482Y420962D01*
D13*
X709382Y419515D02*
X709382Y425871D01*
X709382Y419515D02*
X708111Y418244D01*
X705569Y418244D01*
X704298Y419515D01*
X704298Y425871D01*
X701898Y425871D02*
X696814Y425871D01*
X701898Y425871D02*
X701898Y422057D01*
X699356Y423328D01*
X698085Y423328D01*
X696814Y422057D01*
X696814Y419515D01*
X698085Y418244D01*
X700627Y418244D01*
X701898Y419515D01*
D16*
X678394Y432976D02*
X726146Y432976D01*
X726146Y486824D02*
X678394Y486824D01*
D12*
X730500Y484116D02*
X738465Y492082D01*
X730500Y492082D02*
X738465Y484116D01*
X738465Y488099D02*
X730500Y488099D01*
X734482Y484116D02*
X734482Y492082D01*
D13*
X709382Y490635D02*
X709382Y496991D01*
X709382Y490635D02*
X708111Y489364D01*
X705569Y489364D01*
X704298Y490635D01*
X704298Y496991D01*
X698085Y496991D02*
X698085Y489364D01*
X701898Y493177D02*
X698085Y496991D01*
X696814Y493177D02*
X701898Y493177D01*
D12*
X498813Y339383D02*
X497584Y338155D01*
X498813Y339383D02*
X501270Y339383D01*
X502499Y338155D01*
X502499Y333240D01*
X501270Y332011D01*
X498813Y332011D01*
X497584Y333240D01*
X495015Y336926D02*
X492557Y339383D01*
X492557Y332011D01*
X490100Y332011D02*
X495015Y332011D01*
X483845Y332011D02*
X483845Y339383D01*
X487531Y335697D01*
X482616Y335697D01*
X482227Y304682D02*
X477312Y304682D01*
X482227Y304682D02*
X483455Y305911D01*
X483455Y308368D01*
X482227Y309597D01*
X477312Y309597D01*
X476083Y308368D01*
X476083Y305911D01*
X477312Y304682D01*
X482227Y309597D01*
X477312Y312166D02*
X476083Y312166D01*
X477312Y312166D02*
X477312Y313395D01*
X476083Y313395D01*
X476083Y312166D01*
X480998Y315909D02*
X483455Y318366D01*
X476083Y318366D01*
X476083Y315909D02*
X476083Y320823D01*
X477312Y323393D02*
X480998Y323393D01*
X477312Y323393D02*
X476083Y324621D01*
X476083Y328308D01*
X480998Y328308D01*
X483455Y330877D02*
X476083Y330877D01*
X483455Y330877D02*
X483455Y335792D01*
X479769Y333334D02*
X479769Y330877D01*
X655064Y301325D02*
X656293Y302553D01*
X658750Y302553D01*
X659979Y301325D01*
X659979Y296410D01*
X658750Y295181D01*
X656293Y295181D01*
X655064Y296410D01*
X652495Y300096D02*
X650037Y302553D01*
X650037Y295181D01*
X647580Y295181D02*
X652495Y295181D01*
X645011Y301325D02*
X643782Y302553D01*
X641325Y302553D01*
X640096Y301325D01*
X640096Y300096D01*
X641325Y298867D01*
X642553Y298867D01*
X641325Y298867D02*
X640096Y297638D01*
X640096Y296410D01*
X641325Y295181D01*
X643782Y295181D01*
X645011Y296410D01*
X638437Y291982D02*
X633522Y291982D01*
X638437Y291982D02*
X639665Y293211D01*
X639665Y295668D01*
X638437Y296897D01*
X633522Y296897D01*
X632293Y295668D01*
X632293Y293211D01*
X633522Y291982D01*
X638437Y296897D01*
X633522Y299466D02*
X632293Y299466D01*
X633522Y299466D02*
X633522Y300695D01*
X632293Y300695D01*
X632293Y299466D01*
X637208Y303209D02*
X639665Y305666D01*
X632293Y305666D01*
X632293Y303209D02*
X632293Y308123D01*
X633522Y310693D02*
X637208Y310693D01*
X633522Y310693D02*
X632293Y311921D01*
X632293Y315608D01*
X637208Y315608D01*
X639665Y318177D02*
X632293Y318177D01*
X639665Y318177D02*
X639665Y323092D01*
X635979Y320634D02*
X635979Y318177D01*
D16*
X605496Y286164D02*
X562824Y286164D01*
X562824Y338996D02*
X605496Y338996D01*
D12*
X608834Y338320D02*
X616799Y346286D01*
X608834Y346286D02*
X616799Y338320D01*
X616799Y342303D02*
X608834Y342303D01*
X612816Y338320D02*
X612816Y346286D01*
D13*
X591272Y347131D02*
X591272Y340775D01*
X590001Y339504D01*
X587459Y339504D01*
X586188Y340775D01*
X586188Y347131D01*
X583788Y344588D02*
X581246Y347131D01*
X581246Y339504D01*
X583788Y339504D02*
X578704Y339504D01*
X611338Y281088D02*
X611338Y276004D01*
X611338Y281088D02*
X608796Y283631D01*
X606254Y281088D01*
X606254Y276004D01*
X606254Y279817D02*
X611338Y279817D01*
X603854Y283631D02*
X603854Y276004D01*
X600041Y276004D01*
X598770Y277275D01*
X598770Y282359D01*
X600041Y283631D01*
X603854Y283631D01*
X596370Y282359D02*
X595099Y283631D01*
X592556Y283631D01*
X591285Y282359D01*
X591285Y281088D01*
X592556Y279817D01*
X591285Y278546D01*
X591285Y277275D01*
X592556Y276004D01*
X595099Y276004D01*
X596370Y277275D01*
X596370Y278546D01*
X595099Y279817D01*
X596370Y281088D01*
X596370Y282359D01*
X595099Y279817D02*
X592556Y279817D01*
X588886Y276004D02*
X583801Y276004D01*
X583801Y281088D02*
X588886Y276004D01*
X583801Y281088D02*
X583801Y282359D01*
X585072Y283631D01*
X587614Y283631D01*
X588886Y282359D01*
X578859Y282359D02*
X576317Y283631D01*
X578859Y282359D02*
X581401Y279817D01*
X581401Y277275D01*
X580130Y276004D01*
X577588Y276004D01*
X576317Y277275D01*
X576317Y278546D01*
X577588Y279817D01*
X581401Y279817D01*
X573917Y281088D02*
X573917Y276004D01*
X573917Y281088D02*
X571375Y283631D01*
X568833Y281088D01*
X568833Y276004D01*
X568833Y279817D02*
X573917Y279817D01*
X566433Y276004D02*
X566433Y283631D01*
X562620Y283631D01*
X561349Y282359D01*
X561349Y279817D01*
X562620Y278546D01*
X566433Y278546D01*
X563891Y278546D02*
X561349Y276004D01*
X558949Y283631D02*
X553865Y283631D01*
X553865Y282359D01*
X558949Y277275D01*
X558949Y276004D01*
X553865Y276004D01*
D20*
X881040Y286500D02*
X945540Y286500D01*
X881040Y286500D02*
X881040Y189980D01*
X945540Y189980D01*
X945540Y286500D01*
X949040Y283340D02*
X965040Y283340D01*
D12*
X920393Y292977D02*
X920393Y300349D01*
X920393Y295434D02*
X915478Y300349D01*
X919164Y296663D02*
X915478Y292977D01*
X912909Y297892D02*
X910452Y300349D01*
X910452Y292977D01*
X912909Y292977D02*
X907994Y292977D01*
X936564Y180969D02*
X936564Y173597D01*
X931649Y173597D01*
X929079Y173597D02*
X929079Y180969D01*
X925393Y180969D01*
X924165Y179741D01*
X924165Y178512D01*
X925393Y177283D01*
X924165Y176054D01*
X924165Y174826D01*
X925393Y173597D01*
X929079Y173597D01*
X929079Y177283D02*
X925393Y177283D01*
X921595Y173597D02*
X921595Y180969D01*
X917909Y180969D01*
X916680Y179741D01*
X916680Y178512D01*
X917909Y177283D01*
X916680Y176054D01*
X916680Y174826D01*
X917909Y173597D01*
X921595Y173597D01*
X921595Y177283D02*
X917909Y177283D01*
X914111Y178512D02*
X911654Y180969D01*
X911654Y173597D01*
X914111Y173597D02*
X909196Y173597D01*
X906627Y178512D02*
X904170Y180969D01*
X904170Y173597D01*
X906627Y173597D02*
X901712Y173597D01*
X899143Y174826D02*
X899143Y179741D01*
X897914Y180969D01*
X895457Y180969D01*
X894228Y179741D01*
X894228Y174826D01*
X895457Y173597D01*
X897914Y173597D01*
X899143Y174826D01*
X894228Y179741D01*
X891659Y180969D02*
X891659Y173597D01*
X891659Y180969D02*
X887972Y180969D01*
X886744Y179741D01*
X886744Y177283D01*
X887972Y176054D01*
X891659Y176054D01*
X885831Y161665D02*
X885831Y154293D01*
X885831Y161665D02*
X882145Y161665D01*
X880917Y160437D01*
X880917Y157979D01*
X882145Y156750D01*
X885831Y156750D01*
X883374Y156750D02*
X880917Y154293D01*
X878347Y159208D02*
X875890Y161665D01*
X875890Y154293D01*
X878347Y154293D02*
X873432Y154293D01*
X868406Y160437D02*
X865948Y161665D01*
X868406Y160437D02*
X870863Y157979D01*
X870863Y155522D01*
X869634Y154293D01*
X867177Y154293D01*
X865948Y155522D01*
X865948Y156750D01*
X867177Y157979D01*
X870863Y157979D01*
X890445Y90336D02*
X887988Y87878D01*
X890445Y90336D02*
X883073Y90336D01*
X883073Y92793D02*
X883073Y87878D01*
X884302Y95362D02*
X889217Y95362D01*
X890445Y96591D01*
X890445Y99049D01*
X889217Y100277D01*
X884302Y100277D01*
X883073Y99049D01*
X883073Y96591D01*
X884302Y95362D01*
X889217Y100277D01*
X890445Y102847D02*
X890445Y107761D01*
X890445Y102847D02*
X883073Y102847D01*
X883073Y107761D01*
X886759Y105304D02*
X886759Y102847D01*
X880616Y110331D02*
X883073Y112788D01*
X884302Y112788D01*
X884302Y111559D01*
X883073Y111559D01*
X883073Y112788D01*
X889217Y122804D02*
X890445Y124033D01*
X890445Y126491D01*
X889217Y127719D01*
X887988Y127719D01*
X886759Y126491D01*
X886759Y125262D01*
X886759Y126491D02*
X885530Y127719D01*
X884302Y127719D01*
X883073Y126491D01*
X883073Y124033D01*
X884302Y122804D01*
X883073Y130289D02*
X890445Y135203D01*
X890445Y141459D02*
X883073Y141459D01*
X886759Y137773D02*
X890445Y141459D01*
X886759Y142688D02*
X886759Y137773D01*
X890445Y145257D02*
X883073Y145257D01*
X885530Y147714D01*
X883073Y150172D01*
X890445Y150172D01*
X889175Y300469D02*
X881803Y300469D01*
X889175Y300469D02*
X889175Y304155D01*
X887947Y305383D01*
X885489Y305383D01*
X884260Y304155D01*
X884260Y300469D01*
X884260Y302926D02*
X881803Y305383D01*
X881803Y307953D02*
X881803Y312868D01*
X881803Y307953D02*
X886718Y312868D01*
X887947Y312868D01*
X889175Y311639D01*
X889175Y309181D01*
X887947Y307953D01*
X887947Y315437D02*
X889175Y316666D01*
X889175Y319123D01*
X887947Y320352D01*
X886718Y320352D01*
X885489Y319123D01*
X885489Y317894D01*
X885489Y319123D02*
X884260Y320352D01*
X883032Y320352D01*
X881803Y319123D01*
X881803Y316666D01*
X883032Y315437D01*
X858695Y288456D02*
X856238Y285998D01*
X858695Y288456D02*
X851323Y288456D01*
X851323Y290913D02*
X851323Y285998D01*
X852552Y293482D02*
X857467Y293482D01*
X858695Y294711D01*
X858695Y297169D01*
X857467Y298397D01*
X852552Y298397D01*
X851323Y297169D01*
X851323Y294711D01*
X852552Y293482D01*
X857467Y298397D01*
X858695Y300967D02*
X858695Y305881D01*
X858695Y300967D02*
X851323Y300967D01*
X851323Y305881D01*
X855009Y303424D02*
X855009Y300967D01*
X848866Y308451D02*
X851323Y310908D01*
X852552Y310908D01*
X852552Y309679D01*
X851323Y309679D01*
X851323Y310908D01*
X857467Y320924D02*
X858695Y322153D01*
X858695Y324611D01*
X857467Y325839D01*
X856238Y325839D01*
X855009Y324611D01*
X855009Y323382D01*
X855009Y324611D02*
X853780Y325839D01*
X852552Y325839D01*
X851323Y324611D01*
X851323Y322153D01*
X852552Y320924D01*
X851323Y328409D02*
X858695Y333323D01*
X858695Y339579D02*
X851323Y339579D01*
X855009Y335893D02*
X858695Y339579D01*
X855009Y340808D02*
X855009Y335893D01*
X858695Y343377D02*
X851323Y343377D01*
X853780Y345834D01*
X851323Y348292D01*
X858695Y348292D01*
D20*
X909660Y425960D02*
X932160Y425960D01*
X909660Y425960D02*
X909660Y395960D01*
X932160Y395960D01*
X932160Y425960D01*
X935660Y426460D02*
X950410Y426460D01*
D12*
X930508Y430137D02*
X928050Y430137D01*
X929279Y430137D02*
X929279Y437509D01*
X930508Y437509D02*
X928050Y437509D01*
X921832Y437509D02*
X920604Y436281D01*
X921832Y437509D02*
X924290Y437509D01*
X925518Y436281D01*
X925518Y431366D01*
X924290Y430137D01*
X921832Y430137D01*
X920604Y431366D01*
X915577Y436281D02*
X913119Y437509D01*
X915577Y436281D02*
X918034Y433823D01*
X918034Y431366D01*
X916806Y430137D01*
X914348Y430137D01*
X913119Y431366D01*
X913119Y432594D01*
X914348Y433823D01*
X918034Y433823D01*
X954245Y391789D02*
X954245Y384417D01*
X956702Y391789D02*
X951788Y391789D01*
X945532Y391789D02*
X944303Y390561D01*
X945532Y391789D02*
X947990Y391789D01*
X949218Y390561D01*
X949218Y389332D01*
X947990Y388103D01*
X945532Y388103D01*
X944303Y386874D01*
X944303Y385646D01*
X945532Y384417D01*
X947990Y384417D01*
X949218Y385646D01*
X938048Y391789D02*
X936819Y390561D01*
X938048Y391789D02*
X940505Y391789D01*
X941734Y390561D01*
X941734Y385646D01*
X940505Y384417D01*
X938048Y384417D01*
X936819Y385646D01*
X934250Y384417D02*
X929335Y384417D01*
X934250Y384417D02*
X929335Y389332D01*
X929335Y390561D01*
X930564Y391789D01*
X933021Y391789D01*
X934250Y390561D01*
X926766Y390561D02*
X926766Y385646D01*
X926766Y390561D02*
X925537Y391789D01*
X923080Y391789D01*
X921851Y390561D01*
X921851Y385646D01*
X923080Y384417D01*
X925537Y384417D01*
X926766Y385646D01*
X921851Y390561D01*
X919282Y389332D02*
X916824Y391789D01*
X916824Y384417D01*
X914367Y384417D02*
X919282Y384417D01*
X911797Y384417D02*
X906883Y384417D01*
X911797Y384417D02*
X906883Y389332D01*
X906883Y390561D01*
X908111Y391789D01*
X910569Y391789D01*
X911797Y390561D01*
X904313Y384417D02*
X901856Y384417D01*
X903085Y384417D02*
X903085Y391789D01*
X904313Y391789D02*
X901856Y391789D01*
X895638Y391789D02*
X894409Y390561D01*
X895638Y391789D02*
X898095Y391789D01*
X899324Y390561D01*
X899324Y389332D01*
X898095Y388103D01*
X895638Y388103D01*
X894409Y386874D01*
X894409Y385646D01*
X895638Y384417D01*
X898095Y384417D01*
X899324Y385646D01*
X889382Y384417D02*
X889382Y391789D01*
X886925Y391789D02*
X891840Y391789D01*
X943389Y464681D02*
X943389Y472053D01*
X939703Y472053D01*
X938474Y470825D01*
X938474Y468367D01*
X939703Y467138D01*
X943389Y467138D01*
X940932Y467138D02*
X938474Y464681D01*
X935905Y469596D02*
X933447Y472053D01*
X933447Y464681D01*
X930990Y464681D02*
X935905Y464681D01*
X928421Y465910D02*
X928421Y470825D01*
X927192Y472053D01*
X924735Y472053D01*
X923506Y470825D01*
X923506Y465910D01*
X924735Y464681D01*
X927192Y464681D01*
X928421Y465910D01*
X923506Y470825D01*
X949162Y440636D02*
X954077Y440636D01*
X955305Y441865D01*
X955305Y444323D01*
X954077Y445551D01*
X949162Y445551D01*
X947933Y444323D01*
X947933Y441865D01*
X949162Y440636D01*
X954077Y445551D01*
X949162Y448121D02*
X947933Y448121D01*
X949162Y448121D02*
X949162Y449349D01*
X947933Y449349D01*
X947933Y448121D01*
X955305Y451863D02*
X955305Y456778D01*
X955305Y451863D02*
X951619Y451863D01*
X952848Y454320D01*
X952848Y455549D01*
X951619Y456778D01*
X949162Y456778D01*
X947933Y455549D01*
X947933Y453091D01*
X949162Y451863D01*
X955305Y459347D02*
X955305Y464262D01*
X955305Y459347D02*
X947933Y459347D01*
X947933Y464262D01*
X951619Y461804D02*
X951619Y459347D01*
D20*
X353800Y138290D02*
X353800Y59040D01*
X396800Y59040D02*
X396800Y132040D01*
D12*
X381790Y147981D02*
X383019Y149209D01*
X385477Y149209D01*
X386705Y147981D01*
X386705Y143066D01*
X385477Y141837D01*
X383019Y141837D01*
X381790Y143066D01*
X379221Y147981D02*
X377992Y149209D01*
X375535Y149209D01*
X374306Y147981D01*
X374306Y146752D01*
X375535Y145523D01*
X376764Y145523D01*
X375535Y145523D02*
X374306Y144294D01*
X374306Y143066D01*
X375535Y141837D01*
X377992Y141837D01*
X379221Y143066D01*
X371737Y143066D02*
X371737Y147981D01*
X370508Y149209D01*
X368051Y149209D01*
X366822Y147981D01*
X366822Y143066D01*
X368051Y141837D01*
X370508Y141837D01*
X371737Y143066D01*
X366822Y147981D01*
X402097Y115788D02*
X409469Y115788D01*
X405783Y112102D01*
X405783Y117017D01*
X403326Y119586D02*
X402097Y119586D01*
X403326Y119586D02*
X403326Y120815D01*
X402097Y120815D01*
X402097Y119586D01*
X409469Y123328D02*
X409469Y128243D01*
X408241Y128243D01*
X403326Y123328D01*
X402097Y123328D01*
X403326Y130812D02*
X407012Y130812D01*
X403326Y130812D02*
X402097Y132041D01*
X402097Y135727D01*
X407012Y135727D01*
X409469Y138296D02*
X402097Y138296D01*
X409469Y138296D02*
X409469Y143211D01*
X405783Y140754D02*
X405783Y138296D01*
D20*
X409900Y96460D02*
X489150Y96460D01*
X482900Y53460D02*
X409900Y53460D01*
D12*
X489090Y47201D02*
X490319Y48429D01*
X492777Y48429D01*
X494005Y47201D01*
X494005Y42286D01*
X492777Y41057D01*
X490319Y41057D01*
X489090Y42286D01*
X486521Y47201D02*
X485292Y48429D01*
X482835Y48429D01*
X481606Y47201D01*
X481606Y45972D01*
X482835Y44743D01*
X484064Y44743D01*
X482835Y44743D02*
X481606Y43514D01*
X481606Y42286D01*
X482835Y41057D01*
X485292Y41057D01*
X486521Y42286D01*
X479037Y47201D02*
X477808Y48429D01*
X475351Y48429D01*
X474122Y47201D01*
X474122Y45972D01*
X475351Y44743D01*
X476580Y44743D01*
X475351Y44743D02*
X474122Y43514D01*
X474122Y42286D01*
X475351Y41057D01*
X477808Y41057D01*
X479037Y42286D01*
X401289Y68068D02*
X393917Y68068D01*
X397603Y64382D02*
X401289Y68068D01*
X397603Y69297D02*
X397603Y64382D01*
X395146Y71866D02*
X393917Y71866D01*
X395146Y71866D02*
X395146Y73095D01*
X393917Y73095D01*
X393917Y71866D01*
X401289Y75608D02*
X401289Y80523D01*
X400061Y80523D01*
X395146Y75608D01*
X393917Y75608D01*
X395146Y83092D02*
X398832Y83092D01*
X395146Y83092D02*
X393917Y84321D01*
X393917Y88007D01*
X398832Y88007D01*
X401289Y90576D02*
X393917Y90576D01*
X401289Y90576D02*
X401289Y95491D01*
X397603Y93034D02*
X397603Y90576D01*
D20*
X506420Y97800D02*
X585670Y97800D01*
X579420Y54800D02*
X506420Y54800D01*
D12*
X585750Y48401D02*
X586979Y49629D01*
X589437Y49629D01*
X590665Y48401D01*
X590665Y43486D01*
X589437Y42257D01*
X586979Y42257D01*
X585750Y43486D01*
X583181Y48401D02*
X581952Y49629D01*
X579495Y49629D01*
X578266Y48401D01*
X578266Y47172D01*
X579495Y45943D01*
X580724Y45943D01*
X579495Y45943D02*
X578266Y44714D01*
X578266Y43486D01*
X579495Y42257D01*
X581952Y42257D01*
X583181Y43486D01*
X572011Y42257D02*
X572011Y49629D01*
X575697Y45943D01*
X570782Y45943D01*
X499009Y70608D02*
X491637Y70608D01*
X495323Y66922D02*
X499009Y70608D01*
X495323Y71837D02*
X495323Y66922D01*
X492866Y74406D02*
X491637Y74406D01*
X492866Y74406D02*
X492866Y75635D01*
X491637Y75635D01*
X491637Y74406D01*
X499009Y78148D02*
X499009Y83063D01*
X497781Y83063D01*
X492866Y78148D01*
X491637Y78148D01*
X492866Y85632D02*
X496552Y85632D01*
X492866Y85632D02*
X491637Y86861D01*
X491637Y90547D01*
X496552Y90547D01*
X499009Y93116D02*
X491637Y93116D01*
X499009Y93116D02*
X499009Y98031D01*
X495323Y95574D02*
X495323Y93116D01*
X785804Y140685D02*
X787033Y141913D01*
X789490Y141913D01*
X790719Y140685D01*
X790719Y135770D01*
X789490Y134541D01*
X787033Y134541D01*
X785804Y135770D01*
X783235Y140685D02*
X782006Y141913D01*
X779549Y141913D01*
X778320Y140685D01*
X778320Y139456D01*
X779549Y138227D01*
X780777Y138227D01*
X779549Y138227D02*
X778320Y136998D01*
X778320Y135770D01*
X779549Y134541D01*
X782006Y134541D01*
X783235Y135770D01*
X775751Y134541D02*
X770836Y134541D01*
X775751Y134541D02*
X770836Y139456D01*
X770836Y140685D01*
X772065Y141913D01*
X774522Y141913D01*
X775751Y140685D01*
X797848Y139309D02*
X800305Y141766D01*
X792933Y141766D01*
X792933Y139309D02*
X792933Y144223D01*
X794162Y146793D02*
X797848Y146793D01*
X794162Y146793D02*
X792933Y148021D01*
X792933Y151708D01*
X797848Y151708D01*
X800305Y154277D02*
X792933Y154277D01*
X800305Y154277D02*
X800305Y159192D01*
X796619Y156734D02*
X796619Y154277D01*
X842104Y127605D02*
X843333Y128833D01*
X845790Y128833D01*
X847019Y127605D01*
X847019Y122690D01*
X845790Y121461D01*
X843333Y121461D01*
X842104Y122690D01*
X839535Y127605D02*
X838306Y128833D01*
X835849Y128833D01*
X834620Y127605D01*
X834620Y126376D01*
X835849Y125147D01*
X837077Y125147D01*
X835849Y125147D02*
X834620Y123918D01*
X834620Y122690D01*
X835849Y121461D01*
X838306Y121461D01*
X839535Y122690D01*
X832051Y126376D02*
X829593Y128833D01*
X829593Y121461D01*
X827136Y121461D02*
X832051Y121461D01*
X855156Y100521D02*
X857613Y102978D01*
X850241Y102978D01*
X850241Y100521D02*
X850241Y105436D01*
X851470Y108005D02*
X855156Y108005D01*
X851470Y108005D02*
X850241Y109234D01*
X850241Y112920D01*
X855156Y112920D01*
X857613Y115489D02*
X850241Y115489D01*
X857613Y115489D02*
X857613Y120404D01*
X853927Y117947D02*
X853927Y115489D01*
D20*
X447780Y282880D02*
X354780Y282880D01*
X354780Y189880D01*
X447780Y189880D01*
X447780Y282880D01*
D21*
X462280Y281380D02*
X462282Y281450D01*
X462288Y281520D01*
X462298Y281589D01*
X462311Y281658D01*
X462329Y281726D01*
X462350Y281793D01*
X462375Y281858D01*
X462404Y281922D01*
X462436Y281985D01*
X462472Y282045D01*
X462511Y282103D01*
X462553Y282159D01*
X462598Y282213D01*
X462646Y282264D01*
X462697Y282312D01*
X462751Y282357D01*
X462807Y282399D01*
X462865Y282438D01*
X462925Y282474D01*
X462988Y282506D01*
X463052Y282535D01*
X463117Y282560D01*
X463184Y282581D01*
X463252Y282599D01*
X463321Y282612D01*
X463390Y282622D01*
X463460Y282628D01*
X463530Y282630D01*
X463600Y282628D01*
X463670Y282622D01*
X463739Y282612D01*
X463808Y282599D01*
X463876Y282581D01*
X463943Y282560D01*
X464008Y282535D01*
X464072Y282506D01*
X464135Y282474D01*
X464195Y282438D01*
X464253Y282399D01*
X464309Y282357D01*
X464363Y282312D01*
X464414Y282264D01*
X464462Y282213D01*
X464507Y282159D01*
X464549Y282103D01*
X464588Y282045D01*
X464624Y281985D01*
X464656Y281922D01*
X464685Y281858D01*
X464710Y281793D01*
X464731Y281726D01*
X464749Y281658D01*
X464762Y281589D01*
X464772Y281520D01*
X464778Y281450D01*
X464780Y281380D01*
X464778Y281310D01*
X464772Y281240D01*
X464762Y281171D01*
X464749Y281102D01*
X464731Y281034D01*
X464710Y280967D01*
X464685Y280902D01*
X464656Y280838D01*
X464624Y280775D01*
X464588Y280715D01*
X464549Y280657D01*
X464507Y280601D01*
X464462Y280547D01*
X464414Y280496D01*
X464363Y280448D01*
X464309Y280403D01*
X464253Y280361D01*
X464195Y280322D01*
X464135Y280286D01*
X464072Y280254D01*
X464008Y280225D01*
X463943Y280200D01*
X463876Y280179D01*
X463808Y280161D01*
X463739Y280148D01*
X463670Y280138D01*
X463600Y280132D01*
X463530Y280130D01*
X463460Y280132D01*
X463390Y280138D01*
X463321Y280148D01*
X463252Y280161D01*
X463184Y280179D01*
X463117Y280200D01*
X463052Y280225D01*
X462988Y280254D01*
X462925Y280286D01*
X462865Y280322D01*
X462807Y280361D01*
X462751Y280403D01*
X462697Y280448D01*
X462646Y280496D01*
X462598Y280547D01*
X462553Y280601D01*
X462511Y280657D01*
X462472Y280715D01*
X462436Y280775D01*
X462404Y280838D01*
X462375Y280902D01*
X462350Y280967D01*
X462329Y281034D01*
X462311Y281102D01*
X462298Y281171D01*
X462288Y281240D01*
X462282Y281310D01*
X462280Y281380D01*
D12*
X410878Y308897D02*
X408420Y308897D01*
X409649Y308897D02*
X409649Y316269D01*
X410878Y316269D02*
X408420Y316269D01*
X402202Y316269D02*
X400974Y315041D01*
X402202Y316269D02*
X404660Y316269D01*
X405888Y315041D01*
X405888Y310126D01*
X404660Y308897D01*
X402202Y308897D01*
X400974Y310126D01*
X398404Y313812D02*
X395947Y316269D01*
X395947Y308897D01*
X398404Y308897D02*
X393489Y308897D01*
X507332Y163869D02*
X507332Y156497D01*
X503646Y156497D01*
X502417Y157726D01*
X502417Y162641D01*
X503646Y163869D01*
X507332Y163869D01*
X496162Y163869D02*
X494933Y162641D01*
X496162Y163869D02*
X498619Y163869D01*
X499848Y162641D01*
X499848Y161412D01*
X498619Y160183D01*
X496162Y160183D01*
X494933Y158954D01*
X494933Y157726D01*
X496162Y156497D01*
X498619Y156497D01*
X499848Y157726D01*
X492364Y156497D02*
X492364Y163869D01*
X488678Y163869D01*
X487449Y162641D01*
X487449Y160183D01*
X488678Y158954D01*
X492364Y158954D01*
X484880Y156497D02*
X482422Y156497D01*
X483651Y156497D02*
X483651Y163869D01*
X484880Y163869D02*
X482422Y163869D01*
X476204Y163869D02*
X474975Y162641D01*
X476204Y163869D02*
X478661Y163869D01*
X479890Y162641D01*
X479890Y157726D01*
X478661Y156497D01*
X476204Y156497D01*
X474975Y157726D01*
X472406Y162641D02*
X471177Y163869D01*
X468720Y163869D01*
X467491Y162641D01*
X467491Y161412D01*
X468720Y160183D01*
X469949Y160183D01*
X468720Y160183D02*
X467491Y158954D01*
X467491Y157726D01*
X468720Y156497D01*
X471177Y156497D01*
X472406Y157726D01*
X464922Y162641D02*
X463693Y163869D01*
X461236Y163869D01*
X460007Y162641D01*
X460007Y161412D01*
X461236Y160183D01*
X462464Y160183D01*
X461236Y160183D02*
X460007Y158954D01*
X460007Y157726D01*
X461236Y156497D01*
X463693Y156497D01*
X464922Y157726D01*
X457438Y156497D02*
X457438Y163869D01*
X452523Y163869D01*
X454980Y160183D02*
X457438Y160183D01*
X449954Y157726D02*
X448725Y156497D01*
X447496Y156497D01*
X446267Y157726D01*
X446267Y163869D01*
X445039Y163869D02*
X447496Y163869D01*
X442469Y156497D02*
X437555Y156497D01*
X442469Y156497D02*
X437555Y161412D01*
X437555Y162641D01*
X438783Y163869D01*
X441241Y163869D01*
X442469Y162641D01*
X434985Y163869D02*
X430070Y163869D01*
X434985Y163869D02*
X434985Y160183D01*
X432528Y161412D01*
X431299Y161412D01*
X430070Y160183D01*
X430070Y157726D01*
X431299Y156497D01*
X433757Y156497D01*
X434985Y157726D01*
X425044Y162641D02*
X422586Y163869D01*
X425044Y162641D02*
X427501Y160183D01*
X427501Y157726D01*
X426272Y156497D01*
X423815Y156497D01*
X422586Y157726D01*
X422586Y158954D01*
X423815Y160183D01*
X427501Y160183D01*
X416331Y163869D02*
X415102Y162641D01*
X416331Y163869D02*
X418788Y163869D01*
X420017Y162641D01*
X420017Y157726D01*
X418788Y156497D01*
X416331Y156497D01*
X415102Y157726D01*
X415102Y160183D01*
X417560Y160183D01*
X412533Y156497D02*
X412533Y163869D01*
X408847Y163869D01*
X407618Y162641D01*
X407618Y160183D01*
X408847Y158954D01*
X412533Y158954D01*
X405049Y163869D02*
X400134Y163869D01*
X405049Y163869D02*
X405049Y160183D01*
X402591Y161412D01*
X401362Y161412D01*
X400134Y160183D01*
X400134Y157726D01*
X401362Y156497D01*
X403820Y156497D01*
X405049Y157726D01*
X397564Y157726D02*
X397564Y162641D01*
X396336Y163869D01*
X393878Y163869D01*
X392650Y162641D01*
X392650Y157726D01*
X393878Y156497D01*
X396336Y156497D01*
X397564Y157726D01*
X392650Y162641D01*
X387623Y162641D02*
X385165Y163869D01*
X387623Y162641D02*
X390080Y160183D01*
X390080Y157726D01*
X388852Y156497D01*
X386394Y156497D01*
X385165Y157726D01*
X385165Y158954D01*
X386394Y160183D01*
X390080Y160183D01*
X382596Y161412D02*
X382596Y156497D01*
X382596Y161412D02*
X380139Y163869D01*
X377681Y161412D01*
X377681Y156497D01*
X377681Y160183D02*
X382596Y160183D01*
X375112Y160183D02*
X370197Y160183D01*
X367628Y156497D02*
X365170Y156497D01*
X366399Y156497D02*
X366399Y163869D01*
X367628Y163869D02*
X365170Y163869D01*
X362638Y155268D02*
X357724Y155268D01*
X355154Y156497D02*
X355154Y163869D01*
X351468Y163869D01*
X350239Y162641D01*
X350239Y160183D01*
X351468Y158954D01*
X355154Y158954D01*
X345213Y156497D02*
X345213Y163869D01*
X347670Y163869D02*
X342755Y163869D01*
D20*
X196000Y159440D02*
X190000Y159440D01*
X190000Y130440D01*
X196000Y130440D01*
X196000Y159440D01*
X199500Y159940D02*
X211500Y159940D01*
D12*
X163917Y136597D02*
X163917Y134140D01*
X163917Y135369D02*
X171289Y135369D01*
X171289Y136597D02*
X171289Y134140D01*
X171289Y142816D02*
X170061Y144044D01*
X171289Y142816D02*
X171289Y140358D01*
X170061Y139129D01*
X165146Y139129D01*
X163917Y140358D01*
X163917Y142816D01*
X165146Y144044D01*
X168832Y146614D02*
X171289Y149071D01*
X163917Y149071D01*
X163917Y146614D02*
X163917Y151528D01*
X170061Y154098D02*
X171289Y155326D01*
X171289Y157784D01*
X170061Y159013D01*
X168832Y159013D01*
X167603Y157784D01*
X167603Y156555D01*
X167603Y157784D02*
X166374Y159013D01*
X165146Y159013D01*
X163917Y157784D01*
X163917Y155326D01*
X165146Y154098D01*
X214717Y85093D02*
X222089Y85093D01*
X222089Y82636D02*
X222089Y87551D01*
X222089Y90120D02*
X214717Y90120D01*
X222089Y90120D02*
X222089Y93806D01*
X220861Y95035D01*
X218403Y95035D01*
X217174Y93806D01*
X217174Y90120D01*
X222089Y101291D02*
X220861Y102519D01*
X222089Y101291D02*
X222089Y98833D01*
X220861Y97604D01*
X219632Y97604D01*
X218403Y98833D01*
X218403Y101291D01*
X217174Y102519D01*
X215946Y102519D01*
X214717Y101291D01*
X214717Y98833D01*
X215946Y97604D01*
X222089Y105089D02*
X222089Y110003D01*
X220861Y110003D01*
X215946Y105089D01*
X214717Y105089D01*
X220861Y112573D02*
X222089Y113801D01*
X222089Y116259D01*
X220861Y117488D01*
X219632Y117488D01*
X218403Y116259D01*
X218403Y115030D01*
X218403Y116259D02*
X217174Y117488D01*
X215946Y117488D01*
X214717Y116259D01*
X214717Y113801D01*
X215946Y112573D01*
X220861Y122514D02*
X222089Y124972D01*
X220861Y122514D02*
X218403Y120057D01*
X215946Y120057D01*
X214717Y121286D01*
X214717Y123743D01*
X215946Y124972D01*
X217174Y124972D01*
X218403Y123743D01*
X218403Y120057D01*
X220861Y127541D02*
X222089Y128770D01*
X222089Y131227D01*
X220861Y132456D01*
X219632Y132456D01*
X218403Y131227D01*
X218403Y129998D01*
X218403Y131227D02*
X217174Y132456D01*
X215946Y132456D01*
X214717Y131227D01*
X214717Y128770D01*
X215946Y127541D01*
X220861Y135025D02*
X222089Y136254D01*
X222089Y138711D01*
X220861Y139940D01*
X219632Y139940D01*
X218403Y138711D01*
X218403Y137483D01*
X218403Y138711D02*
X217174Y139940D01*
X215946Y139940D01*
X214717Y138711D01*
X214717Y136254D01*
X215946Y135025D01*
X214717Y142509D02*
X222089Y142509D01*
X214717Y142509D02*
X214717Y146195D01*
X215946Y147424D01*
X220861Y147424D01*
X222089Y146195D01*
X222089Y142509D01*
X222089Y149993D02*
X214717Y149993D01*
X222089Y149993D02*
X222089Y153680D01*
X220861Y154908D01*
X219632Y154908D01*
X218403Y153680D01*
X217174Y154908D01*
X215946Y154908D01*
X214717Y153680D01*
X214717Y149993D01*
X218403Y149993D02*
X218403Y153680D01*
X217174Y157478D02*
X222089Y157478D01*
X217174Y157478D02*
X214717Y159935D01*
X217174Y162392D01*
X222089Y162392D01*
X222089Y164962D02*
X214717Y164962D01*
X222089Y164962D02*
X222089Y168648D01*
X220861Y169877D01*
X218403Y169877D01*
X217174Y168648D01*
X217174Y164962D01*
X217174Y167419D02*
X214717Y169877D01*
X974531Y119165D02*
X974531Y111793D01*
X974531Y119165D02*
X970845Y119165D01*
X969617Y117937D01*
X969617Y115479D01*
X970845Y114250D01*
X974531Y114250D01*
X972074Y114250D02*
X969617Y111793D01*
X967047Y117937D02*
X965819Y119165D01*
X963361Y119165D01*
X962132Y117937D01*
X962132Y116708D01*
X963361Y115479D01*
X964590Y115479D01*
X963361Y115479D02*
X962132Y114250D01*
X962132Y113022D01*
X963361Y111793D01*
X965819Y111793D01*
X967047Y113022D01*
X957106Y117937D02*
X954648Y119165D01*
X957106Y117937D02*
X959563Y115479D01*
X959563Y113022D01*
X958334Y111793D01*
X955877Y111793D01*
X954648Y113022D01*
X954648Y114250D01*
X955877Y115479D01*
X959563Y115479D01*
X980533Y85590D02*
X979305Y84361D01*
X980533Y85590D02*
X980533Y88047D01*
X979305Y89276D01*
X978076Y89276D01*
X976847Y88047D01*
X976847Y86818D01*
X976847Y88047D02*
X975618Y89276D01*
X974390Y89276D01*
X973161Y88047D01*
X973161Y85590D01*
X974390Y84361D01*
X979305Y91845D02*
X980533Y93074D01*
X980533Y95531D01*
X979305Y96760D01*
X978076Y96760D01*
X976847Y95531D01*
X976847Y94303D01*
X976847Y95531D02*
X975618Y96760D01*
X974390Y96760D01*
X973161Y95531D01*
X973161Y93074D01*
X974390Y91845D01*
X974390Y99329D02*
X979305Y99329D01*
X980533Y100558D01*
X980533Y103015D01*
X979305Y104244D01*
X974390Y104244D01*
X973161Y103015D01*
X973161Y100558D01*
X974390Y99329D01*
X979305Y104244D01*
X980533Y106813D02*
X980533Y111728D01*
X980533Y106813D02*
X973161Y106813D01*
X973161Y111728D01*
X976847Y109271D02*
X976847Y106813D01*
X1002471Y111793D02*
X1002471Y119165D01*
X998785Y119165D01*
X997557Y117937D01*
X997557Y115479D01*
X998785Y114250D01*
X1002471Y114250D01*
X1000014Y114250D02*
X997557Y111793D01*
X994987Y117937D02*
X993759Y119165D01*
X991301Y119165D01*
X990072Y117937D01*
X990072Y116708D01*
X991301Y115479D01*
X992530Y115479D01*
X991301Y115479D02*
X990072Y114250D01*
X990072Y113022D01*
X991301Y111793D01*
X993759Y111793D01*
X994987Y113022D01*
X987503Y119165D02*
X982588Y119165D01*
X982588Y117937D01*
X987503Y113022D01*
X987503Y111793D01*
X1007965Y81053D02*
X1006737Y79824D01*
X1007965Y81053D02*
X1007965Y83511D01*
X1006737Y84739D01*
X1005508Y84739D01*
X1004279Y83511D01*
X1004279Y82282D01*
X1004279Y83511D02*
X1003050Y84739D01*
X1001822Y84739D01*
X1000593Y83511D01*
X1000593Y81053D01*
X1001822Y79824D01*
X1006737Y87309D02*
X1007965Y88537D01*
X1007965Y90995D01*
X1006737Y92223D01*
X1005508Y92223D01*
X1004279Y90995D01*
X1004279Y89766D01*
X1004279Y90995D02*
X1003050Y92223D01*
X1001822Y92223D01*
X1000593Y90995D01*
X1000593Y88537D01*
X1001822Y87309D01*
X1001822Y94793D02*
X1006737Y94793D01*
X1007965Y96021D01*
X1007965Y98479D01*
X1006737Y99708D01*
X1001822Y99708D01*
X1000593Y98479D01*
X1000593Y96021D01*
X1001822Y94793D01*
X1006737Y99708D01*
X1007965Y102277D02*
X1007965Y107192D01*
X1007965Y102277D02*
X1000593Y102277D01*
X1000593Y107192D01*
X1004279Y104734D02*
X1004279Y102277D01*
X303971Y154973D02*
X303971Y162345D01*
X300285Y162345D01*
X299057Y161117D01*
X299057Y158659D01*
X300285Y157430D01*
X303971Y157430D01*
X301514Y157430D02*
X299057Y154973D01*
X296487Y159888D02*
X294030Y162345D01*
X294030Y154973D01*
X296487Y154973D02*
X291572Y154973D01*
X289003Y162345D02*
X284088Y162345D01*
X284088Y161117D01*
X289003Y156202D01*
X289003Y154973D01*
X309973Y133850D02*
X308745Y132621D01*
X309973Y133850D02*
X309973Y136307D01*
X308745Y137536D01*
X307516Y137536D01*
X306287Y136307D01*
X306287Y135078D01*
X306287Y136307D02*
X305058Y137536D01*
X303830Y137536D01*
X302601Y136307D01*
X302601Y133850D01*
X303830Y132621D01*
X303830Y140105D02*
X302601Y140105D01*
X303830Y140105D02*
X303830Y141334D01*
X302601Y141334D01*
X302601Y140105D01*
X308745Y143847D02*
X309973Y145076D01*
X309973Y147533D01*
X308745Y148762D01*
X307516Y148762D01*
X306287Y147533D01*
X306287Y146305D01*
X306287Y147533D02*
X305058Y148762D01*
X303830Y148762D01*
X302601Y147533D01*
X302601Y145076D01*
X303830Y143847D01*
X302601Y151331D02*
X309973Y151331D01*
X305058Y151331D02*
X309973Y156246D01*
X306287Y152560D02*
X302601Y156246D01*
X696301Y132621D02*
X703673Y132621D01*
X703673Y136307D01*
X702445Y137536D01*
X699987Y137536D01*
X698758Y136307D01*
X698758Y132621D01*
X698758Y135078D02*
X696301Y137536D01*
X696301Y140105D02*
X696301Y145020D01*
X696301Y140105D02*
X701216Y145020D01*
X702445Y145020D01*
X703673Y143791D01*
X703673Y141334D01*
X702445Y140105D01*
X703673Y151275D02*
X696301Y151275D01*
X699987Y147589D02*
X703673Y151275D01*
X699987Y152504D02*
X699987Y147589D01*
X695267Y156202D02*
X695267Y161117D01*
X694039Y162345D01*
X691581Y162345D01*
X690352Y161117D01*
X690352Y156202D01*
X691581Y154973D01*
X694039Y154973D01*
X695267Y156202D01*
X690352Y161117D01*
X687783Y162345D02*
X682868Y162345D01*
X687783Y162345D02*
X687783Y154973D01*
X682868Y154973D01*
X685326Y158659D02*
X687783Y158659D01*
X695793Y105089D02*
X703165Y105089D01*
X703165Y108775D01*
X701937Y110003D01*
X699479Y110003D01*
X698250Y108775D01*
X698250Y105089D01*
X698250Y107546D02*
X695793Y110003D01*
X695793Y112573D02*
X695793Y117488D01*
X695793Y112573D02*
X700708Y117488D01*
X701937Y117488D01*
X703165Y116259D01*
X703165Y113801D01*
X701937Y112573D01*
X703165Y120057D02*
X703165Y124972D01*
X703165Y120057D02*
X699479Y120057D01*
X700708Y122514D01*
X700708Y123743D01*
X699479Y124972D01*
X697022Y124972D01*
X695793Y123743D01*
X695793Y121286D01*
X697022Y120057D01*
X692727Y100157D02*
X692727Y95242D01*
X692727Y100157D02*
X691499Y101385D01*
X689041Y101385D01*
X687812Y100157D01*
X687812Y95242D01*
X689041Y94013D01*
X691499Y94013D01*
X692727Y95242D01*
X687812Y100157D01*
X685243Y101385D02*
X680328Y101385D01*
X685243Y101385D02*
X685243Y94013D01*
X680328Y94013D01*
X682786Y97699D02*
X685243Y97699D01*
D16*
X835112Y436278D02*
X835112Y442882D01*
X835112Y456090D02*
X851368Y456090D01*
X851368Y445676D01*
X851368Y423070D02*
X835112Y423070D01*
X851368Y423070D02*
X851368Y433484D01*
X830032Y412910D02*
X829962Y412908D01*
X829892Y412902D01*
X829823Y412893D01*
X829754Y412879D01*
X829686Y412862D01*
X829620Y412841D01*
X829554Y412817D01*
X829490Y412789D01*
X829428Y412757D01*
X829367Y412722D01*
X829308Y412684D01*
X829252Y412642D01*
X829198Y412598D01*
X829146Y412550D01*
X829098Y412500D01*
X829052Y412447D01*
X829009Y412392D01*
X828969Y412335D01*
X828932Y412275D01*
X828899Y412213D01*
X828869Y412150D01*
X828843Y412085D01*
X828820Y412019D01*
X828801Y411952D01*
X828786Y411883D01*
X828774Y411814D01*
X828766Y411745D01*
X828762Y411675D01*
X828762Y411605D01*
X828766Y411535D01*
X828774Y411466D01*
X828786Y411397D01*
X828801Y411328D01*
X828820Y411261D01*
X828843Y411195D01*
X828869Y411130D01*
X828899Y411067D01*
X828932Y411005D01*
X828969Y410945D01*
X829009Y410888D01*
X829052Y410833D01*
X829098Y410780D01*
X829146Y410730D01*
X829198Y410682D01*
X829252Y410638D01*
X829308Y410596D01*
X829367Y410558D01*
X829428Y410523D01*
X829490Y410491D01*
X829554Y410463D01*
X829620Y410439D01*
X829686Y410418D01*
X829754Y410401D01*
X829823Y410387D01*
X829892Y410378D01*
X829962Y410372D01*
X830032Y410370D01*
X830102Y410372D01*
X830172Y410378D01*
X830241Y410387D01*
X830310Y410401D01*
X830378Y410418D01*
X830444Y410439D01*
X830510Y410463D01*
X830574Y410491D01*
X830636Y410523D01*
X830697Y410558D01*
X830756Y410596D01*
X830812Y410638D01*
X830866Y410682D01*
X830918Y410730D01*
X830966Y410780D01*
X831012Y410833D01*
X831055Y410888D01*
X831095Y410945D01*
X831132Y411005D01*
X831165Y411067D01*
X831195Y411130D01*
X831221Y411195D01*
X831244Y411261D01*
X831263Y411328D01*
X831278Y411397D01*
X831290Y411466D01*
X831298Y411535D01*
X831302Y411605D01*
X831302Y411675D01*
X831298Y411745D01*
X831290Y411814D01*
X831278Y411883D01*
X831263Y411952D01*
X831244Y412019D01*
X831221Y412085D01*
X831195Y412150D01*
X831165Y412213D01*
X831132Y412275D01*
X831095Y412335D01*
X831055Y412392D01*
X831012Y412447D01*
X830966Y412500D01*
X830918Y412550D01*
X830866Y412598D01*
X830812Y412642D01*
X830756Y412684D01*
X830697Y412722D01*
X830636Y412757D01*
X830574Y412789D01*
X830510Y412817D01*
X830444Y412841D01*
X830378Y412862D01*
X830310Y412879D01*
X830241Y412893D01*
X830172Y412902D01*
X830102Y412908D01*
X830032Y412910D01*
D13*
X868895Y424848D02*
X875251Y424848D01*
X868895Y424848D02*
X867624Y426119D01*
X867624Y428661D01*
X868895Y429932D01*
X875251Y429932D01*
X868895Y432332D02*
X867624Y433603D01*
X867624Y436145D01*
X868895Y437417D01*
X873979Y437417D01*
X875251Y436145D01*
X875251Y433603D01*
X873979Y432332D01*
X872708Y432332D01*
X871437Y433603D01*
X871437Y437417D01*
D12*
X843845Y393485D02*
X842617Y392257D01*
X843845Y393485D02*
X846303Y393485D01*
X847531Y392257D01*
X847531Y387342D01*
X846303Y386113D01*
X843845Y386113D01*
X842617Y387342D01*
X840047Y386113D02*
X835132Y386113D01*
X840047Y386113D02*
X835132Y391028D01*
X835132Y392257D01*
X836361Y393485D01*
X838819Y393485D01*
X840047Y392257D01*
X832563Y391028D02*
X830106Y393485D01*
X830106Y386113D01*
X832563Y386113D02*
X827648Y386113D01*
X855559Y419476D02*
X853102Y421933D01*
X853102Y414561D01*
X855559Y414561D02*
X850644Y414561D01*
X848075Y415790D02*
X848075Y420705D01*
X846846Y421933D01*
X844389Y421933D01*
X843160Y420705D01*
X843160Y415790D01*
X844389Y414561D01*
X846846Y414561D01*
X848075Y415790D01*
X843160Y420705D01*
X840591Y420705D02*
X840591Y415790D01*
X840591Y420705D02*
X839362Y421933D01*
X836905Y421933D01*
X835676Y420705D01*
X835676Y415790D01*
X836905Y414561D01*
X839362Y414561D01*
X840591Y415790D01*
X835676Y420705D01*
X833107Y419476D02*
X833107Y414561D01*
X833107Y419476D02*
X829420Y419476D01*
X828192Y418247D01*
X828192Y414561D01*
X825622Y414561D02*
X825622Y421933D01*
X820708Y421933D01*
X823165Y418247D02*
X825622Y418247D01*
D20*
X550760Y433740D02*
X550760Y471990D01*
X566760Y465740D02*
X566760Y433740D01*
D12*
X560948Y482681D02*
X562177Y483909D01*
X564634Y483909D01*
X565863Y482681D01*
X565863Y477766D01*
X564634Y476537D01*
X562177Y476537D01*
X560948Y477766D01*
X558379Y477766D02*
X557150Y476537D01*
X554693Y476537D01*
X553464Y477766D01*
X553464Y482681D01*
X554693Y483909D01*
X557150Y483909D01*
X558379Y482681D01*
X558379Y481452D01*
X557150Y480223D01*
X553464Y480223D01*
D20*
X471790Y465360D02*
X433540Y465360D01*
X433540Y449360D02*
X465540Y449360D01*
D12*
X470710Y475061D02*
X471939Y476289D01*
X474397Y476289D01*
X475625Y475061D01*
X475625Y470146D01*
X474397Y468917D01*
X471939Y468917D01*
X470710Y470146D01*
X468141Y473832D02*
X465684Y476289D01*
X465684Y468917D01*
X468141Y468917D02*
X463226Y468917D01*
X460657Y470146D02*
X460657Y475061D01*
X459428Y476289D01*
X456971Y476289D01*
X455742Y475061D01*
X455742Y470146D01*
X456971Y468917D01*
X459428Y468917D01*
X460657Y470146D01*
X455742Y475061D01*
D20*
X423760Y385630D02*
X423760Y347380D01*
X439760Y347380D02*
X439760Y379380D01*
D12*
X439028Y396321D02*
X440257Y397549D01*
X442714Y397549D01*
X443943Y396321D01*
X443943Y391406D01*
X442714Y390177D01*
X440257Y390177D01*
X439028Y391406D01*
X436459Y390177D02*
X431544Y390177D01*
X436459Y390177D02*
X431544Y395092D01*
X431544Y396321D01*
X432773Y397549D01*
X435230Y397549D01*
X436459Y396321D01*
D13*
X315004Y318427D02*
X313140Y318427D01*
X315004Y318427D02*
X315936Y317495D01*
X315936Y313766D01*
X315004Y312834D01*
X313140Y312834D01*
X312208Y313766D01*
X312208Y317495D01*
X313140Y318427D01*
X307527Y318427D02*
X306594Y317495D01*
X307527Y318427D02*
X309391Y318427D01*
X310323Y317495D01*
X310323Y313766D01*
X309391Y312834D01*
X307527Y312834D01*
X306594Y313766D01*
X304710Y316563D02*
X302846Y318427D01*
X302846Y312834D01*
X304710Y312834D02*
X300981Y312834D01*
D22*
X297394Y341875D02*
X297140Y341875D01*
X297394Y341790D02*
X297394Y341959D01*
X297394Y342024D02*
X297140Y342024D01*
X297394Y342024D02*
X297394Y342151D01*
X297352Y342193D01*
X297267Y342193D01*
X297225Y342151D01*
X297225Y342024D01*
X297140Y342342D02*
X297394Y342342D01*
X297394Y342258D02*
X297394Y342427D01*
X297394Y342492D02*
X297140Y342492D01*
X297394Y342492D02*
X297394Y342619D01*
X297352Y342661D01*
X297267Y342661D01*
X297225Y342619D01*
X297225Y342492D01*
X297182Y342726D02*
X297352Y342726D01*
X297394Y342768D01*
X297394Y342853D01*
X297352Y342895D01*
X297182Y342895D01*
X297140Y342853D01*
X297140Y342768D01*
X297182Y342726D01*
X297352Y342895D01*
X297352Y342959D02*
X297394Y343002D01*
X297394Y343086D01*
X297352Y343129D01*
X297309Y343129D01*
X297267Y343086D01*
X297225Y343129D01*
X297182Y343129D01*
X297140Y343086D01*
X297140Y343002D01*
X297182Y342959D01*
X297225Y342959D01*
X297267Y343002D01*
X297309Y342959D01*
X297352Y342959D01*
X297267Y343002D02*
X297267Y343086D01*
X297140Y343193D02*
X297394Y343193D01*
X297394Y343320D01*
X297352Y343363D01*
X297267Y343363D01*
X297225Y343320D01*
X297225Y343193D01*
X297225Y343278D02*
X297140Y343363D01*
D13*
X366480Y351447D02*
X368344Y351447D01*
X369276Y350515D01*
X369276Y346786D01*
X368344Y345854D01*
X366480Y345854D01*
X365548Y346786D01*
X365548Y350515D01*
X366480Y351447D01*
X360867Y351447D02*
X359934Y350515D01*
X360867Y351447D02*
X362731Y351447D01*
X363663Y350515D01*
X363663Y346786D01*
X362731Y345854D01*
X360867Y345854D01*
X359934Y346786D01*
X358050Y345854D02*
X354321Y345854D01*
X358050Y345854D02*
X354321Y349583D01*
X354321Y350515D01*
X355253Y351447D01*
X357118Y351447D01*
X358050Y350515D01*
D22*
X382145Y340774D02*
X382145Y340520D01*
X382230Y340774D02*
X382061Y340774D01*
X381996Y340774D02*
X381996Y340520D01*
X381996Y340774D02*
X381869Y340774D01*
X381827Y340732D01*
X381827Y340647D01*
X381869Y340605D01*
X381996Y340605D01*
X381678Y340520D02*
X381678Y340774D01*
X381762Y340774D02*
X381593Y340774D01*
X381528Y340774D02*
X381528Y340520D01*
X381528Y340774D02*
X381401Y340774D01*
X381359Y340732D01*
X381359Y340647D01*
X381401Y340605D01*
X381528Y340605D01*
X381295Y340562D02*
X381295Y340732D01*
X381252Y340774D01*
X381167Y340774D01*
X381125Y340732D01*
X381125Y340562D01*
X381167Y340520D01*
X381252Y340520D01*
X381295Y340562D01*
X381125Y340732D01*
X381061Y340732D02*
X381018Y340774D01*
X380934Y340774D01*
X380891Y340732D01*
X380891Y340689D01*
X380934Y340647D01*
X380891Y340605D01*
X380891Y340562D01*
X380934Y340520D01*
X381018Y340520D01*
X381061Y340562D01*
X381061Y340605D01*
X381018Y340647D01*
X381061Y340689D01*
X381061Y340732D01*
X381018Y340647D02*
X380934Y340647D01*
X380827Y340520D02*
X380827Y340774D01*
X380700Y340774D01*
X380657Y340732D01*
X380657Y340647D01*
X380700Y340605D01*
X380827Y340605D01*
X380742Y340605D02*
X380657Y340520D01*
D13*
X266744Y453047D02*
X264880Y453047D01*
X266744Y453047D02*
X267676Y452115D01*
X267676Y448386D01*
X266744Y447454D01*
X264880Y447454D01*
X263948Y448386D01*
X263948Y452115D01*
X264880Y453047D01*
X259267Y453047D02*
X258334Y452115D01*
X259267Y453047D02*
X261131Y453047D01*
X262063Y452115D01*
X262063Y448386D01*
X261131Y447454D01*
X259267Y447454D01*
X258334Y448386D01*
X256450Y452115D02*
X255518Y453047D01*
X253653Y453047D01*
X252721Y452115D01*
X252721Y451183D01*
X253653Y450250D01*
X254586Y450250D01*
X253653Y450250D02*
X252721Y449318D01*
X252721Y448386D01*
X253653Y447454D01*
X255518Y447454D01*
X256450Y448386D01*
D22*
X265305Y432214D02*
X265305Y431960D01*
X265390Y432214D02*
X265221Y432214D01*
X265156Y432214D02*
X265156Y431960D01*
X265156Y432214D02*
X265029Y432214D01*
X264987Y432172D01*
X264987Y432087D01*
X265029Y432045D01*
X265156Y432045D01*
X264838Y431960D02*
X264838Y432214D01*
X264922Y432214D02*
X264753Y432214D01*
X264688Y432214D02*
X264688Y431960D01*
X264688Y432214D02*
X264561Y432214D01*
X264519Y432172D01*
X264519Y432087D01*
X264561Y432045D01*
X264688Y432045D01*
X264455Y432129D02*
X264370Y432214D01*
X264370Y431960D01*
X264455Y431960D02*
X264285Y431960D01*
X264221Y432002D02*
X264221Y432172D01*
X264178Y432214D01*
X264094Y432214D01*
X264051Y432172D01*
X264051Y432002D01*
X264094Y431960D01*
X264178Y431960D01*
X264221Y432002D01*
X264051Y432172D01*
X263987Y432214D02*
X263987Y431960D01*
X263987Y432214D02*
X263860Y432214D01*
X263817Y432172D01*
X263817Y432087D01*
X263860Y432045D01*
X263987Y432045D01*
X263902Y432045D02*
X263817Y431960D01*
D13*
X338540Y333667D02*
X340404Y333667D01*
X341336Y332735D01*
X341336Y329006D01*
X340404Y328074D01*
X338540Y328074D01*
X337608Y329006D01*
X337608Y332735D01*
X338540Y333667D01*
X332927Y333667D02*
X331994Y332735D01*
X332927Y333667D02*
X334791Y333667D01*
X335723Y332735D01*
X335723Y329006D01*
X334791Y328074D01*
X332927Y328074D01*
X331994Y329006D01*
X327313Y328074D02*
X327313Y333667D01*
X330110Y330870D01*
X326381Y330870D01*
D22*
X341505Y315374D02*
X341505Y315120D01*
X341590Y315374D02*
X341421Y315374D01*
X341356Y315374D02*
X341356Y315120D01*
X341356Y315374D02*
X341229Y315374D01*
X341187Y315332D01*
X341187Y315247D01*
X341229Y315205D01*
X341356Y315205D01*
X341038Y315120D02*
X341038Y315374D01*
X341122Y315374D02*
X340953Y315374D01*
X340888Y315374D02*
X340888Y315120D01*
X340888Y315374D02*
X340761Y315374D01*
X340719Y315332D01*
X340719Y315247D01*
X340761Y315205D01*
X340888Y315205D01*
X340655Y315289D02*
X340570Y315374D01*
X340570Y315120D01*
X340655Y315120D02*
X340485Y315120D01*
X340421Y315162D02*
X340421Y315332D01*
X340378Y315374D01*
X340294Y315374D01*
X340251Y315332D01*
X340251Y315162D01*
X340294Y315120D01*
X340378Y315120D01*
X340421Y315162D01*
X340251Y315332D01*
X340187Y315374D02*
X340187Y315120D01*
X340187Y315374D02*
X340060Y315374D01*
X340017Y315332D01*
X340017Y315247D01*
X340060Y315205D01*
X340187Y315205D01*
X340102Y315205D02*
X340017Y315120D01*
D13*
X468336Y428998D02*
X468336Y432727D01*
X468336Y428998D02*
X466472Y427134D01*
X464608Y428998D01*
X464608Y432727D01*
X461791Y432727D02*
X459927Y432727D01*
X461791Y432727D02*
X462723Y431795D01*
X462723Y428066D01*
X461791Y427134D01*
X459927Y427134D01*
X458994Y428066D01*
X458994Y431795D01*
X459927Y432727D01*
X457110Y430863D02*
X455246Y432727D01*
X455246Y427134D01*
X457110Y427134D02*
X453381Y427134D01*
D22*
X465965Y414434D02*
X465965Y414180D01*
X466050Y414434D02*
X465881Y414434D01*
X465816Y414434D02*
X465816Y414180D01*
X465816Y414434D02*
X465689Y414434D01*
X465647Y414392D01*
X465647Y414307D01*
X465689Y414265D01*
X465816Y414265D01*
X465498Y414180D02*
X465498Y414434D01*
X465582Y414434D02*
X465413Y414434D01*
X465348Y414434D02*
X465348Y414180D01*
X465348Y414434D02*
X465221Y414434D01*
X465179Y414392D01*
X465179Y414307D01*
X465221Y414265D01*
X465348Y414265D01*
X465115Y414349D02*
X465030Y414434D01*
X465030Y414180D01*
X465115Y414180D02*
X464945Y414180D01*
X464881Y414222D02*
X464881Y414392D01*
X464838Y414434D01*
X464754Y414434D01*
X464711Y414392D01*
X464711Y414222D01*
X464754Y414180D01*
X464838Y414180D01*
X464881Y414222D01*
X464711Y414392D01*
X464647Y414434D02*
X464647Y414180D01*
X464647Y414434D02*
X464520Y414434D01*
X464477Y414392D01*
X464477Y414307D01*
X464520Y414265D01*
X464647Y414265D01*
X464562Y414265D02*
X464477Y414180D01*
D13*
X572476Y418838D02*
X572476Y422567D01*
X572476Y418838D02*
X570612Y416974D01*
X568748Y418838D01*
X568748Y422567D01*
X565931Y422567D02*
X564067Y422567D01*
X565931Y422567D02*
X566863Y421635D01*
X566863Y417906D01*
X565931Y416974D01*
X564067Y416974D01*
X563134Y417906D01*
X563134Y421635D01*
X564067Y422567D01*
X561250Y416974D02*
X557521Y416974D01*
X561250Y416974D02*
X557521Y420703D01*
X557521Y421635D01*
X558453Y422567D01*
X560318Y422567D01*
X561250Y421635D01*
D22*
X567565Y404274D02*
X567565Y404020D01*
X567650Y404274D02*
X567481Y404274D01*
X567416Y404274D02*
X567416Y404020D01*
X567416Y404274D02*
X567289Y404274D01*
X567247Y404232D01*
X567247Y404147D01*
X567289Y404105D01*
X567416Y404105D01*
X567098Y404020D02*
X567098Y404274D01*
X567182Y404274D02*
X567013Y404274D01*
X566948Y404274D02*
X566948Y404020D01*
X566948Y404274D02*
X566821Y404274D01*
X566779Y404232D01*
X566779Y404147D01*
X566821Y404105D01*
X566948Y404105D01*
X566715Y404189D02*
X566630Y404274D01*
X566630Y404020D01*
X566715Y404020D02*
X566545Y404020D01*
X566481Y404062D02*
X566481Y404232D01*
X566438Y404274D01*
X566354Y404274D01*
X566311Y404232D01*
X566311Y404062D01*
X566354Y404020D01*
X566438Y404020D01*
X566481Y404062D01*
X566311Y404232D01*
X566247Y404274D02*
X566247Y404020D01*
X566247Y404274D02*
X566120Y404274D01*
X566077Y404232D01*
X566077Y404147D01*
X566120Y404105D01*
X566247Y404105D01*
X566162Y404105D02*
X566077Y404020D01*
D13*
X891843Y430606D02*
X893707Y428742D01*
X891843Y430606D02*
X891843Y425013D01*
X893707Y425013D02*
X889979Y425013D01*
X888094Y425013D02*
X888094Y425945D01*
X887162Y425945D01*
X887162Y425013D01*
X888094Y425013D01*
X883423Y429674D02*
X881559Y430606D01*
X883423Y429674D02*
X885287Y427809D01*
X885287Y425945D01*
X884355Y425013D01*
X882491Y425013D01*
X881559Y425945D01*
X881559Y426877D01*
X882491Y427809D01*
X885287Y427809D01*
X879674Y426877D02*
X879674Y430606D01*
X879674Y426877D02*
X877810Y425013D01*
X875946Y426877D01*
X875946Y430606D01*
D22*
X887605Y431960D02*
X887605Y432214D01*
X887521Y432214D02*
X887690Y432214D01*
X887456Y432214D02*
X887456Y431960D01*
X887456Y432214D02*
X887329Y432214D01*
X887287Y432172D01*
X887287Y432087D01*
X887329Y432045D01*
X887456Y432045D01*
X887138Y431960D02*
X887138Y432214D01*
X887222Y432214D02*
X887053Y432214D01*
X886988Y432214D02*
X886988Y431960D01*
X886988Y432214D02*
X886861Y432214D01*
X886819Y432172D01*
X886819Y432087D01*
X886861Y432045D01*
X886988Y432045D01*
X886755Y432129D02*
X886670Y432214D01*
X886670Y431960D01*
X886755Y431960D02*
X886585Y431960D01*
X886521Y432002D02*
X886521Y432172D01*
X886478Y432214D01*
X886394Y432214D01*
X886351Y432172D01*
X886351Y432002D01*
X886394Y431960D01*
X886478Y431960D01*
X886521Y432002D01*
X886351Y432172D01*
X886287Y432214D02*
X886287Y431960D01*
X886287Y432214D02*
X886160Y432214D01*
X886117Y432172D01*
X886117Y432087D01*
X886160Y432045D01*
X886287Y432045D01*
X886202Y432045D02*
X886117Y431960D01*
D13*
X743591Y316306D02*
X742659Y315374D01*
X743591Y316306D02*
X745455Y316306D01*
X746387Y315374D01*
X746387Y314442D01*
X745455Y313509D01*
X743591Y313509D01*
X742659Y312577D01*
X742659Y311645D01*
X743591Y310713D01*
X745455Y310713D01*
X746387Y311645D01*
X737978Y316306D02*
X737045Y315374D01*
X737978Y316306D02*
X739842Y316306D01*
X740774Y315374D01*
X740774Y311645D01*
X739842Y310713D01*
X737978Y310713D01*
X737045Y311645D01*
X735161Y310713D02*
X735161Y316306D01*
X735161Y312577D02*
X731432Y316306D01*
X734229Y313509D02*
X731432Y310713D01*
D22*
X742825Y300134D02*
X742825Y299880D01*
X742910Y300134D02*
X742741Y300134D01*
X742676Y300134D02*
X742676Y299880D01*
X742676Y300134D02*
X742549Y300134D01*
X742507Y300092D01*
X742507Y300007D01*
X742549Y299965D01*
X742676Y299965D01*
X742358Y299880D02*
X742358Y300134D01*
X742442Y300134D02*
X742273Y300134D01*
X742208Y300134D02*
X742208Y299880D01*
X742208Y300134D02*
X742081Y300134D01*
X742039Y300092D01*
X742039Y300007D01*
X742081Y299965D01*
X742208Y299965D01*
X741975Y300049D02*
X741890Y300134D01*
X741890Y299880D01*
X741975Y299880D02*
X741805Y299880D01*
X741741Y299922D02*
X741741Y300092D01*
X741698Y300134D01*
X741614Y300134D01*
X741571Y300092D01*
X741571Y299922D01*
X741614Y299880D01*
X741698Y299880D01*
X741741Y299922D01*
X741571Y300092D01*
X741507Y300134D02*
X741507Y299880D01*
X741507Y300134D02*
X741380Y300134D01*
X741337Y300092D01*
X741337Y300007D01*
X741380Y299965D01*
X741507Y299965D01*
X741422Y299965D02*
X741337Y299880D01*
D13*
X765519Y442374D02*
X766451Y443306D01*
X768315Y443306D01*
X769247Y442374D01*
X769247Y441442D01*
X768315Y440509D01*
X766451Y440509D01*
X765519Y439577D01*
X765519Y438645D01*
X766451Y437713D01*
X768315Y437713D01*
X769247Y438645D01*
X763634Y437713D02*
X763634Y443306D01*
X763634Y437713D02*
X760838Y437713D01*
X759905Y438645D01*
X759905Y442374D01*
X760838Y443306D01*
X763634Y443306D01*
X758021Y437713D02*
X756157Y437713D01*
X757089Y437713D02*
X757089Y443306D01*
X758021Y443306D02*
X756157Y443306D01*
D22*
X765685Y427134D02*
X765685Y426880D01*
X765770Y427134D02*
X765601Y427134D01*
X765536Y427134D02*
X765536Y426880D01*
X765536Y427134D02*
X765409Y427134D01*
X765367Y427092D01*
X765367Y427007D01*
X765409Y426965D01*
X765536Y426965D01*
X765218Y426880D02*
X765218Y427134D01*
X765302Y427134D02*
X765133Y427134D01*
X765068Y427134D02*
X765068Y426880D01*
X765068Y427134D02*
X764941Y427134D01*
X764899Y427092D01*
X764899Y427007D01*
X764941Y426965D01*
X765068Y426965D01*
X764835Y427049D02*
X764750Y427134D01*
X764750Y426880D01*
X764835Y426880D02*
X764665Y426880D01*
X764601Y426922D02*
X764601Y427092D01*
X764558Y427134D01*
X764474Y427134D01*
X764431Y427092D01*
X764431Y426922D01*
X764474Y426880D01*
X764558Y426880D01*
X764601Y426922D01*
X764431Y427092D01*
X764367Y427134D02*
X764367Y426880D01*
X764367Y427134D02*
X764240Y427134D01*
X764197Y427092D01*
X764197Y427007D01*
X764240Y426965D01*
X764367Y426965D01*
X764282Y426965D02*
X764197Y426880D01*
D13*
X778219Y493174D02*
X779151Y494106D01*
X781015Y494106D01*
X781947Y493174D01*
X781947Y492242D01*
X781015Y491309D01*
X779151Y491309D01*
X778219Y490377D01*
X778219Y489445D01*
X779151Y488513D01*
X781015Y488513D01*
X781947Y489445D01*
X776334Y488513D02*
X776334Y494106D01*
X776334Y488513D02*
X773538Y488513D01*
X772605Y489445D01*
X772605Y493174D01*
X773538Y494106D01*
X776334Y494106D01*
X769789Y494106D02*
X767924Y494106D01*
X769789Y494106D02*
X770721Y493174D01*
X770721Y489445D01*
X769789Y488513D01*
X767924Y488513D01*
X766992Y489445D01*
X766992Y493174D01*
X767924Y494106D01*
D22*
X788545Y477934D02*
X788545Y477680D01*
X788630Y477934D02*
X788461Y477934D01*
X788396Y477934D02*
X788396Y477680D01*
X788396Y477934D02*
X788269Y477934D01*
X788227Y477892D01*
X788227Y477807D01*
X788269Y477765D01*
X788396Y477765D01*
X788078Y477680D02*
X788078Y477934D01*
X788162Y477934D02*
X787993Y477934D01*
X787928Y477934D02*
X787928Y477680D01*
X787928Y477934D02*
X787801Y477934D01*
X787759Y477892D01*
X787759Y477807D01*
X787801Y477765D01*
X787928Y477765D01*
X787695Y477849D02*
X787610Y477934D01*
X787610Y477680D01*
X787695Y477680D02*
X787525Y477680D01*
X787461Y477722D02*
X787461Y477892D01*
X787418Y477934D01*
X787334Y477934D01*
X787291Y477892D01*
X787291Y477722D01*
X787334Y477680D01*
X787418Y477680D01*
X787461Y477722D01*
X787291Y477892D01*
X787227Y477934D02*
X787227Y477680D01*
X787227Y477934D02*
X787100Y477934D01*
X787057Y477892D01*
X787057Y477807D01*
X787100Y477765D01*
X787227Y477765D01*
X787142Y477765D02*
X787057Y477680D01*
D13*
X789311Y445846D02*
X788379Y444914D01*
X789311Y445846D02*
X791175Y445846D01*
X792107Y444914D01*
X792107Y441185D01*
X791175Y440253D01*
X789311Y440253D01*
X788379Y441185D01*
X783698Y445846D02*
X782765Y444914D01*
X783698Y445846D02*
X785562Y445846D01*
X786494Y444914D01*
X786494Y443982D01*
X785562Y443049D01*
X783698Y443049D01*
X782765Y442117D01*
X782765Y441185D01*
X783698Y440253D01*
X785562Y440253D01*
X786494Y441185D01*
X780881Y443982D02*
X779017Y445846D01*
X779017Y440253D01*
X780881Y440253D02*
X777152Y440253D01*
X804551Y389966D02*
X803619Y389034D01*
X804551Y389966D02*
X806415Y389966D01*
X807347Y389034D01*
X807347Y385305D01*
X806415Y384373D01*
X804551Y384373D01*
X803619Y385305D01*
X798938Y389966D02*
X798005Y389034D01*
X798938Y389966D02*
X800802Y389966D01*
X801734Y389034D01*
X801734Y388102D01*
X800802Y387169D01*
X798938Y387169D01*
X798005Y386237D01*
X798005Y385305D01*
X798938Y384373D01*
X800802Y384373D01*
X801734Y385305D01*
X796121Y384373D02*
X792392Y384373D01*
X796121Y384373D02*
X792392Y388102D01*
X792392Y389034D01*
X793324Y389966D01*
X795189Y389966D01*
X796121Y389034D01*
D22*
X803785Y373794D02*
X803785Y373540D01*
X803870Y373794D02*
X803701Y373794D01*
X803636Y373794D02*
X803636Y373540D01*
X803636Y373794D02*
X803509Y373794D01*
X803467Y373752D01*
X803467Y373667D01*
X803509Y373625D01*
X803636Y373625D01*
X803318Y373540D02*
X803318Y373794D01*
X803402Y373794D02*
X803233Y373794D01*
X803168Y373794D02*
X803168Y373540D01*
X803168Y373794D02*
X803041Y373794D01*
X802999Y373752D01*
X802999Y373667D01*
X803041Y373625D01*
X803168Y373625D01*
X802935Y373582D02*
X802935Y373752D01*
X802892Y373794D01*
X802807Y373794D01*
X802765Y373752D01*
X802765Y373582D01*
X802807Y373540D01*
X802892Y373540D01*
X802935Y373582D01*
X802765Y373752D01*
X802701Y373752D02*
X802658Y373794D01*
X802574Y373794D01*
X802531Y373752D01*
X802531Y373709D01*
X802574Y373667D01*
X802531Y373625D01*
X802531Y373582D01*
X802574Y373540D01*
X802658Y373540D01*
X802701Y373582D01*
X802701Y373625D01*
X802658Y373667D01*
X802701Y373709D01*
X802701Y373752D01*
X802658Y373667D02*
X802574Y373667D01*
X802467Y373540D02*
X802467Y373794D01*
X802340Y373794D01*
X802297Y373752D01*
X802297Y373667D01*
X802340Y373625D01*
X802467Y373625D01*
X802382Y373625D02*
X802297Y373540D01*
D12*
X744601Y163963D02*
X744601Y156591D01*
X744601Y163963D02*
X740915Y163963D01*
X739686Y162735D01*
X739686Y160277D01*
X740915Y159048D01*
X744601Y159048D01*
X742144Y159048D02*
X739686Y156591D01*
X737117Y156591D02*
X732202Y156591D01*
X737117Y156591D02*
X732202Y161506D01*
X732202Y162735D01*
X733431Y163963D01*
X735888Y163963D01*
X737117Y162735D01*
X729633Y162735D02*
X728404Y163963D01*
X725947Y163963D01*
X724718Y162735D01*
X724718Y161506D01*
X725947Y160277D01*
X724718Y159048D01*
X724718Y157820D01*
X725947Y156591D01*
X728404Y156591D01*
X729633Y157820D01*
X729633Y159048D01*
X728404Y160277D01*
X729633Y161506D01*
X729633Y162735D01*
X728404Y160277D02*
X725947Y160277D01*
X745912Y134753D02*
X747141Y133525D01*
X745912Y134753D02*
X743455Y134753D01*
X742226Y133525D01*
X742226Y132296D01*
X743455Y131067D01*
X744684Y131067D01*
X743455Y131067D02*
X742226Y129838D01*
X742226Y128610D01*
X743455Y127381D01*
X745912Y127381D01*
X747141Y128610D01*
X739657Y133525D02*
X738428Y134753D01*
X735971Y134753D01*
X734742Y133525D01*
X734742Y132296D01*
X735971Y131067D01*
X737199Y131067D01*
X735971Y131067D02*
X734742Y129838D01*
X734742Y128610D01*
X735971Y127381D01*
X738428Y127381D01*
X739657Y128610D01*
X732173Y128610D02*
X732173Y133525D01*
X730944Y134753D01*
X728487Y134753D01*
X727258Y133525D01*
X727258Y128610D01*
X728487Y127381D01*
X730944Y127381D01*
X732173Y128610D01*
X727258Y133525D01*
X724689Y134753D02*
X719774Y134753D01*
X724689Y134753D02*
X724689Y127381D01*
X719774Y127381D01*
X722231Y131067D02*
X724689Y131067D01*
D13*
X713736Y161295D02*
X715007Y162567D01*
X717549Y162567D01*
X718820Y161295D01*
X718820Y156211D01*
X717549Y154940D01*
X715007Y154940D01*
X713736Y156211D01*
X711336Y160024D02*
X708794Y162567D01*
X708794Y154940D01*
X711336Y154940D02*
X706252Y154940D01*
X703852Y160024D02*
X701310Y162567D01*
X701310Y154940D01*
X703852Y154940D02*
X698767Y154940D01*
X724404Y124213D02*
X729488Y124213D01*
X729488Y120399D01*
X726946Y121670D01*
X725675Y121670D01*
X724404Y120399D01*
X724404Y117857D01*
X725675Y116586D01*
X728217Y116586D01*
X729488Y117857D01*
X719462Y122941D02*
X716920Y124213D01*
X719462Y122941D02*
X722004Y120399D01*
X722004Y117857D01*
X720733Y116586D01*
X718191Y116586D01*
X716920Y117857D01*
X716920Y119128D01*
X718191Y120399D01*
X722004Y120399D01*
X714520Y121670D02*
X714520Y116586D01*
X714520Y121670D02*
X710706Y121670D01*
X709435Y120399D01*
X709435Y116586D01*
X707036Y116586D02*
X707036Y124213D01*
X701951Y124213D01*
X704493Y120399D02*
X707036Y120399D01*
M02*
