G04 EAGLE Gerber RS-274X export*
G75*
%MOMM*%
%FSLAX34Y34*%
%LPD*%
%INSolderpaste Bottom*%
%IPPOS*%
%AMOC8*
5,1,8,0,0,1.08239X$1,22.5*%
G01*
%ADD10R,1.500000X0.400000*%
%ADD11R,1.803000X1.600000*%
%ADD12R,1.800000X1.600000*%
%ADD13R,1.600000X1.800000*%
%ADD14R,1.520000X0.700000*%
%ADD15R,1.333500X0.228600*%
%ADD16R,1.473200X0.355600*%
%ADD17R,1.981200X0.558800*%
%ADD18R,1.600000X0.700000*%
%ADD19R,1.475000X0.450000*%
%ADD20R,1.600000X1.803000*%
%ADD21R,2.450000X2.350000*%
%ADD22R,2.350000X2.450000*%
%ADD23R,1.300000X1.500000*%
%ADD24R,1.475000X0.300000*%
%ADD25R,0.300000X1.475000*%
%ADD26R,1.200000X0.600000*%
%ADD27R,1.295400X0.558800*%
%ADD28R,1.250000X1.750000*%
%ADD29R,1.750000X1.250000*%
%ADD30R,1.000000X1.100000*%
%ADD31R,0.949997X1.005600*%


D10*
X243520Y291970D03*
X243520Y285470D03*
X243520Y278970D03*
X243520Y272470D03*
X243520Y265970D03*
X243520Y259470D03*
X243520Y252970D03*
X243520Y246470D03*
X243520Y239970D03*
X243520Y233470D03*
X243520Y226970D03*
X243520Y220470D03*
X243520Y213970D03*
X243520Y207470D03*
X171020Y207470D03*
X171020Y213970D03*
X171020Y220470D03*
X171020Y226970D03*
X171020Y233470D03*
X171020Y239970D03*
X171020Y246470D03*
X171020Y252970D03*
X171020Y259470D03*
X171020Y265970D03*
X171020Y272470D03*
X171020Y278970D03*
X171020Y285470D03*
X171020Y291970D03*
D11*
X276000Y242770D03*
X276000Y214330D03*
X107470Y456140D03*
X107470Y484580D03*
D12*
X32610Y503520D03*
X32610Y475520D03*
X242390Y149270D03*
X242390Y121270D03*
D13*
X178980Y108300D03*
X206980Y108300D03*
D11*
X68340Y475080D03*
X68340Y503520D03*
D13*
X499040Y207170D03*
X527040Y207170D03*
D12*
X337920Y143510D03*
X337920Y115510D03*
X401280Y331600D03*
X401280Y359600D03*
D14*
X386520Y425610D03*
X386520Y412910D03*
X386520Y400210D03*
X386520Y387510D03*
X332220Y387510D03*
X332220Y400210D03*
X332220Y412910D03*
X332220Y425610D03*
X217610Y424340D03*
X217610Y411640D03*
X217610Y398940D03*
X217610Y386240D03*
X163310Y386240D03*
X163310Y398940D03*
X163310Y411640D03*
X163310Y424340D03*
D13*
X191760Y363380D03*
X163760Y363380D03*
X361940Y364650D03*
X333940Y364650D03*
D15*
X537742Y454668D03*
X537742Y449664D03*
X537742Y444660D03*
X537742Y439656D03*
X537742Y434652D03*
X493419Y434652D03*
X493419Y439656D03*
X493419Y444660D03*
X493419Y449664D03*
X493419Y454668D03*
X552982Y400058D03*
X552982Y395054D03*
X552982Y390050D03*
X552982Y385046D03*
X552982Y380042D03*
X508659Y380042D03*
X508659Y385046D03*
X508659Y390050D03*
X508659Y395054D03*
X508659Y400058D03*
D16*
X730464Y408280D03*
X730464Y401780D03*
X730464Y395280D03*
X730464Y388780D03*
X730464Y382280D03*
X730464Y375780D03*
X730464Y369280D03*
X674076Y369280D03*
X674076Y375780D03*
X674076Y382280D03*
X674076Y388780D03*
X674076Y395280D03*
X674076Y401780D03*
X674076Y408280D03*
X730464Y479400D03*
X730464Y472900D03*
X730464Y466400D03*
X730464Y459900D03*
X730464Y453400D03*
X730464Y446900D03*
X730464Y440400D03*
X674076Y440400D03*
X674076Y446900D03*
X674076Y453400D03*
X674076Y459900D03*
X674076Y466400D03*
X674076Y472900D03*
X674076Y479400D03*
D13*
X521960Y321470D03*
X493960Y321470D03*
X676900Y312580D03*
X648900Y312580D03*
D17*
X608798Y331630D03*
X608798Y318930D03*
X608798Y306230D03*
X608798Y293530D03*
X559522Y293530D03*
X559522Y306230D03*
X559522Y318930D03*
X559522Y331630D03*
D18*
X957040Y276340D03*
X957040Y250940D03*
X957040Y225540D03*
X957040Y200140D03*
X869540Y200140D03*
X869540Y225540D03*
X869540Y250940D03*
X869540Y276340D03*
D11*
X873040Y112740D03*
X873040Y141180D03*
X870590Y342240D03*
X870590Y313800D03*
D19*
X943030Y420710D03*
X943030Y414210D03*
X943030Y407710D03*
X943030Y401210D03*
X898790Y401210D03*
X898790Y407710D03*
X898790Y414210D03*
X898790Y420710D03*
D20*
X906690Y451600D03*
X935130Y451600D03*
D21*
X375300Y126540D03*
X375300Y64540D03*
D22*
X477400Y74960D03*
X415400Y74960D03*
X573920Y76300D03*
X511920Y76300D03*
D23*
X761420Y153180D03*
X780420Y153180D03*
X816880Y110380D03*
X835880Y110380D03*
D24*
X458660Y273880D03*
X458660Y268880D03*
X458660Y263880D03*
X458660Y258880D03*
X458660Y253880D03*
X458660Y248880D03*
X458660Y243880D03*
X458660Y238880D03*
X458660Y233880D03*
X458660Y228880D03*
X458660Y223880D03*
X458660Y218880D03*
X458660Y213880D03*
X458660Y208880D03*
X458660Y203880D03*
X458660Y198880D03*
D25*
X438780Y179000D03*
X433780Y179000D03*
X428780Y179000D03*
X423780Y179000D03*
X418780Y179000D03*
X413780Y179000D03*
X408780Y179000D03*
X403780Y179000D03*
X398780Y179000D03*
X393780Y179000D03*
X388780Y179000D03*
X383780Y179000D03*
X378780Y179000D03*
X373780Y179000D03*
X368780Y179000D03*
X363780Y179000D03*
D24*
X343900Y198880D03*
X343900Y203880D03*
X343900Y208880D03*
X343900Y213880D03*
X343900Y218880D03*
X343900Y223880D03*
X343900Y228880D03*
X343900Y233880D03*
X343900Y238880D03*
X343900Y243880D03*
X343900Y248880D03*
X343900Y253880D03*
X343900Y258880D03*
X343900Y263880D03*
X343900Y268880D03*
X343900Y273880D03*
D25*
X363780Y293760D03*
X368780Y293760D03*
X373780Y293760D03*
X378780Y293760D03*
X383780Y293760D03*
X388780Y293760D03*
X393780Y293760D03*
X398780Y293760D03*
X403780Y293760D03*
X408780Y293760D03*
X413780Y293760D03*
X418780Y293760D03*
X423780Y293760D03*
X428780Y293760D03*
X433780Y293760D03*
X438780Y293760D03*
D26*
X205500Y154440D03*
X205500Y144940D03*
X205500Y135440D03*
X180500Y135440D03*
X180500Y154440D03*
D11*
X962620Y72300D03*
X962620Y100740D03*
X990560Y72300D03*
X990560Y100740D03*
X292060Y115480D03*
X292060Y143920D03*
D20*
X684740Y142400D03*
X656300Y142400D03*
X684740Y114460D03*
X656300Y114460D03*
D27*
X832953Y430080D03*
X832953Y449080D03*
X853527Y439580D03*
D13*
X862320Y404020D03*
X834320Y404020D03*
D28*
X558760Y463240D03*
X558760Y436240D03*
D29*
X463040Y457360D03*
X436040Y457360D03*
D28*
X431760Y376880D03*
X431760Y349880D03*
D30*
X743068Y145542D03*
X726068Y145542D03*
D31*
X711454Y145708D03*
X711454Y131152D03*
M02*
