G04 EAGLE Gerber RS-274X export*
G75*
%MOMM*%
%FSLAX34Y34*%
%LPD*%
%INSoldermask Top*%
%IPPOS*%
%AMOC8*
5,1,8,0,0,1.08239X$1,22.5*%
G01*
%ADD10C,3.403200*%
%ADD11R,7.000000X6.000000*%
%ADD12R,1.703200X1.703200*%
%ADD13R,2.006200X1.803200*%
%ADD14R,1.727200X0.965200*%
%ADD15C,1.727200*%
%ADD16C,1.625600*%
%ADD17R,3.203200X1.603200*%
%ADD18R,1.203200X1.403200*%
%ADD19R,3.603200X2.103200*%
%ADD20R,2.870200X2.743200*%
%ADD21R,0.965200X1.473200*%
%ADD22R,2.203200X1.303200*%
%ADD23R,1.003200X1.003200*%
%ADD24R,1.524000X1.524000*%
%ADD25C,1.524000*%
%ADD26R,2.003200X1.803200*%
%ADD27R,1.728200X0.853200*%
%ADD28R,2.123200X2.123200*%
%ADD29C,2.123200*%
%ADD30R,2.153200X2.153200*%
%ADD31C,2.153200*%
%ADD32R,1.803200X2.006200*%
%ADD33R,2.006600X1.676400*%
%ADD34C,1.511200*%
%ADD35C,1.903200*%
%ADD36C,1.928200*%
%ADD37R,1.618200X0.653200*%
%ADD38R,1.711200X1.711200*%
%ADD39C,1.711200*%
%ADD40R,0.711200X1.079500*%
%ADD41R,1.066800X0.685800*%
%ADD42R,1.703200X1.503200*%
%ADD43R,1.503200X1.703200*%
%ADD44R,1.803200X2.003200*%
%ADD45R,1.583200X0.653200*%
%ADD46R,2.303200X1.678200*%
%ADD47R,2.103200X1.378200*%
%ADD48R,2.103200X2.578200*%
%ADD49C,2.184400*%
%ADD50C,1.219200*%
%ADD51R,2.353200X2.403200*%
%ADD52R,2.403200X2.353200*%
%ADD53R,1.503200X1.803200*%
%ADD54C,1.371200*%
%ADD55C,2.723200*%
%ADD56R,1.203200X0.903200*%
%ADD57R,2.228200X1.478200*%
%ADD58R,1.453200X1.953200*%
%ADD59C,5.503200*%
%ADD60C,5.203200*%
%ADD61R,1.066800X1.803400*%
%ADD62R,1.203200X1.303200*%
%ADD63C,1.003200*%
%ADD64C,1.203200*%
%ADD65R,2.223200X3.153200*%
%ADD66C,1.117600*%
%ADD67C,1.422400*%


D10*
X965160Y25560D03*
X152360Y508160D03*
X901660Y508160D03*
X139660Y25560D03*
D11*
X345740Y104300D03*
D12*
X198230Y281910D03*
X198230Y316910D03*
X222200Y282390D03*
X222200Y317390D03*
D13*
X172230Y287140D03*
X172230Y315580D03*
X247160Y285870D03*
X247160Y314310D03*
D14*
X87800Y469140D03*
X37000Y469140D03*
X87800Y507240D03*
X37000Y507240D03*
D15*
X86320Y387510D02*
X101560Y387510D01*
X101560Y412910D02*
X86320Y412910D01*
X86320Y438310D02*
X101560Y438310D01*
X101560Y362110D02*
X86320Y362110D01*
X86320Y336710D02*
X101560Y336710D01*
D16*
X634960Y501048D02*
X634960Y515272D01*
X609560Y515272D02*
X609560Y501048D01*
X584160Y501048D02*
X584160Y515272D01*
X558760Y515272D02*
X558760Y501048D01*
X533360Y501048D02*
X533360Y515272D01*
X507960Y515272D02*
X507960Y501048D01*
X482560Y501048D02*
X482560Y515272D01*
X457160Y515272D02*
X457160Y501048D01*
X416520Y501048D02*
X416520Y515272D01*
X391120Y515272D02*
X391120Y501048D01*
X365720Y501048D02*
X365720Y515272D01*
X340320Y515272D02*
X340320Y501048D01*
X314920Y501048D02*
X314920Y515272D01*
X289520Y515272D02*
X289520Y501048D01*
X264120Y501048D02*
X264120Y515272D01*
X238720Y515272D02*
X238720Y501048D01*
X213320Y501048D02*
X213320Y515272D01*
X187920Y515272D02*
X187920Y501048D01*
D17*
X137504Y148242D03*
X185504Y148242D03*
D16*
X279360Y32672D02*
X279360Y18448D01*
X304760Y18448D02*
X304760Y32672D01*
X330160Y32672D02*
X330160Y18448D01*
X355560Y18448D02*
X355560Y32672D01*
X380960Y32672D02*
X380960Y18448D01*
X406360Y18448D02*
X406360Y32672D01*
X431760Y32672D02*
X431760Y18448D01*
X457160Y18448D02*
X457160Y32672D01*
X507960Y32672D02*
X507960Y18448D01*
X533360Y18448D02*
X533360Y32672D01*
X558760Y32672D02*
X558760Y18448D01*
X584160Y18448D02*
X584160Y32672D01*
X609560Y32672D02*
X609560Y18448D01*
X634960Y18448D02*
X634960Y32672D01*
X660360Y32672D02*
X660360Y18448D01*
X685760Y18448D02*
X685760Y32672D01*
X685760Y501048D02*
X685760Y515272D01*
X711160Y515272D02*
X711160Y501048D01*
X736560Y501048D02*
X736560Y515272D01*
X761960Y515272D02*
X761960Y501048D01*
X787360Y501048D02*
X787360Y515272D01*
X812760Y515272D02*
X812760Y501048D01*
X838160Y501048D02*
X838160Y515272D01*
X863560Y515272D02*
X863560Y501048D01*
X736560Y32672D02*
X736560Y18448D01*
X761960Y18448D02*
X761960Y32672D01*
X787360Y32672D02*
X787360Y18448D01*
X812760Y18448D02*
X812760Y32672D01*
X838160Y32672D02*
X838160Y18448D01*
X863560Y18448D02*
X863560Y32672D01*
X888960Y32672D02*
X888960Y18448D01*
X914360Y18448D02*
X914360Y32672D01*
D18*
X146264Y67900D03*
X146264Y89900D03*
D19*
X42632Y318364D03*
X42632Y279364D03*
D20*
X186792Y82456D03*
D21*
X163292Y82456D03*
D22*
X185776Y59088D03*
D23*
X166776Y59088D03*
D24*
X134580Y463710D03*
D25*
X160742Y463710D03*
X186904Y463710D03*
X213066Y463710D03*
X239228Y463710D03*
D24*
X302220Y462440D03*
D25*
X328382Y462440D03*
X354544Y462440D03*
X380706Y462440D03*
X406868Y462440D03*
D26*
X701000Y466280D03*
X701000Y438280D03*
D27*
X344950Y275750D03*
X344950Y263050D03*
X344950Y250350D03*
X344950Y237650D03*
X399190Y237650D03*
X399190Y250350D03*
X399190Y263050D03*
X399190Y275750D03*
D28*
X796250Y278290D03*
D29*
X819150Y278290D03*
X842050Y278290D03*
D30*
X654010Y273210D03*
D31*
X676910Y273210D03*
X699810Y273210D03*
D32*
X821400Y306230D03*
X849840Y306230D03*
X430740Y350680D03*
X402300Y350680D03*
X321020Y349410D03*
X349460Y349410D03*
X707600Y307500D03*
X679160Y307500D03*
D33*
X390993Y311310D03*
X431887Y311310D03*
X312253Y311310D03*
X353147Y311310D03*
D27*
X311930Y212250D03*
X311930Y199550D03*
X311930Y186850D03*
X311930Y174150D03*
X366170Y174150D03*
X366170Y186850D03*
X366170Y199550D03*
X366170Y212250D03*
D13*
X421600Y202340D03*
X421600Y173900D03*
D34*
X898550Y163980D02*
X898550Y150900D01*
X914010Y184940D02*
X927090Y184940D01*
X919090Y129940D02*
X906010Y129940D01*
D35*
X980550Y157440D03*
X925550Y157440D03*
D27*
X501360Y273800D03*
X501360Y261100D03*
X501360Y248400D03*
X501360Y235700D03*
X555600Y235700D03*
X555600Y248400D03*
X555600Y261100D03*
X555600Y273800D03*
D28*
X796450Y344920D03*
D29*
X819350Y344920D03*
X842250Y344920D03*
D30*
X652940Y339840D03*
D31*
X675840Y339840D03*
X698740Y339840D03*
D32*
X822470Y372950D03*
X850910Y372950D03*
X589290Y348820D03*
X560850Y348820D03*
X479570Y347550D03*
X508010Y347550D03*
X706530Y379210D03*
X678090Y379210D03*
D33*
X548673Y310630D03*
X589567Y310630D03*
X468663Y310630D03*
X509557Y310630D03*
D27*
X467070Y206490D03*
X467070Y193790D03*
X467070Y181090D03*
X467070Y168390D03*
X521310Y168390D03*
X521310Y181090D03*
X521310Y193790D03*
X521310Y206490D03*
D13*
X574680Y198730D03*
X574680Y170290D03*
D34*
X899820Y313460D02*
X899820Y326540D01*
X915280Y347500D02*
X928360Y347500D01*
X920360Y292500D02*
X907280Y292500D01*
D35*
X981820Y320000D03*
X926820Y320000D03*
D36*
X659290Y180090D03*
X684690Y180090D03*
X760890Y180090D03*
X786290Y180090D03*
X811690Y180090D03*
X837090Y180090D03*
X659290Y82300D03*
X684690Y82300D03*
X760890Y82300D03*
X786290Y82300D03*
X811690Y82300D03*
X837090Y82300D03*
D37*
X291140Y114290D03*
X291140Y107790D03*
X291140Y101290D03*
X291140Y94790D03*
X334980Y94790D03*
X334980Y101290D03*
X334980Y107790D03*
X334980Y114290D03*
D38*
X422160Y114920D03*
D39*
X447560Y114920D03*
X498360Y114920D03*
X523760Y114920D03*
X549160Y114920D03*
D40*
X76460Y135896D03*
X85960Y135896D03*
X95460Y135896D03*
X95460Y162185D03*
X85960Y162185D03*
X76460Y162185D03*
D41*
X51412Y149700D03*
X51412Y168700D03*
X32108Y159200D03*
D13*
X217380Y116760D03*
X217380Y145200D03*
D42*
X217920Y60580D03*
X217920Y79580D03*
D43*
X294060Y62780D03*
X313060Y62780D03*
D13*
X266060Y92260D03*
X266060Y63820D03*
D44*
X118880Y210080D03*
X90880Y210080D03*
D45*
X39100Y235000D03*
X39100Y228500D03*
X39100Y222000D03*
X39100Y215500D03*
X39100Y209000D03*
D46*
X35500Y197475D03*
X35500Y246525D03*
D47*
X12500Y230375D03*
X12500Y213625D03*
D48*
X12500Y251125D03*
X12500Y192875D03*
D13*
X195540Y379640D03*
X195540Y408080D03*
X165060Y379640D03*
X165060Y408080D03*
D49*
X57190Y487840D02*
X57192Y487981D01*
X57198Y488122D01*
X57208Y488262D01*
X57222Y488402D01*
X57240Y488542D01*
X57261Y488681D01*
X57287Y488820D01*
X57316Y488958D01*
X57350Y489094D01*
X57387Y489230D01*
X57428Y489365D01*
X57473Y489499D01*
X57522Y489631D01*
X57574Y489762D01*
X57630Y489891D01*
X57690Y490018D01*
X57753Y490144D01*
X57819Y490268D01*
X57890Y490391D01*
X57963Y490511D01*
X58040Y490629D01*
X58120Y490745D01*
X58204Y490858D01*
X58290Y490969D01*
X58380Y491078D01*
X58473Y491184D01*
X58568Y491287D01*
X58667Y491388D01*
X58768Y491486D01*
X58872Y491581D01*
X58979Y491673D01*
X59088Y491762D01*
X59200Y491847D01*
X59314Y491930D01*
X59430Y492010D01*
X59549Y492086D01*
X59670Y492158D01*
X59792Y492228D01*
X59917Y492293D01*
X60043Y492356D01*
X60171Y492414D01*
X60301Y492469D01*
X60432Y492521D01*
X60565Y492568D01*
X60699Y492612D01*
X60834Y492653D01*
X60970Y492689D01*
X61107Y492721D01*
X61245Y492750D01*
X61383Y492775D01*
X61523Y492795D01*
X61663Y492812D01*
X61803Y492825D01*
X61944Y492834D01*
X62084Y492839D01*
X62225Y492840D01*
X62366Y492837D01*
X62507Y492830D01*
X62647Y492819D01*
X62787Y492804D01*
X62927Y492785D01*
X63066Y492763D01*
X63204Y492736D01*
X63342Y492706D01*
X63478Y492671D01*
X63614Y492633D01*
X63748Y492591D01*
X63882Y492545D01*
X64014Y492496D01*
X64144Y492442D01*
X64273Y492385D01*
X64400Y492325D01*
X64526Y492261D01*
X64649Y492193D01*
X64771Y492122D01*
X64891Y492048D01*
X65008Y491970D01*
X65123Y491889D01*
X65236Y491805D01*
X65347Y491718D01*
X65455Y491627D01*
X65560Y491534D01*
X65663Y491437D01*
X65763Y491338D01*
X65860Y491236D01*
X65954Y491131D01*
X66045Y491024D01*
X66133Y490914D01*
X66218Y490802D01*
X66300Y490687D01*
X66379Y490570D01*
X66454Y490451D01*
X66526Y490330D01*
X66594Y490207D01*
X66659Y490082D01*
X66721Y489955D01*
X66778Y489826D01*
X66833Y489696D01*
X66883Y489565D01*
X66930Y489432D01*
X66973Y489298D01*
X67012Y489162D01*
X67047Y489026D01*
X67079Y488889D01*
X67106Y488751D01*
X67130Y488612D01*
X67150Y488472D01*
X67166Y488332D01*
X67178Y488192D01*
X67186Y488051D01*
X67190Y487910D01*
X67190Y487770D01*
X67186Y487629D01*
X67178Y487488D01*
X67166Y487348D01*
X67150Y487208D01*
X67130Y487068D01*
X67106Y486929D01*
X67079Y486791D01*
X67047Y486654D01*
X67012Y486518D01*
X66973Y486382D01*
X66930Y486248D01*
X66883Y486115D01*
X66833Y485984D01*
X66778Y485854D01*
X66721Y485725D01*
X66659Y485598D01*
X66594Y485473D01*
X66526Y485350D01*
X66454Y485229D01*
X66379Y485110D01*
X66300Y484993D01*
X66218Y484878D01*
X66133Y484766D01*
X66045Y484656D01*
X65954Y484549D01*
X65860Y484444D01*
X65763Y484342D01*
X65663Y484243D01*
X65560Y484146D01*
X65455Y484053D01*
X65347Y483962D01*
X65236Y483875D01*
X65123Y483791D01*
X65008Y483710D01*
X64891Y483632D01*
X64771Y483558D01*
X64649Y483487D01*
X64526Y483419D01*
X64400Y483355D01*
X64273Y483295D01*
X64144Y483238D01*
X64014Y483184D01*
X63882Y483135D01*
X63748Y483089D01*
X63614Y483047D01*
X63478Y483009D01*
X63342Y482974D01*
X63204Y482944D01*
X63066Y482917D01*
X62927Y482895D01*
X62787Y482876D01*
X62647Y482861D01*
X62507Y482850D01*
X62366Y482843D01*
X62225Y482840D01*
X62084Y482841D01*
X61944Y482846D01*
X61803Y482855D01*
X61663Y482868D01*
X61523Y482885D01*
X61383Y482905D01*
X61245Y482930D01*
X61107Y482959D01*
X60970Y482991D01*
X60834Y483027D01*
X60699Y483068D01*
X60565Y483112D01*
X60432Y483159D01*
X60301Y483211D01*
X60171Y483266D01*
X60043Y483324D01*
X59917Y483387D01*
X59792Y483452D01*
X59670Y483522D01*
X59549Y483594D01*
X59430Y483670D01*
X59314Y483750D01*
X59200Y483833D01*
X59088Y483918D01*
X58979Y484007D01*
X58872Y484099D01*
X58768Y484194D01*
X58667Y484292D01*
X58568Y484393D01*
X58473Y484496D01*
X58380Y484602D01*
X58290Y484711D01*
X58204Y484822D01*
X58120Y484935D01*
X58040Y485051D01*
X57963Y485169D01*
X57890Y485289D01*
X57819Y485412D01*
X57753Y485536D01*
X57690Y485662D01*
X57630Y485789D01*
X57574Y485918D01*
X57522Y486049D01*
X57473Y486181D01*
X57428Y486315D01*
X57387Y486450D01*
X57350Y486586D01*
X57316Y486722D01*
X57287Y486860D01*
X57261Y486999D01*
X57240Y487138D01*
X57222Y487278D01*
X57208Y487418D01*
X57198Y487558D01*
X57192Y487699D01*
X57190Y487840D01*
D50*
X62190Y487840D03*
D49*
X21630Y24290D02*
X21632Y24431D01*
X21638Y24572D01*
X21648Y24712D01*
X21662Y24852D01*
X21680Y24992D01*
X21701Y25131D01*
X21727Y25270D01*
X21756Y25408D01*
X21790Y25544D01*
X21827Y25680D01*
X21868Y25815D01*
X21913Y25949D01*
X21962Y26081D01*
X22014Y26212D01*
X22070Y26341D01*
X22130Y26468D01*
X22193Y26594D01*
X22259Y26718D01*
X22330Y26841D01*
X22403Y26961D01*
X22480Y27079D01*
X22560Y27195D01*
X22644Y27308D01*
X22730Y27419D01*
X22820Y27528D01*
X22913Y27634D01*
X23008Y27737D01*
X23107Y27838D01*
X23208Y27936D01*
X23312Y28031D01*
X23419Y28123D01*
X23528Y28212D01*
X23640Y28297D01*
X23754Y28380D01*
X23870Y28460D01*
X23989Y28536D01*
X24110Y28608D01*
X24232Y28678D01*
X24357Y28743D01*
X24483Y28806D01*
X24611Y28864D01*
X24741Y28919D01*
X24872Y28971D01*
X25005Y29018D01*
X25139Y29062D01*
X25274Y29103D01*
X25410Y29139D01*
X25547Y29171D01*
X25685Y29200D01*
X25823Y29225D01*
X25963Y29245D01*
X26103Y29262D01*
X26243Y29275D01*
X26384Y29284D01*
X26524Y29289D01*
X26665Y29290D01*
X26806Y29287D01*
X26947Y29280D01*
X27087Y29269D01*
X27227Y29254D01*
X27367Y29235D01*
X27506Y29213D01*
X27644Y29186D01*
X27782Y29156D01*
X27918Y29121D01*
X28054Y29083D01*
X28188Y29041D01*
X28322Y28995D01*
X28454Y28946D01*
X28584Y28892D01*
X28713Y28835D01*
X28840Y28775D01*
X28966Y28711D01*
X29089Y28643D01*
X29211Y28572D01*
X29331Y28498D01*
X29448Y28420D01*
X29563Y28339D01*
X29676Y28255D01*
X29787Y28168D01*
X29895Y28077D01*
X30000Y27984D01*
X30103Y27887D01*
X30203Y27788D01*
X30300Y27686D01*
X30394Y27581D01*
X30485Y27474D01*
X30573Y27364D01*
X30658Y27252D01*
X30740Y27137D01*
X30819Y27020D01*
X30894Y26901D01*
X30966Y26780D01*
X31034Y26657D01*
X31099Y26532D01*
X31161Y26405D01*
X31218Y26276D01*
X31273Y26146D01*
X31323Y26015D01*
X31370Y25882D01*
X31413Y25748D01*
X31452Y25612D01*
X31487Y25476D01*
X31519Y25339D01*
X31546Y25201D01*
X31570Y25062D01*
X31590Y24922D01*
X31606Y24782D01*
X31618Y24642D01*
X31626Y24501D01*
X31630Y24360D01*
X31630Y24220D01*
X31626Y24079D01*
X31618Y23938D01*
X31606Y23798D01*
X31590Y23658D01*
X31570Y23518D01*
X31546Y23379D01*
X31519Y23241D01*
X31487Y23104D01*
X31452Y22968D01*
X31413Y22832D01*
X31370Y22698D01*
X31323Y22565D01*
X31273Y22434D01*
X31218Y22304D01*
X31161Y22175D01*
X31099Y22048D01*
X31034Y21923D01*
X30966Y21800D01*
X30894Y21679D01*
X30819Y21560D01*
X30740Y21443D01*
X30658Y21328D01*
X30573Y21216D01*
X30485Y21106D01*
X30394Y20999D01*
X30300Y20894D01*
X30203Y20792D01*
X30103Y20693D01*
X30000Y20596D01*
X29895Y20503D01*
X29787Y20412D01*
X29676Y20325D01*
X29563Y20241D01*
X29448Y20160D01*
X29331Y20082D01*
X29211Y20008D01*
X29089Y19937D01*
X28966Y19869D01*
X28840Y19805D01*
X28713Y19745D01*
X28584Y19688D01*
X28454Y19634D01*
X28322Y19585D01*
X28188Y19539D01*
X28054Y19497D01*
X27918Y19459D01*
X27782Y19424D01*
X27644Y19394D01*
X27506Y19367D01*
X27367Y19345D01*
X27227Y19326D01*
X27087Y19311D01*
X26947Y19300D01*
X26806Y19293D01*
X26665Y19290D01*
X26524Y19291D01*
X26384Y19296D01*
X26243Y19305D01*
X26103Y19318D01*
X25963Y19335D01*
X25823Y19355D01*
X25685Y19380D01*
X25547Y19409D01*
X25410Y19441D01*
X25274Y19477D01*
X25139Y19518D01*
X25005Y19562D01*
X24872Y19609D01*
X24741Y19661D01*
X24611Y19716D01*
X24483Y19774D01*
X24357Y19837D01*
X24232Y19902D01*
X24110Y19972D01*
X23989Y20044D01*
X23870Y20120D01*
X23754Y20200D01*
X23640Y20283D01*
X23528Y20368D01*
X23419Y20457D01*
X23312Y20549D01*
X23208Y20644D01*
X23107Y20742D01*
X23008Y20843D01*
X22913Y20946D01*
X22820Y21052D01*
X22730Y21161D01*
X22644Y21272D01*
X22560Y21385D01*
X22480Y21501D01*
X22403Y21619D01*
X22330Y21739D01*
X22259Y21862D01*
X22193Y21986D01*
X22130Y22112D01*
X22070Y22239D01*
X22014Y22368D01*
X21962Y22499D01*
X21913Y22631D01*
X21868Y22765D01*
X21827Y22900D01*
X21790Y23036D01*
X21756Y23172D01*
X21727Y23310D01*
X21701Y23449D01*
X21680Y23588D01*
X21662Y23728D01*
X21648Y23868D01*
X21638Y24008D01*
X21632Y24149D01*
X21630Y24290D01*
D50*
X26630Y24290D03*
D49*
X944158Y64422D02*
X944160Y64563D01*
X944166Y64704D01*
X944176Y64844D01*
X944190Y64984D01*
X944208Y65124D01*
X944229Y65263D01*
X944255Y65402D01*
X944284Y65540D01*
X944318Y65676D01*
X944355Y65812D01*
X944396Y65947D01*
X944441Y66081D01*
X944490Y66213D01*
X944542Y66344D01*
X944598Y66473D01*
X944658Y66600D01*
X944721Y66726D01*
X944787Y66850D01*
X944858Y66973D01*
X944931Y67093D01*
X945008Y67211D01*
X945088Y67327D01*
X945172Y67440D01*
X945258Y67551D01*
X945348Y67660D01*
X945441Y67766D01*
X945536Y67869D01*
X945635Y67970D01*
X945736Y68068D01*
X945840Y68163D01*
X945947Y68255D01*
X946056Y68344D01*
X946168Y68429D01*
X946282Y68512D01*
X946398Y68592D01*
X946517Y68668D01*
X946638Y68740D01*
X946760Y68810D01*
X946885Y68875D01*
X947011Y68938D01*
X947139Y68996D01*
X947269Y69051D01*
X947400Y69103D01*
X947533Y69150D01*
X947667Y69194D01*
X947802Y69235D01*
X947938Y69271D01*
X948075Y69303D01*
X948213Y69332D01*
X948351Y69357D01*
X948491Y69377D01*
X948631Y69394D01*
X948771Y69407D01*
X948912Y69416D01*
X949052Y69421D01*
X949193Y69422D01*
X949334Y69419D01*
X949475Y69412D01*
X949615Y69401D01*
X949755Y69386D01*
X949895Y69367D01*
X950034Y69345D01*
X950172Y69318D01*
X950310Y69288D01*
X950446Y69253D01*
X950582Y69215D01*
X950716Y69173D01*
X950850Y69127D01*
X950982Y69078D01*
X951112Y69024D01*
X951241Y68967D01*
X951368Y68907D01*
X951494Y68843D01*
X951617Y68775D01*
X951739Y68704D01*
X951859Y68630D01*
X951976Y68552D01*
X952091Y68471D01*
X952204Y68387D01*
X952315Y68300D01*
X952423Y68209D01*
X952528Y68116D01*
X952631Y68019D01*
X952731Y67920D01*
X952828Y67818D01*
X952922Y67713D01*
X953013Y67606D01*
X953101Y67496D01*
X953186Y67384D01*
X953268Y67269D01*
X953347Y67152D01*
X953422Y67033D01*
X953494Y66912D01*
X953562Y66789D01*
X953627Y66664D01*
X953689Y66537D01*
X953746Y66408D01*
X953801Y66278D01*
X953851Y66147D01*
X953898Y66014D01*
X953941Y65880D01*
X953980Y65744D01*
X954015Y65608D01*
X954047Y65471D01*
X954074Y65333D01*
X954098Y65194D01*
X954118Y65054D01*
X954134Y64914D01*
X954146Y64774D01*
X954154Y64633D01*
X954158Y64492D01*
X954158Y64352D01*
X954154Y64211D01*
X954146Y64070D01*
X954134Y63930D01*
X954118Y63790D01*
X954098Y63650D01*
X954074Y63511D01*
X954047Y63373D01*
X954015Y63236D01*
X953980Y63100D01*
X953941Y62964D01*
X953898Y62830D01*
X953851Y62697D01*
X953801Y62566D01*
X953746Y62436D01*
X953689Y62307D01*
X953627Y62180D01*
X953562Y62055D01*
X953494Y61932D01*
X953422Y61811D01*
X953347Y61692D01*
X953268Y61575D01*
X953186Y61460D01*
X953101Y61348D01*
X953013Y61238D01*
X952922Y61131D01*
X952828Y61026D01*
X952731Y60924D01*
X952631Y60825D01*
X952528Y60728D01*
X952423Y60635D01*
X952315Y60544D01*
X952204Y60457D01*
X952091Y60373D01*
X951976Y60292D01*
X951859Y60214D01*
X951739Y60140D01*
X951617Y60069D01*
X951494Y60001D01*
X951368Y59937D01*
X951241Y59877D01*
X951112Y59820D01*
X950982Y59766D01*
X950850Y59717D01*
X950716Y59671D01*
X950582Y59629D01*
X950446Y59591D01*
X950310Y59556D01*
X950172Y59526D01*
X950034Y59499D01*
X949895Y59477D01*
X949755Y59458D01*
X949615Y59443D01*
X949475Y59432D01*
X949334Y59425D01*
X949193Y59422D01*
X949052Y59423D01*
X948912Y59428D01*
X948771Y59437D01*
X948631Y59450D01*
X948491Y59467D01*
X948351Y59487D01*
X948213Y59512D01*
X948075Y59541D01*
X947938Y59573D01*
X947802Y59609D01*
X947667Y59650D01*
X947533Y59694D01*
X947400Y59741D01*
X947269Y59793D01*
X947139Y59848D01*
X947011Y59906D01*
X946885Y59969D01*
X946760Y60034D01*
X946638Y60104D01*
X946517Y60176D01*
X946398Y60252D01*
X946282Y60332D01*
X946168Y60415D01*
X946056Y60500D01*
X945947Y60589D01*
X945840Y60681D01*
X945736Y60776D01*
X945635Y60874D01*
X945536Y60975D01*
X945441Y61078D01*
X945348Y61184D01*
X945258Y61293D01*
X945172Y61404D01*
X945088Y61517D01*
X945008Y61633D01*
X944931Y61751D01*
X944858Y61871D01*
X944787Y61994D01*
X944721Y62118D01*
X944658Y62244D01*
X944598Y62371D01*
X944542Y62500D01*
X944490Y62631D01*
X944441Y62763D01*
X944396Y62897D01*
X944355Y63032D01*
X944318Y63168D01*
X944284Y63304D01*
X944255Y63442D01*
X944229Y63581D01*
X944208Y63720D01*
X944190Y63860D01*
X944176Y64000D01*
X944166Y64140D01*
X944160Y64281D01*
X944158Y64422D01*
D50*
X949158Y64422D03*
D51*
X157440Y201680D03*
X157440Y245680D03*
D52*
X196400Y23020D03*
X240400Y23020D03*
D43*
X799400Y307500D03*
X780400Y307500D03*
X657160Y307500D03*
X638160Y307500D03*
X799400Y373540D03*
X780400Y373540D03*
X654620Y378620D03*
X635620Y378620D03*
D53*
X431600Y383700D03*
X411600Y383700D03*
X589080Y378620D03*
X569080Y378620D03*
D54*
X604480Y475140D03*
X617180Y475140D03*
X629880Y475140D03*
X604480Y437040D03*
X617180Y437040D03*
X629880Y437040D03*
D55*
X32980Y349400D03*
X32980Y396400D03*
X32980Y443400D03*
D32*
X971760Y503080D03*
X943320Y503080D03*
D56*
X821080Y466860D03*
X821080Y447860D03*
X845080Y457360D03*
D57*
X949900Y382720D03*
X899140Y465960D03*
X899140Y382720D03*
X949900Y465960D03*
D58*
X497800Y398140D03*
X497800Y425140D03*
X520660Y425140D03*
X520660Y398140D03*
D59*
X110196Y85758D03*
D60*
X50196Y85758D03*
D59*
X80196Y38758D03*
D61*
X556474Y478950D03*
X586954Y478950D03*
X559014Y423832D03*
X589494Y423832D03*
D12*
X301940Y414180D03*
X266940Y414180D03*
X282180Y393860D03*
X317180Y393860D03*
D62*
X249760Y404020D03*
X232760Y404020D03*
X324200Y414180D03*
X341200Y414180D03*
D63*
X312380Y266860D03*
X467320Y261780D03*
D64*
X416520Y279560D03*
X274280Y223680D03*
X540980Y216060D03*
X441920Y236380D03*
X396200Y175420D03*
X548600Y167800D03*
X759420Y279560D03*
X614640Y282100D03*
X193000Y195740D03*
X226020Y221140D03*
X614640Y99220D03*
X208240Y221140D03*
X614640Y122080D03*
X614640Y78900D03*
D65*
X924254Y85334D03*
X974254Y85334D03*
X924000Y243840D03*
X974000Y243840D03*
D66*
X55840Y449740D03*
X657820Y505620D03*
X360640Y101760D03*
X104100Y228760D03*
X159980Y172880D03*
X469860Y284640D03*
X218400Y203360D03*
X955000Y437040D03*
X368260Y236380D03*
X728940Y274480D03*
X652740Y424340D03*
X264120Y142400D03*
X731480Y320200D03*
X749260Y442120D03*
X234422Y433718D03*
X739588Y419748D03*
X751800Y480220D03*
X499040Y207170D03*
X314920Y147480D03*
X454620Y345600D03*
X193000Y221140D03*
X886420Y61120D03*
X736306Y337726D03*
X899120Y365920D03*
X198080Y263050D03*
X196810Y250350D03*
X449540Y304960D03*
X800060Y457360D03*
X764500Y467520D03*
X314920Y294800D03*
X429220Y439580D03*
X596860Y188120D03*
D67*
X218400Y43340D03*
D66*
X302220Y233840D03*
X165060Y343060D03*
X320000Y233840D03*
X190460Y340520D03*
X269200Y365920D03*
X106640Y505620D03*
X66508Y277020D03*
X105624Y261272D03*
X125944Y262288D03*
X275550Y265590D03*
X190460Y299626D03*
X132040Y419260D03*
X132040Y398940D03*
D67*
X980400Y360840D03*
D66*
X627340Y350680D03*
X144740Y343060D03*
X538440Y467266D03*
X467320Y439580D03*
X624916Y266744D03*
X525740Y269400D03*
X368260Y256700D03*
X474940Y396400D03*
X868640Y386240D03*
X650200Y475140D03*
X543404Y340636D03*
X366512Y368206D03*
X673060Y424340D03*
X495260Y464980D03*
X515580Y464980D03*
X535900Y393860D03*
X652740Y444660D03*
X575270Y438310D03*
X424100Y410624D03*
X634960Y419260D03*
X497800Y368460D03*
X434300Y271940D03*
X375880Y330360D03*
X525740Y348140D03*
X528280Y294800D03*
X421600Y256700D03*
X388580Y210980D03*
X276820Y188120D03*
X825460Y216060D03*
D67*
X878800Y452280D03*
D66*
X612100Y381160D03*
X551140Y200820D03*
X579080Y266860D03*
X520660Y231300D03*
X888198Y244254D03*
X246340Y89060D03*
X53300Y135896D03*
D67*
X220080Y181360D03*
D66*
X15200Y119540D03*
X177760Y40800D03*
X231100Y356776D03*
X739100Y358300D03*
X721320Y419260D03*
X761960Y416720D03*
X787360Y419260D03*
X231100Y337980D03*
X447000Y434500D03*
X408900Y439580D03*
X263104Y386240D03*
X982940Y205900D03*
X716240Y221140D03*
X975320Y297340D03*
X675600Y218600D03*
X800060Y477680D03*
X449540Y409354D03*
X543520Y411640D03*
M02*
